G04*
G04 #@! TF.GenerationSoftware,Altium Limited,Altium Designer,22.10.1 (41)*
G04*
G04 Layer_Color=7044829*
%FSLAX25Y25*%
%MOIN*%
G70*
G04*
G04 #@! TF.SameCoordinates,0245A464-56C0-4E7C-B2BA-3340792428E8*
G04*
G04*
G04 #@! TF.FilePolarity,Positive*
G04*
G01*
G75*
%ADD10C,0.00394*%
D10*
X127165Y77559D02*
Y79134D01*
X126378Y78347D02*
X127953D01*
X121711Y75487D02*
X132677D01*
X121711D02*
Y81179D01*
X132677D01*
Y75487D02*
Y81179D01*
X132475D02*
X132677D01*
X40551Y77165D02*
Y78740D01*
X39764Y77953D02*
X41339D01*
X35097Y75093D02*
X46063D01*
X35097D02*
Y80785D01*
X46063D01*
Y75093D02*
Y80785D01*
X45861D02*
X46063D01*
X40551Y39370D02*
Y40945D01*
X39764Y40157D02*
X41339D01*
X35039Y43017D02*
X46006D01*
Y37325D02*
Y43017D01*
X35039Y37325D02*
X46006D01*
X35039D02*
Y43017D01*
Y37325D02*
X35241D01*
X129528Y87402D02*
X131102D01*
X130315Y86614D02*
Y88189D01*
X127455Y81890D02*
Y92856D01*
X133147D01*
Y81890D02*
Y92856D01*
X127455Y81890D02*
X133147D01*
Y82092D01*
X94095Y55905D02*
Y57480D01*
X93307Y56693D02*
X94882D01*
X88583Y59553D02*
X99549D01*
Y53861D02*
Y59553D01*
X88583Y53861D02*
X99549D01*
X88583D02*
Y59553D01*
Y53861D02*
X88785D01*
X40551Y85433D02*
Y87008D01*
X39764Y86221D02*
X41339D01*
X35097Y83361D02*
X46063D01*
X35097D02*
Y89053D01*
X46063D01*
Y83361D02*
Y89053D01*
X45861D02*
X46063D01*
X40551Y31496D02*
Y33071D01*
X39764Y32283D02*
X41339D01*
X35039Y35143D02*
X46006D01*
Y29451D02*
Y35143D01*
X35039Y29451D02*
X46006D01*
X35039D02*
Y35143D01*
Y29451D02*
X35241D01*
M02*
