G04*
G04 #@! TF.GenerationSoftware,Altium Limited,Altium Designer,22.10.1 (41)*
G04*
G04 Layer_Color=16711935*
%FSLAX25Y25*%
%MOIN*%
G70*
G04*
G04 #@! TF.SameCoordinates,0245A464-56C0-4E7C-B2BA-3340792428E8*
G04*
G04*
G04 #@! TF.FilePolarity,Negative*
G04*
G01*
G75*
%ADD38R,0.03150X0.05512*%
%ADD48R,0.06024X0.04213*%
%ADD49R,0.05512X0.03150*%
%ADD51C,0.06693*%
%ADD52R,0.06693X0.06693*%
%ADD53C,0.16142*%
%ADD54R,0.08268X0.08268*%
%ADD55C,0.08268*%
%ADD56R,0.08268X0.08268*%
%ADD57R,0.06693X0.06693*%
%ADD58R,0.04331X0.04331*%
%ADD59C,0.04331*%
%ADD60C,0.02953*%
G04:AMPARAMS|DCode=101|XSize=57.48mil|YSize=42.52mil|CornerRadius=5.7mil|HoleSize=0mil|Usage=FLASHONLY|Rotation=0.000|XOffset=0mil|YOffset=0mil|HoleType=Round|Shape=RoundedRectangle|*
%AMROUNDEDRECTD101*
21,1,0.05748,0.03112,0,0,0.0*
21,1,0.04608,0.04252,0,0,0.0*
1,1,0.01140,0.02304,-0.01556*
1,1,0.01140,-0.02304,-0.01556*
1,1,0.01140,-0.02304,0.01556*
1,1,0.01140,0.02304,0.01556*
%
%ADD101ROUNDEDRECTD101*%
G04:AMPARAMS|DCode=102|XSize=57.48mil|YSize=133.46mil|CornerRadius=6.82mil|HoleSize=0mil|Usage=FLASHONLY|Rotation=0.000|XOffset=0mil|YOffset=0mil|HoleType=Round|Shape=RoundedRectangle|*
%AMROUNDEDRECTD102*
21,1,0.05748,0.11982,0,0,0.0*
21,1,0.04384,0.13346,0,0,0.0*
1,1,0.01364,0.02192,-0.05991*
1,1,0.01364,-0.02192,-0.05991*
1,1,0.01364,-0.02192,0.05991*
1,1,0.01364,0.02192,0.05991*
%
%ADD102ROUNDEDRECTD102*%
%ADD103R,0.06102X0.04528*%
G36*
X36893Y138597D02*
X36853D01*
Y138637D01*
X36893D01*
Y138597D01*
D02*
G37*
G36*
X31023D02*
X30983D01*
Y138397D01*
X30943D01*
Y138238D01*
X30903D01*
Y138078D01*
X30863D01*
Y137918D01*
X30823D01*
Y137758D01*
X30783D01*
Y137638D01*
X30743D01*
Y137479D01*
X30703D01*
Y137359D01*
X30663D01*
Y137239D01*
X30623D01*
Y137079D01*
X30583D01*
Y136960D01*
X30543D01*
Y136840D01*
X30503D01*
Y136720D01*
X30463D01*
Y136600D01*
X30424D01*
Y136480D01*
X30384D01*
Y136400D01*
X30344D01*
Y136281D01*
X30304D01*
Y136201D01*
X30264D01*
Y136081D01*
X30224D01*
Y136001D01*
X30184D01*
Y135921D01*
X30144D01*
Y135841D01*
X30104D01*
Y135761D01*
X30064D01*
Y135682D01*
X30024D01*
Y135642D01*
X29984D01*
Y135562D01*
X29944D01*
Y135482D01*
X29904D01*
Y135402D01*
X29864D01*
Y135362D01*
X29825D01*
Y135282D01*
X29785D01*
Y135202D01*
X29745D01*
Y135162D01*
X29705D01*
Y135083D01*
X29665D01*
Y135043D01*
X29625D01*
Y134963D01*
X29585D01*
Y134883D01*
X29545D01*
Y134843D01*
X29505D01*
Y134763D01*
X29465D01*
Y134723D01*
X29425D01*
Y134683D01*
X29385D01*
Y134603D01*
X29345D01*
Y134563D01*
X29305D01*
Y134484D01*
X29265D01*
Y134444D01*
X29225D01*
Y134404D01*
X29186D01*
Y134324D01*
X29146D01*
Y134284D01*
X29106D01*
Y134204D01*
X29066D01*
Y134164D01*
X29026D01*
Y134124D01*
X28986D01*
Y134044D01*
X28946D01*
Y134004D01*
X28906D01*
Y133964D01*
X28866D01*
Y133924D01*
X28826D01*
Y133845D01*
X28786D01*
Y133805D01*
X28746D01*
Y133765D01*
X28706D01*
Y133725D01*
X28666D01*
Y133645D01*
X28626D01*
Y133605D01*
X28587D01*
Y133565D01*
X28547D01*
Y133525D01*
X28507D01*
Y133485D01*
X28467D01*
Y133445D01*
X28427D01*
Y133365D01*
X28387D01*
Y133326D01*
X28347D01*
Y133285D01*
X28307D01*
Y133246D01*
X28267D01*
Y133206D01*
X28227D01*
Y133166D01*
X28187D01*
Y133126D01*
X28147D01*
Y133086D01*
X28107D01*
Y133046D01*
X28067D01*
Y133006D01*
X28027D01*
Y132966D01*
X27987D01*
Y132926D01*
X28067D01*
Y132966D01*
X28107D01*
Y133006D01*
X28187D01*
Y133046D01*
X28267D01*
Y133086D01*
X28307D01*
Y133126D01*
X28387D01*
Y133166D01*
X28467D01*
Y133206D01*
X28547D01*
Y133246D01*
X28626D01*
Y133285D01*
X28706D01*
Y133326D01*
X28786D01*
Y133365D01*
X28866D01*
Y133405D01*
X28946D01*
Y133445D01*
X29026D01*
Y133485D01*
X29146D01*
Y133525D01*
X29225D01*
Y133565D01*
X29345D01*
Y133605D01*
X29425D01*
Y133645D01*
X29545D01*
Y133685D01*
X29625D01*
Y133725D01*
X29705D01*
Y133765D01*
X29785D01*
Y133805D01*
X29864D01*
Y133845D01*
X29904D01*
Y133885D01*
X29984D01*
Y133924D01*
X30024D01*
Y133964D01*
X30064D01*
Y134004D01*
X30144D01*
Y134044D01*
X30184D01*
Y134084D01*
X30224D01*
Y134124D01*
X30264D01*
Y134164D01*
X30304D01*
Y134204D01*
X30344D01*
Y134244D01*
X30384D01*
Y134284D01*
X30424D01*
Y134324D01*
X30463D01*
Y134404D01*
X30503D01*
Y134444D01*
X30543D01*
Y134484D01*
X30583D01*
Y134563D01*
X30623D01*
Y134603D01*
X30663D01*
Y134683D01*
X30703D01*
Y134723D01*
X30743D01*
Y134803D01*
X30783D01*
Y134883D01*
X30823D01*
Y134923D01*
X30863D01*
Y135003D01*
X30903D01*
Y135083D01*
X30943D01*
Y135162D01*
X30983D01*
Y135242D01*
X31023D01*
Y135123D01*
X30983D01*
Y134963D01*
X30943D01*
Y134803D01*
X30903D01*
Y134683D01*
X30863D01*
Y134563D01*
X30823D01*
Y134484D01*
X30783D01*
Y134404D01*
X30743D01*
Y134324D01*
X30703D01*
Y134244D01*
X30663D01*
Y134164D01*
X30623D01*
Y134084D01*
X30583D01*
Y134004D01*
X30543D01*
Y133964D01*
X30503D01*
Y133885D01*
X30463D01*
Y133845D01*
X30424D01*
Y133765D01*
X30384D01*
Y133725D01*
X30344D01*
Y133685D01*
X30304D01*
Y133645D01*
X30264D01*
Y133565D01*
X30224D01*
Y133525D01*
X30184D01*
Y133485D01*
X30144D01*
Y133445D01*
X30104D01*
Y133405D01*
X30024D01*
Y133365D01*
X29984D01*
Y133326D01*
X29944D01*
Y133285D01*
X29904D01*
Y133246D01*
X29825D01*
Y133206D01*
X29785D01*
Y133166D01*
X29705D01*
Y133126D01*
X29665D01*
Y133086D01*
X29585D01*
Y133046D01*
X29545D01*
Y133006D01*
X29465D01*
Y132966D01*
X29385D01*
Y132926D01*
X29305D01*
Y132886D01*
X29265D01*
Y132846D01*
X29186D01*
Y132806D01*
X29106D01*
Y132766D01*
X29026D01*
Y132726D01*
X28906D01*
Y132686D01*
X28826D01*
Y132647D01*
X28746D01*
Y132607D01*
X28626D01*
Y132567D01*
X28547D01*
Y132527D01*
X28467D01*
Y132487D01*
X28347D01*
Y132447D01*
X28307D01*
Y132407D01*
X28227D01*
Y132287D01*
X28267D01*
Y132247D01*
X28587D01*
Y132287D01*
X28746D01*
Y132327D01*
X28866D01*
Y132367D01*
X28986D01*
Y132407D01*
X29066D01*
Y132447D01*
X29186D01*
Y132487D01*
X29265D01*
Y132527D01*
X29305D01*
Y132567D01*
X29385D01*
Y132607D01*
X29465D01*
Y132647D01*
X29505D01*
Y132686D01*
X29585D01*
Y132726D01*
X29625D01*
Y132766D01*
X29705D01*
Y132806D01*
X29745D01*
Y132846D01*
X29825D01*
Y132886D01*
X29904D01*
Y132926D01*
X29944D01*
Y132966D01*
X30024D01*
Y133006D01*
X30144D01*
Y133046D01*
X30224D01*
Y133086D01*
X30384D01*
Y133126D01*
X30543D01*
Y133166D01*
X30743D01*
Y133206D01*
X30783D01*
Y133166D01*
X30823D01*
Y133206D01*
X30983D01*
Y133166D01*
X30863D01*
Y133126D01*
X30783D01*
Y133086D01*
X30703D01*
Y133046D01*
X30623D01*
Y133006D01*
X30543D01*
Y132966D01*
X30503D01*
Y132926D01*
X30424D01*
Y132886D01*
X30384D01*
Y132846D01*
X30304D01*
Y132806D01*
X30224D01*
Y132766D01*
X30184D01*
Y132726D01*
X30144D01*
Y132686D01*
X30064D01*
Y132647D01*
X30024D01*
Y132607D01*
X29984D01*
Y132567D01*
X29904D01*
Y132527D01*
X29864D01*
Y132487D01*
X29825D01*
Y132447D01*
X29745D01*
Y132407D01*
X29705D01*
Y132367D01*
X29665D01*
Y132327D01*
X29625D01*
Y132287D01*
X29545D01*
Y132247D01*
X29505D01*
Y132207D01*
X29425D01*
Y132167D01*
X29345D01*
Y132127D01*
X29305D01*
Y132088D01*
X29225D01*
Y132048D01*
X29146D01*
Y132008D01*
X29026D01*
Y131968D01*
X28946D01*
Y131928D01*
X28866D01*
Y131888D01*
X28746D01*
Y131848D01*
X28587D01*
Y131808D01*
X28427D01*
Y131768D01*
X28267D01*
Y131728D01*
X28227D01*
Y131688D01*
X28347D01*
Y131648D01*
X28946D01*
Y131688D01*
X29146D01*
Y131728D01*
X29265D01*
Y131768D01*
X29425D01*
Y131808D01*
X29505D01*
Y131848D01*
X29625D01*
Y131888D01*
X29705D01*
Y131928D01*
X29825D01*
Y131968D01*
X29904D01*
Y132008D01*
X29984D01*
Y132048D01*
X30064D01*
Y132088D01*
X30144D01*
Y132127D01*
X30184D01*
Y132167D01*
X30264D01*
Y132207D01*
X30344D01*
Y132247D01*
X30384D01*
Y132287D01*
X30463D01*
Y132327D01*
X30543D01*
Y132287D01*
X30503D01*
Y132247D01*
X30463D01*
Y132207D01*
X30424D01*
Y132167D01*
X30384D01*
Y132127D01*
X30344D01*
Y132088D01*
X30304D01*
Y132048D01*
X30264D01*
Y132008D01*
X30224D01*
Y131968D01*
X30184D01*
Y131928D01*
X30104D01*
Y131888D01*
X30064D01*
Y131848D01*
X30024D01*
Y131808D01*
X29984D01*
Y131768D01*
X29904D01*
Y131728D01*
X29864D01*
Y131688D01*
X29785D01*
Y131648D01*
X29745D01*
Y131608D01*
X29665D01*
Y131568D01*
X29585D01*
Y131528D01*
X29505D01*
Y131488D01*
X29425D01*
Y131448D01*
X29345D01*
Y131409D01*
X29265D01*
Y131369D01*
X29106D01*
Y131329D01*
X28826D01*
Y131289D01*
X28507D01*
Y131249D01*
X28147D01*
Y131209D01*
X27868D01*
Y131169D01*
X27708D01*
Y131129D01*
X27588D01*
Y131089D01*
X27508D01*
Y131049D01*
X27428D01*
Y131009D01*
X27868D01*
Y130969D01*
X28107D01*
Y130929D01*
X28307D01*
Y130889D01*
X28826D01*
Y130929D01*
X28946D01*
Y130969D01*
X29066D01*
Y131009D01*
X29146D01*
Y131049D01*
X29225D01*
Y131089D01*
X29265D01*
Y131129D01*
X29345D01*
Y131089D01*
X29305D01*
Y131049D01*
X29265D01*
Y131009D01*
X29225D01*
Y130969D01*
X29186D01*
Y130929D01*
X29146D01*
Y130889D01*
X29066D01*
Y130850D01*
X29026D01*
Y130810D01*
X28946D01*
Y130770D01*
X28906D01*
Y130730D01*
X28826D01*
Y130690D01*
X28746D01*
Y130650D01*
X28626D01*
Y130610D01*
X28467D01*
Y130570D01*
X27708D01*
Y130610D01*
X27428D01*
Y130650D01*
X27109D01*
Y130690D01*
X26829D01*
Y130650D01*
X26670D01*
Y130610D01*
X26709D01*
Y130570D01*
X26789D01*
Y130530D01*
X26869D01*
Y130490D01*
X26989D01*
Y130450D01*
X27149D01*
Y130410D01*
X27428D01*
Y130370D01*
X27588D01*
Y130410D01*
X27788D01*
Y130370D01*
X27628D01*
Y130330D01*
X27349D01*
Y130290D01*
X26750D01*
Y130330D01*
X26510D01*
Y130370D01*
X25911D01*
Y130330D01*
X25711D01*
Y130290D01*
X25591D01*
Y130251D01*
X25471D01*
Y130210D01*
X25352D01*
Y130171D01*
X25272D01*
Y130131D01*
X25192D01*
Y130091D01*
X25112D01*
Y130051D01*
X25032D01*
Y130011D01*
X24952D01*
Y129971D01*
X24913D01*
Y129931D01*
X24833D01*
Y129891D01*
X24793D01*
Y129851D01*
X24753D01*
Y129811D01*
X24673D01*
Y129771D01*
X24633D01*
Y129731D01*
X24593D01*
Y129691D01*
X24553D01*
Y129651D01*
X24513D01*
Y129612D01*
X24473D01*
Y129532D01*
X24433D01*
Y129452D01*
X24393D01*
Y129252D01*
X24433D01*
Y129212D01*
X24473D01*
Y129172D01*
X24553D01*
Y129132D01*
X24673D01*
Y129092D01*
X24753D01*
Y129013D01*
X24473D01*
Y128973D01*
X24353D01*
Y128933D01*
X24313D01*
Y128893D01*
X24154D01*
Y128933D01*
X24114D01*
Y128973D01*
X24074D01*
Y129013D01*
X24034D01*
Y129092D01*
X23994D01*
Y129292D01*
X23954D01*
Y129532D01*
X23994D01*
Y129651D01*
X24034D01*
Y129731D01*
X24114D01*
Y129771D01*
X24154D01*
Y129811D01*
X24234D01*
Y129851D01*
X24353D01*
Y129891D01*
X24433D01*
Y129931D01*
X24553D01*
Y129971D01*
X24633D01*
Y130011D01*
X24673D01*
Y130051D01*
X24753D01*
Y130091D01*
X24793D01*
Y130131D01*
X24872D01*
Y130171D01*
X24913D01*
Y130210D01*
X24952D01*
Y130251D01*
X25032D01*
Y130290D01*
X25072D01*
Y130330D01*
X25112D01*
Y130370D01*
X25152D01*
Y130410D01*
X25192D01*
Y130450D01*
X25232D01*
Y130490D01*
X25272D01*
Y130530D01*
X25312D01*
Y130570D01*
X25352D01*
Y130650D01*
X25392D01*
Y130690D01*
X25432D01*
Y130730D01*
X25471D01*
Y130770D01*
X25512D01*
Y130850D01*
X25551D01*
Y130889D01*
X25591D01*
Y130929D01*
X25631D01*
Y131009D01*
X25671D01*
Y131049D01*
X25711D01*
Y131129D01*
X25751D01*
Y131169D01*
X25791D01*
Y131249D01*
X25831D01*
Y131329D01*
X25871D01*
Y131409D01*
X25911D01*
Y131728D01*
X25871D01*
Y131768D01*
X25911D01*
Y131808D01*
X25871D01*
Y131848D01*
X25911D01*
Y131968D01*
X25951D01*
Y132048D01*
X25991D01*
Y132088D01*
X26031D01*
Y132167D01*
X26071D01*
Y132207D01*
X26150D01*
Y132247D01*
X26190D01*
Y132287D01*
X26230D01*
Y132327D01*
X26270D01*
Y132367D01*
X26310D01*
Y132407D01*
X26350D01*
Y132487D01*
X26390D01*
Y132527D01*
X26430D01*
Y132567D01*
X26470D01*
Y132607D01*
X26510D01*
Y132647D01*
X26550D01*
Y132686D01*
X26590D01*
Y132726D01*
X26630D01*
Y132766D01*
X26670D01*
Y132806D01*
X26709D01*
Y132846D01*
X26750D01*
Y132926D01*
X26789D01*
Y132966D01*
X26829D01*
Y133006D01*
X26869D01*
Y133046D01*
X26909D01*
Y133086D01*
X26949D01*
Y133126D01*
X26989D01*
Y133206D01*
X27029D01*
Y133246D01*
X27069D01*
Y133285D01*
X27109D01*
Y133326D01*
X27149D01*
Y133405D01*
X27189D01*
Y133445D01*
X27229D01*
Y133485D01*
X27269D01*
Y133525D01*
X27308D01*
Y133605D01*
X27349D01*
Y133645D01*
X27388D01*
Y133685D01*
X27428D01*
Y133765D01*
X27468D01*
Y133805D01*
X27508D01*
Y133885D01*
X27548D01*
Y133924D01*
X27588D01*
Y134004D01*
X27628D01*
Y134044D01*
X27668D01*
Y134124D01*
X27708D01*
Y134204D01*
X27748D01*
Y134244D01*
X27788D01*
Y134324D01*
X27828D01*
Y134444D01*
X27868D01*
Y134523D01*
X27908D01*
Y134643D01*
X27948D01*
Y134763D01*
X27987D01*
Y134883D01*
X28027D01*
Y135043D01*
X28067D01*
Y135202D01*
X28107D01*
Y135362D01*
X28147D01*
Y135562D01*
X28187D01*
Y135801D01*
X28227D01*
Y135841D01*
X28347D01*
Y135801D01*
X28387D01*
Y134723D01*
X28427D01*
Y134763D01*
X28467D01*
Y134803D01*
X28507D01*
Y134843D01*
X28587D01*
Y134883D01*
X28626D01*
Y134923D01*
X28666D01*
Y134963D01*
X28706D01*
Y135003D01*
X28746D01*
Y135043D01*
X28786D01*
Y135083D01*
X28826D01*
Y135123D01*
X28866D01*
Y135162D01*
X28906D01*
Y135202D01*
X28946D01*
Y135242D01*
X28986D01*
Y135282D01*
X29026D01*
Y135322D01*
X29066D01*
Y135362D01*
X29106D01*
Y135442D01*
X29146D01*
Y135482D01*
X29186D01*
Y135522D01*
X29225D01*
Y135562D01*
X29265D01*
Y135602D01*
X29305D01*
Y135642D01*
X29345D01*
Y135682D01*
X29385D01*
Y135761D01*
X29425D01*
Y135801D01*
X29465D01*
Y135841D01*
X29505D01*
Y135921D01*
X29545D01*
Y135961D01*
X29585D01*
Y136001D01*
X29625D01*
Y136081D01*
X29665D01*
Y136121D01*
X29705D01*
Y136201D01*
X29745D01*
Y136241D01*
X29785D01*
Y136321D01*
X29825D01*
Y136400D01*
X29864D01*
Y136440D01*
X29904D01*
Y136520D01*
X29944D01*
Y136600D01*
X29984D01*
Y136720D01*
X30024D01*
Y136800D01*
X30064D01*
Y136880D01*
X30104D01*
Y136999D01*
X30144D01*
Y137079D01*
X30184D01*
Y137159D01*
X30224D01*
Y137279D01*
X30264D01*
Y137359D01*
X30304D01*
Y137479D01*
X30344D01*
Y137559D01*
X30384D01*
Y137678D01*
X30424D01*
Y137758D01*
X30463D01*
Y137878D01*
X30503D01*
Y137958D01*
X30543D01*
Y138038D01*
X30583D01*
Y138158D01*
X30623D01*
Y138238D01*
X30663D01*
Y138317D01*
X30703D01*
Y138437D01*
X30743D01*
Y138517D01*
X30783D01*
Y138597D01*
X30823D01*
Y138677D01*
X30863D01*
Y138757D01*
X30903D01*
Y138837D01*
X30943D01*
Y138876D01*
X30983D01*
Y138916D01*
X31023D01*
Y138597D01*
D02*
G37*
G36*
X34137Y134324D02*
X34417D01*
Y134284D01*
X34577D01*
Y134244D01*
X34736D01*
Y134204D01*
X34856D01*
Y134164D01*
X34976D01*
Y134124D01*
X35096D01*
Y134084D01*
X35176D01*
Y134044D01*
X35256D01*
Y134004D01*
X35335D01*
Y133964D01*
X35415D01*
Y133924D01*
X35495D01*
Y133885D01*
X35575D01*
Y133845D01*
X35615D01*
Y133805D01*
X35695D01*
Y133765D01*
X35735D01*
Y133725D01*
X35815D01*
Y133685D01*
X35855D01*
Y133645D01*
X35934D01*
Y133605D01*
X35974D01*
Y133565D01*
X36014D01*
Y133525D01*
X36054D01*
Y133485D01*
X36094D01*
Y133445D01*
X36174D01*
Y133405D01*
X36214D01*
Y133365D01*
X36254D01*
Y133326D01*
X36294D01*
Y133285D01*
X36334D01*
Y133246D01*
X36374D01*
Y133206D01*
X36414D01*
Y133166D01*
X36454D01*
Y133126D01*
X36494D01*
Y133086D01*
X36533D01*
Y133046D01*
X36573D01*
Y132966D01*
X36613D01*
Y132926D01*
X36653D01*
Y132886D01*
X36693D01*
Y132846D01*
X36733D01*
Y132806D01*
X36773D01*
Y132726D01*
X36813D01*
Y132686D01*
X36853D01*
Y132647D01*
X36893D01*
Y132567D01*
X36933D01*
Y132527D01*
X36973D01*
Y132447D01*
X37013D01*
Y132407D01*
X37053D01*
Y132327D01*
X37093D01*
Y132287D01*
X37132D01*
Y132207D01*
X37172D01*
Y132127D01*
X37212D01*
Y132048D01*
X37252D01*
Y131968D01*
X37292D01*
Y131888D01*
X37332D01*
Y131808D01*
X37372D01*
Y131688D01*
X37412D01*
Y131568D01*
X37452D01*
Y131409D01*
X37492D01*
Y131209D01*
X37532D01*
Y130929D01*
X37572D01*
Y130290D01*
X37532D01*
Y129931D01*
X37492D01*
Y129731D01*
X37452D01*
Y129532D01*
X37412D01*
Y129412D01*
X37372D01*
Y129252D01*
X37332D01*
Y129132D01*
X37292D01*
Y129013D01*
X37252D01*
Y128893D01*
X37212D01*
Y128813D01*
X37172D01*
Y128693D01*
X37132D01*
Y128613D01*
X37093D01*
Y128493D01*
X37053D01*
Y128413D01*
X37013D01*
Y128334D01*
X36973D01*
Y128254D01*
X36933D01*
Y128174D01*
X36893D01*
Y128094D01*
X36853D01*
Y128014D01*
X36813D01*
Y127934D01*
X36773D01*
Y127854D01*
X36733D01*
Y127775D01*
X36693D01*
Y127734D01*
X36653D01*
Y127655D01*
X36613D01*
Y127575D01*
X36573D01*
Y127495D01*
X36533D01*
Y127455D01*
X36494D01*
Y127375D01*
X36454D01*
Y127295D01*
X36414D01*
Y127255D01*
X36374D01*
Y127175D01*
X36334D01*
Y127136D01*
X36294D01*
Y127056D01*
X36254D01*
Y127016D01*
X36214D01*
Y126936D01*
X36174D01*
Y126896D01*
X36134D01*
Y126816D01*
X36094D01*
Y126776D01*
X36054D01*
Y126696D01*
X36014D01*
Y126656D01*
X35974D01*
Y126616D01*
X35934D01*
Y126537D01*
X35895D01*
Y126497D01*
X35855D01*
Y126457D01*
X35815D01*
Y126377D01*
X35775D01*
Y126337D01*
X35735D01*
Y126297D01*
X35695D01*
Y126217D01*
X35655D01*
Y126177D01*
X35615D01*
Y126137D01*
X35575D01*
Y126097D01*
X35535D01*
Y126017D01*
X35495D01*
Y125977D01*
X35455D01*
Y125937D01*
X35415D01*
Y125898D01*
X35375D01*
Y125858D01*
X35335D01*
Y125778D01*
X35296D01*
Y125738D01*
X35256D01*
Y125698D01*
X35216D01*
Y125658D01*
X35176D01*
Y125618D01*
X35136D01*
Y125578D01*
X35096D01*
Y125538D01*
X35056D01*
Y125498D01*
X35016D01*
Y125418D01*
X34976D01*
Y125378D01*
X34936D01*
Y125338D01*
X34896D01*
Y125299D01*
X34856D01*
Y125378D01*
X34816D01*
Y125458D01*
X34776D01*
Y125538D01*
X34736D01*
Y125578D01*
X34696D01*
Y125618D01*
X34657D01*
Y125658D01*
X34617D01*
Y125738D01*
X34577D01*
Y125778D01*
X34497D01*
Y125818D01*
X34457D01*
Y125858D01*
X34417D01*
Y125898D01*
X34377D01*
Y125937D01*
X34297D01*
Y125977D01*
X34217D01*
Y126017D01*
X34137D01*
Y126057D01*
X34058D01*
Y126097D01*
X33898D01*
Y126137D01*
X33658D01*
Y126097D01*
X33498D01*
Y126057D01*
X33419D01*
Y126017D01*
X33339D01*
Y125977D01*
X33299D01*
Y125937D01*
X33259D01*
Y125898D01*
X33179D01*
Y125858D01*
X33139D01*
Y125778D01*
X33099D01*
Y125738D01*
X33059D01*
Y125698D01*
X33019D01*
Y125618D01*
X32979D01*
Y125498D01*
X32939D01*
Y125059D01*
X32979D01*
Y124939D01*
X33019D01*
Y124819D01*
X33059D01*
Y124740D01*
X33099D01*
Y124699D01*
X33139D01*
Y124620D01*
X33179D01*
Y124580D01*
X33219D01*
Y124500D01*
X33259D01*
Y124460D01*
X33299D01*
Y124420D01*
X33339D01*
Y124380D01*
X33379D01*
Y124340D01*
X33419D01*
Y124300D01*
X33459D01*
Y124260D01*
X33498D01*
Y124220D01*
X33459D01*
Y124180D01*
X33419D01*
Y124140D01*
X33379D01*
Y124100D01*
X33339D01*
Y124061D01*
X33299D01*
Y124021D01*
X33259D01*
Y123981D01*
X33219D01*
Y123941D01*
X33179D01*
Y123901D01*
X33139D01*
Y123861D01*
X33099D01*
Y123821D01*
X33059D01*
Y123781D01*
X33019D01*
Y123741D01*
X32979D01*
Y123701D01*
X32939D01*
Y123661D01*
X32899D01*
Y123621D01*
X32860D01*
Y123581D01*
X32820D01*
Y123541D01*
X32780D01*
Y123501D01*
X32740D01*
Y123461D01*
X32700D01*
Y123422D01*
X32660D01*
Y123382D01*
X32620D01*
Y123342D01*
X32580D01*
Y123302D01*
X32540D01*
Y123262D01*
X32500D01*
Y123222D01*
X32460D01*
Y123182D01*
X32420D01*
Y123142D01*
X32380D01*
Y123102D01*
X32340D01*
Y123062D01*
X32300D01*
Y122982D01*
X32261D01*
Y122942D01*
X32221D01*
Y122902D01*
X32181D01*
Y122863D01*
X32141D01*
Y122823D01*
X32101D01*
Y122783D01*
X32061D01*
Y122743D01*
X32021D01*
Y122663D01*
X31981D01*
Y122623D01*
X31941D01*
Y122583D01*
X31901D01*
Y122543D01*
X31861D01*
Y122503D01*
X31821D01*
Y122423D01*
X31781D01*
Y122383D01*
X31741D01*
Y122343D01*
X31701D01*
Y122303D01*
X31661D01*
Y122224D01*
X31622D01*
Y122184D01*
X31582D01*
Y122144D01*
X31542D01*
Y122104D01*
X31502D01*
Y122024D01*
X31462D01*
Y121984D01*
X31422D01*
Y121944D01*
X31382D01*
Y121864D01*
X31342D01*
Y121824D01*
X31302D01*
Y121744D01*
X31262D01*
Y121704D01*
X31222D01*
Y121625D01*
X31182D01*
Y121585D01*
X31142D01*
Y121505D01*
X31102D01*
Y121465D01*
X31062D01*
Y121385D01*
X31023D01*
Y121345D01*
X30983D01*
Y121265D01*
X30943D01*
Y121185D01*
X30903D01*
Y121145D01*
X30863D01*
Y121065D01*
X30823D01*
Y120986D01*
X30783D01*
Y120906D01*
X30743D01*
Y120826D01*
X30703D01*
Y120746D01*
X30663D01*
Y120666D01*
X30623D01*
Y120586D01*
X30583D01*
Y120506D01*
X30543D01*
Y120387D01*
X30503D01*
Y120267D01*
X30463D01*
Y120147D01*
X30424D01*
Y120027D01*
X30384D01*
Y119827D01*
X30344D01*
Y119508D01*
X30304D01*
Y119428D01*
X30344D01*
Y119109D01*
X30384D01*
Y118989D01*
X30424D01*
Y118869D01*
X30463D01*
Y118789D01*
X30503D01*
Y118709D01*
X30543D01*
Y118669D01*
X30583D01*
Y118589D01*
X30623D01*
Y118550D01*
X30663D01*
Y118510D01*
X30703D01*
Y118470D01*
X30743D01*
Y118430D01*
X30783D01*
Y118390D01*
X30823D01*
Y118350D01*
X30863D01*
Y118310D01*
X30903D01*
Y118270D01*
X30943D01*
Y118230D01*
X31023D01*
Y118190D01*
X31062D01*
Y118150D01*
X31102D01*
Y118110D01*
X31182D01*
Y118070D01*
X31262D01*
Y118030D01*
X31342D01*
Y117991D01*
X31422D01*
Y117950D01*
X31542D01*
Y117911D01*
X31701D01*
Y117871D01*
X32221D01*
Y117911D01*
X32420D01*
Y117950D01*
X32540D01*
Y117991D01*
X32660D01*
Y118030D01*
X32780D01*
Y118070D01*
X32860D01*
Y118110D01*
X32939D01*
Y118150D01*
X33019D01*
Y118190D01*
X33099D01*
Y118230D01*
X33179D01*
Y118270D01*
X33259D01*
Y118310D01*
X33339D01*
Y118350D01*
X33379D01*
Y118390D01*
X33459D01*
Y118430D01*
X33498D01*
Y118470D01*
X33578D01*
Y118510D01*
X33658D01*
Y118550D01*
X33698D01*
Y118589D01*
X33778D01*
Y118629D01*
X33818D01*
Y118669D01*
X33858D01*
Y118709D01*
X33938D01*
Y118749D01*
X33978D01*
Y118789D01*
X34058D01*
Y118829D01*
X34097D01*
Y118869D01*
X34137D01*
Y118909D01*
X34217D01*
Y118949D01*
X34257D01*
Y118989D01*
X34297D01*
Y119029D01*
X34377D01*
Y119069D01*
X34417D01*
Y119109D01*
X34497D01*
Y119149D01*
X34537D01*
Y119188D01*
X34577D01*
Y119228D01*
X34617D01*
Y119268D01*
X34696D01*
Y119308D01*
X34736D01*
Y119348D01*
X34776D01*
Y119388D01*
X34856D01*
Y119428D01*
X34896D01*
Y119468D01*
X34936D01*
Y119508D01*
X35016D01*
Y119548D01*
X35056D01*
Y119588D01*
X35096D01*
Y119628D01*
X35136D01*
Y119668D01*
X35216D01*
Y119708D01*
X35256D01*
Y119748D01*
X35296D01*
Y119788D01*
X35375D01*
Y119827D01*
X35415D01*
Y119867D01*
X35455D01*
Y119907D01*
X35535D01*
Y119947D01*
X35575D01*
Y119987D01*
X35615D01*
Y120027D01*
X35695D01*
Y120067D01*
X35735D01*
Y120107D01*
X35775D01*
Y120147D01*
X35855D01*
Y120187D01*
X35895D01*
Y120227D01*
X35934D01*
Y120267D01*
X36014D01*
Y120307D01*
X36054D01*
Y120347D01*
X36094D01*
Y120387D01*
X36174D01*
Y120426D01*
X36214D01*
Y120466D01*
X36254D01*
Y120506D01*
X36334D01*
Y120546D01*
X36374D01*
Y120586D01*
X36454D01*
Y120626D01*
X36494D01*
Y120666D01*
X36533D01*
Y120706D01*
X36613D01*
Y120746D01*
X36653D01*
Y120786D01*
X36733D01*
Y120826D01*
X36773D01*
Y120866D01*
X36853D01*
Y120906D01*
X36893D01*
Y120946D01*
X36973D01*
Y120986D01*
X37053D01*
Y121026D01*
X37093D01*
Y121065D01*
X37172D01*
Y121105D01*
X37252D01*
Y121145D01*
X37332D01*
Y121185D01*
X37412D01*
Y121225D01*
X37492D01*
Y121265D01*
X37572D01*
Y121305D01*
X37652D01*
Y121345D01*
X37771D01*
Y121385D01*
X37851D01*
Y121425D01*
X37971D01*
Y121465D01*
X38051D01*
Y121505D01*
X38171D01*
Y121545D01*
X38291D01*
Y121585D01*
X38450D01*
Y121625D01*
X38610D01*
Y121665D01*
X38770D01*
Y121704D01*
X39009D01*
Y121744D01*
X39329D01*
Y121784D01*
X40207D01*
Y121744D01*
X40247D01*
Y121784D01*
X40287D01*
Y121744D01*
X40527D01*
Y121704D01*
X40727D01*
Y121665D01*
X40926D01*
Y121625D01*
X41046D01*
Y121585D01*
X41166D01*
Y121545D01*
X41286D01*
Y121505D01*
X41406D01*
Y121465D01*
X41485D01*
Y121145D01*
X41525D01*
Y120906D01*
X41565D01*
Y120746D01*
X41605D01*
Y120666D01*
X41645D01*
Y120586D01*
X41685D01*
Y120506D01*
X41725D01*
Y120466D01*
X41765D01*
Y120387D01*
X41805D01*
Y120347D01*
X41845D01*
Y120307D01*
X41885D01*
Y120267D01*
X41925D01*
Y120227D01*
X41965D01*
Y120147D01*
X42005D01*
Y120067D01*
X42044D01*
Y119987D01*
X42085D01*
Y119907D01*
X42124D01*
Y119708D01*
X42164D01*
Y119228D01*
X42204D01*
Y119069D01*
X42244D01*
Y118989D01*
X42284D01*
Y118909D01*
X42324D01*
Y118829D01*
X42364D01*
Y118749D01*
X42404D01*
Y118669D01*
X42444D01*
Y118589D01*
X42484D01*
Y118510D01*
X42524D01*
Y117791D01*
X42484D01*
Y117631D01*
X42444D01*
Y117312D01*
X42404D01*
Y117471D01*
X42364D01*
Y117591D01*
X42324D01*
Y117671D01*
X42284D01*
Y117791D01*
X42244D01*
Y117871D01*
X42204D01*
Y117950D01*
X42164D01*
Y118030D01*
X42124D01*
Y118110D01*
X42085D01*
Y118190D01*
X42044D01*
Y118230D01*
X42005D01*
Y118310D01*
X41965D01*
Y118350D01*
X41925D01*
Y118390D01*
X41885D01*
Y118470D01*
X41845D01*
Y118510D01*
X41805D01*
Y118550D01*
X41765D01*
Y118589D01*
X41725D01*
Y118629D01*
X41685D01*
Y118669D01*
X41645D01*
Y118709D01*
X41605D01*
Y118749D01*
X41565D01*
Y118789D01*
X41525D01*
Y118829D01*
X41485D01*
Y118869D01*
X41445D01*
Y118909D01*
X41366D01*
Y118949D01*
X41326D01*
Y118989D01*
X41286D01*
Y119029D01*
X41206D01*
Y119069D01*
X41166D01*
Y119109D01*
X41086D01*
Y119149D01*
X41006D01*
Y119188D01*
X40926D01*
Y119228D01*
X40846D01*
Y119268D01*
X40727D01*
Y119308D01*
X40607D01*
Y119348D01*
X40487D01*
Y119388D01*
X40327D01*
Y119428D01*
X40088D01*
Y119468D01*
X39649D01*
Y119548D01*
X39608D01*
Y119628D01*
X39569D01*
Y119708D01*
X39529D01*
Y119788D01*
X39489D01*
Y119867D01*
X39449D01*
Y119907D01*
X39409D01*
Y119987D01*
X39369D01*
Y120027D01*
X39329D01*
Y120067D01*
X39289D01*
Y120147D01*
X39249D01*
Y120187D01*
X39209D01*
Y120227D01*
X39169D01*
Y120267D01*
X39129D01*
Y120307D01*
X39089D01*
Y120387D01*
X39049D01*
Y120426D01*
X38970D01*
Y120466D01*
X38930D01*
Y120506D01*
X38890D01*
Y120546D01*
X38810D01*
Y120586D01*
X38730D01*
Y120626D01*
X38650D01*
Y120666D01*
X38530D01*
Y120706D01*
X37931D01*
Y120666D01*
X37811D01*
Y120626D01*
X37732D01*
Y120586D01*
X37652D01*
Y120546D01*
X37612D01*
Y120506D01*
X37572D01*
Y120466D01*
X37532D01*
Y120426D01*
X37492D01*
Y120387D01*
X37452D01*
Y120347D01*
X37412D01*
Y120267D01*
X37372D01*
Y120187D01*
X37332D01*
Y120147D01*
X37292D01*
Y120027D01*
X37252D01*
Y119907D01*
X37212D01*
Y119548D01*
X37252D01*
Y119428D01*
X37292D01*
Y119308D01*
X37332D01*
Y119268D01*
X37372D01*
Y119188D01*
X37412D01*
Y119149D01*
X37452D01*
Y119069D01*
X37492D01*
Y119029D01*
X37532D01*
Y118989D01*
X37572D01*
Y118949D01*
X37612D01*
Y118909D01*
X37652D01*
Y118869D01*
X37732D01*
Y118829D01*
X37771D01*
Y118789D01*
X37811D01*
Y118749D01*
X37692D01*
Y118709D01*
X37612D01*
Y118669D01*
X37532D01*
Y118629D01*
X37492D01*
Y118589D01*
X37412D01*
Y118550D01*
X37372D01*
Y118510D01*
X37292D01*
Y118470D01*
X37252D01*
Y118430D01*
X37212D01*
Y118390D01*
X37132D01*
Y118350D01*
X37093D01*
Y118310D01*
X37053D01*
Y118270D01*
X36973D01*
Y118230D01*
X36933D01*
Y118190D01*
X36893D01*
Y118150D01*
X36853D01*
Y118110D01*
X36773D01*
Y118070D01*
X36733D01*
Y118030D01*
X36693D01*
Y117991D01*
X36653D01*
Y117950D01*
X36613D01*
Y117911D01*
X36533D01*
Y117871D01*
X36494D01*
Y117831D01*
X36454D01*
Y117791D01*
X36414D01*
Y117751D01*
X36374D01*
Y117711D01*
X36334D01*
Y117671D01*
X36254D01*
Y117631D01*
X36214D01*
Y117591D01*
X36174D01*
Y117551D01*
X36134D01*
Y117511D01*
X36094D01*
Y117471D01*
X36054D01*
Y117431D01*
X35974D01*
Y117391D01*
X35934D01*
Y117351D01*
X35895D01*
Y117312D01*
X35855D01*
Y117272D01*
X35815D01*
Y117232D01*
X35775D01*
Y117192D01*
X35695D01*
Y117152D01*
X35655D01*
Y117112D01*
X35615D01*
Y117072D01*
X35575D01*
Y117032D01*
X35535D01*
Y116992D01*
X35455D01*
Y116952D01*
X35415D01*
Y116912D01*
X35375D01*
Y116872D01*
X35335D01*
Y116832D01*
X35296D01*
Y116792D01*
X35216D01*
Y116753D01*
X35176D01*
Y116712D01*
X35136D01*
Y116673D01*
X35096D01*
Y116633D01*
X35016D01*
Y116593D01*
X34976D01*
Y116553D01*
X34936D01*
Y116513D01*
X34856D01*
Y116473D01*
X34816D01*
Y116433D01*
X34776D01*
Y116393D01*
X34696D01*
Y116353D01*
X34657D01*
Y116313D01*
X34617D01*
Y116273D01*
X34537D01*
Y116233D01*
X34497D01*
Y116193D01*
X34417D01*
Y116153D01*
X34377D01*
Y116113D01*
X34297D01*
Y116074D01*
X34257D01*
Y116034D01*
X34177D01*
Y115994D01*
X34097D01*
Y115954D01*
X34058D01*
Y115914D01*
X33978D01*
Y115874D01*
X33898D01*
Y115834D01*
X33818D01*
Y115794D01*
X33738D01*
Y115754D01*
X33658D01*
Y115714D01*
X33578D01*
Y115674D01*
X33498D01*
Y115634D01*
X33419D01*
Y115594D01*
X33299D01*
Y115554D01*
X33219D01*
Y115515D01*
X33099D01*
Y115474D01*
X32979D01*
Y115435D01*
X32860D01*
Y115395D01*
X32740D01*
Y115355D01*
X32620D01*
Y115315D01*
X32500D01*
Y115275D01*
X32340D01*
Y115235D01*
X32181D01*
Y115195D01*
X32021D01*
Y115155D01*
X31821D01*
Y115115D01*
X31622D01*
Y115075D01*
X31382D01*
Y115035D01*
X31342D01*
Y115075D01*
X31302D01*
Y115035D01*
X30703D01*
Y114995D01*
X30543D01*
Y115035D01*
X30503D01*
Y114995D01*
X30463D01*
Y115035D01*
X30384D01*
Y114995D01*
X30344D01*
Y115035D01*
X29984D01*
Y115075D01*
X29705D01*
Y115115D01*
X29545D01*
Y115155D01*
X29385D01*
Y115195D01*
X29265D01*
Y115235D01*
X29146D01*
Y115275D01*
X29026D01*
Y115315D01*
X28946D01*
Y115355D01*
X28866D01*
Y115395D01*
X28786D01*
Y115435D01*
X28706D01*
Y115474D01*
X28626D01*
Y115515D01*
X28547D01*
Y115554D01*
X28507D01*
Y115594D01*
X28427D01*
Y115634D01*
X28387D01*
Y115674D01*
X28307D01*
Y115714D01*
X28267D01*
Y115754D01*
X28227D01*
Y115794D01*
X28187D01*
Y115834D01*
X28107D01*
Y115874D01*
X28067D01*
Y115914D01*
X28027D01*
Y115954D01*
X27987D01*
Y115994D01*
X27948D01*
Y116034D01*
X27908D01*
Y116074D01*
X27868D01*
Y116113D01*
X27828D01*
Y116153D01*
X27788D01*
Y116233D01*
X27748D01*
Y116273D01*
X27708D01*
Y116313D01*
X27668D01*
Y116353D01*
X27628D01*
Y116433D01*
X27588D01*
Y116473D01*
X27548D01*
Y116513D01*
X27508D01*
Y116593D01*
X27468D01*
Y116633D01*
X27428D01*
Y116712D01*
X27388D01*
Y116792D01*
X27349D01*
Y116872D01*
X27308D01*
Y116992D01*
X27269D01*
Y117072D01*
X27229D01*
Y117192D01*
X27189D01*
Y117351D01*
X27149D01*
Y117511D01*
X27109D01*
Y117831D01*
X27069D01*
Y118350D01*
X27109D01*
Y118390D01*
X27069D01*
Y118430D01*
X27109D01*
Y118669D01*
X27149D01*
Y118909D01*
X27189D01*
Y119069D01*
X27229D01*
Y119228D01*
X27269D01*
Y119348D01*
X27308D01*
Y119468D01*
X27349D01*
Y119588D01*
X27388D01*
Y119708D01*
X27428D01*
Y119788D01*
X27468D01*
Y119907D01*
X27508D01*
Y119987D01*
X27548D01*
Y120067D01*
X27588D01*
Y120147D01*
X27628D01*
Y120227D01*
X27668D01*
Y120307D01*
X27708D01*
Y120387D01*
X27748D01*
Y120466D01*
X27788D01*
Y120546D01*
X27828D01*
Y120626D01*
X27868D01*
Y120706D01*
X27908D01*
Y120786D01*
X27948D01*
Y120826D01*
X27987D01*
Y120906D01*
X28027D01*
Y120986D01*
X28067D01*
Y121026D01*
X28107D01*
Y121105D01*
X28147D01*
Y121145D01*
X28187D01*
Y121225D01*
X28227D01*
Y121305D01*
X28267D01*
Y121345D01*
X28307D01*
Y121425D01*
X28347D01*
Y121465D01*
X28387D01*
Y121505D01*
X28427D01*
Y121585D01*
X28467D01*
Y121625D01*
X28507D01*
Y121704D01*
X28547D01*
Y121744D01*
X28587D01*
Y121784D01*
X28626D01*
Y121864D01*
X28666D01*
Y121904D01*
X28706D01*
Y121944D01*
X28746D01*
Y122024D01*
X28786D01*
Y122064D01*
X28826D01*
Y122104D01*
X28866D01*
Y122184D01*
X28906D01*
Y122224D01*
X28946D01*
Y122264D01*
X28986D01*
Y122303D01*
X29026D01*
Y122383D01*
X29066D01*
Y122423D01*
X29106D01*
Y122463D01*
X29146D01*
Y122503D01*
X29186D01*
Y122543D01*
X29225D01*
Y122583D01*
X29265D01*
Y122663D01*
X29305D01*
Y122703D01*
X29345D01*
Y122743D01*
X29385D01*
Y122783D01*
X29425D01*
Y122823D01*
X29465D01*
Y122863D01*
X29505D01*
Y122902D01*
X29545D01*
Y122942D01*
X29585D01*
Y122982D01*
X29625D01*
Y123022D01*
X29665D01*
Y123062D01*
X29705D01*
Y123102D01*
X29745D01*
Y123142D01*
X29785D01*
Y123182D01*
X29825D01*
Y123222D01*
X29864D01*
Y123262D01*
X29904D01*
Y123302D01*
X29944D01*
Y123342D01*
X29984D01*
Y123382D01*
X30024D01*
Y123422D01*
X30064D01*
Y123461D01*
X30104D01*
Y123501D01*
X30144D01*
Y123541D01*
X30184D01*
Y123581D01*
X30224D01*
Y123621D01*
X30264D01*
Y123661D01*
X30304D01*
Y123701D01*
X30344D01*
Y123741D01*
X30384D01*
Y123781D01*
X30424D01*
Y123821D01*
X30503D01*
Y123861D01*
X30543D01*
Y123901D01*
X30583D01*
Y123941D01*
X30623D01*
Y123981D01*
X30663D01*
Y124021D01*
X30703D01*
Y124061D01*
X30743D01*
Y124100D01*
X30783D01*
Y124140D01*
X30863D01*
Y124180D01*
X30903D01*
Y124220D01*
X30943D01*
Y124260D01*
X30983D01*
Y124300D01*
X31023D01*
Y124340D01*
X31062D01*
Y124380D01*
X31102D01*
Y124420D01*
X31182D01*
Y124460D01*
X31222D01*
Y124500D01*
X31262D01*
Y124540D01*
X31302D01*
Y124580D01*
X31342D01*
Y124620D01*
X31382D01*
Y124660D01*
X31422D01*
Y124699D01*
X31462D01*
Y124740D01*
X31542D01*
Y124779D01*
X31582D01*
Y124819D01*
X31622D01*
Y124859D01*
X31661D01*
Y124899D01*
X31701D01*
Y124939D01*
X31741D01*
Y124979D01*
X31781D01*
Y125019D01*
X31861D01*
Y125059D01*
X31901D01*
Y125099D01*
X31941D01*
Y125139D01*
X31981D01*
Y125179D01*
X32021D01*
Y125219D01*
X32061D01*
Y125259D01*
X32101D01*
Y125299D01*
X32141D01*
Y125338D01*
X32221D01*
Y125378D01*
X32261D01*
Y125418D01*
X32300D01*
Y125458D01*
X32340D01*
Y125498D01*
X32380D01*
Y125538D01*
X32420D01*
Y125578D01*
X32460D01*
Y125618D01*
X32500D01*
Y125658D01*
X32540D01*
Y125698D01*
X32620D01*
Y125738D01*
X32660D01*
Y125778D01*
X32700D01*
Y125818D01*
X32740D01*
Y125858D01*
X32780D01*
Y125898D01*
X32820D01*
Y125937D01*
X32860D01*
Y125977D01*
X32899D01*
Y126017D01*
X32939D01*
Y126057D01*
X32979D01*
Y126097D01*
X33019D01*
Y126137D01*
X33059D01*
Y126177D01*
X33099D01*
Y126217D01*
X33139D01*
Y126257D01*
X33179D01*
Y126297D01*
X33259D01*
Y126337D01*
X33299D01*
Y126377D01*
X33339D01*
Y126417D01*
X33379D01*
Y126457D01*
X33419D01*
Y126497D01*
X33459D01*
Y126537D01*
X33498D01*
Y126576D01*
X33538D01*
Y126616D01*
X33578D01*
Y126656D01*
X33618D01*
Y126696D01*
X33658D01*
Y126736D01*
X33698D01*
Y126776D01*
X33738D01*
Y126816D01*
X33778D01*
Y126896D01*
X33818D01*
Y126936D01*
X33858D01*
Y126976D01*
X33898D01*
Y127016D01*
X33938D01*
Y127056D01*
X33978D01*
Y127096D01*
X34018D01*
Y127136D01*
X34058D01*
Y127175D01*
X34097D01*
Y127215D01*
X34137D01*
Y127255D01*
X34177D01*
Y127295D01*
X34217D01*
Y127335D01*
X34257D01*
Y127415D01*
X34297D01*
Y127455D01*
X34337D01*
Y127495D01*
X34377D01*
Y127535D01*
X34417D01*
Y127575D01*
X34457D01*
Y127615D01*
X34497D01*
Y127695D01*
X34537D01*
Y127734D01*
X34577D01*
Y127775D01*
X34617D01*
Y127814D01*
X34657D01*
Y127894D01*
X34696D01*
Y127934D01*
X34736D01*
Y127974D01*
X34776D01*
Y128014D01*
X34816D01*
Y128094D01*
X34856D01*
Y128134D01*
X34896D01*
Y128214D01*
X34936D01*
Y128254D01*
X34976D01*
Y128294D01*
X35016D01*
Y128374D01*
X35056D01*
Y128413D01*
X35096D01*
Y128493D01*
X35136D01*
Y128533D01*
X35176D01*
Y128613D01*
X35216D01*
Y128693D01*
X35256D01*
Y128733D01*
X35296D01*
Y128813D01*
X35335D01*
Y128893D01*
X35375D01*
Y128973D01*
X35415D01*
Y129052D01*
X35455D01*
Y129132D01*
X35495D01*
Y129212D01*
X35535D01*
Y129292D01*
X35575D01*
Y129412D01*
X35615D01*
Y129492D01*
X35655D01*
Y129612D01*
X35695D01*
Y129731D01*
X35735D01*
Y129891D01*
X35775D01*
Y130051D01*
Y130091D01*
X35815D01*
Y130370D01*
X35855D01*
Y130770D01*
X35815D01*
Y130810D01*
X35855D01*
Y130889D01*
X35815D01*
Y131129D01*
X35775D01*
Y131329D01*
X35735D01*
Y131448D01*
X35695D01*
Y131568D01*
X35655D01*
Y131648D01*
X35615D01*
Y131768D01*
X35575D01*
Y131848D01*
X35535D01*
Y131928D01*
X35495D01*
Y131968D01*
X35455D01*
Y132048D01*
X35415D01*
Y132088D01*
X35375D01*
Y132167D01*
X35335D01*
Y132207D01*
X35296D01*
Y132247D01*
X35256D01*
Y132327D01*
X35216D01*
Y132367D01*
X35176D01*
Y132407D01*
X35136D01*
Y132447D01*
X35096D01*
Y132487D01*
X35056D01*
Y132527D01*
X35016D01*
Y132567D01*
X34976D01*
Y132607D01*
X34896D01*
Y132647D01*
X34856D01*
Y132686D01*
X34816D01*
Y132726D01*
X34736D01*
Y132766D01*
X34696D01*
Y132806D01*
X34617D01*
Y132846D01*
X34577D01*
Y132886D01*
X34497D01*
Y132926D01*
X34377D01*
Y132966D01*
X34257D01*
Y133006D01*
X34058D01*
Y133046D01*
X34018D01*
Y133006D01*
X33978D01*
Y133046D01*
X33419D01*
Y133006D01*
X33139D01*
Y132966D01*
X32939D01*
Y132926D01*
X32740D01*
Y132886D01*
X32580D01*
Y132846D01*
X32460D01*
Y132806D01*
X32300D01*
Y132766D01*
X32181D01*
Y132726D01*
X32061D01*
Y132686D01*
X31941D01*
Y132647D01*
X31821D01*
Y132607D01*
X31701D01*
Y132567D01*
X31622D01*
Y132527D01*
X31502D01*
Y132487D01*
X31422D01*
Y132447D01*
X31382D01*
Y132647D01*
X31422D01*
Y132846D01*
X31462D01*
Y133006D01*
X31502D01*
Y133166D01*
X31542D01*
Y133326D01*
X31582D01*
Y133445D01*
X31622D01*
Y133565D01*
X31661D01*
Y133685D01*
X31701D01*
Y133805D01*
X31741D01*
Y133885D01*
X31781D01*
Y133964D01*
X31861D01*
Y134004D01*
X31941D01*
Y134044D01*
X32061D01*
Y134084D01*
X32181D01*
Y134124D01*
X32300D01*
Y134164D01*
X32420D01*
Y134204D01*
X32580D01*
Y134244D01*
X32740D01*
Y134284D01*
X32939D01*
Y134324D01*
X33179D01*
Y134364D01*
X33219D01*
Y134324D01*
X33259D01*
Y134364D01*
X34137D01*
Y134324D01*
D02*
G37*
G36*
X34457Y135402D02*
X34617D01*
Y135362D01*
X34577D01*
Y135322D01*
X34457D01*
Y135282D01*
X34377D01*
Y135242D01*
X34297D01*
Y135202D01*
X34217D01*
Y135162D01*
X34137D01*
Y135123D01*
X34058D01*
Y135083D01*
X34018D01*
Y135043D01*
X33938D01*
Y135003D01*
X33898D01*
Y134963D01*
X33858D01*
Y134843D01*
X33898D01*
Y134803D01*
X33978D01*
Y134763D01*
X34257D01*
Y134803D01*
X34417D01*
Y134843D01*
X34537D01*
Y134883D01*
X34696D01*
Y134923D01*
X34936D01*
Y134963D01*
X35136D01*
Y134923D01*
X35455D01*
Y134883D01*
X35615D01*
Y134843D01*
X35735D01*
Y134803D01*
X35815D01*
Y134763D01*
X35895D01*
Y134723D01*
X35815D01*
Y134683D01*
X35655D01*
Y134643D01*
X35575D01*
Y134603D01*
X35535D01*
Y134563D01*
X35495D01*
Y134523D01*
X35455D01*
Y134444D01*
X35495D01*
Y134404D01*
X35535D01*
Y134364D01*
X35575D01*
Y134324D01*
X35695D01*
Y134284D01*
X35775D01*
Y134244D01*
X35934D01*
Y134204D01*
X36174D01*
Y134164D01*
X36254D01*
Y134204D01*
X36294D01*
Y134164D01*
X36533D01*
Y134124D01*
X36653D01*
Y134084D01*
X36733D01*
Y134044D01*
X36813D01*
Y134004D01*
X36893D01*
Y133964D01*
X36973D01*
Y133924D01*
X37013D01*
Y133885D01*
X37093D01*
Y133845D01*
X37132D01*
Y133805D01*
X37212D01*
Y133765D01*
X37252D01*
Y133725D01*
X37292D01*
Y133685D01*
X37332D01*
Y133645D01*
X37372D01*
Y133605D01*
X37412D01*
Y133565D01*
X37372D01*
Y133605D01*
X36933D01*
Y133565D01*
X36853D01*
Y133525D01*
X36813D01*
Y133326D01*
X36853D01*
Y133246D01*
X36893D01*
Y133206D01*
X36933D01*
Y133166D01*
X36973D01*
Y133126D01*
X37013D01*
Y133086D01*
X37093D01*
Y133046D01*
X37132D01*
Y133006D01*
X37212D01*
Y132966D01*
X37252D01*
Y132926D01*
X37372D01*
Y132886D01*
X37452D01*
Y132846D01*
X37532D01*
Y132806D01*
X37612D01*
Y132766D01*
X37692D01*
Y132726D01*
X37771D01*
Y132686D01*
X37851D01*
Y132647D01*
X37891D01*
Y132607D01*
X37931D01*
Y132567D01*
X37971D01*
Y132527D01*
X38011D01*
Y132487D01*
X38051D01*
Y132447D01*
X38091D01*
Y132407D01*
X38131D01*
Y132327D01*
X38171D01*
Y132247D01*
X38211D01*
Y132127D01*
X38251D01*
Y132008D01*
X38211D01*
Y132048D01*
X38131D01*
Y132088D01*
X38051D01*
Y132127D01*
X37891D01*
Y132088D01*
X37851D01*
Y132048D01*
X37811D01*
Y131808D01*
X37851D01*
Y131688D01*
X37891D01*
Y131608D01*
X37931D01*
Y131568D01*
X37971D01*
Y131488D01*
X38011D01*
Y131448D01*
X38051D01*
Y131409D01*
X38091D01*
Y131369D01*
X38131D01*
Y131329D01*
X38171D01*
Y131289D01*
X38211D01*
Y131249D01*
X38291D01*
Y131209D01*
X38331D01*
Y131169D01*
X38370D01*
Y131129D01*
X38410D01*
Y131089D01*
X38450D01*
Y131009D01*
X38490D01*
Y130969D01*
X38530D01*
Y130889D01*
X38570D01*
Y130770D01*
X38610D01*
Y130610D01*
X38650D01*
Y130410D01*
X38690D01*
Y129971D01*
X38730D01*
Y129891D01*
X38690D01*
Y129931D01*
X38650D01*
Y130051D01*
X38610D01*
Y130091D01*
X38570D01*
Y130171D01*
X38530D01*
Y130210D01*
X38490D01*
Y130251D01*
X38450D01*
Y130290D01*
X38410D01*
Y130330D01*
X38251D01*
Y130290D01*
X38211D01*
Y130251D01*
X38171D01*
Y130210D01*
X38131D01*
Y130091D01*
X38091D01*
Y129891D01*
X38131D01*
Y129771D01*
X38171D01*
Y129691D01*
X38211D01*
Y129612D01*
X38251D01*
Y129572D01*
X38291D01*
Y129532D01*
X38331D01*
Y129492D01*
X38370D01*
Y129452D01*
X38410D01*
Y129412D01*
X38450D01*
Y129372D01*
X38490D01*
Y129292D01*
X38530D01*
Y129212D01*
X38570D01*
Y129092D01*
X38610D01*
Y128893D01*
X38650D01*
Y128493D01*
X38610D01*
Y128254D01*
X38570D01*
Y128094D01*
X38490D01*
Y128254D01*
X38450D01*
Y128334D01*
X38410D01*
Y128413D01*
X38370D01*
Y128493D01*
X38331D01*
Y128533D01*
X38291D01*
Y128573D01*
X38251D01*
Y128613D01*
X38211D01*
Y128653D01*
X38131D01*
Y128693D01*
X37891D01*
Y128653D01*
X37851D01*
Y128613D01*
X37811D01*
Y128573D01*
X37771D01*
Y128533D01*
X37732D01*
Y128174D01*
X37771D01*
Y128054D01*
X37811D01*
Y127974D01*
X37851D01*
Y127814D01*
X37891D01*
Y127375D01*
X37851D01*
Y127175D01*
X37811D01*
Y127016D01*
X37771D01*
Y126936D01*
X37732D01*
Y126816D01*
X37692D01*
Y127056D01*
X37652D01*
Y127175D01*
X37612D01*
Y127255D01*
X37572D01*
Y127335D01*
X37532D01*
Y127375D01*
X37452D01*
Y127415D01*
X37292D01*
Y127375D01*
X37172D01*
Y127335D01*
X37132D01*
Y127295D01*
X37093D01*
Y127255D01*
X37053D01*
Y127215D01*
X37013D01*
Y127136D01*
X36973D01*
Y126976D01*
X36933D01*
Y126856D01*
X36973D01*
Y126736D01*
X37013D01*
Y126576D01*
X37053D01*
Y126097D01*
X37013D01*
Y125977D01*
X36973D01*
Y125858D01*
X36933D01*
Y125818D01*
X36893D01*
Y125738D01*
X36853D01*
Y125658D01*
X36813D01*
Y125618D01*
X36773D01*
Y125578D01*
X36733D01*
Y125538D01*
X36693D01*
Y125658D01*
X36733D01*
Y125738D01*
X36693D01*
Y125778D01*
X36733D01*
Y125818D01*
X36693D01*
Y125977D01*
X36653D01*
Y126057D01*
X36613D01*
Y126137D01*
X36573D01*
Y126177D01*
X36533D01*
Y126217D01*
X36294D01*
Y126177D01*
X36214D01*
Y126137D01*
X36174D01*
Y126057D01*
X36134D01*
Y125658D01*
X36174D01*
Y125458D01*
X36214D01*
Y125099D01*
X36174D01*
Y124979D01*
X36134D01*
Y124899D01*
X36094D01*
Y124859D01*
X36054D01*
Y124819D01*
X36014D01*
Y124779D01*
X35974D01*
Y124740D01*
X35934D01*
Y124699D01*
X35895D01*
Y125019D01*
X35855D01*
Y125099D01*
X35815D01*
Y125139D01*
X35775D01*
Y125179D01*
X35735D01*
Y125219D01*
X35655D01*
Y125259D01*
X35256D01*
Y125219D01*
X35096D01*
Y125179D01*
X35016D01*
Y125219D01*
X35056D01*
Y125259D01*
X35096D01*
Y125299D01*
X35136D01*
Y125338D01*
X35176D01*
Y125378D01*
X35216D01*
Y125418D01*
X35256D01*
Y125458D01*
X35296D01*
Y125498D01*
X35335D01*
Y125538D01*
X35375D01*
Y125578D01*
X35415D01*
Y125618D01*
X35455D01*
Y125658D01*
X35495D01*
Y125738D01*
X35535D01*
Y125778D01*
X35575D01*
Y125818D01*
X35615D01*
Y125858D01*
X35655D01*
Y125898D01*
X35695D01*
Y125937D01*
X35735D01*
Y126017D01*
X35775D01*
Y126057D01*
X35815D01*
Y126097D01*
X35855D01*
Y126137D01*
X35895D01*
Y126177D01*
X35934D01*
Y126257D01*
X35974D01*
Y126297D01*
X36014D01*
Y126337D01*
X36054D01*
Y126377D01*
X36094D01*
Y126457D01*
X36134D01*
Y126497D01*
X36174D01*
Y126537D01*
X36214D01*
Y126576D01*
X36254D01*
Y126656D01*
X36294D01*
Y126696D01*
X36334D01*
Y126736D01*
X36374D01*
Y126816D01*
X36414D01*
Y126856D01*
X36454D01*
Y126896D01*
X36494D01*
Y126976D01*
X36533D01*
Y127016D01*
X36573D01*
Y127096D01*
X36613D01*
Y127136D01*
X36653D01*
Y127215D01*
X36693D01*
Y127255D01*
X36733D01*
Y127295D01*
X36773D01*
Y127375D01*
X36813D01*
Y127415D01*
X36853D01*
Y127495D01*
X36893D01*
Y127575D01*
X36933D01*
Y127615D01*
X36973D01*
Y127695D01*
X37013D01*
Y127734D01*
X37053D01*
Y127814D01*
X37093D01*
Y127894D01*
X37132D01*
Y127974D01*
X37172D01*
Y128014D01*
X37212D01*
Y128094D01*
X37252D01*
Y128174D01*
X37292D01*
Y128254D01*
X37332D01*
Y128334D01*
X37372D01*
Y128413D01*
X37412D01*
Y128493D01*
X37452D01*
Y128573D01*
X37492D01*
Y128693D01*
X37532D01*
Y128773D01*
X37572D01*
Y128853D01*
X37612D01*
Y128973D01*
X37652D01*
Y129092D01*
X37692D01*
Y129212D01*
X37732D01*
Y129372D01*
X37771D01*
Y129532D01*
X37811D01*
Y129771D01*
X37851D01*
Y130770D01*
X37811D01*
Y131009D01*
X37771D01*
Y131169D01*
X37732D01*
Y131329D01*
X37692D01*
Y131448D01*
X37652D01*
Y131568D01*
X37612D01*
Y131688D01*
X37572D01*
Y131768D01*
X37532D01*
Y131888D01*
X37492D01*
Y131968D01*
X37452D01*
Y132048D01*
X37412D01*
Y132127D01*
X37372D01*
Y132207D01*
X37332D01*
Y132287D01*
X37292D01*
Y132327D01*
X37252D01*
Y132407D01*
X37212D01*
Y132487D01*
X37172D01*
Y132527D01*
X37132D01*
Y132607D01*
X37093D01*
Y132647D01*
X37053D01*
Y132686D01*
X37013D01*
Y132766D01*
X36973D01*
Y132806D01*
X36933D01*
Y132846D01*
X36893D01*
Y132926D01*
X36853D01*
Y132966D01*
X36813D01*
Y133006D01*
X36773D01*
Y133046D01*
X36733D01*
Y133126D01*
X36693D01*
Y133166D01*
X36653D01*
Y133206D01*
X36613D01*
Y133246D01*
X36573D01*
Y133285D01*
X36533D01*
Y133326D01*
X36494D01*
Y133365D01*
X36454D01*
Y133405D01*
X36414D01*
Y133445D01*
X36374D01*
Y133485D01*
X36334D01*
Y133525D01*
X36294D01*
Y133565D01*
X36254D01*
Y133605D01*
X36214D01*
Y133645D01*
X36174D01*
Y133685D01*
X36134D01*
Y133725D01*
X36094D01*
Y133765D01*
X36014D01*
Y133805D01*
X35974D01*
Y133845D01*
X35934D01*
Y133885D01*
X35895D01*
Y133924D01*
X35815D01*
Y133964D01*
X35775D01*
Y134004D01*
X35735D01*
Y134044D01*
X35655D01*
Y134084D01*
X35615D01*
Y134124D01*
X35575D01*
Y134164D01*
X35495D01*
Y134204D01*
X35455D01*
Y134244D01*
X35375D01*
Y134284D01*
X35296D01*
Y134324D01*
X35216D01*
Y134364D01*
X35096D01*
Y134404D01*
X35016D01*
Y134444D01*
X34856D01*
Y134484D01*
X34736D01*
Y134523D01*
X34537D01*
Y134563D01*
X34177D01*
Y134603D01*
X33658D01*
Y134563D01*
X33618D01*
Y134603D01*
X33498D01*
Y134563D01*
X33099D01*
Y134523D01*
X32860D01*
Y134484D01*
X32660D01*
Y134444D01*
X32500D01*
Y134404D01*
X32380D01*
Y134444D01*
X32460D01*
Y134484D01*
X32540D01*
Y134523D01*
X32580D01*
Y134563D01*
X32620D01*
Y134603D01*
X32660D01*
Y134643D01*
X32700D01*
Y134683D01*
X32740D01*
Y134723D01*
X32780D01*
Y134763D01*
X32820D01*
Y134803D01*
X32860D01*
Y134843D01*
X32899D01*
Y134883D01*
X32939D01*
Y134923D01*
X32979D01*
Y134963D01*
X33019D01*
Y135003D01*
X33059D01*
Y135043D01*
X33099D01*
Y135083D01*
X33139D01*
Y135123D01*
X33219D01*
Y135162D01*
X33259D01*
Y135202D01*
X33299D01*
Y135242D01*
X33379D01*
Y135282D01*
X33419D01*
Y135322D01*
X33538D01*
Y135362D01*
X33618D01*
Y135402D01*
X33818D01*
Y135442D01*
X34457D01*
Y135402D01*
D02*
G37*
G36*
X30663Y132407D02*
X30623D01*
Y132447D01*
X30663D01*
Y132407D01*
D02*
G37*
G36*
X30623Y132367D02*
X30583D01*
Y132407D01*
X30623D01*
Y132367D01*
D02*
G37*
G36*
X30583Y132327D02*
X30543D01*
Y132367D01*
X30583D01*
Y132327D01*
D02*
G37*
G36*
X35455Y131369D02*
X35495D01*
Y131209D01*
X35535D01*
Y130969D01*
X35575D01*
Y130131D01*
X35535D01*
Y130011D01*
X35455D01*
Y130051D01*
X35335D01*
Y130091D01*
X35296D01*
Y130171D01*
X35335D01*
Y130410D01*
X35375D01*
Y130450D01*
X35335D01*
Y130490D01*
X35375D01*
Y130810D01*
X35415D01*
Y131488D01*
X35455D01*
Y131369D01*
D02*
G37*
G36*
X26390Y129771D02*
X26630D01*
Y129691D01*
X26470D01*
Y129651D01*
X26390D01*
Y129612D01*
X26310D01*
Y129572D01*
X26270D01*
Y129532D01*
X26230D01*
Y129492D01*
X26190D01*
Y129452D01*
X26150D01*
Y129372D01*
X26111D01*
Y129332D01*
X26071D01*
Y129212D01*
X26031D01*
Y128973D01*
X26071D01*
Y128933D01*
X26111D01*
Y128893D01*
X26150D01*
Y128853D01*
X26230D01*
Y128813D01*
X26310D01*
Y128773D01*
X26430D01*
Y128733D01*
X26550D01*
Y128693D01*
X26750D01*
Y128653D01*
X26989D01*
Y128613D01*
X26909D01*
Y128573D01*
X26750D01*
Y128533D01*
X26230D01*
Y128573D01*
X26031D01*
Y128613D01*
X25911D01*
Y128653D01*
X25831D01*
Y128693D01*
X25791D01*
Y128653D01*
X25831D01*
Y128613D01*
X25911D01*
Y128573D01*
X25951D01*
Y128533D01*
X26031D01*
Y128493D01*
X26150D01*
Y128453D01*
X26270D01*
Y128413D01*
X26430D01*
Y128374D01*
X26470D01*
Y128413D01*
X26510D01*
Y128374D01*
X26630D01*
Y128413D01*
X26750D01*
Y128374D01*
X26949D01*
Y128334D01*
X27029D01*
Y128294D01*
X27109D01*
Y128254D01*
X27189D01*
Y128214D01*
X27229D01*
Y128174D01*
X27308D01*
Y128134D01*
X27349D01*
Y128094D01*
X27388D01*
Y128054D01*
X27468D01*
Y128014D01*
X27508D01*
Y127974D01*
X27548D01*
Y127934D01*
X27468D01*
Y127974D01*
X27388D01*
Y128014D01*
X27269D01*
Y128054D01*
X26470D01*
Y128014D01*
X26190D01*
Y128054D01*
X26071D01*
Y128094D01*
X25991D01*
Y128134D01*
X25911D01*
Y128174D01*
X25871D01*
Y128214D01*
X25831D01*
Y128254D01*
X25751D01*
Y128294D01*
X25711D01*
Y128334D01*
X25671D01*
Y128374D01*
X25631D01*
Y128413D01*
X25591D01*
Y128453D01*
X25512D01*
Y128493D01*
X25471D01*
Y128533D01*
X25432D01*
Y128573D01*
X25352D01*
Y128613D01*
X25272D01*
Y128653D01*
X25232D01*
Y128693D01*
X25112D01*
Y128733D01*
X24992D01*
Y128773D01*
X25152D01*
Y128813D01*
X25312D01*
Y128853D01*
X25352D01*
Y128893D01*
X25432D01*
Y128973D01*
X25471D01*
Y129172D01*
X25432D01*
Y129212D01*
X25512D01*
Y129252D01*
X25591D01*
Y129292D01*
X25631D01*
Y129332D01*
X25671D01*
Y129412D01*
X25711D01*
Y129572D01*
X25671D01*
Y129691D01*
X25751D01*
Y129731D01*
X25871D01*
Y129771D01*
X26111D01*
Y129811D01*
X26150D01*
Y129771D01*
X26230D01*
Y129811D01*
X26270D01*
Y129771D01*
X26350D01*
Y129811D01*
X26390D01*
Y129771D01*
D02*
G37*
G36*
X36813Y138557D02*
X36693D01*
Y138517D01*
X36533D01*
Y138477D01*
X36414D01*
Y138437D01*
X36294D01*
Y138397D01*
X36174D01*
Y138357D01*
X36054D01*
Y138317D01*
X35934D01*
Y138277D01*
X35815D01*
Y138238D01*
X35735D01*
Y138198D01*
X35615D01*
Y138158D01*
X35535D01*
Y138118D01*
X35415D01*
Y138078D01*
X35335D01*
Y138038D01*
X35256D01*
Y137998D01*
X35136D01*
Y137958D01*
X35056D01*
Y137918D01*
X34976D01*
Y137878D01*
X34896D01*
Y137838D01*
X34816D01*
Y137798D01*
X34736D01*
Y137758D01*
X34657D01*
Y137718D01*
X34577D01*
Y137678D01*
X34497D01*
Y137638D01*
X34417D01*
Y137599D01*
X34337D01*
Y137559D01*
X34257D01*
Y137519D01*
X34217D01*
Y137479D01*
X34137D01*
Y137439D01*
X34058D01*
Y137399D01*
X34018D01*
Y137359D01*
X33938D01*
Y137319D01*
X33898D01*
Y137279D01*
X33818D01*
Y137239D01*
X33778D01*
Y137199D01*
X33698D01*
Y137159D01*
X33658D01*
Y137119D01*
X33578D01*
Y137079D01*
X33538D01*
Y137039D01*
X33498D01*
Y136999D01*
X33459D01*
Y136960D01*
X33379D01*
Y136920D01*
X33339D01*
Y136880D01*
X33299D01*
Y136840D01*
X33259D01*
Y136800D01*
X33219D01*
Y136760D01*
X33139D01*
Y136720D01*
X33099D01*
Y136680D01*
X33059D01*
Y136640D01*
X33019D01*
Y136600D01*
X32979D01*
Y136560D01*
X32939D01*
Y136520D01*
X32899D01*
Y136480D01*
X32860D01*
Y136440D01*
X32820D01*
Y136400D01*
X32780D01*
Y136321D01*
X32740D01*
Y136281D01*
X32700D01*
Y136241D01*
X32660D01*
Y136201D01*
X32620D01*
Y136121D01*
X32580D01*
Y136081D01*
X32540D01*
Y136041D01*
X32500D01*
Y135961D01*
X32460D01*
Y135881D01*
X32420D01*
Y135841D01*
X32380D01*
Y135761D01*
X32340D01*
Y135682D01*
X32300D01*
Y135602D01*
X32261D01*
Y135522D01*
X32221D01*
Y135442D01*
X32181D01*
Y135322D01*
X32141D01*
Y135242D01*
X32101D01*
Y135162D01*
X32061D01*
Y135043D01*
X32021D01*
Y134963D01*
X31981D01*
Y134843D01*
X31941D01*
Y134763D01*
X31901D01*
Y134643D01*
X31861D01*
Y134523D01*
X31821D01*
Y134444D01*
X31781D01*
Y134324D01*
X31741D01*
Y134204D01*
X31701D01*
Y134084D01*
X31661D01*
Y133964D01*
X31622D01*
Y133845D01*
X31582D01*
Y133725D01*
X31542D01*
Y133605D01*
X31502D01*
Y133485D01*
X31462D01*
Y133365D01*
X31422D01*
Y133326D01*
Y133285D01*
Y133206D01*
X31382D01*
Y133086D01*
X31342D01*
Y132926D01*
X31302D01*
Y132766D01*
X31262D01*
Y132607D01*
X31222D01*
Y132407D01*
X31182D01*
Y132247D01*
X31142D01*
Y132088D01*
X31102D01*
Y131928D01*
X31062D01*
Y131808D01*
X31023D01*
Y131688D01*
X30983D01*
Y131608D01*
X30943D01*
Y131488D01*
X30903D01*
Y131409D01*
X30863D01*
Y131329D01*
X30823D01*
Y131209D01*
X30783D01*
Y131129D01*
X30743D01*
Y131049D01*
X30703D01*
Y131009D01*
X30663D01*
Y130929D01*
X30623D01*
Y130850D01*
X30583D01*
Y130770D01*
X30543D01*
Y130730D01*
X30503D01*
Y130650D01*
X30463D01*
Y130570D01*
X30424D01*
Y130530D01*
X30384D01*
Y130490D01*
X30344D01*
Y130410D01*
X30304D01*
Y130370D01*
X30264D01*
Y130330D01*
X30224D01*
Y130251D01*
X30184D01*
Y130210D01*
X30144D01*
Y130171D01*
X30104D01*
Y130131D01*
X30064D01*
Y130091D01*
X30024D01*
Y130051D01*
X29984D01*
Y130011D01*
X29944D01*
Y129971D01*
X29904D01*
Y129931D01*
X29864D01*
Y129891D01*
X29825D01*
Y129851D01*
X29785D01*
Y129811D01*
X29705D01*
Y129771D01*
X29665D01*
Y129731D01*
X29585D01*
Y129691D01*
X29545D01*
Y129651D01*
X29465D01*
Y129612D01*
X29385D01*
Y129572D01*
X29265D01*
Y129532D01*
X29146D01*
Y129492D01*
X28946D01*
Y129452D01*
X28267D01*
Y129492D01*
X28107D01*
Y129532D01*
X27948D01*
Y129572D01*
X27788D01*
Y129612D01*
X27668D01*
Y129651D01*
X27548D01*
Y129691D01*
X27428D01*
Y129731D01*
X27308D01*
Y129771D01*
X27189D01*
Y129811D01*
X27069D01*
Y129851D01*
X26909D01*
Y129891D01*
X26789D01*
Y129931D01*
X26550D01*
Y129971D01*
X26031D01*
Y129931D01*
X25871D01*
Y129891D01*
X25751D01*
Y129851D01*
X25631D01*
Y129811D01*
X25551D01*
Y129771D01*
X25471D01*
Y129731D01*
X25392D01*
Y129691D01*
X25312D01*
Y129651D01*
X25272D01*
Y129612D01*
X25192D01*
Y129572D01*
X25112D01*
Y129532D01*
X25072D01*
Y129492D01*
X24992D01*
Y129452D01*
X24952D01*
Y129412D01*
X24913D01*
Y129372D01*
X24833D01*
Y129332D01*
X24793D01*
Y129292D01*
X24713D01*
Y129252D01*
X24553D01*
Y129292D01*
X24513D01*
Y129452D01*
X24553D01*
Y129492D01*
X24593D01*
Y129532D01*
X24633D01*
Y129572D01*
X24673D01*
Y129612D01*
X24713D01*
Y129651D01*
X24753D01*
Y129691D01*
X24793D01*
Y129731D01*
X24872D01*
Y129771D01*
X24913D01*
Y129811D01*
X24992D01*
Y129851D01*
X25032D01*
Y129891D01*
X25112D01*
Y129931D01*
X25192D01*
Y129971D01*
X25272D01*
Y130011D01*
X25312D01*
Y130051D01*
X25432D01*
Y130091D01*
X25512D01*
Y130131D01*
X25631D01*
Y130171D01*
X25871D01*
Y130210D01*
X26670D01*
Y130171D01*
X26869D01*
Y130131D01*
X27069D01*
Y130091D01*
X27229D01*
Y130051D01*
X27349D01*
Y130011D01*
X27468D01*
Y129971D01*
X27588D01*
Y129931D01*
X27708D01*
Y129891D01*
X27828D01*
Y129851D01*
X27908D01*
Y129811D01*
X28027D01*
Y129771D01*
X28187D01*
Y129731D01*
X28507D01*
Y129691D01*
X28587D01*
Y129731D01*
X28866D01*
Y129771D01*
X29026D01*
Y129811D01*
X29146D01*
Y129851D01*
X29225D01*
Y129891D01*
X29305D01*
Y129931D01*
X29385D01*
Y129971D01*
X29465D01*
Y130011D01*
X29505D01*
Y130051D01*
X29585D01*
Y130091D01*
X29625D01*
Y130131D01*
X29665D01*
Y130171D01*
X29705D01*
Y130210D01*
X29785D01*
Y130251D01*
X29825D01*
Y130290D01*
X29864D01*
Y130330D01*
X29904D01*
Y130370D01*
X29944D01*
Y130410D01*
X29984D01*
Y130490D01*
X30024D01*
Y130530D01*
X30064D01*
Y130570D01*
X30104D01*
Y130610D01*
X30144D01*
Y130690D01*
X30184D01*
Y130730D01*
X30224D01*
Y130770D01*
X30264D01*
Y130850D01*
X30304D01*
Y130889D01*
X30344D01*
Y130969D01*
X30384D01*
Y131049D01*
X30424D01*
Y131129D01*
X30463D01*
Y131169D01*
X30503D01*
Y131249D01*
X30543D01*
Y131329D01*
X30583D01*
Y131409D01*
X30623D01*
Y131488D01*
X30663D01*
Y131608D01*
X30703D01*
Y131688D01*
X30743D01*
Y131808D01*
X30783D01*
Y131888D01*
X30823D01*
Y132008D01*
X30863D01*
Y132167D01*
X30903D01*
Y132327D01*
X30943D01*
Y132447D01*
X30983D01*
Y132647D01*
X31023D01*
Y132806D01*
X31062D01*
Y132966D01*
X31102D01*
Y133166D01*
X31142D01*
Y133326D01*
X31182D01*
Y133485D01*
X31222D01*
Y133645D01*
X31262D01*
Y133805D01*
X31302D01*
Y133924D01*
X31342D01*
Y134084D01*
X31382D01*
Y134204D01*
X31422D01*
Y134324D01*
X31462D01*
Y134444D01*
X31502D01*
Y134563D01*
X31542D01*
Y134683D01*
X31582D01*
Y134763D01*
X31622D01*
Y134883D01*
X31661D01*
Y134963D01*
X31701D01*
Y135043D01*
X31741D01*
Y135162D01*
X31781D01*
Y135242D01*
X31821D01*
Y135322D01*
X31861D01*
Y135402D01*
X31901D01*
Y135482D01*
X31941D01*
Y135562D01*
X31981D01*
Y135602D01*
X32021D01*
Y135682D01*
X32061D01*
Y135761D01*
X32101D01*
Y135841D01*
X32141D01*
Y135881D01*
X32181D01*
Y135961D01*
X32221D01*
Y136001D01*
X32261D01*
Y136081D01*
X32300D01*
Y136121D01*
X32340D01*
Y136201D01*
X32380D01*
Y136241D01*
X32420D01*
Y136281D01*
X32460D01*
Y136321D01*
X32500D01*
Y136400D01*
X32540D01*
Y136440D01*
X32580D01*
Y136480D01*
X32620D01*
Y136520D01*
X32660D01*
Y136560D01*
X32700D01*
Y136640D01*
X32740D01*
Y136680D01*
X32780D01*
Y136720D01*
X32820D01*
Y136760D01*
X32860D01*
Y136800D01*
X32899D01*
Y136840D01*
X32939D01*
Y136880D01*
X32979D01*
Y136920D01*
X33019D01*
Y136960D01*
X33059D01*
Y136999D01*
X33099D01*
Y137039D01*
X33179D01*
Y137079D01*
X33219D01*
Y137119D01*
X33259D01*
Y137159D01*
X33299D01*
Y137199D01*
X33339D01*
Y137239D01*
X33419D01*
Y137279D01*
X33459D01*
Y137319D01*
X33498D01*
Y137359D01*
X33578D01*
Y137399D01*
X33618D01*
Y137439D01*
X33698D01*
Y137479D01*
X33738D01*
Y137519D01*
X33818D01*
Y137559D01*
X33858D01*
Y137599D01*
X33938D01*
Y137638D01*
X34018D01*
Y137678D01*
X34058D01*
Y137718D01*
X34137D01*
Y137758D01*
X34217D01*
Y137798D01*
X34297D01*
Y137838D01*
X34377D01*
Y137878D01*
X34457D01*
Y137918D01*
X34537D01*
Y137958D01*
X34617D01*
Y137998D01*
X34696D01*
Y138038D01*
X34816D01*
Y138078D01*
X34896D01*
Y138118D01*
X35016D01*
Y138158D01*
X35096D01*
Y138198D01*
X35216D01*
Y138238D01*
X35335D01*
Y138277D01*
X35455D01*
Y138317D01*
X35615D01*
Y138357D01*
X35735D01*
Y138397D01*
X35895D01*
Y138437D01*
X36054D01*
Y138477D01*
X36254D01*
Y138517D01*
X36454D01*
Y138557D01*
X36613D01*
Y138597D01*
X36813D01*
Y138557D01*
D02*
G37*
G36*
X29585Y129052D02*
X29625D01*
Y129013D01*
X29665D01*
Y128973D01*
X29705D01*
Y128933D01*
X29745D01*
Y128893D01*
X29825D01*
Y128853D01*
X29864D01*
Y128813D01*
X29944D01*
Y128773D01*
X29984D01*
Y128733D01*
X30064D01*
Y128693D01*
X30144D01*
Y128653D01*
X30024D01*
Y128693D01*
X29904D01*
Y128733D01*
X29825D01*
Y128773D01*
X29745D01*
Y128813D01*
X29585D01*
Y128773D01*
X29545D01*
Y128453D01*
X29425D01*
Y128413D01*
X29345D01*
Y128374D01*
X29265D01*
Y128334D01*
X29225D01*
Y128254D01*
X29186D01*
Y128214D01*
X29146D01*
Y128134D01*
X29106D01*
Y128014D01*
X29066D01*
Y128453D01*
X29106D01*
Y128493D01*
X29146D01*
Y128533D01*
X29186D01*
Y128573D01*
X29225D01*
Y128733D01*
X29186D01*
Y128813D01*
X29345D01*
Y128853D01*
X29385D01*
Y128893D01*
X29425D01*
Y128933D01*
X29465D01*
Y128973D01*
X29505D01*
Y129092D01*
X29585D01*
Y129052D01*
D02*
G37*
G36*
X35256Y129771D02*
X35335D01*
Y129731D01*
X35415D01*
Y129691D01*
X35455D01*
Y129572D01*
X35415D01*
Y129452D01*
X35375D01*
Y129332D01*
X35335D01*
Y129212D01*
X35296D01*
Y129132D01*
X35256D01*
Y129052D01*
X35216D01*
Y128973D01*
X35176D01*
Y128893D01*
X35136D01*
Y128813D01*
X35096D01*
Y128733D01*
X35056D01*
Y128653D01*
X35016D01*
Y128573D01*
X34976D01*
Y128533D01*
X34936D01*
Y128453D01*
X34896D01*
Y128413D01*
X34856D01*
Y128334D01*
X34776D01*
Y128374D01*
X34736D01*
Y128413D01*
X34696D01*
Y128453D01*
X34657D01*
Y128533D01*
X34696D01*
Y128573D01*
X34736D01*
Y128653D01*
X34776D01*
Y128693D01*
X34816D01*
Y128773D01*
X34856D01*
Y128853D01*
X34896D01*
Y128933D01*
X34936D01*
Y129013D01*
X34976D01*
Y129092D01*
X35016D01*
Y129212D01*
X35056D01*
Y129292D01*
X35096D01*
Y129412D01*
X35136D01*
Y129532D01*
X35176D01*
Y129651D01*
X35216D01*
Y129811D01*
X35256D01*
Y129771D01*
D02*
G37*
G36*
X34537Y128134D02*
X34577D01*
Y128094D01*
X34617D01*
Y128014D01*
X34577D01*
Y127934D01*
X34537D01*
Y127894D01*
X34497D01*
Y127854D01*
X34457D01*
Y127814D01*
X34417D01*
Y127775D01*
X34377D01*
Y127695D01*
X34337D01*
Y127655D01*
X34297D01*
Y127615D01*
X34257D01*
Y127575D01*
X34217D01*
Y127535D01*
X34177D01*
Y127495D01*
X34137D01*
Y127455D01*
X34097D01*
Y127415D01*
X34058D01*
Y127375D01*
X34018D01*
Y127335D01*
X33978D01*
Y127295D01*
X33938D01*
Y127255D01*
X33898D01*
Y127215D01*
X33858D01*
Y127175D01*
X33818D01*
Y127136D01*
X33778D01*
Y127096D01*
X33738D01*
Y127056D01*
X33698D01*
Y127016D01*
X33658D01*
Y126976D01*
X33538D01*
Y127016D01*
X33498D01*
Y127056D01*
X33419D01*
Y127096D01*
X33379D01*
Y127136D01*
X33419D01*
Y127175D01*
X33459D01*
Y127215D01*
X33498D01*
Y127255D01*
X33578D01*
Y127295D01*
X33618D01*
Y127335D01*
X33658D01*
Y127375D01*
X33698D01*
Y127415D01*
X33738D01*
Y127455D01*
X33778D01*
Y127495D01*
X33818D01*
Y127535D01*
X33858D01*
Y127575D01*
X33898D01*
Y127615D01*
X33938D01*
Y127655D01*
X33978D01*
Y127695D01*
X34018D01*
Y127734D01*
X34058D01*
Y127775D01*
X34097D01*
Y127814D01*
X34137D01*
Y127854D01*
X34177D01*
Y127894D01*
X34217D01*
Y127934D01*
X34257D01*
Y127974D01*
X34297D01*
Y128054D01*
X34337D01*
Y128094D01*
X34377D01*
Y128134D01*
X34417D01*
Y128174D01*
X34457D01*
Y128214D01*
X34537D01*
Y128134D01*
D02*
G37*
G36*
X29225Y127854D02*
X29186D01*
Y127655D01*
X29225D01*
Y127495D01*
X29265D01*
Y127455D01*
X29305D01*
Y127415D01*
X29345D01*
Y127375D01*
X29385D01*
Y127335D01*
X29505D01*
Y127215D01*
Y127175D01*
Y127016D01*
X29545D01*
Y126976D01*
X29465D01*
Y127016D01*
X29345D01*
Y126976D01*
X29265D01*
Y126936D01*
X29225D01*
Y127096D01*
X29186D01*
Y127215D01*
X29146D01*
Y127295D01*
X29106D01*
Y127335D01*
X29066D01*
Y127375D01*
X28986D01*
Y127415D01*
X28906D01*
Y127455D01*
X28826D01*
Y127495D01*
X28866D01*
Y127575D01*
X28906D01*
Y127615D01*
X28946D01*
Y127655D01*
X28986D01*
Y127734D01*
X29026D01*
Y127775D01*
X29066D01*
Y127854D01*
X29106D01*
Y127894D01*
X29146D01*
Y127934D01*
X29186D01*
Y128014D01*
X29225D01*
Y127854D01*
D02*
G37*
G36*
X33219Y126856D02*
X33259D01*
Y126776D01*
X33299D01*
Y126656D01*
X33259D01*
Y126616D01*
X33219D01*
Y126576D01*
X33179D01*
Y126537D01*
X33139D01*
Y126497D01*
X33099D01*
Y126457D01*
X33059D01*
Y126417D01*
X33019D01*
Y126377D01*
X32979D01*
Y126337D01*
X32939D01*
Y126297D01*
X32899D01*
Y126257D01*
X32860D01*
Y126217D01*
X32780D01*
Y126177D01*
X32740D01*
Y126137D01*
X32700D01*
Y126097D01*
X32660D01*
Y126057D01*
X32620D01*
Y126017D01*
X32580D01*
Y125977D01*
X32540D01*
Y125937D01*
X32500D01*
Y125898D01*
X32460D01*
Y125858D01*
X32420D01*
Y125818D01*
X32340D01*
Y125778D01*
X32300D01*
Y125738D01*
X32261D01*
Y125698D01*
X32221D01*
Y125658D01*
X32181D01*
Y125618D01*
X32141D01*
Y125578D01*
X32101D01*
Y125538D01*
X32061D01*
Y125498D01*
X32021D01*
Y125458D01*
X31981D01*
Y125418D01*
X31941D01*
Y125458D01*
X31901D01*
Y125498D01*
X31861D01*
Y125538D01*
X31821D01*
Y125578D01*
X31781D01*
Y125618D01*
X31701D01*
Y125698D01*
X31781D01*
Y125738D01*
X31821D01*
Y125778D01*
X31861D01*
Y125818D01*
X31901D01*
Y125858D01*
X31981D01*
Y125898D01*
X32021D01*
Y125937D01*
X32061D01*
Y125977D01*
X32101D01*
Y126017D01*
X32141D01*
Y126057D01*
X32221D01*
Y126097D01*
X32261D01*
Y126137D01*
X32300D01*
Y126177D01*
X32340D01*
Y126217D01*
X32420D01*
Y126257D01*
X32460D01*
Y126297D01*
X32500D01*
Y126337D01*
X32540D01*
Y126377D01*
X32580D01*
Y126417D01*
X32660D01*
Y126457D01*
X32700D01*
Y126497D01*
X32740D01*
Y126537D01*
X32780D01*
Y126576D01*
X32820D01*
Y126616D01*
X32860D01*
Y126656D01*
X32899D01*
Y126696D01*
X32939D01*
Y126736D01*
X32979D01*
Y126776D01*
X33019D01*
Y126816D01*
X33099D01*
Y126856D01*
X33139D01*
Y126896D01*
X33179D01*
Y126936D01*
X33219D01*
Y126856D01*
D02*
G37*
G36*
X29785Y128613D02*
X29864D01*
Y128573D01*
X29944D01*
Y128533D01*
X30064D01*
Y128493D01*
X30184D01*
Y128453D01*
X30424D01*
Y128493D01*
X30463D01*
Y128094D01*
X30503D01*
Y127894D01*
X30543D01*
Y127775D01*
X30583D01*
Y127655D01*
X30623D01*
Y127615D01*
X30663D01*
Y127535D01*
X30543D01*
Y127495D01*
X30463D01*
Y127455D01*
X30384D01*
Y127415D01*
X30344D01*
Y127375D01*
X30304D01*
Y127295D01*
X30264D01*
Y127215D01*
X30224D01*
Y127096D01*
X30184D01*
Y126816D01*
X30144D01*
Y126497D01*
X30104D01*
Y126457D01*
X30144D01*
Y126417D01*
X30104D01*
Y125658D01*
X30144D01*
Y125538D01*
X30184D01*
Y125458D01*
X30224D01*
Y125498D01*
X30304D01*
Y125538D01*
X30344D01*
Y125578D01*
X30424D01*
Y125618D01*
X30543D01*
Y125658D01*
X30703D01*
Y125698D01*
X31023D01*
Y125658D01*
X31182D01*
Y125618D01*
X31262D01*
Y125578D01*
X31222D01*
Y125538D01*
X31182D01*
Y125498D01*
X31102D01*
Y125458D01*
X31062D01*
Y125418D01*
X31023D01*
Y125378D01*
X30943D01*
Y125338D01*
X30903D01*
Y125299D01*
X30863D01*
Y125259D01*
X30783D01*
Y125219D01*
X30743D01*
Y125179D01*
X30703D01*
Y125139D01*
X30623D01*
Y125099D01*
X30583D01*
Y125059D01*
X30543D01*
Y125019D01*
X30503D01*
Y124979D01*
X30424D01*
Y124939D01*
X30384D01*
Y124899D01*
X30344D01*
Y124859D01*
X30224D01*
Y124819D01*
X29785D01*
Y124859D01*
X29625D01*
Y124899D01*
X29545D01*
Y124939D01*
X29505D01*
Y124979D01*
X29465D01*
Y125059D01*
X29425D01*
Y125139D01*
X29465D01*
Y125498D01*
X29505D01*
Y125658D01*
X29545D01*
Y125778D01*
X29585D01*
Y125898D01*
X29625D01*
Y126097D01*
X29665D01*
Y126457D01*
X29705D01*
Y127136D01*
X29665D01*
Y127335D01*
X29705D01*
Y127415D01*
X29745D01*
Y127455D01*
X29785D01*
Y127495D01*
X29825D01*
Y127535D01*
X29864D01*
Y127575D01*
X29944D01*
Y127615D01*
X30024D01*
Y127655D01*
X30064D01*
Y127695D01*
X30104D01*
Y127734D01*
X30144D01*
Y127775D01*
X30184D01*
Y127974D01*
X30144D01*
Y128054D01*
X30104D01*
Y128094D01*
X30064D01*
Y128134D01*
X30024D01*
Y128174D01*
X29944D01*
Y128214D01*
X29864D01*
Y128254D01*
X29825D01*
Y128214D01*
X29745D01*
Y128174D01*
X29705D01*
Y128094D01*
X29665D01*
Y128014D01*
X29625D01*
Y127894D01*
X29585D01*
Y127695D01*
X29545D01*
Y127734D01*
X29505D01*
Y127814D01*
X29465D01*
Y127934D01*
X29425D01*
Y127974D01*
X29465D01*
Y128014D01*
X29425D01*
Y128054D01*
X29465D01*
Y128214D01*
X29505D01*
Y128254D01*
X29545D01*
Y128294D01*
X29585D01*
Y128334D01*
X29625D01*
Y128413D01*
X29665D01*
Y128533D01*
X29625D01*
Y128653D01*
X29785D01*
Y128613D01*
D02*
G37*
G36*
X31462Y125418D02*
X31502D01*
Y125338D01*
X31542D01*
Y125299D01*
X31582D01*
Y125219D01*
X31622D01*
Y125099D01*
X31582D01*
Y125059D01*
X31502D01*
Y125019D01*
X31462D01*
Y124979D01*
X31422D01*
Y124939D01*
X31382D01*
Y124899D01*
X31342D01*
Y124859D01*
X31302D01*
Y124819D01*
X31262D01*
Y124779D01*
X31222D01*
Y124740D01*
X31182D01*
Y124699D01*
X31102D01*
Y124660D01*
X31062D01*
Y124620D01*
X31023D01*
Y124580D01*
X30983D01*
Y124540D01*
X30943D01*
Y124500D01*
X30903D01*
Y124460D01*
X30863D01*
Y124420D01*
X30823D01*
Y124380D01*
X30783D01*
Y124340D01*
X30743D01*
Y124300D01*
X30663D01*
Y124260D01*
X30623D01*
Y124220D01*
X30583D01*
Y124180D01*
X30543D01*
Y124140D01*
X30503D01*
Y124100D01*
X30463D01*
Y124061D01*
X30424D01*
Y124021D01*
X30384D01*
Y123981D01*
X30344D01*
Y124021D01*
X30304D01*
Y124061D01*
X30264D01*
Y124100D01*
X30224D01*
Y124140D01*
X30184D01*
Y124180D01*
X30144D01*
Y124220D01*
X30104D01*
Y124260D01*
X30064D01*
Y124300D01*
X30104D01*
Y124340D01*
X30184D01*
Y124380D01*
X30224D01*
Y124420D01*
X30264D01*
Y124460D01*
X30304D01*
Y124500D01*
X30344D01*
Y124540D01*
X30384D01*
Y124580D01*
X30424D01*
Y124620D01*
X30463D01*
Y124660D01*
X30543D01*
Y124699D01*
X30583D01*
Y124740D01*
X30623D01*
Y124779D01*
X30663D01*
Y124819D01*
X30703D01*
Y124859D01*
X30743D01*
Y124899D01*
X30823D01*
Y124939D01*
X30863D01*
Y124979D01*
X30903D01*
Y125019D01*
X30943D01*
Y125059D01*
X30983D01*
Y125099D01*
X31023D01*
Y125139D01*
X31102D01*
Y125179D01*
X31142D01*
Y125219D01*
X31182D01*
Y125259D01*
X31222D01*
Y125299D01*
X31262D01*
Y125338D01*
X31342D01*
Y125378D01*
X31382D01*
Y125418D01*
X31422D01*
Y125458D01*
X31462D01*
Y125418D01*
D02*
G37*
G36*
X33778Y125937D02*
X33938D01*
Y125898D01*
X34018D01*
Y125858D01*
X34097D01*
Y125818D01*
X34137D01*
Y125778D01*
X34217D01*
Y125738D01*
X34257D01*
Y125698D01*
X34297D01*
Y125658D01*
X34337D01*
Y125618D01*
X34377D01*
Y125578D01*
X34417D01*
Y125538D01*
X34457D01*
Y125458D01*
X34497D01*
Y125418D01*
X34537D01*
Y125378D01*
X34577D01*
Y125338D01*
X34617D01*
Y125259D01*
X34657D01*
Y125219D01*
X34696D01*
Y125139D01*
X34736D01*
Y125099D01*
X34776D01*
Y125059D01*
X34816D01*
Y124979D01*
X34856D01*
Y124939D01*
X34896D01*
Y124899D01*
X34936D01*
Y124859D01*
X34976D01*
Y124819D01*
X35016D01*
Y124779D01*
X35096D01*
Y124740D01*
X35136D01*
Y124699D01*
X35176D01*
Y124660D01*
X35256D01*
Y124620D01*
X35296D01*
Y124580D01*
X35375D01*
Y124540D01*
X35455D01*
Y124500D01*
X35535D01*
Y124460D01*
X35615D01*
Y124420D01*
X35695D01*
Y124380D01*
X35815D01*
Y124340D01*
X35934D01*
Y124300D01*
X36014D01*
Y124260D01*
X36054D01*
Y124220D01*
X36094D01*
Y124180D01*
X36134D01*
Y124140D01*
X36174D01*
Y124061D01*
X36214D01*
Y123981D01*
X36254D01*
Y123901D01*
X36294D01*
Y123741D01*
X36334D01*
Y123422D01*
X36294D01*
Y123342D01*
X36254D01*
Y123302D01*
X36214D01*
Y123262D01*
X35934D01*
Y123222D01*
X35695D01*
Y123182D01*
X35575D01*
Y123142D01*
X35455D01*
Y123102D01*
X35375D01*
Y123062D01*
X35296D01*
Y123022D01*
X35216D01*
Y122982D01*
X35136D01*
Y122942D01*
X35096D01*
Y122902D01*
X35016D01*
Y122863D01*
X34976D01*
Y122823D01*
X34936D01*
Y122783D01*
X34856D01*
Y122743D01*
X34816D01*
Y122703D01*
X34776D01*
Y122663D01*
X34696D01*
Y122623D01*
X34577D01*
Y122583D01*
X34337D01*
Y122623D01*
X34257D01*
Y122663D01*
X34177D01*
Y122703D01*
X34097D01*
Y122743D01*
X34058D01*
Y122783D01*
X34018D01*
Y122823D01*
X33898D01*
Y122783D01*
X33858D01*
Y122743D01*
X33698D01*
Y122863D01*
X33538D01*
Y122823D01*
X33498D01*
Y122783D01*
X33459D01*
Y122583D01*
X33498D01*
Y122503D01*
X33538D01*
Y122423D01*
X33578D01*
Y122343D01*
X33618D01*
Y122264D01*
X33658D01*
Y122224D01*
X33698D01*
Y122184D01*
X33738D01*
Y122144D01*
X33658D01*
Y122184D01*
X33578D01*
Y122224D01*
X33538D01*
Y122264D01*
X33459D01*
Y122303D01*
X33419D01*
Y122343D01*
X33379D01*
Y122423D01*
X33339D01*
Y122463D01*
X33299D01*
Y122543D01*
X33259D01*
Y122623D01*
X33219D01*
Y122823D01*
X33259D01*
Y122942D01*
X33299D01*
Y122982D01*
X33339D01*
Y123022D01*
X33379D01*
Y123062D01*
X33419D01*
Y123102D01*
X33459D01*
Y123142D01*
X33498D01*
Y123182D01*
X33538D01*
Y123262D01*
X33578D01*
Y123302D01*
X33618D01*
Y123382D01*
X33658D01*
Y123422D01*
X33698D01*
Y123382D01*
X33738D01*
Y123302D01*
X33778D01*
Y123262D01*
X33818D01*
Y123222D01*
X33858D01*
Y123182D01*
X33898D01*
Y123142D01*
X33938D01*
Y123102D01*
X34018D01*
Y123062D01*
X34097D01*
Y123022D01*
X34617D01*
Y123062D01*
X34776D01*
Y123102D01*
X34856D01*
Y123142D01*
X34976D01*
Y123182D01*
X35056D01*
Y123222D01*
X35136D01*
Y123262D01*
X35176D01*
Y123302D01*
X35256D01*
Y123342D01*
X35296D01*
Y123382D01*
X35335D01*
Y123422D01*
X35415D01*
Y123461D01*
X35455D01*
Y123501D01*
X35495D01*
Y123581D01*
X35535D01*
Y123661D01*
X35575D01*
Y123741D01*
X35535D01*
Y123821D01*
X35495D01*
Y123861D01*
X35455D01*
Y123901D01*
X35415D01*
Y123941D01*
X35335D01*
Y123981D01*
X35216D01*
Y124021D01*
X35056D01*
Y124061D01*
X34856D01*
Y124100D01*
X34816D01*
Y124061D01*
X34776D01*
Y124100D01*
X34537D01*
Y124140D01*
X34257D01*
Y124180D01*
X34058D01*
Y124220D01*
X33898D01*
Y124260D01*
X33818D01*
Y124300D01*
X33738D01*
Y124340D01*
X33658D01*
Y124380D01*
X33618D01*
Y124420D01*
X33538D01*
Y124460D01*
X33498D01*
Y124500D01*
X33459D01*
Y124540D01*
X33419D01*
Y124580D01*
X33379D01*
Y124620D01*
X33339D01*
Y124699D01*
X33299D01*
Y124740D01*
X33259D01*
Y124779D01*
X33219D01*
Y124859D01*
X33179D01*
Y124939D01*
X33139D01*
Y125019D01*
X33099D01*
Y125139D01*
X33059D01*
Y125538D01*
X33099D01*
Y125618D01*
X33139D01*
Y125698D01*
X33179D01*
Y125738D01*
X33219D01*
Y125778D01*
X33259D01*
Y125818D01*
X33339D01*
Y125858D01*
X33379D01*
Y125898D01*
X33498D01*
Y125937D01*
X33658D01*
Y125977D01*
X33778D01*
Y125937D01*
D02*
G37*
G36*
X32540Y122942D02*
X32500D01*
Y122982D01*
X32540D01*
Y122942D01*
D02*
G37*
G36*
X33339Y123302D02*
X33299D01*
Y123142D01*
X33259D01*
Y123102D01*
X33219D01*
Y123062D01*
X33179D01*
Y122982D01*
X33139D01*
Y122902D01*
X33099D01*
Y122623D01*
X33059D01*
Y122543D01*
X33019D01*
Y122343D01*
X33059D01*
Y122264D01*
X33099D01*
Y122184D01*
X33139D01*
Y122144D01*
X33179D01*
Y122104D01*
X33139D01*
Y122144D01*
X33059D01*
Y122184D01*
X33019D01*
Y122224D01*
X32939D01*
Y122264D01*
X32899D01*
Y122303D01*
X32860D01*
Y122343D01*
X32820D01*
Y122383D01*
X32780D01*
Y122463D01*
X32740D01*
Y122663D01*
X32700D01*
Y122703D01*
X32740D01*
Y122863D01*
X32780D01*
Y122902D01*
X32820D01*
Y122942D01*
X32939D01*
Y122982D01*
X32979D01*
Y123022D01*
X33019D01*
Y123062D01*
X33099D01*
Y123102D01*
X33139D01*
Y123182D01*
X33179D01*
Y123222D01*
X33219D01*
Y123262D01*
X33259D01*
Y123342D01*
X33299D01*
Y123382D01*
X33339D01*
Y123302D01*
D02*
G37*
G36*
X29825Y123981D02*
X29864D01*
Y123941D01*
X29904D01*
Y123901D01*
X29944D01*
Y123861D01*
X29984D01*
Y123821D01*
X30024D01*
Y123781D01*
X30064D01*
Y123701D01*
X30024D01*
Y123661D01*
X29984D01*
Y123621D01*
X29944D01*
Y123581D01*
X29904D01*
Y123541D01*
X29864D01*
Y123501D01*
X29825D01*
Y123461D01*
X29785D01*
Y123422D01*
X29745D01*
Y123382D01*
X29705D01*
Y123342D01*
X29665D01*
Y123302D01*
X29625D01*
Y123262D01*
X29585D01*
Y123222D01*
X29545D01*
Y123182D01*
X29505D01*
Y123142D01*
X29465D01*
Y123102D01*
X29425D01*
Y123062D01*
X29385D01*
Y123022D01*
X29345D01*
Y122982D01*
X29305D01*
Y122942D01*
X29265D01*
Y122902D01*
X29225D01*
Y122863D01*
X29186D01*
Y122823D01*
X29146D01*
Y122783D01*
X29106D01*
Y122743D01*
X29066D01*
Y122663D01*
X29026D01*
Y122623D01*
X28986D01*
Y122583D01*
X28946D01*
Y122543D01*
X28906D01*
Y122503D01*
X28866D01*
Y122463D01*
X28826D01*
Y122423D01*
X28786D01*
Y122343D01*
X28746D01*
Y122303D01*
X28706D01*
Y122264D01*
X28666D01*
Y122224D01*
X28626D01*
Y122184D01*
X28587D01*
Y122104D01*
X28547D01*
Y122064D01*
X28507D01*
Y122024D01*
X28427D01*
Y122064D01*
X28387D01*
Y122104D01*
X28307D01*
Y122144D01*
X28267D01*
Y122184D01*
X28227D01*
Y122224D01*
X28187D01*
Y122264D01*
X28147D01*
Y122303D01*
X28187D01*
Y122383D01*
X28227D01*
Y122423D01*
X28267D01*
Y122463D01*
X28307D01*
Y122503D01*
X28347D01*
Y122543D01*
X28387D01*
Y122583D01*
X28427D01*
Y122623D01*
X28467D01*
Y122703D01*
X28507D01*
Y122743D01*
X28547D01*
Y122783D01*
X28587D01*
Y122823D01*
X28626D01*
Y122863D01*
X28666D01*
Y122902D01*
X28706D01*
Y122942D01*
X28746D01*
Y122982D01*
X28786D01*
Y123022D01*
X28826D01*
Y123062D01*
X28866D01*
Y123142D01*
X28906D01*
Y123182D01*
X28946D01*
Y123222D01*
X28986D01*
Y123262D01*
X29026D01*
Y123302D01*
X29066D01*
Y123342D01*
X29106D01*
Y123382D01*
X29146D01*
Y123422D01*
X29186D01*
Y123461D01*
X29225D01*
Y123501D01*
X29265D01*
Y123541D01*
X29305D01*
Y123581D01*
X29345D01*
Y123621D01*
X29385D01*
Y123661D01*
X29425D01*
Y123701D01*
X29465D01*
Y123741D01*
X29505D01*
Y123781D01*
X29545D01*
Y123821D01*
X29585D01*
Y123861D01*
X29665D01*
Y123901D01*
X29705D01*
Y123941D01*
X29745D01*
Y123981D01*
X29785D01*
Y124021D01*
X29825D01*
Y123981D01*
D02*
G37*
G36*
X36853Y121984D02*
X36813D01*
Y122024D01*
X36853D01*
Y121984D01*
D02*
G37*
G36*
X34217Y122463D02*
X34457D01*
Y122423D01*
X34537D01*
Y122463D01*
X34577D01*
Y122423D01*
X34617D01*
Y122463D01*
X34776D01*
Y122423D01*
X34736D01*
Y122383D01*
X34696D01*
Y122343D01*
X34657D01*
Y122303D01*
X34617D01*
Y122264D01*
X34577D01*
Y122224D01*
X34537D01*
Y122184D01*
X34497D01*
Y122144D01*
X34457D01*
Y122064D01*
X34417D01*
Y121944D01*
X34377D01*
Y121784D01*
X34337D01*
Y121704D01*
X34177D01*
Y121665D01*
X33898D01*
Y121704D01*
X33858D01*
Y121744D01*
X33778D01*
Y121784D01*
X33698D01*
Y121824D01*
X33658D01*
Y121864D01*
X33578D01*
Y121904D01*
X33498D01*
Y121944D01*
X33459D01*
Y121984D01*
X33498D01*
Y121944D01*
X33698D01*
Y121904D01*
X33738D01*
Y121944D01*
X33778D01*
Y121904D01*
X33858D01*
Y121944D01*
X34058D01*
Y121984D01*
X34097D01*
Y122024D01*
X34137D01*
Y122064D01*
X34177D01*
Y122144D01*
X34217D01*
Y122383D01*
X34177D01*
Y122503D01*
X34217D01*
Y122463D01*
D02*
G37*
G36*
X32500Y122863D02*
X32460D01*
Y122743D01*
X32420D01*
Y122583D01*
X32380D01*
Y122104D01*
X32420D01*
Y121944D01*
X32460D01*
Y121385D01*
X32420D01*
Y121225D01*
X32380D01*
Y121145D01*
X32340D01*
Y121065D01*
X32300D01*
Y121026D01*
X32261D01*
Y120946D01*
X32221D01*
Y120906D01*
X32181D01*
Y120866D01*
X32141D01*
Y120826D01*
X32101D01*
Y121026D01*
X32141D01*
Y121505D01*
X32101D01*
Y121665D01*
X32061D01*
Y121744D01*
X32021D01*
Y121784D01*
X31861D01*
Y121744D01*
X31781D01*
Y121704D01*
X31741D01*
Y121625D01*
X31701D01*
Y121545D01*
X31661D01*
Y121145D01*
X31701D01*
Y120866D01*
X31741D01*
Y120706D01*
X31781D01*
Y120626D01*
X31821D01*
Y120506D01*
X31861D01*
Y120387D01*
X31901D01*
Y120147D01*
X31861D01*
Y120027D01*
X31821D01*
Y119987D01*
X31781D01*
Y120067D01*
X31741D01*
Y120147D01*
X31701D01*
Y120227D01*
X31661D01*
Y120267D01*
X31622D01*
Y120347D01*
X31582D01*
Y120387D01*
X31542D01*
Y120426D01*
X31502D01*
Y120466D01*
X31422D01*
Y120506D01*
X31342D01*
Y120546D01*
X31182D01*
Y120506D01*
X31102D01*
Y120466D01*
X31062D01*
Y120426D01*
X30983D01*
Y120347D01*
X30943D01*
Y120267D01*
X30903D01*
Y120107D01*
X30943D01*
Y119987D01*
X30983D01*
Y119907D01*
X31023D01*
Y119867D01*
X31062D01*
Y119788D01*
X31102D01*
Y119748D01*
X31142D01*
Y119708D01*
X31182D01*
Y119668D01*
X31262D01*
Y119628D01*
X31302D01*
Y119588D01*
X31382D01*
Y119548D01*
X31542D01*
Y119508D01*
X31781D01*
Y119468D01*
X31861D01*
Y119428D01*
X31941D01*
Y119388D01*
X31981D01*
Y119348D01*
X32061D01*
Y119308D01*
X32101D01*
Y119268D01*
X32141D01*
Y119228D01*
X32061D01*
Y119188D01*
X31941D01*
Y119149D01*
X31821D01*
Y119109D01*
X31741D01*
Y119069D01*
X31661D01*
Y119029D01*
X31582D01*
Y118989D01*
X31542D01*
Y118949D01*
X31462D01*
Y118909D01*
X31422D01*
Y118869D01*
X31382D01*
Y118789D01*
X31342D01*
Y118709D01*
X31302D01*
Y118589D01*
X31342D01*
Y118510D01*
X31382D01*
Y118430D01*
X31422D01*
Y118390D01*
X31502D01*
Y118350D01*
X31741D01*
Y118390D01*
X31821D01*
Y118430D01*
X31901D01*
Y118470D01*
X31981D01*
Y118510D01*
X32021D01*
Y118550D01*
X32061D01*
Y118589D01*
X32101D01*
Y118629D01*
X32141D01*
Y118669D01*
X32181D01*
Y118709D01*
X32221D01*
Y118749D01*
X32261D01*
Y118789D01*
X32300D01*
Y118829D01*
X32340D01*
Y118909D01*
X32380D01*
Y118949D01*
X32420D01*
Y119029D01*
X32460D01*
Y119069D01*
Y119109D01*
X32500D01*
Y119149D01*
X32540D01*
Y119228D01*
X32580D01*
Y119268D01*
X32620D01*
Y119308D01*
X32660D01*
Y119348D01*
X32740D01*
Y119388D01*
X32820D01*
Y119428D01*
X32899D01*
Y119468D01*
X33059D01*
Y119508D01*
X33179D01*
Y119428D01*
X33139D01*
Y119308D01*
X33099D01*
Y119228D01*
X33059D01*
Y119149D01*
X33019D01*
Y119029D01*
X32979D01*
Y118909D01*
X32939D01*
Y118669D01*
X32979D01*
Y118629D01*
X33099D01*
Y118669D01*
X33219D01*
Y118709D01*
X33259D01*
Y118749D01*
X33339D01*
Y118789D01*
X33379D01*
Y118829D01*
X33419D01*
Y118869D01*
X33459D01*
Y118949D01*
X33498D01*
Y119029D01*
X33538D01*
Y119109D01*
X33578D01*
Y119268D01*
X33618D01*
Y119508D01*
X33658D01*
Y119668D01*
X33698D01*
Y119748D01*
X33738D01*
Y119827D01*
X33778D01*
Y119907D01*
X33818D01*
Y119987D01*
X33858D01*
Y120027D01*
X33898D01*
Y120067D01*
X33938D01*
Y120107D01*
X33978D01*
Y120147D01*
X34018D01*
Y120187D01*
X34058D01*
Y120227D01*
X34097D01*
Y120267D01*
X34177D01*
Y120307D01*
X34257D01*
Y120347D01*
X34297D01*
Y120387D01*
X34377D01*
Y120347D01*
X34337D01*
Y120267D01*
X34297D01*
Y120147D01*
X34257D01*
Y120067D01*
X34217D01*
Y119907D01*
X34177D01*
Y119748D01*
X34137D01*
Y119628D01*
X34177D01*
Y119548D01*
X34217D01*
Y119508D01*
X34297D01*
Y119548D01*
X34377D01*
Y119588D01*
X34457D01*
Y119628D01*
X34497D01*
Y119668D01*
X34537D01*
Y119708D01*
X34577D01*
Y119748D01*
X34617D01*
Y119827D01*
X34657D01*
Y119907D01*
X34696D01*
Y120027D01*
X34736D01*
Y120147D01*
X34776D01*
Y120267D01*
X34816D01*
Y120347D01*
X34856D01*
Y120426D01*
X34896D01*
Y120506D01*
X34936D01*
Y120586D01*
X34976D01*
Y120666D01*
X35016D01*
Y120706D01*
X35056D01*
Y120786D01*
X35096D01*
Y120826D01*
X35136D01*
Y120866D01*
X35176D01*
Y120906D01*
X35216D01*
Y120946D01*
X35256D01*
Y120986D01*
X35296D01*
Y121026D01*
X35335D01*
Y121065D01*
X35375D01*
Y121105D01*
X35455D01*
Y121145D01*
X35495D01*
Y121185D01*
X35575D01*
Y121225D01*
X35615D01*
Y121265D01*
X35695D01*
Y121225D01*
X35655D01*
Y121185D01*
X35615D01*
Y121105D01*
X35575D01*
Y121065D01*
X35535D01*
Y120986D01*
X35495D01*
Y120946D01*
X35455D01*
Y120866D01*
X35415D01*
Y120786D01*
X35375D01*
Y120666D01*
X35335D01*
Y120626D01*
X35375D01*
Y120546D01*
X35455D01*
Y120506D01*
X35615D01*
Y120546D01*
X35735D01*
Y120586D01*
X35775D01*
Y120626D01*
X35815D01*
Y120666D01*
X35855D01*
Y120746D01*
X35895D01*
Y120826D01*
X35934D01*
Y120946D01*
X35974D01*
Y121065D01*
X36014D01*
Y121145D01*
X36054D01*
Y121225D01*
X36094D01*
Y121305D01*
X36134D01*
Y121385D01*
X36174D01*
Y121465D01*
X36214D01*
Y121505D01*
X36254D01*
Y121545D01*
X36294D01*
Y121625D01*
X36334D01*
Y121665D01*
X36374D01*
Y121704D01*
X36414D01*
Y121744D01*
X36454D01*
Y121784D01*
X36533D01*
Y121824D01*
X36573D01*
Y121864D01*
X36613D01*
Y121904D01*
X36693D01*
Y121944D01*
X36733D01*
Y121984D01*
X36813D01*
Y121904D01*
X36773D01*
Y121864D01*
X36733D01*
Y121784D01*
X36693D01*
Y121744D01*
X36653D01*
Y121665D01*
X36613D01*
Y121585D01*
X36573D01*
Y121505D01*
X36533D01*
Y121385D01*
X36494D01*
Y121305D01*
X36533D01*
Y121265D01*
X36733D01*
Y121305D01*
X36853D01*
Y121345D01*
X36893D01*
Y121385D01*
X36973D01*
Y121425D01*
X37013D01*
Y121505D01*
X37053D01*
Y121545D01*
X37093D01*
Y121625D01*
X37132D01*
Y121704D01*
X37172D01*
Y121784D01*
X37212D01*
Y121864D01*
X37252D01*
Y121944D01*
X37292D01*
Y121984D01*
X37332D01*
Y122024D01*
X37372D01*
Y122064D01*
X37412D01*
Y122104D01*
X37452D01*
Y122144D01*
X37492D01*
Y122184D01*
X37612D01*
Y122224D01*
X37692D01*
Y122264D01*
X37851D01*
Y122224D01*
X37811D01*
Y122184D01*
X37771D01*
Y122104D01*
X37732D01*
Y122064D01*
X37692D01*
Y121944D01*
X37652D01*
Y121744D01*
X37692D01*
Y121704D01*
X37811D01*
Y121744D01*
X37931D01*
Y121784D01*
X38011D01*
Y121824D01*
X38051D01*
Y121864D01*
X38091D01*
Y121904D01*
X38131D01*
Y121944D01*
X38171D01*
Y122024D01*
X38211D01*
Y122064D01*
X38251D01*
Y122104D01*
X38291D01*
Y122144D01*
X38331D01*
Y122184D01*
X38370D01*
Y122224D01*
X38410D01*
Y122264D01*
X38450D01*
Y122303D01*
X38530D01*
Y122343D01*
X38610D01*
Y122383D01*
X38730D01*
Y122423D01*
X39009D01*
Y122463D01*
X39089D01*
Y122423D01*
X39049D01*
Y122383D01*
X39009D01*
Y122343D01*
X38970D01*
Y122303D01*
X38930D01*
Y122264D01*
X38890D01*
Y122224D01*
X38850D01*
Y122184D01*
X38810D01*
Y122104D01*
X38770D01*
Y122024D01*
X39009D01*
Y122064D01*
X39089D01*
Y122104D01*
X39169D01*
Y122144D01*
X39209D01*
Y122184D01*
X39289D01*
Y122224D01*
X39369D01*
Y122264D01*
X39449D01*
Y122303D01*
X39529D01*
Y122343D01*
X39688D01*
Y122383D01*
X40287D01*
Y122343D01*
X40447D01*
Y122303D01*
X40247D01*
Y122264D01*
X40128D01*
Y122224D01*
X40008D01*
Y122184D01*
X39928D01*
Y122144D01*
X39848D01*
Y122104D01*
X39888D01*
Y122064D01*
X40048D01*
Y122024D01*
X40447D01*
Y122064D01*
X40607D01*
Y122104D01*
X41046D01*
Y122064D01*
X41246D01*
Y122024D01*
X41406D01*
Y121984D01*
X41246D01*
Y121944D01*
X41166D01*
Y121864D01*
X41206D01*
Y121824D01*
X41246D01*
Y121784D01*
X41286D01*
Y121744D01*
X41326D01*
Y121704D01*
X41406D01*
Y121665D01*
X41485D01*
Y121625D01*
X41525D01*
Y121585D01*
X41485D01*
Y121625D01*
X41406D01*
Y121665D01*
X41286D01*
Y121704D01*
X41166D01*
Y121744D01*
X41006D01*
Y121784D01*
X40846D01*
Y121824D01*
X40607D01*
Y121864D01*
X40287D01*
Y121904D01*
X40247D01*
Y121864D01*
X40207D01*
Y121904D01*
X39409D01*
Y121864D01*
X39049D01*
Y121824D01*
X38770D01*
Y121784D01*
X38610D01*
Y121744D01*
X38450D01*
Y121704D01*
X38291D01*
Y121665D01*
X38171D01*
Y121625D01*
X38051D01*
Y121585D01*
X37931D01*
Y121545D01*
X37811D01*
Y121505D01*
X37732D01*
Y121465D01*
X37652D01*
Y121425D01*
X37572D01*
Y121385D01*
X37452D01*
Y121345D01*
X37372D01*
Y121305D01*
X37292D01*
Y121265D01*
X37252D01*
Y121225D01*
X37172D01*
Y121185D01*
X37093D01*
Y121145D01*
X37013D01*
Y121105D01*
X36973D01*
Y121065D01*
X36893D01*
Y121026D01*
X36813D01*
Y120986D01*
X36773D01*
Y120946D01*
X36693D01*
Y120906D01*
X36653D01*
Y120866D01*
X36573D01*
Y120826D01*
X36533D01*
Y120786D01*
X36454D01*
Y120746D01*
X36414D01*
Y120706D01*
X36334D01*
Y120666D01*
X36294D01*
Y120626D01*
X36254D01*
Y120586D01*
X36174D01*
Y120546D01*
X36134D01*
Y120506D01*
X36054D01*
Y120466D01*
X36014D01*
Y120426D01*
X35974D01*
Y120387D01*
X35895D01*
Y120347D01*
X35855D01*
Y120307D01*
X35815D01*
Y120267D01*
X35735D01*
Y120227D01*
X35695D01*
Y120187D01*
X35655D01*
Y120147D01*
X35575D01*
Y120107D01*
X35535D01*
Y120067D01*
X35495D01*
Y120027D01*
X35455D01*
Y119987D01*
X35375D01*
Y119947D01*
X35335D01*
Y119907D01*
X35296D01*
Y119867D01*
X35216D01*
Y119827D01*
X35176D01*
Y119788D01*
X35136D01*
Y119748D01*
X35096D01*
Y119708D01*
X35016D01*
Y119668D01*
X34976D01*
Y119628D01*
X34936D01*
Y119588D01*
X34856D01*
Y119548D01*
X34816D01*
Y119508D01*
X34776D01*
Y119468D01*
X34696D01*
Y119428D01*
X34657D01*
Y119388D01*
X34617D01*
Y119348D01*
X34577D01*
Y119308D01*
X34497D01*
Y119268D01*
X34457D01*
Y119228D01*
X34417D01*
Y119188D01*
X34337D01*
Y119149D01*
X34297D01*
Y119109D01*
X34217D01*
Y119069D01*
X34177D01*
Y119029D01*
X34137D01*
Y118989D01*
X34058D01*
Y118949D01*
X34018D01*
Y118909D01*
X33938D01*
Y118869D01*
X33898D01*
Y118829D01*
X33818D01*
Y118789D01*
X33778D01*
Y118749D01*
X33698D01*
Y118709D01*
X33658D01*
Y118669D01*
X33578D01*
Y118629D01*
X33538D01*
Y118589D01*
X33459D01*
Y118550D01*
X33379D01*
Y118510D01*
X33339D01*
Y118470D01*
X33259D01*
Y118430D01*
X33179D01*
Y118390D01*
X33099D01*
Y118350D01*
X33019D01*
Y118310D01*
X32939D01*
Y118270D01*
X32860D01*
Y118230D01*
X32740D01*
Y118190D01*
X32660D01*
Y118150D01*
X32500D01*
Y118110D01*
X32340D01*
Y118070D01*
X32141D01*
Y118030D01*
X32101D01*
Y118070D01*
X32021D01*
Y118030D01*
X31981D01*
Y118070D01*
X31622D01*
Y118110D01*
X31502D01*
Y118150D01*
X31422D01*
Y118190D01*
X31342D01*
Y118230D01*
X31262D01*
Y118270D01*
X31182D01*
Y118310D01*
X31142D01*
Y118350D01*
X31062D01*
Y118390D01*
X31023D01*
Y118430D01*
X30983D01*
Y118470D01*
X30943D01*
Y118510D01*
X30903D01*
Y118550D01*
X30863D01*
Y118589D01*
X30823D01*
Y118629D01*
X30783D01*
Y118709D01*
X30743D01*
Y118789D01*
X30703D01*
Y118869D01*
X30663D01*
Y118949D01*
X30623D01*
Y119109D01*
X30583D01*
Y119348D01*
X30543D01*
Y119388D01*
X30583D01*
Y119428D01*
X30543D01*
Y119468D01*
X30583D01*
Y119788D01*
X30623D01*
Y119987D01*
X30663D01*
Y120147D01*
X30703D01*
Y120267D01*
X30743D01*
Y120347D01*
X30783D01*
Y120466D01*
X30823D01*
Y120546D01*
X30863D01*
Y120626D01*
X30903D01*
Y120746D01*
X30943D01*
Y120826D01*
X30983D01*
Y120906D01*
X31023D01*
Y120946D01*
X31062D01*
Y121026D01*
X31102D01*
Y121105D01*
X31142D01*
Y121185D01*
X31182D01*
Y121265D01*
X31222D01*
Y121305D01*
X31262D01*
Y121385D01*
X31302D01*
Y121425D01*
X31342D01*
Y121505D01*
X31382D01*
Y121585D01*
X31422D01*
Y121625D01*
X31462D01*
Y121704D01*
X31502D01*
Y121744D01*
X31542D01*
Y121784D01*
X31582D01*
Y121864D01*
X31622D01*
Y121904D01*
X31661D01*
Y121984D01*
X31701D01*
Y122024D01*
X31741D01*
Y122064D01*
X31781D01*
Y122144D01*
X31821D01*
Y122184D01*
X31861D01*
Y122224D01*
X31901D01*
Y122303D01*
X31941D01*
Y122343D01*
X31981D01*
Y122383D01*
X32021D01*
Y122423D01*
X32061D01*
Y122463D01*
X32101D01*
Y122543D01*
X32141D01*
Y122583D01*
X32181D01*
Y122623D01*
X32221D01*
Y122663D01*
X32261D01*
Y122703D01*
X32300D01*
Y122783D01*
X32340D01*
Y122823D01*
X32380D01*
Y122863D01*
X32420D01*
Y122902D01*
X32460D01*
Y122942D01*
X32500D01*
Y122863D01*
D02*
G37*
G36*
X41605Y121545D02*
X41565D01*
Y121585D01*
X41605D01*
Y121545D01*
D02*
G37*
G36*
X41685Y121505D02*
X41645D01*
Y121545D01*
X41685D01*
Y121505D01*
D02*
G37*
G36*
X35735Y121265D02*
X35695D01*
Y121305D01*
X35735D01*
Y121265D01*
D02*
G37*
G36*
X27868Y121864D02*
X27908D01*
Y121824D01*
X27987D01*
Y121784D01*
X28027D01*
Y121744D01*
X28107D01*
Y121704D01*
X28147D01*
Y121665D01*
X28227D01*
Y121585D01*
X28187D01*
Y121505D01*
X28147D01*
Y121465D01*
X28107D01*
Y121385D01*
X28067D01*
Y121345D01*
X28027D01*
Y121265D01*
X27987D01*
Y121225D01*
X27948D01*
Y121145D01*
X27908D01*
Y121105D01*
X27868D01*
Y121026D01*
X27828D01*
Y120946D01*
X27788D01*
Y120906D01*
X27748D01*
Y120826D01*
X27708D01*
Y120786D01*
X27668D01*
Y120706D01*
X27628D01*
Y120626D01*
X27588D01*
Y120546D01*
X27548D01*
Y120506D01*
X27508D01*
Y120426D01*
X27468D01*
Y120347D01*
X27428D01*
Y120267D01*
X27388D01*
Y120187D01*
X27349D01*
Y120107D01*
X27308D01*
Y120027D01*
X27269D01*
Y119987D01*
Y119947D01*
X27229D01*
Y119827D01*
X27189D01*
Y119748D01*
X27149D01*
Y119628D01*
X27109D01*
Y119548D01*
X27069D01*
Y119428D01*
X27029D01*
Y119308D01*
X26989D01*
Y119188D01*
X26949D01*
Y119069D01*
X26909D01*
Y119109D01*
X26590D01*
Y119149D01*
X26390D01*
Y119228D01*
X26430D01*
Y119388D01*
X26470D01*
Y119508D01*
X26510D01*
Y119628D01*
X26550D01*
Y119708D01*
X26590D01*
Y119827D01*
X26630D01*
Y119907D01*
X26670D01*
Y120027D01*
X26709D01*
Y120107D01*
X26750D01*
Y120187D01*
X26789D01*
Y120267D01*
X26829D01*
Y120347D01*
X26869D01*
Y120426D01*
X26909D01*
Y120506D01*
X26949D01*
Y120586D01*
X26989D01*
Y120666D01*
X27029D01*
Y120746D01*
X27069D01*
Y120786D01*
X27109D01*
Y120866D01*
X27149D01*
Y120946D01*
X27189D01*
Y120986D01*
X27229D01*
Y121065D01*
X27269D01*
Y121145D01*
X27308D01*
Y121185D01*
X27349D01*
Y121265D01*
X27388D01*
Y121305D01*
X27428D01*
Y121385D01*
X27468D01*
Y121425D01*
X27508D01*
Y121465D01*
X27548D01*
Y121545D01*
X27588D01*
Y121585D01*
X27628D01*
Y121665D01*
X27668D01*
Y121704D01*
X27708D01*
Y121744D01*
X27748D01*
Y121824D01*
X27788D01*
Y121864D01*
X27828D01*
Y121904D01*
X27868D01*
Y121864D01*
D02*
G37*
G36*
X38770Y116712D02*
X38690D01*
Y116673D01*
X38570D01*
Y116633D01*
X38490D01*
Y116593D01*
X38410D01*
Y116553D01*
X38370D01*
Y116513D01*
X38331D01*
Y116233D01*
X38370D01*
Y116113D01*
X38410D01*
Y116034D01*
X38450D01*
Y115994D01*
X38490D01*
Y115954D01*
X38450D01*
Y115994D01*
X38410D01*
Y116034D01*
X38370D01*
Y116074D01*
X38291D01*
Y116153D01*
X38251D01*
Y116193D01*
X38211D01*
Y116233D01*
X38171D01*
Y116273D01*
X38131D01*
Y116353D01*
X38091D01*
Y116633D01*
X38131D01*
Y116673D01*
X38171D01*
Y116712D01*
X38291D01*
Y116753D01*
X38331D01*
Y116712D01*
X38370D01*
Y116753D01*
X38410D01*
Y116712D01*
X38450D01*
Y116753D01*
X38490D01*
Y116712D01*
X38650D01*
Y116753D01*
X38770D01*
Y116712D01*
D02*
G37*
G36*
X83779Y116706D02*
X83696D01*
Y116748D01*
X83779D01*
Y116706D01*
D02*
G37*
G36*
X69731D02*
X69647D01*
Y116748D01*
X69731D01*
Y116706D01*
D02*
G37*
G36*
X38450Y120466D02*
X38570D01*
Y120426D01*
X38610D01*
Y120387D01*
X38690D01*
Y120347D01*
X38730D01*
Y120307D01*
X38810D01*
Y120267D01*
X38850D01*
Y120227D01*
X38890D01*
Y120187D01*
X38930D01*
Y120107D01*
X38970D01*
Y120067D01*
X39009D01*
Y120027D01*
X39049D01*
Y119987D01*
X39089D01*
Y119907D01*
X39129D01*
Y119867D01*
X39169D01*
Y119788D01*
X39209D01*
Y119748D01*
X39249D01*
Y119668D01*
X39289D01*
Y119588D01*
X39329D01*
Y119548D01*
X39369D01*
Y119508D01*
X39409D01*
Y119428D01*
X39449D01*
Y119388D01*
X39489D01*
Y119348D01*
X39529D01*
Y119308D01*
X39569D01*
Y119268D01*
X39608D01*
Y119228D01*
X39649D01*
Y119188D01*
X39728D01*
Y119149D01*
X39768D01*
Y119109D01*
X39808D01*
Y119069D01*
X39848D01*
Y119029D01*
X39888D01*
Y118989D01*
X39968D01*
Y118949D01*
X40008D01*
Y118909D01*
X40088D01*
Y118869D01*
X40128D01*
Y118829D01*
X40207D01*
Y118789D01*
X40247D01*
Y118749D01*
X40327D01*
Y118709D01*
X40367D01*
Y118669D01*
X40447D01*
Y118629D01*
X40527D01*
Y118589D01*
X40607D01*
Y118550D01*
X40647D01*
Y118510D01*
X40687D01*
Y118470D01*
X40767D01*
Y118430D01*
X40807D01*
Y118390D01*
X40846D01*
Y118350D01*
X40886D01*
Y118310D01*
X40926D01*
Y118230D01*
X40966D01*
Y118190D01*
X41006D01*
Y118150D01*
X41046D01*
Y118070D01*
X41086D01*
Y118030D01*
X41126D01*
Y117950D01*
X41166D01*
Y117831D01*
X41206D01*
Y117591D01*
X41166D01*
Y117511D01*
X41086D01*
Y117471D01*
X41006D01*
Y117431D01*
X40966D01*
Y117391D01*
X40886D01*
Y117351D01*
X40846D01*
Y117312D01*
X40807D01*
Y117272D01*
X40767D01*
Y117232D01*
X40727D01*
Y117192D01*
X40687D01*
Y117152D01*
X40647D01*
Y117112D01*
X40607D01*
Y117072D01*
X40567D01*
Y117032D01*
X40527D01*
Y116952D01*
X40487D01*
Y116872D01*
X40447D01*
Y116832D01*
X40407D01*
Y116753D01*
X40367D01*
Y116633D01*
X40327D01*
Y116513D01*
X40287D01*
Y116393D01*
X40247D01*
Y116353D01*
X40207D01*
Y116313D01*
X40168D01*
Y116273D01*
X40128D01*
Y116233D01*
X40088D01*
Y116193D01*
X40008D01*
Y116153D01*
X39649D01*
Y116193D01*
X39409D01*
Y116233D01*
X39209D01*
Y116273D01*
X39009D01*
Y116313D01*
X38890D01*
Y116273D01*
X38810D01*
Y116193D01*
X38770D01*
Y116034D01*
X38810D01*
Y115874D01*
X38850D01*
Y115834D01*
X38810D01*
Y115874D01*
X38770D01*
Y115914D01*
X38730D01*
Y115954D01*
X38690D01*
Y116034D01*
X38650D01*
Y116074D01*
X38610D01*
Y116153D01*
X38570D01*
Y116233D01*
X38530D01*
Y116473D01*
X38570D01*
Y116513D01*
X38650D01*
Y116553D01*
X38730D01*
Y116593D01*
X38810D01*
Y116633D01*
X38890D01*
Y116673D01*
X39169D01*
Y116633D01*
X39329D01*
Y116593D01*
X39449D01*
Y116553D01*
X39649D01*
Y116513D01*
X39728D01*
Y116553D01*
X39848D01*
Y116593D01*
X39888D01*
Y116673D01*
X39928D01*
Y116753D01*
X39968D01*
Y116872D01*
X40008D01*
Y117032D01*
X40048D01*
Y117351D01*
X40088D01*
Y117431D01*
X40048D01*
Y117471D01*
X40088D01*
Y117711D01*
X40048D01*
Y117911D01*
X40008D01*
Y117991D01*
X39968D01*
Y118030D01*
X39928D01*
Y118070D01*
X39888D01*
Y118110D01*
X39808D01*
Y118150D01*
X39768D01*
Y118190D01*
X39688D01*
Y118230D01*
X39608D01*
Y118270D01*
X39529D01*
Y118310D01*
X39409D01*
Y118350D01*
X39329D01*
Y118390D01*
X39249D01*
Y118430D01*
X39129D01*
Y118470D01*
X39049D01*
Y118510D01*
X38930D01*
Y118550D01*
X38850D01*
Y118589D01*
X38770D01*
Y118629D01*
X38650D01*
Y118669D01*
X38570D01*
Y118709D01*
X38490D01*
Y118749D01*
X38410D01*
Y118789D01*
X38291D01*
Y118829D01*
X38211D01*
Y118869D01*
X38131D01*
Y118909D01*
X38051D01*
Y118949D01*
X37971D01*
Y118989D01*
X37931D01*
Y119029D01*
X37851D01*
Y119069D01*
X37811D01*
Y119109D01*
X37771D01*
Y119149D01*
X37732D01*
Y119188D01*
X37692D01*
Y119228D01*
X37652D01*
Y119268D01*
X37612D01*
Y119348D01*
X37572D01*
Y119388D01*
X37532D01*
Y119508D01*
X37492D01*
Y119668D01*
X37452D01*
Y119708D01*
X37492D01*
Y119788D01*
X37452D01*
Y119827D01*
X37492D01*
Y119987D01*
X37532D01*
Y120067D01*
X37572D01*
Y120147D01*
X37612D01*
Y120227D01*
X37652D01*
Y120267D01*
X37692D01*
Y120307D01*
X37732D01*
Y120347D01*
X37811D01*
Y120387D01*
X37891D01*
Y120426D01*
X37971D01*
Y120466D01*
X38051D01*
Y120506D01*
X38450D01*
Y120466D01*
D02*
G37*
G36*
X26869Y118629D02*
X26829D01*
Y117631D01*
X26869D01*
Y117391D01*
X26909D01*
Y117232D01*
X26949D01*
Y117112D01*
X26989D01*
Y116992D01*
X27029D01*
Y116912D01*
X27069D01*
Y116792D01*
X27109D01*
Y116712D01*
X27149D01*
Y116633D01*
X27189D01*
Y116553D01*
X27229D01*
Y116433D01*
X27149D01*
Y116393D01*
X27109D01*
Y116353D01*
X27029D01*
Y116313D01*
X26949D01*
Y116273D01*
X26909D01*
Y116233D01*
X26829D01*
Y116193D01*
X26750D01*
Y116273D01*
X26709D01*
Y116353D01*
X26670D01*
Y116433D01*
X26630D01*
Y116513D01*
X26590D01*
Y116593D01*
X26550D01*
Y116712D01*
X26510D01*
Y116792D01*
X26470D01*
Y116912D01*
X26430D01*
Y117032D01*
X26390D01*
Y117192D01*
X26350D01*
Y117351D01*
X26310D01*
Y117551D01*
X26270D01*
Y118030D01*
X26230D01*
Y118070D01*
X26270D01*
Y118669D01*
X26869D01*
Y118629D01*
D02*
G37*
G36*
X34018Y115674D02*
X33938D01*
Y115714D01*
X34018D01*
Y115674D01*
D02*
G37*
G36*
X33938Y115634D02*
X33898D01*
Y115594D01*
X33818D01*
Y115634D01*
X33858D01*
Y115674D01*
X33938D01*
Y115634D01*
D02*
G37*
G36*
X40407Y116313D02*
X40447D01*
Y116273D01*
X40487D01*
Y116233D01*
X40527D01*
Y116193D01*
X40567D01*
Y116153D01*
X40607D01*
Y116113D01*
X40647D01*
Y116074D01*
X40727D01*
Y116034D01*
X40846D01*
Y115994D01*
X40966D01*
Y115634D01*
X41006D01*
Y115395D01*
X40966D01*
Y115355D01*
X40846D01*
Y115315D01*
X40527D01*
Y115355D01*
X40367D01*
Y115395D01*
X40207D01*
Y115435D01*
X40527D01*
Y115474D01*
X40647D01*
Y115515D01*
X40687D01*
Y115554D01*
X40727D01*
Y115714D01*
X40687D01*
Y115754D01*
X40647D01*
Y115794D01*
X40607D01*
Y115834D01*
X40567D01*
Y115874D01*
X40487D01*
Y115914D01*
X40407D01*
Y115954D01*
X40287D01*
Y115994D01*
X40207D01*
Y116034D01*
X40088D01*
Y116113D01*
X40168D01*
Y116153D01*
X40207D01*
Y116193D01*
X40247D01*
Y116233D01*
X40287D01*
Y116273D01*
X40327D01*
Y116313D01*
X40367D01*
Y116353D01*
X40407D01*
Y116313D01*
D02*
G37*
G36*
X33818Y115554D02*
X33778D01*
Y115515D01*
X33698D01*
Y115474D01*
X33618D01*
Y115435D01*
X33578D01*
Y115395D01*
X33498D01*
Y115355D01*
X33419D01*
Y115315D01*
X33379D01*
Y115275D01*
X33299D01*
Y115235D01*
X33219D01*
Y115195D01*
X33139D01*
Y115155D01*
X33059D01*
Y115115D01*
X33019D01*
Y115075D01*
X32939D01*
Y115035D01*
X32860D01*
Y114995D01*
X32740D01*
Y114955D01*
X32660D01*
Y114916D01*
X32580D01*
Y114875D01*
X32500D01*
Y114836D01*
X32380D01*
Y114796D01*
X32300D01*
Y114756D01*
X32181D01*
Y114716D01*
X32061D01*
Y114676D01*
X31941D01*
Y114636D01*
X31821D01*
Y114756D01*
X31781D01*
Y114875D01*
X31741D01*
Y114995D01*
X31981D01*
Y115035D01*
X32181D01*
Y115075D01*
X32340D01*
Y115115D01*
X32500D01*
Y115155D01*
X32620D01*
Y115195D01*
X32780D01*
Y115235D01*
X32899D01*
Y115275D01*
X33019D01*
Y115315D01*
X33139D01*
Y115355D01*
X33219D01*
Y115395D01*
X33339D01*
Y115435D01*
X33459D01*
Y115474D01*
X33538D01*
Y115515D01*
X33618D01*
Y115554D01*
X33698D01*
Y115594D01*
X33818D01*
Y115554D01*
D02*
G37*
G36*
X27548Y115994D02*
X27588D01*
Y115954D01*
X27628D01*
Y115914D01*
X27668D01*
Y115874D01*
X27708D01*
Y115834D01*
X27748D01*
Y115794D01*
X27788D01*
Y115754D01*
X27828D01*
Y115714D01*
X27868D01*
Y115674D01*
X27908D01*
Y115634D01*
X27987D01*
Y115594D01*
X28027D01*
Y115554D01*
X28067D01*
Y115515D01*
X28147D01*
Y115474D01*
X28187D01*
Y115435D01*
X28267D01*
Y115395D01*
X28347D01*
Y115355D01*
X28427D01*
Y115315D01*
X28507D01*
Y115275D01*
X28587D01*
Y115235D01*
X28666D01*
Y115195D01*
X28786D01*
Y115155D01*
X28866D01*
Y115115D01*
X28986D01*
Y115075D01*
X29106D01*
Y114955D01*
X29066D01*
Y114796D01*
X29026D01*
Y114636D01*
X28986D01*
Y114596D01*
X28906D01*
Y114636D01*
X28786D01*
Y114676D01*
X28626D01*
Y114716D01*
X28547D01*
Y114756D01*
X28427D01*
Y114796D01*
X28347D01*
Y114836D01*
X28227D01*
Y114875D01*
X28147D01*
Y114916D01*
X28067D01*
Y114955D01*
X28027D01*
Y114995D01*
X27948D01*
Y115035D01*
X27868D01*
Y115075D01*
X27828D01*
Y115115D01*
X27748D01*
Y115155D01*
X27708D01*
Y115195D01*
X27628D01*
Y115235D01*
X27588D01*
Y115275D01*
X27548D01*
Y115315D01*
X27508D01*
Y115355D01*
X27428D01*
Y115395D01*
X27388D01*
Y115435D01*
X27349D01*
Y115474D01*
X27308D01*
Y115515D01*
X27269D01*
Y115554D01*
X27229D01*
Y115594D01*
X27189D01*
Y115634D01*
X27149D01*
Y115714D01*
X27109D01*
Y115754D01*
X27149D01*
Y115794D01*
X27189D01*
Y115834D01*
X27269D01*
Y115874D01*
X27308D01*
Y115914D01*
X27349D01*
Y115954D01*
X27388D01*
Y115994D01*
X27428D01*
Y116034D01*
X27548D01*
Y115994D01*
D02*
G37*
G36*
X29705Y114916D02*
X30024D01*
Y114875D01*
X31102D01*
Y114916D01*
X31422D01*
Y114596D01*
Y114556D01*
Y114516D01*
X31102D01*
Y114476D01*
X31062D01*
Y114516D01*
X31023D01*
Y114476D01*
X30144D01*
Y114436D01*
X30104D01*
Y114476D01*
X29585D01*
Y114516D01*
X29465D01*
Y114556D01*
X29505D01*
Y114836D01*
X29545D01*
Y114875D01*
X29505D01*
Y114916D01*
X29545D01*
Y114955D01*
X29705D01*
Y114916D01*
D02*
G37*
G36*
X21558Y111840D02*
X21718D01*
Y111801D01*
X21837D01*
Y111761D01*
X21917D01*
Y111721D01*
X22037D01*
Y111681D01*
X22077D01*
Y111641D01*
X22157D01*
Y111601D01*
X22237D01*
Y111561D01*
X22277D01*
Y111521D01*
X22357D01*
Y111481D01*
X22397D01*
Y111441D01*
X22436D01*
Y111401D01*
X22516D01*
Y111361D01*
X22556D01*
Y111321D01*
X22596D01*
Y111281D01*
X22636D01*
Y111202D01*
X22676D01*
Y111162D01*
X22716D01*
Y111122D01*
X22756D01*
Y111082D01*
X22796D01*
Y111002D01*
X22836D01*
Y110922D01*
X22876D01*
Y110882D01*
X22916D01*
Y110802D01*
X22956D01*
Y110722D01*
X22996D01*
Y110602D01*
X23035D01*
Y110523D01*
X23075D01*
Y110403D01*
X23115D01*
Y110283D01*
X23155D01*
Y110163D01*
X23195D01*
Y110043D01*
X23235D01*
Y109884D01*
X23275D01*
Y109764D01*
X23315D01*
Y109644D01*
X23355D01*
Y109524D01*
X23395D01*
Y109404D01*
X23435D01*
Y109285D01*
X23475D01*
Y109165D01*
X23515D01*
Y109085D01*
X23555D01*
Y109005D01*
X23595D01*
Y108925D01*
X23634D01*
Y108845D01*
X23674D01*
Y108765D01*
X23714D01*
Y108686D01*
X23754D01*
Y108606D01*
X23794D01*
Y108566D01*
X23834D01*
Y108486D01*
X23874D01*
Y108406D01*
X23914D01*
Y108366D01*
X23954D01*
Y108286D01*
X23994D01*
Y108246D01*
X24034D01*
Y108166D01*
X24074D01*
Y108126D01*
X24114D01*
Y108087D01*
X24074D01*
Y108126D01*
X24034D01*
Y108166D01*
X23994D01*
Y108206D01*
X23954D01*
Y108246D01*
X23914D01*
Y108286D01*
X23834D01*
Y108326D01*
X23794D01*
Y108366D01*
X23754D01*
Y108406D01*
X23714D01*
Y108446D01*
X23674D01*
Y108486D01*
X23634D01*
Y108526D01*
X23595D01*
Y108566D01*
X23515D01*
Y108606D01*
X23475D01*
Y108646D01*
X23435D01*
Y108686D01*
X23395D01*
Y108726D01*
X23355D01*
Y108765D01*
X23315D01*
Y108805D01*
X23275D01*
Y108845D01*
X23235D01*
Y108885D01*
X23195D01*
Y108925D01*
X23115D01*
Y108965D01*
X23075D01*
Y109005D01*
X23035D01*
Y109045D01*
X22996D01*
Y109085D01*
X22956D01*
Y109125D01*
X22916D01*
Y109165D01*
X22876D01*
Y109205D01*
X22836D01*
Y109245D01*
X22796D01*
Y109285D01*
X22756D01*
Y109325D01*
X22716D01*
Y109404D01*
X22676D01*
Y109444D01*
X22636D01*
Y109484D01*
X22596D01*
Y109524D01*
X22556D01*
Y109564D01*
X22516D01*
Y109604D01*
X22476D01*
Y109644D01*
X22436D01*
Y109684D01*
X22397D01*
Y109724D01*
X22317D01*
Y109764D01*
X22277D01*
Y109804D01*
X22237D01*
Y109844D01*
X22157D01*
Y109884D01*
X22117D01*
Y109924D01*
X22037D01*
Y109964D01*
X21957D01*
Y110003D01*
X21877D01*
Y110043D01*
X21798D01*
Y110083D01*
X21678D01*
Y110123D01*
X21558D01*
Y110163D01*
X20959D01*
Y110123D01*
X20799D01*
Y110083D01*
X20679D01*
Y110043D01*
X20599D01*
Y110083D01*
X20639D01*
Y110123D01*
X20679D01*
Y110163D01*
X20759D01*
Y110203D01*
X20799D01*
Y110243D01*
X20879D01*
Y110283D01*
X20959D01*
Y110323D01*
X21039D01*
Y110363D01*
X21159D01*
Y110403D01*
X21358D01*
Y110443D01*
X21718D01*
Y110403D01*
X21917D01*
Y110363D01*
X22037D01*
Y110323D01*
X22157D01*
Y110283D01*
X22237D01*
Y110243D01*
X22277D01*
Y110203D01*
X22357D01*
Y110163D01*
X22436D01*
Y110123D01*
X22476D01*
Y110083D01*
X22516D01*
Y110043D01*
X22596D01*
Y110003D01*
X22636D01*
Y109964D01*
X22676D01*
Y109924D01*
X22716D01*
Y109884D01*
X22756D01*
Y109844D01*
X22796D01*
Y109804D01*
X22836D01*
Y109764D01*
X22876D01*
Y109724D01*
X22916D01*
Y109684D01*
X22956D01*
Y109644D01*
X22996D01*
Y109604D01*
X23035D01*
Y109564D01*
X23075D01*
Y109604D01*
X23035D01*
Y109684D01*
X22996D01*
Y109764D01*
X22956D01*
Y109844D01*
X22916D01*
Y109884D01*
X22876D01*
Y109964D01*
X22836D01*
Y110043D01*
X22796D01*
Y110083D01*
X22756D01*
Y110163D01*
X22716D01*
Y110203D01*
X22676D01*
Y110283D01*
X22636D01*
Y110323D01*
X22596D01*
Y110363D01*
X22556D01*
Y110403D01*
X22516D01*
Y110443D01*
X22476D01*
Y110483D01*
X22436D01*
Y110523D01*
X22397D01*
Y110563D01*
X22357D01*
Y110602D01*
X22317D01*
Y110642D01*
X22277D01*
Y110682D01*
X22237D01*
Y110722D01*
X22157D01*
Y110762D01*
X22117D01*
Y110802D01*
X22037D01*
Y110842D01*
X21917D01*
Y110882D01*
X21798D01*
Y110922D01*
X21358D01*
Y110882D01*
X21199D01*
Y110842D01*
X21039D01*
Y110802D01*
X20919D01*
Y110762D01*
X20839D01*
Y110722D01*
X20719D01*
Y110682D01*
X20639D01*
Y110642D01*
X20560D01*
Y110602D01*
X20480D01*
Y110563D01*
X20440D01*
Y110523D01*
X20360D01*
Y110483D01*
X20320D01*
Y110443D01*
X20240D01*
Y110403D01*
X20200D01*
Y110363D01*
X20160D01*
Y110323D01*
X20120D01*
Y110283D01*
X20080D01*
Y110243D01*
X20040D01*
Y110203D01*
X20000D01*
Y110163D01*
X19961D01*
Y110123D01*
X19921D01*
Y110083D01*
X19881D01*
Y110003D01*
X19841D01*
Y109964D01*
X19801D01*
Y109884D01*
X19761D01*
Y109804D01*
X19721D01*
Y109724D01*
X19681D01*
Y109644D01*
X19641D01*
Y109564D01*
X19601D01*
Y109444D01*
X19561D01*
Y109285D01*
X19521D01*
Y109085D01*
X19481D01*
Y109045D01*
X19521D01*
Y109005D01*
X19481D01*
Y108366D01*
X19441D01*
Y107607D01*
X19401D01*
Y107368D01*
X19362D01*
Y107208D01*
X19321D01*
Y107048D01*
X19282D01*
Y106968D01*
X19242D01*
Y106888D01*
X19202D01*
Y106809D01*
X19162D01*
Y106729D01*
X19122D01*
Y106649D01*
X19082D01*
Y106609D01*
X19042D01*
Y106569D01*
X19002D01*
Y106489D01*
X18962D01*
Y106449D01*
X18922D01*
Y106409D01*
X18882D01*
Y106369D01*
X18842D01*
Y106329D01*
X18802D01*
Y106290D01*
X18763D01*
Y106250D01*
X18722D01*
Y106210D01*
X18683D01*
Y106170D01*
X18643D01*
Y106130D01*
X18603D01*
Y106210D01*
X18643D01*
Y106250D01*
X18683D01*
Y106290D01*
X18722D01*
Y106369D01*
X18763D01*
Y106409D01*
X18802D01*
Y106489D01*
X18842D01*
Y106569D01*
X18882D01*
Y106649D01*
X18922D01*
Y106729D01*
X18962D01*
Y106809D01*
X19002D01*
Y106929D01*
X19042D01*
Y107008D01*
X19082D01*
Y107128D01*
X19122D01*
Y107288D01*
X19162D01*
Y107448D01*
X19202D01*
Y107487D01*
Y107687D01*
X19242D01*
Y108566D01*
X19202D01*
Y109245D01*
X19242D01*
Y109484D01*
X19282D01*
Y109604D01*
X19321D01*
Y109724D01*
X19362D01*
Y109844D01*
X19401D01*
Y109924D01*
X19441D01*
Y110003D01*
X19481D01*
Y110083D01*
X19521D01*
Y110163D01*
X19561D01*
Y110203D01*
X19601D01*
Y110283D01*
X19641D01*
Y110323D01*
X19681D01*
Y110403D01*
X19721D01*
Y110443D01*
X19761D01*
Y110483D01*
X19801D01*
Y110523D01*
X19841D01*
Y110563D01*
X19881D01*
Y110642D01*
X19921D01*
Y110682D01*
X20000D01*
Y110722D01*
X20040D01*
Y110762D01*
X20080D01*
Y110802D01*
X20120D01*
Y110842D01*
X20160D01*
Y110882D01*
X20240D01*
Y110922D01*
X20280D01*
Y110962D01*
X20360D01*
Y111002D01*
X20440D01*
Y111042D01*
X20520D01*
Y111082D01*
X20599D01*
Y111122D01*
X20679D01*
Y111162D01*
X20799D01*
Y111202D01*
X20919D01*
Y111241D01*
X21159D01*
Y111281D01*
X21758D01*
Y111241D01*
X21957D01*
Y111202D01*
X22077D01*
Y111241D01*
X21957D01*
Y111281D01*
X21837D01*
Y111321D01*
X21718D01*
Y111361D01*
X21558D01*
Y111401D01*
X21358D01*
Y111441D01*
X20560D01*
Y111401D01*
X20360D01*
Y111361D01*
X20240D01*
Y111321D01*
X20120D01*
Y111281D01*
X20000D01*
Y111241D01*
X19921D01*
Y111202D01*
X19801D01*
Y111162D01*
X19721D01*
Y111122D01*
X19681D01*
Y111082D01*
X19601D01*
Y111042D01*
X19521D01*
Y111002D01*
X19481D01*
Y110962D01*
X19401D01*
Y110922D01*
X19362D01*
Y110882D01*
X19321D01*
Y110842D01*
X19242D01*
Y110882D01*
X19282D01*
Y110922D01*
X19321D01*
Y110962D01*
X19362D01*
Y111002D01*
X19401D01*
Y111042D01*
X19441D01*
Y111082D01*
X19481D01*
Y111122D01*
X19561D01*
Y111162D01*
X19601D01*
Y111202D01*
X19641D01*
Y111241D01*
X19681D01*
Y111281D01*
X19761D01*
Y111321D01*
X19801D01*
Y111361D01*
X19881D01*
Y111401D01*
X19921D01*
Y111441D01*
X20000D01*
Y111481D01*
X20040D01*
Y111521D01*
X20120D01*
Y111561D01*
X20200D01*
Y111601D01*
X20280D01*
Y111641D01*
X20360D01*
Y111681D01*
X20440D01*
Y111721D01*
X20520D01*
Y111761D01*
X20639D01*
Y111801D01*
X20759D01*
Y111840D01*
X20959D01*
Y111880D01*
X21558D01*
Y111840D01*
D02*
G37*
G36*
X21199Y109604D02*
X21398D01*
Y109564D01*
X21518D01*
Y109524D01*
X21638D01*
Y109484D01*
X21758D01*
Y109444D01*
X21837D01*
Y109404D01*
X21917D01*
Y109364D01*
X21997D01*
Y109325D01*
X22037D01*
Y109285D01*
X22117D01*
Y109245D01*
X22157D01*
Y109205D01*
X22237D01*
Y109165D01*
X22277D01*
Y109125D01*
X22317D01*
Y109085D01*
X22357D01*
Y109045D01*
X22397D01*
Y109005D01*
X22476D01*
Y108965D01*
X22516D01*
Y108925D01*
X22556D01*
Y108885D01*
X22596D01*
Y108845D01*
X22636D01*
Y108805D01*
X22676D01*
Y108765D01*
X22716D01*
Y108726D01*
X22756D01*
Y108686D01*
X22796D01*
Y108646D01*
X22876D01*
Y108606D01*
X22916D01*
Y108566D01*
X22956D01*
Y108526D01*
X22996D01*
Y108486D01*
X23035D01*
Y108446D01*
X23075D01*
Y108406D01*
X23115D01*
Y108366D01*
X23155D01*
Y108326D01*
X23195D01*
Y108286D01*
X23235D01*
Y108246D01*
X23315D01*
Y108206D01*
X23355D01*
Y108166D01*
X23395D01*
Y108126D01*
X23435D01*
Y108087D01*
X23475D01*
Y108047D01*
X23515D01*
Y108007D01*
X23595D01*
Y107967D01*
X23634D01*
Y107927D01*
X23674D01*
Y107887D01*
X23714D01*
Y107847D01*
X23794D01*
Y107807D01*
X23834D01*
Y107767D01*
X23874D01*
Y107727D01*
X23914D01*
Y107687D01*
X23994D01*
Y107647D01*
X24034D01*
Y107607D01*
X24074D01*
Y107567D01*
X24154D01*
Y107527D01*
X24194D01*
Y107487D01*
X24234D01*
Y107448D01*
X24313D01*
Y107408D01*
X24353D01*
Y107368D01*
X24433D01*
Y107328D01*
X24473D01*
Y107288D01*
X24553D01*
Y107248D01*
X24593D01*
Y107208D01*
X24633D01*
Y107168D01*
X24713D01*
Y107128D01*
X24753D01*
Y107088D01*
X24833D01*
Y107048D01*
X24913D01*
Y107008D01*
X24952D01*
Y106968D01*
X25032D01*
Y106929D01*
X25072D01*
Y106888D01*
X25152D01*
Y106849D01*
X25232D01*
Y106809D01*
X25272D01*
Y106769D01*
X25352D01*
Y106729D01*
X25432D01*
Y106689D01*
X25471D01*
Y106649D01*
X25551D01*
Y106609D01*
X25631D01*
Y106569D01*
X25711D01*
Y106529D01*
X25751D01*
Y106489D01*
X25711D01*
Y106529D01*
X25631D01*
Y106569D01*
X25512D01*
Y106609D01*
X25392D01*
Y106649D01*
X25272D01*
Y106689D01*
X25152D01*
Y106729D01*
X25032D01*
Y106769D01*
X24872D01*
Y106809D01*
X24753D01*
Y106849D01*
X24633D01*
Y106888D01*
X24513D01*
Y106929D01*
X24353D01*
Y106968D01*
X24234D01*
Y107008D01*
X24074D01*
Y107048D01*
X23914D01*
Y107088D01*
X23754D01*
Y107128D01*
X23595D01*
Y107168D01*
X23435D01*
Y107208D01*
X23235D01*
Y107248D01*
X23035D01*
Y107288D01*
X22716D01*
Y107328D01*
X22676D01*
Y107288D01*
X22636D01*
Y107328D01*
X22556D01*
Y107288D01*
X22516D01*
Y107328D01*
X22436D01*
Y107288D01*
X22277D01*
Y107248D01*
X22157D01*
Y107208D01*
X22117D01*
Y107168D01*
X22037D01*
Y107128D01*
X21997D01*
Y107088D01*
X21957D01*
Y107008D01*
X21917D01*
Y106968D01*
X21877D01*
Y106849D01*
X21837D01*
Y106729D01*
X21798D01*
Y106409D01*
X21758D01*
Y106329D01*
X21798D01*
Y106290D01*
X21758D01*
Y105930D01*
X21718D01*
Y105770D01*
X21678D01*
Y105611D01*
X21638D01*
Y105491D01*
X21598D01*
Y105371D01*
X21558D01*
Y105291D01*
X21518D01*
Y105211D01*
X21478D01*
Y105131D01*
X21438D01*
Y105091D01*
X21398D01*
Y105012D01*
X21358D01*
Y104972D01*
X21318D01*
Y104932D01*
X21278D01*
Y104892D01*
X21238D01*
Y104852D01*
X21199D01*
Y104812D01*
X21159D01*
Y104772D01*
X21079D01*
Y104732D01*
X21039D01*
Y104692D01*
X20959D01*
Y104652D01*
X20879D01*
Y104612D01*
X20799D01*
Y104572D01*
X20639D01*
Y104532D01*
X20480D01*
Y104492D01*
X20240D01*
Y104453D01*
X20160D01*
Y104492D01*
X20200D01*
Y104532D01*
X20240D01*
Y104572D01*
X20320D01*
Y104612D01*
X20360D01*
Y104652D01*
X20400D01*
Y104692D01*
X20480D01*
Y104732D01*
X20520D01*
Y104772D01*
X20560D01*
Y104812D01*
X20599D01*
Y104852D01*
X20639D01*
Y104892D01*
X20679D01*
Y104932D01*
X20759D01*
Y104972D01*
X20799D01*
Y105012D01*
X20839D01*
Y105052D01*
X20879D01*
Y105091D01*
X20919D01*
Y105171D01*
X20959D01*
Y105211D01*
X20999D01*
Y105251D01*
X21039D01*
Y105291D01*
X21079D01*
Y105371D01*
X21119D01*
Y105411D01*
X21159D01*
Y105491D01*
X21199D01*
Y105531D01*
X21238D01*
Y105611D01*
X21278D01*
Y105730D01*
X21318D01*
Y105850D01*
X21358D01*
Y106929D01*
X21398D01*
Y107088D01*
X21438D01*
Y107208D01*
X21478D01*
Y107328D01*
X21518D01*
Y107368D01*
X21558D01*
Y107448D01*
X21598D01*
Y107487D01*
X21638D01*
Y107527D01*
X21678D01*
Y107567D01*
X21718D01*
Y107607D01*
X21758D01*
Y107647D01*
X21837D01*
Y107687D01*
X21917D01*
Y107727D01*
X22037D01*
Y107767D01*
X22117D01*
Y107807D01*
X21917D01*
Y107847D01*
X21478D01*
Y107807D01*
X21358D01*
Y107767D01*
X21278D01*
Y107727D01*
X21238D01*
Y107687D01*
X21159D01*
Y107647D01*
X21119D01*
Y107607D01*
X21079D01*
Y107527D01*
X21039D01*
Y107487D01*
X20999D01*
Y107408D01*
X20959D01*
Y107328D01*
X20919D01*
Y107208D01*
X20879D01*
Y107048D01*
X20839D01*
Y106529D01*
X20799D01*
Y106649D01*
X20759D01*
Y107088D01*
X20719D01*
Y107527D01*
X20759D01*
Y107807D01*
X20799D01*
Y107967D01*
X20839D01*
Y108087D01*
X20879D01*
Y108166D01*
X20919D01*
Y108206D01*
X20959D01*
Y108286D01*
X20999D01*
Y108326D01*
X21039D01*
Y108366D01*
X21119D01*
Y108406D01*
X21199D01*
Y108446D01*
X21278D01*
Y108486D01*
X21518D01*
Y108526D01*
X21558D01*
Y108486D01*
X21638D01*
Y108526D01*
X21678D01*
Y108486D01*
X21877D01*
Y108446D01*
X21997D01*
Y108406D01*
X22077D01*
Y108366D01*
X22157D01*
Y108326D01*
X22237D01*
Y108286D01*
X22277D01*
Y108246D01*
X22357D01*
Y108206D01*
X22397D01*
Y108166D01*
X22476D01*
Y108126D01*
X22516D01*
Y108087D01*
X22556D01*
Y108047D01*
X22636D01*
Y108007D01*
X22676D01*
Y107967D01*
X22716D01*
Y107927D01*
X22796D01*
Y107887D01*
X22836D01*
Y107847D01*
X22916D01*
Y107807D01*
X22956D01*
Y107767D01*
X23035D01*
Y107727D01*
X23115D01*
Y107687D01*
X23195D01*
Y107647D01*
X23275D01*
Y107607D01*
X23395D01*
Y107567D01*
X23475D01*
Y107527D01*
X23595D01*
Y107567D01*
X23515D01*
Y107607D01*
X23435D01*
Y107647D01*
X23355D01*
Y107687D01*
X23315D01*
Y107727D01*
X23235D01*
Y107767D01*
X23195D01*
Y107807D01*
X23155D01*
Y107847D01*
X23075D01*
Y107887D01*
X23035D01*
Y107927D01*
X22996D01*
Y107967D01*
X22956D01*
Y108007D01*
X22916D01*
Y108047D01*
X22836D01*
Y108087D01*
X22796D01*
Y108126D01*
X22756D01*
Y108166D01*
X22716D01*
Y108206D01*
X22676D01*
Y108246D01*
X22636D01*
Y108286D01*
X22596D01*
Y108366D01*
X22556D01*
Y108406D01*
X22516D01*
Y108446D01*
X22476D01*
Y108486D01*
X22436D01*
Y108526D01*
X22397D01*
Y108566D01*
X22357D01*
Y108606D01*
X22317D01*
Y108646D01*
X22277D01*
Y108686D01*
X22237D01*
Y108726D01*
X22197D01*
Y108765D01*
X22117D01*
Y108805D01*
X22077D01*
Y108845D01*
X22037D01*
Y108885D01*
X21957D01*
Y108925D01*
X21877D01*
Y108965D01*
X21837D01*
Y109005D01*
X21718D01*
Y109045D01*
X21638D01*
Y109085D01*
X21518D01*
Y109125D01*
X21358D01*
Y109165D01*
X20959D01*
Y109125D01*
X20839D01*
Y109085D01*
X20759D01*
Y109045D01*
X20719D01*
Y109005D01*
X20679D01*
Y108965D01*
X20639D01*
Y108925D01*
X20599D01*
Y108885D01*
X20560D01*
Y108805D01*
X20520D01*
Y108686D01*
X20480D01*
Y108566D01*
X20440D01*
Y108406D01*
X20400D01*
Y108126D01*
X20360D01*
Y107048D01*
X20400D01*
Y107008D01*
X20360D01*
Y106649D01*
X20320D01*
Y106409D01*
X20280D01*
Y106250D01*
X20240D01*
Y106130D01*
X20200D01*
Y106010D01*
X20160D01*
Y105930D01*
X20120D01*
Y105850D01*
X20080D01*
Y105770D01*
X20040D01*
Y105730D01*
X20000D01*
Y105650D01*
X19961D01*
Y105611D01*
X19921D01*
Y105531D01*
X19881D01*
Y105491D01*
X19841D01*
Y105451D01*
X19801D01*
Y105411D01*
X19761D01*
Y105371D01*
X19721D01*
Y105331D01*
X19641D01*
Y105291D01*
X19601D01*
Y105251D01*
X19561D01*
Y105211D01*
X19481D01*
Y105171D01*
X19401D01*
Y105131D01*
X19321D01*
Y105091D01*
X19242D01*
Y105052D01*
X19162D01*
Y105091D01*
X19202D01*
Y105131D01*
X19242D01*
Y105171D01*
X19282D01*
Y105211D01*
X19321D01*
Y105251D01*
X19362D01*
Y105291D01*
X19401D01*
Y105331D01*
X19441D01*
Y105371D01*
X19481D01*
Y105411D01*
X19521D01*
Y105451D01*
X19561D01*
Y105531D01*
X19601D01*
Y105611D01*
X19641D01*
Y105650D01*
X19681D01*
Y105730D01*
X19721D01*
Y105810D01*
X19761D01*
Y105890D01*
X19801D01*
Y106010D01*
X19841D01*
Y106130D01*
X19881D01*
Y106250D01*
X19921D01*
Y106369D01*
X19961D01*
Y106569D01*
X20000D01*
Y106849D01*
X20040D01*
Y106888D01*
X20000D01*
Y106929D01*
X20040D01*
Y107767D01*
X20000D01*
Y108446D01*
X20040D01*
Y108486D01*
X20000D01*
Y108526D01*
X20040D01*
Y108726D01*
X20080D01*
Y108925D01*
X20120D01*
Y109005D01*
X20160D01*
Y109125D01*
X20200D01*
Y109205D01*
X20240D01*
Y109245D01*
X20280D01*
Y109325D01*
X20320D01*
Y109364D01*
X20360D01*
Y109404D01*
X20400D01*
Y109444D01*
X20480D01*
Y109484D01*
X20520D01*
Y109524D01*
X20599D01*
Y109564D01*
X20679D01*
Y109604D01*
X20919D01*
Y109644D01*
X21119D01*
Y109604D01*
X21159D01*
Y109644D01*
X21199D01*
Y109604D01*
D02*
G37*
G36*
X41765Y121425D02*
X41805D01*
Y121385D01*
X41845D01*
Y121305D01*
X41885D01*
Y121225D01*
X41925D01*
Y121185D01*
X41965D01*
Y121105D01*
X42005D01*
Y121026D01*
X42044D01*
Y120946D01*
X42085D01*
Y120906D01*
X42124D01*
Y120826D01*
X42164D01*
Y120746D01*
X42204D01*
Y120666D01*
X42244D01*
Y120586D01*
X42284D01*
Y120506D01*
X42324D01*
Y120426D01*
X42364D01*
Y120307D01*
X42404D01*
Y120227D01*
X42444D01*
Y120147D01*
X42484D01*
Y120067D01*
X42524D01*
Y119947D01*
X42564D01*
Y119867D01*
X42604D01*
Y119748D01*
X42644D01*
Y119668D01*
X42684D01*
Y119548D01*
X42723D01*
Y119428D01*
X42763D01*
Y119308D01*
X42803D01*
Y119188D01*
X42843D01*
Y119029D01*
X42883D01*
Y118909D01*
X42923D01*
Y118749D01*
X42963D01*
Y118589D01*
X43003D01*
Y118430D01*
X43043D01*
Y118230D01*
X43083D01*
Y118030D01*
X43123D01*
Y117831D01*
X43163D01*
Y117471D01*
X43203D01*
Y116992D01*
X43243D01*
Y116034D01*
X43203D01*
Y115554D01*
X43163D01*
Y115515D01*
X43203D01*
Y115474D01*
X43163D01*
Y115235D01*
X43123D01*
Y114995D01*
X43083D01*
Y114796D01*
X43043D01*
Y114596D01*
X43003D01*
Y114436D01*
X42963D01*
Y114316D01*
X42923D01*
Y114157D01*
X42883D01*
Y114037D01*
X42843D01*
Y113917D01*
X42803D01*
Y113797D01*
X42763D01*
Y113678D01*
X42723D01*
Y113558D01*
X42684D01*
Y113438D01*
X42644D01*
Y113358D01*
X42604D01*
Y113278D01*
X42564D01*
Y113158D01*
X42524D01*
Y113078D01*
X42484D01*
Y112999D01*
X42444D01*
Y112879D01*
X42404D01*
Y112799D01*
X42364D01*
Y112719D01*
X42324D01*
Y112639D01*
X42284D01*
Y112559D01*
X42244D01*
Y112479D01*
X42204D01*
Y112399D01*
X42164D01*
Y112320D01*
X42124D01*
Y112240D01*
X42085D01*
Y112160D01*
X42044D01*
Y112120D01*
X42005D01*
Y112040D01*
X41965D01*
Y111960D01*
X41925D01*
Y111880D01*
X41885D01*
Y111840D01*
X41845D01*
Y111761D01*
X41805D01*
Y111681D01*
X41765D01*
Y111641D01*
X41725D01*
Y111561D01*
X41685D01*
Y111481D01*
X41645D01*
Y111441D01*
X41605D01*
Y111361D01*
X41565D01*
Y111321D01*
X41525D01*
Y111241D01*
X41485D01*
Y111202D01*
X41445D01*
Y111122D01*
X41406D01*
Y111082D01*
X41366D01*
Y111002D01*
X41326D01*
Y110962D01*
X41286D01*
Y110882D01*
X41246D01*
Y110842D01*
X41206D01*
Y110762D01*
X41166D01*
Y110722D01*
X41126D01*
Y110682D01*
X41086D01*
Y110602D01*
X41046D01*
Y110563D01*
X41006D01*
Y110523D01*
X40966D01*
Y110443D01*
X40926D01*
Y110403D01*
X40886D01*
Y110363D01*
X40846D01*
Y110283D01*
X40807D01*
Y110243D01*
X40767D01*
Y110203D01*
X40727D01*
Y110163D01*
X40687D01*
Y110083D01*
X40647D01*
Y110043D01*
X40607D01*
Y110003D01*
X40567D01*
Y109964D01*
X40527D01*
Y109884D01*
X40487D01*
Y109844D01*
X40447D01*
Y109804D01*
X40407D01*
Y109764D01*
X40367D01*
Y109724D01*
X40327D01*
Y109684D01*
X40287D01*
Y109604D01*
X40247D01*
Y109564D01*
X40207D01*
Y109524D01*
X40168D01*
Y109484D01*
X40128D01*
Y109444D01*
X40088D01*
Y109404D01*
X40048D01*
Y109364D01*
X40008D01*
Y109325D01*
X39968D01*
Y109285D01*
X39928D01*
Y109245D01*
X39888D01*
Y109165D01*
X39848D01*
Y109125D01*
X39808D01*
Y109085D01*
X39768D01*
Y109045D01*
X39728D01*
Y109005D01*
X39688D01*
Y108965D01*
X39649D01*
Y108925D01*
X39608D01*
Y108885D01*
X39569D01*
Y108845D01*
X39529D01*
Y108805D01*
X39489D01*
Y108765D01*
X39449D01*
Y108726D01*
X39409D01*
Y108686D01*
X39369D01*
Y108646D01*
X39329D01*
Y108606D01*
X39289D01*
Y108566D01*
X39249D01*
Y108526D01*
X39209D01*
Y108486D01*
X39129D01*
Y108446D01*
X39089D01*
Y108406D01*
X39049D01*
Y108366D01*
X39009D01*
Y108326D01*
X38970D01*
Y108286D01*
X38930D01*
Y108246D01*
X38890D01*
Y108206D01*
X38850D01*
Y108166D01*
X38810D01*
Y108126D01*
X38770D01*
Y108087D01*
X38690D01*
Y108047D01*
X38650D01*
Y108007D01*
X38610D01*
Y107967D01*
X38570D01*
Y107927D01*
X38530D01*
Y107887D01*
X38490D01*
Y107847D01*
X38410D01*
Y107807D01*
X38370D01*
Y107767D01*
X38331D01*
Y107727D01*
X38291D01*
Y107687D01*
X38251D01*
Y107647D01*
X38171D01*
Y107607D01*
X38131D01*
Y107567D01*
X38091D01*
Y107527D01*
X38011D01*
Y107487D01*
X37971D01*
Y107448D01*
X37931D01*
Y107408D01*
X37891D01*
Y107368D01*
X37811D01*
Y107328D01*
X37771D01*
Y107288D01*
X37732D01*
Y107248D01*
X37652D01*
Y107208D01*
X37612D01*
Y107168D01*
X37532D01*
Y107128D01*
X37492D01*
Y107088D01*
X37452D01*
Y107048D01*
X37372D01*
Y107008D01*
X37332D01*
Y106968D01*
X37252D01*
Y106929D01*
X37212D01*
Y106888D01*
X37132D01*
Y106849D01*
X37093D01*
Y106809D01*
X37013D01*
Y106769D01*
X36973D01*
Y106729D01*
X36893D01*
Y106689D01*
X36853D01*
Y106649D01*
X36773D01*
Y106609D01*
X36693D01*
Y106569D01*
X36653D01*
Y106529D01*
X36573D01*
Y106489D01*
X36494D01*
Y106449D01*
X36454D01*
Y106409D01*
X36374D01*
Y106369D01*
X36294D01*
Y106329D01*
X36214D01*
Y106290D01*
X36134D01*
Y106250D01*
X36094D01*
Y106210D01*
X36014D01*
Y106170D01*
X35934D01*
Y106130D01*
X35855D01*
Y106090D01*
X35775D01*
Y106050D01*
X35695D01*
Y106010D01*
X35575D01*
Y105970D01*
X35495D01*
Y105930D01*
X35415D01*
Y105890D01*
X35335D01*
Y105850D01*
X35216D01*
Y105810D01*
X35136D01*
Y105770D01*
X35016D01*
Y105730D01*
X34896D01*
Y105691D01*
X34776D01*
Y105650D01*
X34657D01*
Y105611D01*
X34497D01*
Y105571D01*
X34337D01*
Y105531D01*
X34137D01*
Y105491D01*
X33938D01*
Y105451D01*
X33898D01*
Y105491D01*
X33858D01*
Y105451D01*
X33379D01*
Y105411D01*
X32620D01*
Y105371D01*
X32580D01*
Y105411D01*
X31222D01*
Y105451D01*
X30703D01*
Y105491D01*
X30663D01*
Y105451D01*
X30623D01*
Y105491D01*
X30304D01*
Y105531D01*
X29984D01*
Y105571D01*
X29705D01*
Y105611D01*
X29465D01*
Y105650D01*
X29225D01*
Y105691D01*
X29026D01*
Y105730D01*
X28826D01*
Y105770D01*
X28666D01*
Y105810D01*
X28507D01*
Y105850D01*
X28347D01*
Y105890D01*
X28187D01*
Y105930D01*
X28027D01*
Y105970D01*
X27908D01*
Y106010D01*
X27748D01*
Y106050D01*
X27628D01*
Y106090D01*
X27508D01*
Y106130D01*
X27388D01*
Y106170D01*
X27269D01*
Y106210D01*
X27189D01*
Y106250D01*
X27069D01*
Y106290D01*
X26989D01*
Y106329D01*
X26869D01*
Y106369D01*
X26789D01*
Y106409D01*
X26670D01*
Y106449D01*
X26590D01*
Y106489D01*
X26510D01*
Y106529D01*
X26430D01*
Y106569D01*
X26350D01*
Y106609D01*
X26270D01*
Y106649D01*
X26190D01*
Y106689D01*
X26111D01*
Y106729D01*
X26031D01*
Y106769D01*
X25951D01*
Y106809D01*
X25871D01*
Y106849D01*
X25791D01*
Y106888D01*
X25751D01*
Y106929D01*
X25671D01*
Y106968D01*
X25591D01*
Y107008D01*
X25551D01*
Y107048D01*
X25471D01*
Y107088D01*
X25432D01*
Y107128D01*
X25352D01*
Y107168D01*
X25312D01*
Y107208D01*
X25232D01*
Y107248D01*
X25192D01*
Y107288D01*
X25112D01*
Y107328D01*
X25072D01*
Y107368D01*
X25032D01*
Y107408D01*
X24952D01*
Y107448D01*
X24913D01*
Y107487D01*
X24872D01*
Y107527D01*
X24833D01*
Y107567D01*
X24753D01*
Y107607D01*
X24713D01*
Y107647D01*
X24673D01*
Y107687D01*
X24633D01*
Y107727D01*
X24593D01*
Y107767D01*
X24633D01*
Y107727D01*
X24673D01*
Y107687D01*
X24753D01*
Y107647D01*
X24793D01*
Y107607D01*
X24872D01*
Y107567D01*
X24913D01*
Y107527D01*
X24992D01*
Y107487D01*
X25032D01*
Y107448D01*
X25112D01*
Y107408D01*
X25152D01*
Y107368D01*
X25232D01*
Y107328D01*
X25312D01*
Y107288D01*
X25352D01*
Y107248D01*
X25432D01*
Y107208D01*
X25471D01*
Y107168D01*
X25551D01*
Y107128D01*
X25631D01*
Y107088D01*
X25671D01*
Y107048D01*
X25751D01*
Y107008D01*
X25831D01*
Y106968D01*
X25911D01*
Y106929D01*
X25991D01*
Y106888D01*
X26031D01*
Y106849D01*
X26150D01*
Y106809D01*
X26230D01*
Y106769D01*
X26390D01*
Y106849D01*
X26350D01*
Y106929D01*
X26310D01*
Y106968D01*
X26270D01*
Y107008D01*
X26230D01*
Y107048D01*
X26190D01*
Y107128D01*
X26150D01*
Y107168D01*
X26111D01*
Y107208D01*
X26150D01*
Y107168D01*
X26190D01*
Y107128D01*
X26230D01*
Y107088D01*
X26270D01*
Y107048D01*
X26350D01*
Y107008D01*
X26390D01*
Y106968D01*
X26430D01*
Y106929D01*
X26510D01*
Y106888D01*
X26550D01*
Y106849D01*
X26590D01*
Y106809D01*
X26670D01*
Y106769D01*
X26709D01*
Y106729D01*
X26750D01*
Y106689D01*
X26829D01*
Y106649D01*
X26869D01*
Y106609D01*
X26949D01*
Y106569D01*
X26989D01*
Y106529D01*
X27069D01*
Y106489D01*
X27109D01*
Y106449D01*
X27189D01*
Y106409D01*
X27229D01*
Y106369D01*
X27308D01*
Y106329D01*
X27468D01*
Y106369D01*
X27428D01*
Y106449D01*
X27388D01*
Y106529D01*
X27349D01*
Y106569D01*
X27308D01*
Y106609D01*
X27269D01*
Y106689D01*
X27229D01*
Y106729D01*
X27269D01*
Y106689D01*
X27349D01*
Y106649D01*
X27428D01*
Y106609D01*
X27468D01*
Y106569D01*
X27548D01*
Y106529D01*
X27588D01*
Y106489D01*
X27628D01*
Y106449D01*
X27708D01*
Y106409D01*
X27748D01*
Y106369D01*
X27788D01*
Y106329D01*
X27828D01*
Y106290D01*
X27868D01*
Y106250D01*
X27908D01*
Y106210D01*
X27987D01*
Y106170D01*
X28067D01*
Y106130D01*
X28147D01*
Y106090D01*
X28267D01*
Y106050D01*
X28547D01*
Y106130D01*
X28507D01*
Y106170D01*
X28467D01*
Y106210D01*
X28427D01*
Y106250D01*
X28387D01*
Y106290D01*
X28347D01*
Y106329D01*
X28307D01*
Y106369D01*
X28387D01*
Y106329D01*
X28587D01*
Y106290D01*
X28706D01*
Y106250D01*
X28826D01*
Y106210D01*
X28866D01*
Y106170D01*
X28946D01*
Y106130D01*
X28986D01*
Y106090D01*
X29066D01*
Y106050D01*
X29106D01*
Y106010D01*
X29146D01*
Y105970D01*
X29225D01*
Y105930D01*
X29305D01*
Y105890D01*
X29425D01*
Y105850D01*
X29545D01*
Y105810D01*
X29665D01*
Y105770D01*
X29825D01*
Y105730D01*
X30024D01*
Y105770D01*
X30064D01*
Y105850D01*
X30024D01*
Y105890D01*
X29984D01*
Y105930D01*
X29944D01*
Y105970D01*
X29904D01*
Y106010D01*
X29864D01*
Y106050D01*
X29984D01*
Y106090D01*
X30024D01*
Y106050D01*
X30304D01*
Y106010D01*
X30463D01*
Y105970D01*
X30583D01*
Y105930D01*
X30663D01*
Y105890D01*
X30743D01*
Y105850D01*
X30783D01*
Y105810D01*
X30863D01*
Y105770D01*
X30903D01*
Y105730D01*
X30983D01*
Y105691D01*
X31062D01*
Y105650D01*
X31142D01*
Y105611D01*
X31262D01*
Y105571D01*
X31502D01*
Y105611D01*
X31622D01*
Y105650D01*
X31661D01*
Y105730D01*
X31622D01*
Y105810D01*
X31582D01*
Y105850D01*
X31502D01*
Y105890D01*
X31462D01*
Y105930D01*
X31382D01*
Y105970D01*
X31302D01*
Y106010D01*
X31462D01*
Y106050D01*
X31981D01*
Y106010D01*
X32181D01*
Y105970D01*
X32300D01*
Y105930D01*
X32420D01*
Y105890D01*
X32500D01*
Y105850D01*
X32540D01*
Y105810D01*
X32620D01*
Y105770D01*
X32700D01*
Y105730D01*
X32820D01*
Y105691D01*
X33219D01*
Y105730D01*
X33339D01*
Y105770D01*
X33419D01*
Y105810D01*
X33459D01*
Y105850D01*
X33498D01*
Y105890D01*
X33538D01*
Y106090D01*
X33498D01*
Y106130D01*
X33459D01*
Y106170D01*
X33419D01*
Y106210D01*
X33339D01*
Y106250D01*
X33179D01*
Y106290D01*
X32979D01*
Y106329D01*
X33139D01*
Y106369D01*
X33938D01*
Y106329D01*
X34097D01*
Y106290D01*
X34217D01*
Y106250D01*
X34297D01*
Y106210D01*
X34337D01*
Y106170D01*
X34457D01*
Y106130D01*
X34736D01*
Y106170D01*
X34856D01*
Y106210D01*
X34936D01*
Y106250D01*
X35016D01*
Y106290D01*
X35056D01*
Y106329D01*
X35096D01*
Y106369D01*
X35136D01*
Y106409D01*
X35176D01*
Y106609D01*
X35136D01*
Y106649D01*
X35096D01*
Y106689D01*
X34976D01*
Y106729D01*
X34657D01*
Y106769D01*
X34696D01*
Y106809D01*
X34776D01*
Y106849D01*
X34856D01*
Y106888D01*
X34936D01*
Y106929D01*
X35056D01*
Y106968D01*
X35176D01*
Y107008D01*
X35535D01*
Y106968D01*
X35655D01*
Y106929D01*
X35735D01*
Y106888D01*
X35775D01*
Y106849D01*
X35855D01*
Y106809D01*
X36254D01*
Y106849D01*
X36414D01*
Y106888D01*
X36533D01*
Y106929D01*
X36613D01*
Y106968D01*
X36693D01*
Y107008D01*
X36773D01*
Y107048D01*
X36853D01*
Y107088D01*
X36893D01*
Y107128D01*
X36973D01*
Y107168D01*
X37013D01*
Y107208D01*
X37053D01*
Y107248D01*
X37093D01*
Y107448D01*
X37013D01*
Y107487D01*
X36933D01*
Y107527D01*
X36454D01*
Y107567D01*
X36494D01*
Y107607D01*
X36533D01*
Y107687D01*
X36613D01*
Y107727D01*
X36653D01*
Y107767D01*
X36693D01*
Y107807D01*
X36773D01*
Y107847D01*
X36893D01*
Y107887D01*
X37053D01*
Y107927D01*
X37292D01*
Y107967D01*
X37332D01*
Y107927D01*
X37532D01*
Y107967D01*
X37851D01*
Y108007D01*
X38051D01*
Y108047D01*
X38171D01*
Y108087D01*
X38291D01*
Y108126D01*
X38370D01*
Y108166D01*
X38450D01*
Y108206D01*
X38490D01*
Y108246D01*
X38530D01*
Y108286D01*
X38570D01*
Y108326D01*
X38610D01*
Y108406D01*
X38650D01*
Y108446D01*
X38610D01*
Y108486D01*
X38570D01*
Y108526D01*
X38530D01*
Y108566D01*
X38450D01*
Y108606D01*
X38331D01*
Y108646D01*
X38171D01*
Y108726D01*
X38211D01*
Y108765D01*
X38251D01*
Y108805D01*
X38291D01*
Y108845D01*
X38370D01*
Y108885D01*
X38410D01*
Y108925D01*
X38490D01*
Y108965D01*
X38570D01*
Y109005D01*
X38610D01*
Y109045D01*
X38730D01*
Y109085D01*
X38810D01*
Y109125D01*
X38890D01*
Y109165D01*
X39009D01*
Y109205D01*
X39169D01*
Y109245D01*
X39289D01*
Y109285D01*
X39409D01*
Y109325D01*
X39489D01*
Y109364D01*
X39569D01*
Y109404D01*
X39608D01*
Y109444D01*
X39688D01*
Y109484D01*
X39728D01*
Y109524D01*
X39768D01*
Y109564D01*
X39808D01*
Y109604D01*
X39848D01*
Y109644D01*
X39888D01*
Y109684D01*
X39928D01*
Y109724D01*
X39968D01*
Y109804D01*
X40008D01*
Y109844D01*
X40048D01*
Y109964D01*
X40088D01*
Y110083D01*
X40048D01*
Y110123D01*
X39848D01*
Y110083D01*
X39728D01*
Y110043D01*
X39608D01*
Y110003D01*
X39569D01*
Y110083D01*
X39608D01*
Y110163D01*
X39649D01*
Y110203D01*
X39688D01*
Y110283D01*
X39728D01*
Y110323D01*
X39768D01*
Y110363D01*
X39808D01*
Y110443D01*
X39848D01*
Y110483D01*
X39888D01*
Y110523D01*
X39928D01*
Y110563D01*
X39968D01*
Y110602D01*
X40008D01*
Y110642D01*
X40088D01*
Y110682D01*
X40128D01*
Y110722D01*
X40168D01*
Y110762D01*
X40247D01*
Y110802D01*
X40327D01*
Y110842D01*
X40367D01*
Y110882D01*
X40447D01*
Y110922D01*
X40487D01*
Y110962D01*
X40527D01*
Y111002D01*
X40607D01*
Y111042D01*
X40647D01*
Y111082D01*
X40687D01*
Y111122D01*
X40727D01*
Y111162D01*
X40767D01*
Y111202D01*
X40807D01*
Y111241D01*
X40846D01*
Y111281D01*
X40886D01*
Y111321D01*
X40926D01*
Y111361D01*
X40966D01*
Y111401D01*
X41006D01*
Y111441D01*
X41046D01*
Y111521D01*
X41086D01*
Y111641D01*
X41006D01*
Y111681D01*
X40966D01*
Y111641D01*
X40807D01*
Y111601D01*
X40647D01*
Y111561D01*
X40567D01*
Y111521D01*
X40527D01*
Y111601D01*
X40567D01*
Y111641D01*
X40607D01*
Y111681D01*
X40647D01*
Y111761D01*
X40687D01*
Y111801D01*
X40727D01*
Y111840D01*
X40767D01*
Y111880D01*
X40807D01*
Y111920D01*
X40846D01*
Y111960D01*
X40926D01*
Y112000D01*
X40966D01*
Y112040D01*
X41006D01*
Y112080D01*
X41086D01*
Y112120D01*
X41126D01*
Y112160D01*
X41206D01*
Y112200D01*
X41286D01*
Y112240D01*
X41366D01*
Y112280D01*
X41485D01*
Y112320D01*
X41685D01*
Y112360D01*
X41805D01*
Y112399D01*
X41885D01*
Y112440D01*
X41925D01*
Y112479D01*
X41965D01*
Y112519D01*
X42005D01*
Y112559D01*
X42044D01*
Y112599D01*
X42085D01*
Y112639D01*
X42124D01*
Y112719D01*
X42164D01*
Y112839D01*
X42204D01*
Y113118D01*
X42164D01*
Y113158D01*
X41965D01*
Y113118D01*
X41925D01*
Y113078D01*
X41845D01*
Y113039D01*
X41805D01*
Y112999D01*
X41765D01*
Y113078D01*
X41805D01*
Y113198D01*
X41845D01*
Y113278D01*
X41885D01*
Y113358D01*
X41925D01*
Y113398D01*
X41965D01*
Y113478D01*
X42005D01*
Y113518D01*
X42044D01*
Y113558D01*
X42085D01*
Y113598D01*
X42124D01*
Y113637D01*
X42164D01*
Y113678D01*
X42204D01*
Y113717D01*
X42244D01*
Y113757D01*
X42284D01*
Y113797D01*
X42324D01*
Y113837D01*
X42364D01*
Y113877D01*
X42404D01*
Y113917D01*
X42444D01*
Y113957D01*
X42484D01*
Y114037D01*
X42524D01*
Y114077D01*
X42564D01*
Y114157D01*
X42604D01*
Y114277D01*
X42644D01*
Y114436D01*
X42684D01*
Y114476D01*
X42644D01*
Y114556D01*
X42524D01*
Y114516D01*
X42444D01*
Y114476D01*
X42404D01*
Y114436D01*
X42364D01*
Y114396D01*
X42284D01*
Y114436D01*
X42324D01*
Y114596D01*
X42364D01*
Y114716D01*
X42404D01*
Y114836D01*
X42444D01*
Y114916D01*
X42484D01*
Y114995D01*
X42524D01*
Y115075D01*
X42564D01*
Y115115D01*
X42604D01*
Y115195D01*
X42644D01*
Y115235D01*
X42684D01*
Y115275D01*
X42723D01*
Y115315D01*
X42763D01*
Y115395D01*
X42803D01*
Y115435D01*
X42843D01*
Y115474D01*
X42883D01*
Y115554D01*
X42923D01*
Y115834D01*
X42843D01*
Y115874D01*
X42803D01*
Y115834D01*
X42723D01*
Y115794D01*
X42684D01*
Y115754D01*
X42644D01*
Y115674D01*
X42604D01*
Y115594D01*
X42564D01*
Y115954D01*
X42604D01*
Y116113D01*
X42644D01*
Y116233D01*
X42684D01*
Y116313D01*
X42723D01*
Y116393D01*
X42763D01*
Y116473D01*
X42803D01*
Y116513D01*
X42843D01*
Y116633D01*
X42883D01*
Y116753D01*
X42923D01*
Y116952D01*
X42963D01*
Y117192D01*
X42923D01*
Y117312D01*
X42883D01*
Y117351D01*
X42843D01*
Y117312D01*
X42803D01*
Y117272D01*
X42763D01*
Y117232D01*
X42723D01*
Y117152D01*
X42684D01*
Y117032D01*
X42644D01*
Y116992D01*
X42604D01*
Y117591D01*
X42644D01*
Y117751D01*
X42684D01*
Y117831D01*
X42723D01*
Y117991D01*
X42763D01*
Y118669D01*
X42723D01*
Y118909D01*
X42684D01*
Y118989D01*
X42644D01*
Y118949D01*
X42604D01*
Y118829D01*
X42564D01*
Y118869D01*
X42524D01*
Y118949D01*
X42484D01*
Y119029D01*
X42444D01*
Y119188D01*
X42404D01*
Y119388D01*
X42364D01*
Y119628D01*
X42324D01*
Y119668D01*
X42364D01*
Y119708D01*
X42324D01*
Y119987D01*
X42284D01*
Y120187D01*
X42244D01*
Y120347D01*
X42204D01*
Y120426D01*
X42164D01*
Y120506D01*
X42085D01*
Y120387D01*
X42044D01*
Y120426D01*
X42005D01*
Y120466D01*
X41965D01*
Y120546D01*
X41925D01*
Y120626D01*
X41885D01*
Y120786D01*
X41845D01*
Y120986D01*
X41805D01*
Y121225D01*
X41765D01*
Y121425D01*
X41725D01*
Y121465D01*
Y121505D01*
X41765D01*
Y121425D01*
D02*
G37*
G36*
X42085Y121305D02*
X42164D01*
Y121265D01*
X42204D01*
Y121225D01*
X42244D01*
Y121185D01*
X42324D01*
Y121145D01*
X42364D01*
Y121105D01*
X42404D01*
Y121065D01*
X42444D01*
Y121026D01*
X42524D01*
Y120986D01*
X42564D01*
Y120946D01*
X42604D01*
Y120906D01*
X42644D01*
Y120866D01*
X42684D01*
Y120826D01*
X42723D01*
Y120786D01*
X42763D01*
Y120746D01*
X42803D01*
Y120706D01*
X42843D01*
Y120666D01*
X42883D01*
Y120626D01*
X42923D01*
Y120586D01*
X42963D01*
Y120546D01*
X43003D01*
Y120506D01*
X43043D01*
Y120466D01*
X43083D01*
Y120426D01*
X43123D01*
Y120387D01*
X43163D01*
Y120347D01*
X43203D01*
Y120307D01*
X43243D01*
Y120227D01*
X43282D01*
Y120187D01*
X43323D01*
Y120147D01*
X43362D01*
Y120067D01*
X43402D01*
Y120027D01*
X43442D01*
Y119987D01*
X43482D01*
Y119907D01*
X43522D01*
Y119867D01*
X43562D01*
Y119788D01*
X43602D01*
Y119748D01*
X43642D01*
Y119668D01*
X43682D01*
Y119588D01*
X43722D01*
Y119548D01*
X43762D01*
Y119468D01*
X43802D01*
Y119388D01*
X43842D01*
Y119308D01*
X43881D01*
Y119228D01*
X43922D01*
Y119149D01*
X43961D01*
Y119069D01*
X44001D01*
Y118949D01*
X44041D01*
Y118869D01*
X44081D01*
Y118749D01*
X44121D01*
Y118669D01*
X44161D01*
Y118550D01*
X44201D01*
Y118430D01*
X44241D01*
Y118270D01*
X44281D01*
Y118110D01*
X44321D01*
Y117950D01*
X44361D01*
Y117751D01*
X44401D01*
Y117471D01*
X44441D01*
Y117112D01*
X44481D01*
Y115954D01*
X44441D01*
Y115554D01*
X44401D01*
Y115275D01*
X44361D01*
Y115035D01*
X44321D01*
Y114836D01*
X44281D01*
Y114636D01*
X44241D01*
Y114476D01*
X44201D01*
Y114316D01*
X44161D01*
Y114157D01*
X44121D01*
Y114037D01*
X44081D01*
Y113877D01*
X44041D01*
Y113757D01*
X44001D01*
Y113637D01*
X43961D01*
Y113518D01*
X43922D01*
Y113398D01*
X43881D01*
Y113318D01*
X43842D01*
Y113198D01*
X43802D01*
Y113078D01*
X43762D01*
Y112999D01*
X43722D01*
Y112879D01*
X43682D01*
Y112799D01*
X43642D01*
Y112719D01*
X43602D01*
Y112599D01*
X43562D01*
Y112519D01*
X43522D01*
Y112440D01*
X43482D01*
Y112360D01*
X43442D01*
Y112280D01*
X43402D01*
Y112200D01*
X43362D01*
Y112120D01*
X43323D01*
Y112040D01*
X43282D01*
Y111960D01*
X43243D01*
Y111880D01*
X43203D01*
Y111801D01*
X43163D01*
Y111721D01*
X43123D01*
Y111641D01*
X43083D01*
Y111601D01*
X43043D01*
Y111521D01*
X43003D01*
Y111441D01*
X42963D01*
Y111361D01*
X42923D01*
Y111321D01*
X42883D01*
Y111241D01*
X42843D01*
Y111162D01*
X42803D01*
Y111122D01*
X42763D01*
Y111042D01*
X42723D01*
Y110962D01*
X42684D01*
Y110922D01*
X42644D01*
Y110842D01*
X42604D01*
Y110802D01*
X42564D01*
Y110722D01*
X42524D01*
Y110682D01*
X42484D01*
Y110602D01*
X42444D01*
Y110563D01*
X42404D01*
Y110483D01*
X42364D01*
Y110443D01*
X42324D01*
Y110363D01*
X42284D01*
Y110323D01*
X42244D01*
Y110243D01*
X42204D01*
Y110203D01*
X42164D01*
Y110163D01*
X42124D01*
Y110083D01*
X42085D01*
Y110043D01*
X42044D01*
Y110003D01*
X42005D01*
Y109924D01*
X41965D01*
Y109884D01*
X41925D01*
Y109844D01*
X41885D01*
Y109764D01*
X41845D01*
Y109724D01*
X41805D01*
Y109684D01*
X41765D01*
Y109644D01*
X41725D01*
Y109564D01*
X41685D01*
Y109524D01*
X41645D01*
Y109484D01*
X41605D01*
Y109444D01*
X41565D01*
Y109364D01*
X41525D01*
Y109325D01*
X41485D01*
Y109285D01*
X41445D01*
Y109245D01*
X41406D01*
Y109205D01*
X41366D01*
Y109165D01*
X41326D01*
Y109125D01*
X41286D01*
Y109045D01*
X41246D01*
Y109005D01*
X41206D01*
Y108965D01*
X41166D01*
Y108925D01*
X41126D01*
Y108885D01*
X41086D01*
Y108845D01*
X41046D01*
Y108805D01*
X41006D01*
Y108765D01*
X40966D01*
Y108726D01*
X40926D01*
Y108686D01*
X40886D01*
Y108646D01*
X40846D01*
Y108606D01*
X40807D01*
Y108566D01*
X40767D01*
Y108526D01*
X40727D01*
Y108486D01*
X40687D01*
Y108446D01*
X40647D01*
Y108406D01*
X40607D01*
Y108366D01*
X40567D01*
Y108326D01*
X40527D01*
Y108286D01*
X40487D01*
Y108246D01*
X40447D01*
Y108206D01*
X40407D01*
Y108166D01*
X40367D01*
Y108126D01*
X40327D01*
Y108087D01*
X40287D01*
Y108047D01*
X40247D01*
Y108007D01*
X40207D01*
Y107967D01*
X40168D01*
Y107927D01*
X40128D01*
Y107887D01*
X40088D01*
Y107847D01*
X40008D01*
Y107807D01*
X39968D01*
Y107767D01*
X39928D01*
Y107727D01*
X39888D01*
Y107687D01*
X39848D01*
Y107647D01*
X39808D01*
Y107607D01*
X39728D01*
Y107567D01*
X39688D01*
Y107527D01*
X39649D01*
Y107487D01*
X39608D01*
Y107448D01*
X39569D01*
Y107408D01*
X39489D01*
Y107368D01*
X39449D01*
Y107328D01*
X39409D01*
Y107288D01*
X39369D01*
Y107248D01*
X39289D01*
Y107208D01*
X39249D01*
Y107168D01*
X39209D01*
Y107128D01*
X39129D01*
Y107088D01*
X39089D01*
Y107048D01*
X39049D01*
Y107008D01*
X38970D01*
Y106968D01*
X38930D01*
Y106929D01*
X38850D01*
Y106888D01*
X38810D01*
Y106849D01*
X38730D01*
Y106809D01*
X38690D01*
Y106769D01*
X38650D01*
Y106729D01*
X38570D01*
Y106689D01*
X38530D01*
Y106649D01*
X38450D01*
Y106609D01*
X38410D01*
Y106569D01*
X38331D01*
Y106529D01*
X38251D01*
Y106489D01*
X38211D01*
Y106449D01*
X38131D01*
Y106409D01*
X38091D01*
Y106369D01*
X38011D01*
Y106329D01*
X37931D01*
Y106290D01*
X37851D01*
Y106250D01*
X37811D01*
Y106210D01*
X37732D01*
Y106170D01*
X37652D01*
Y106130D01*
X37572D01*
Y106090D01*
X37532D01*
Y106050D01*
X37452D01*
Y106010D01*
X37372D01*
Y105970D01*
X37292D01*
Y105930D01*
X37212D01*
Y105890D01*
X37132D01*
Y105850D01*
X37053D01*
Y105810D01*
X36973D01*
Y105770D01*
X36893D01*
Y105730D01*
X36773D01*
Y105691D01*
X36693D01*
Y105650D01*
X36613D01*
Y105611D01*
X36533D01*
Y105571D01*
X36414D01*
Y105531D01*
X36334D01*
Y105491D01*
X36254D01*
Y105451D01*
X36134D01*
Y105411D01*
X36014D01*
Y105371D01*
X35934D01*
Y105331D01*
X35815D01*
Y105291D01*
X35695D01*
Y105251D01*
X35575D01*
Y105211D01*
X35455D01*
Y105171D01*
X35335D01*
Y105131D01*
X35176D01*
Y105091D01*
X35056D01*
Y105052D01*
X34896D01*
Y105012D01*
X34736D01*
Y104972D01*
X34577D01*
Y104932D01*
X34417D01*
Y104892D01*
X34217D01*
Y104852D01*
X33978D01*
Y104812D01*
X33738D01*
Y104772D01*
X33419D01*
Y104732D01*
X32979D01*
Y104692D01*
X31542D01*
Y104732D01*
X31102D01*
Y104772D01*
X31062D01*
Y104732D01*
X31023D01*
Y104772D01*
X30783D01*
Y104812D01*
X30503D01*
Y104852D01*
X30304D01*
Y104892D01*
X30104D01*
Y104932D01*
X29904D01*
Y104972D01*
X29745D01*
Y105012D01*
X29545D01*
Y105052D01*
X29425D01*
Y105091D01*
X29265D01*
Y105131D01*
X29146D01*
Y105171D01*
X28986D01*
Y105211D01*
X28866D01*
Y105251D01*
X28746D01*
Y105291D01*
X28626D01*
Y105331D01*
X28507D01*
Y105371D01*
X28387D01*
Y105411D01*
X28307D01*
Y105451D01*
X28187D01*
Y105491D01*
X28067D01*
Y105531D01*
X27987D01*
Y105571D01*
X27908D01*
Y105611D01*
X27788D01*
Y105650D01*
X27708D01*
Y105691D01*
X27588D01*
Y105730D01*
X27508D01*
Y105770D01*
X27428D01*
Y105810D01*
X27349D01*
Y105850D01*
X27269D01*
Y105890D01*
X27189D01*
Y105930D01*
X27069D01*
Y105970D01*
X26989D01*
Y106010D01*
X26909D01*
Y106050D01*
X26829D01*
Y106090D01*
X26750D01*
Y106130D01*
X26709D01*
Y106170D01*
X26630D01*
Y106210D01*
X26550D01*
Y106250D01*
X26470D01*
Y106290D01*
X26390D01*
Y106329D01*
X26310D01*
Y106369D01*
X26230D01*
Y106409D01*
X26190D01*
Y106449D01*
X26111D01*
Y106489D01*
X26031D01*
Y106529D01*
X25951D01*
Y106569D01*
X25911D01*
Y106609D01*
X25831D01*
Y106649D01*
X25751D01*
Y106689D01*
X25711D01*
Y106729D01*
X25631D01*
Y106769D01*
X25591D01*
Y106809D01*
X25512D01*
Y106849D01*
X25432D01*
Y106888D01*
X25392D01*
Y106929D01*
X25312D01*
Y106968D01*
X25272D01*
Y107008D01*
X25192D01*
Y107048D01*
X25152D01*
Y107088D01*
X25072D01*
Y107128D01*
X25032D01*
Y107168D01*
X24952D01*
Y107208D01*
X24913D01*
Y107248D01*
X24833D01*
Y107288D01*
X24793D01*
Y107328D01*
X24753D01*
Y107368D01*
X24673D01*
Y107408D01*
X24633D01*
Y107448D01*
X24553D01*
Y107487D01*
X24513D01*
Y107527D01*
X24473D01*
Y107567D01*
X24393D01*
Y107607D01*
X24353D01*
Y107647D01*
X24313D01*
Y107687D01*
X24234D01*
Y107727D01*
X24194D01*
Y107767D01*
X24154D01*
Y107807D01*
X24074D01*
Y107847D01*
X24034D01*
Y107887D01*
X23994D01*
Y107927D01*
X23954D01*
Y107967D01*
X23874D01*
Y108007D01*
X23834D01*
Y108047D01*
X23794D01*
Y108087D01*
X23754D01*
Y108126D01*
X23674D01*
Y108166D01*
X23634D01*
Y108206D01*
X23595D01*
Y108246D01*
X23555D01*
Y108286D01*
X23515D01*
Y108326D01*
X23475D01*
Y108366D01*
X23395D01*
Y108406D01*
X23355D01*
Y108446D01*
X23315D01*
Y108486D01*
X23275D01*
Y108526D01*
X23235D01*
Y108566D01*
X23195D01*
Y108606D01*
X23115D01*
Y108646D01*
X23075D01*
Y108686D01*
X23035D01*
Y108726D01*
X22996D01*
Y108765D01*
X22956D01*
Y108805D01*
X22916D01*
Y108845D01*
X22876D01*
Y108885D01*
X22836D01*
Y108925D01*
X22796D01*
Y108965D01*
X22836D01*
Y108925D01*
X22876D01*
Y108885D01*
X22956D01*
Y108845D01*
X22996D01*
Y108805D01*
X23035D01*
Y108765D01*
X23075D01*
Y108726D01*
X23115D01*
Y108686D01*
X23155D01*
Y108646D01*
X23195D01*
Y108606D01*
X23275D01*
Y108566D01*
X23315D01*
Y108526D01*
X23355D01*
Y108486D01*
X23395D01*
Y108446D01*
X23435D01*
Y108406D01*
X23475D01*
Y108366D01*
X23555D01*
Y108326D01*
X23595D01*
Y108286D01*
X23634D01*
Y108246D01*
X23674D01*
Y108206D01*
X23754D01*
Y108166D01*
X23794D01*
Y108126D01*
X23834D01*
Y108087D01*
X23874D01*
Y108047D01*
X23954D01*
Y108007D01*
X23994D01*
Y107967D01*
X24034D01*
Y107927D01*
X24074D01*
Y107887D01*
X24154D01*
Y107847D01*
X24194D01*
Y107807D01*
X24234D01*
Y107767D01*
X24313D01*
Y107727D01*
X24353D01*
Y107687D01*
X24433D01*
Y107647D01*
X24473D01*
Y107607D01*
X24513D01*
Y107567D01*
X24593D01*
Y107527D01*
X24633D01*
Y107487D01*
X24713D01*
Y107448D01*
X24753D01*
Y107408D01*
X24833D01*
Y107368D01*
X24872D01*
Y107328D01*
X24952D01*
Y107288D01*
X24992D01*
Y107248D01*
X25072D01*
Y107208D01*
X25112D01*
Y107168D01*
X25192D01*
Y107128D01*
X25232D01*
Y107088D01*
X25312D01*
Y107048D01*
X25392D01*
Y107008D01*
X25432D01*
Y106968D01*
X25512D01*
Y106929D01*
X25551D01*
Y106888D01*
X25631D01*
Y106849D01*
X25711D01*
Y106809D01*
X25791D01*
Y106769D01*
X25831D01*
Y106729D01*
X25911D01*
Y106689D01*
X25991D01*
Y106649D01*
X26071D01*
Y106609D01*
X26150D01*
Y106569D01*
X26230D01*
Y106529D01*
X26310D01*
Y106489D01*
X26350D01*
Y106449D01*
X26430D01*
Y106409D01*
X26510D01*
Y106369D01*
X26630D01*
Y106329D01*
X26709D01*
Y106290D01*
X26789D01*
Y106250D01*
X26869D01*
Y106210D01*
X26949D01*
Y106170D01*
X27029D01*
Y106130D01*
X27149D01*
Y106090D01*
X27229D01*
Y106050D01*
X27349D01*
Y106010D01*
X27428D01*
Y105970D01*
X27548D01*
Y105930D01*
X27628D01*
Y105890D01*
X27748D01*
Y105850D01*
X27868D01*
Y105810D01*
X27948D01*
Y105770D01*
X28067D01*
Y105730D01*
X28187D01*
Y105691D01*
X28347D01*
Y105650D01*
X28467D01*
Y105611D01*
X28587D01*
Y105571D01*
X28746D01*
Y105531D01*
X28906D01*
Y105491D01*
X29066D01*
Y105451D01*
X29225D01*
Y105411D01*
X29385D01*
Y105371D01*
X29585D01*
Y105331D01*
X29825D01*
Y105291D01*
X30064D01*
Y105251D01*
X30344D01*
Y105211D01*
X30703D01*
Y105171D01*
X31222D01*
Y105131D01*
X31342D01*
Y105171D01*
X31382D01*
Y105131D01*
X32420D01*
Y105171D01*
X32979D01*
Y105211D01*
X33339D01*
Y105251D01*
X33618D01*
Y105291D01*
X33898D01*
Y105331D01*
X34097D01*
Y105371D01*
X34297D01*
Y105411D01*
X34497D01*
Y105451D01*
X34657D01*
Y105491D01*
X34816D01*
Y105531D01*
X34936D01*
Y105571D01*
X35096D01*
Y105611D01*
X35216D01*
Y105650D01*
X35335D01*
Y105691D01*
X35415D01*
Y105730D01*
X35535D01*
Y105770D01*
X35655D01*
Y105810D01*
X35735D01*
Y105850D01*
X35855D01*
Y105890D01*
X35934D01*
Y105930D01*
X36014D01*
Y105970D01*
X36094D01*
Y106010D01*
X36214D01*
Y106050D01*
X36294D01*
Y106090D01*
X36374D01*
Y106130D01*
X36454D01*
Y106170D01*
X36533D01*
Y106210D01*
X36613D01*
Y106250D01*
X36653D01*
Y106290D01*
X36733D01*
Y106329D01*
X36813D01*
Y106369D01*
X36893D01*
Y106409D01*
X36933D01*
Y106449D01*
X37013D01*
Y106489D01*
X37093D01*
Y106529D01*
X37132D01*
Y106569D01*
X37212D01*
Y106609D01*
X37252D01*
Y106649D01*
X37332D01*
Y106689D01*
X37372D01*
Y106729D01*
X37452D01*
Y106769D01*
X37492D01*
Y106809D01*
X37572D01*
Y106849D01*
X37612D01*
Y106888D01*
X37692D01*
Y106929D01*
X37732D01*
Y106968D01*
X37771D01*
Y107008D01*
X37851D01*
Y107048D01*
X37891D01*
Y107088D01*
X37931D01*
Y107128D01*
X38011D01*
Y107168D01*
X38051D01*
Y107208D01*
X38091D01*
Y107248D01*
X38171D01*
Y107288D01*
X38211D01*
Y107328D01*
X38251D01*
Y107368D01*
X38291D01*
Y107408D01*
X38331D01*
Y107448D01*
X38410D01*
Y107487D01*
X38450D01*
Y107527D01*
X38490D01*
Y107567D01*
X38530D01*
Y107607D01*
X38570D01*
Y107647D01*
X38610D01*
Y107687D01*
X38690D01*
Y107727D01*
X38730D01*
Y107767D01*
X38770D01*
Y107807D01*
X38810D01*
Y107847D01*
X38850D01*
Y107887D01*
X38890D01*
Y107927D01*
X38930D01*
Y107967D01*
X38970D01*
Y108007D01*
X39009D01*
Y108047D01*
X39049D01*
Y108087D01*
X39089D01*
Y108126D01*
X39129D01*
Y108166D01*
X39169D01*
Y108206D01*
X39209D01*
Y108246D01*
X39249D01*
Y108286D01*
X39289D01*
Y108326D01*
X39329D01*
Y108366D01*
X39369D01*
Y108406D01*
X39409D01*
Y108446D01*
X39449D01*
Y108486D01*
X39489D01*
Y108526D01*
X39529D01*
Y108566D01*
X39569D01*
Y108606D01*
X39608D01*
Y108646D01*
X39649D01*
Y108686D01*
X39688D01*
Y108726D01*
X39728D01*
Y108765D01*
X39768D01*
Y108845D01*
X39808D01*
Y108885D01*
X39848D01*
Y108925D01*
X39888D01*
Y108965D01*
X39928D01*
Y109005D01*
X39968D01*
Y109045D01*
X40008D01*
Y109085D01*
X40048D01*
Y109165D01*
X40088D01*
Y109205D01*
X40128D01*
Y109245D01*
X40168D01*
Y109285D01*
X40207D01*
Y109325D01*
X40247D01*
Y109404D01*
X40287D01*
Y109444D01*
X40327D01*
Y109484D01*
X40367D01*
Y109524D01*
X40407D01*
Y109604D01*
X40447D01*
Y109644D01*
X40487D01*
Y109684D01*
X40527D01*
Y109724D01*
X40567D01*
Y109804D01*
X40607D01*
Y109844D01*
X40647D01*
Y109884D01*
X40687D01*
Y109924D01*
X40727D01*
Y110003D01*
X40767D01*
Y110043D01*
X40807D01*
Y110083D01*
X40846D01*
Y110123D01*
X40886D01*
Y110203D01*
X40926D01*
Y110243D01*
X40966D01*
Y110283D01*
X41006D01*
Y110323D01*
X41046D01*
Y110403D01*
X41086D01*
Y110443D01*
X41126D01*
Y110483D01*
X41166D01*
Y110523D01*
X41206D01*
Y110602D01*
X41246D01*
Y110642D01*
X41286D01*
Y110682D01*
X41326D01*
Y110762D01*
X41366D01*
Y110802D01*
X41406D01*
Y110842D01*
X41445D01*
Y110922D01*
X41485D01*
Y110962D01*
X41525D01*
Y111002D01*
X41565D01*
Y111082D01*
X41605D01*
Y111122D01*
X41645D01*
Y111162D01*
X41685D01*
Y111241D01*
X41725D01*
Y111281D01*
X41765D01*
Y111361D01*
X41805D01*
Y111401D01*
X41845D01*
Y111481D01*
X41885D01*
Y111521D01*
X41925D01*
Y111601D01*
X41965D01*
Y111641D01*
X42005D01*
Y111721D01*
X42044D01*
Y111801D01*
X42085D01*
Y111840D01*
X42124D01*
Y111920D01*
X42164D01*
Y112000D01*
X42204D01*
Y112040D01*
X42244D01*
Y112120D01*
X42284D01*
Y112200D01*
X42324D01*
Y112280D01*
X42364D01*
Y112360D01*
X42404D01*
Y112399D01*
X42444D01*
Y112479D01*
X42484D01*
Y112559D01*
X42524D01*
Y112639D01*
X42564D01*
Y112759D01*
X42604D01*
Y112839D01*
X42644D01*
Y112919D01*
X42684D01*
Y112999D01*
X42723D01*
Y113118D01*
X42763D01*
Y113198D01*
X42803D01*
Y113318D01*
X42843D01*
Y113398D01*
X42883D01*
Y113518D01*
X42923D01*
Y113637D01*
X42963D01*
Y113757D01*
X43003D01*
Y113877D01*
X43043D01*
Y113997D01*
X43083D01*
Y114157D01*
X43123D01*
Y114316D01*
X43163D01*
Y114476D01*
X43203D01*
Y114676D01*
X43243D01*
Y114875D01*
X43282D01*
Y115115D01*
X43323D01*
Y115395D01*
X43362D01*
Y115794D01*
X43402D01*
Y115834D01*
X43362D01*
Y115874D01*
X43402D01*
Y116633D01*
X43442D01*
Y116792D01*
X43402D01*
Y117591D01*
X43362D01*
Y117950D01*
X43323D01*
Y118230D01*
X43282D01*
Y118430D01*
X43243D01*
Y118629D01*
X43203D01*
Y118829D01*
X43163D01*
Y118989D01*
X43123D01*
Y119149D01*
X43083D01*
Y119268D01*
X43043D01*
Y119388D01*
X43003D01*
Y119508D01*
X42963D01*
Y119628D01*
X42923D01*
Y119748D01*
X42883D01*
Y119867D01*
X42843D01*
Y119947D01*
X42803D01*
Y120067D01*
X42763D01*
Y120147D01*
X42723D01*
Y120227D01*
X42684D01*
Y120307D01*
X42644D01*
Y120387D01*
X42604D01*
Y120466D01*
X42564D01*
Y120546D01*
X42524D01*
Y120626D01*
X42484D01*
Y120706D01*
X42444D01*
Y120786D01*
X42404D01*
Y120826D01*
X42364D01*
Y120906D01*
X42324D01*
Y120986D01*
X42284D01*
Y121026D01*
X42244D01*
Y121105D01*
X42204D01*
Y121145D01*
X42164D01*
Y121185D01*
X42124D01*
Y121265D01*
X42085D01*
Y121305D01*
X42044D01*
Y121345D01*
X42085D01*
Y121305D01*
D02*
G37*
G36*
X127692Y16367D02*
X127746Y16346D01*
X127843Y16292D01*
X127984Y16216D01*
X128049Y16173D01*
X128070Y16162D01*
X128178Y16086D01*
X128200Y16075D01*
X128221Y16054D01*
X128243Y16043D01*
X128319Y15989D01*
X128340Y15978D01*
X128362Y15957D01*
X128384Y15946D01*
X128427Y15902D01*
X128448Y15892D01*
X128454Y15876D01*
X128470Y15859D01*
X128492Y15848D01*
X128535Y15805D01*
X128557Y15794D01*
X128573Y15778D01*
X128584Y15757D01*
X128600Y15751D01*
X128865Y15486D01*
X128875Y15465D01*
X129016Y15324D01*
X129027Y15303D01*
X129070Y15259D01*
X129081Y15238D01*
X129167Y15151D01*
X129194Y15114D01*
X129243Y15054D01*
X129254Y15033D01*
X129297Y14989D01*
X129308Y14968D01*
X129329Y14957D01*
X129340Y14935D01*
X129373Y14903D01*
X129405Y14849D01*
X129427Y14827D01*
X129459Y14773D01*
X129481Y14751D01*
X129491Y14730D01*
X129518Y14703D01*
X129562Y14638D01*
X129632Y14535D01*
X129664Y14481D01*
X129686Y14460D01*
X129772Y14308D01*
X129794Y14287D01*
X129821Y14249D01*
X130080Y14238D01*
X130156Y14227D01*
X130307Y14163D01*
X130329Y14152D01*
X130437Y14076D01*
X130486Y14017D01*
X130513Y13979D01*
X130588Y13860D01*
X130605Y13790D01*
X130626Y13736D01*
X130637Y13552D01*
X130621Y13492D01*
X130610Y13449D01*
X130594Y13390D01*
X130561Y13314D01*
X130551Y13260D01*
X130599Y13211D01*
X130621Y13201D01*
X130637Y13184D01*
X130696Y13136D01*
X130718Y13125D01*
X130794Y13071D01*
X130815Y13060D01*
X130923Y12984D01*
X130945Y12974D01*
X130967Y12952D01*
X130988Y12941D01*
X131010Y12920D01*
X131032Y12909D01*
X131107Y12855D01*
X131129Y12844D01*
X131161Y12811D01*
X131221Y12774D01*
X131231Y12752D01*
X131258Y12736D01*
X131280Y12725D01*
X131302Y12703D01*
X131340Y12676D01*
X131399Y12628D01*
X131421Y12617D01*
X131518Y12520D01*
X131539Y12509D01*
X131583Y12466D01*
X131604Y12455D01*
X131626Y12433D01*
X131664Y12406D01*
X131675Y12385D01*
X131777Y12282D01*
X131799Y12271D01*
X131891Y12179D01*
X131902Y12158D01*
X131923Y12147D01*
X131934Y12125D01*
X132031Y12028D01*
X132042Y12006D01*
X132085Y11963D01*
X132096Y11942D01*
X132118Y11920D01*
X132145Y11882D01*
X132193Y11823D01*
X132204Y11801D01*
X132237Y11769D01*
X132247Y11747D01*
X132301Y11671D01*
X132345Y11596D01*
X132355Y11574D01*
X132399Y11477D01*
X132409Y11347D01*
X132393Y11298D01*
X132318Y11244D01*
X132220Y11234D01*
X132188Y11223D01*
X132091Y11234D01*
X132047Y11244D01*
X131977Y11271D01*
X131918Y11288D01*
X131853Y11331D01*
X131810Y11342D01*
X131788Y11363D01*
X131648Y11439D01*
X131583Y11482D01*
X131561Y11493D01*
X131539Y11515D01*
X131485Y11547D01*
X131464Y11569D01*
X131442Y11579D01*
X131367Y11633D01*
X131345Y11644D01*
X131323Y11666D01*
X131302Y11677D01*
X131280Y11698D01*
X131258Y11709D01*
X131161Y11806D01*
X131140Y11817D01*
X131129Y11839D01*
X131107Y11850D01*
X130999Y11958D01*
X130977Y11969D01*
X130972Y11985D01*
X130756Y12201D01*
X130745Y12223D01*
X130659Y12309D01*
X130648Y12331D01*
X130632Y12347D01*
X130610Y12358D01*
X130605Y12374D01*
X130551Y12428D01*
X130540Y12449D01*
X130486Y12504D01*
X130475Y12525D01*
X130442Y12558D01*
X130432Y12579D01*
X130415Y12585D01*
X130388Y12622D01*
X130378Y12644D01*
X130334Y12687D01*
X130324Y12709D01*
X130302Y12731D01*
X130291Y12752D01*
X130270Y12774D01*
X130243Y12811D01*
X130188Y12876D01*
X130134Y12887D01*
X130102Y12876D01*
X129832Y12736D01*
X129670Y12660D01*
X129572Y12606D01*
X129513Y12568D01*
X129502Y12547D01*
X129486Y12530D01*
X129464Y12520D01*
X129362Y12417D01*
X129351Y12395D01*
X129254Y12298D01*
X129243Y12276D01*
X129210Y12244D01*
X129200Y12223D01*
X129183Y12206D01*
X129135Y12147D01*
X129124Y12125D01*
X129081Y12082D01*
X129070Y12060D01*
X129048Y12039D01*
X129021Y12001D01*
X128967Y11914D01*
X128919Y11855D01*
X128843Y11758D01*
X128832Y11736D01*
X128756Y11617D01*
X128724Y11563D01*
X128692Y11531D01*
X128681Y11509D01*
X128638Y11444D01*
X128562Y11304D01*
X128540Y11282D01*
X128508Y11228D01*
X128486Y11207D01*
X128432Y11109D01*
X128346Y10947D01*
X128313Y10915D01*
X128303Y10871D01*
X128270Y10839D01*
X128205Y10720D01*
X128113Y10520D01*
X128097Y10461D01*
X128070Y10401D01*
X128032Y10234D01*
X128022Y10201D01*
X128011Y10039D01*
X128000Y10007D01*
X128005Y9829D01*
X128016Y9677D01*
X128027Y9634D01*
X128038Y9580D01*
X128054Y9477D01*
X128097Y9380D01*
X128108Y9337D01*
X128151Y9240D01*
X128270Y8991D01*
X128292Y8969D01*
X128335Y8894D01*
X128389Y8796D01*
X128454Y8678D01*
X128508Y8602D01*
X128519Y8580D01*
X128562Y8515D01*
X128616Y8418D01*
X128692Y8299D01*
X128724Y8245D01*
X128756Y8213D01*
X128767Y8191D01*
X128843Y8072D01*
X128886Y7997D01*
X128902Y7981D01*
X129005Y7845D01*
X129037Y7791D01*
X129059Y7770D01*
X129070Y7748D01*
X129092Y7727D01*
X129102Y7705D01*
X129140Y7667D01*
X129189Y7608D01*
X129200Y7586D01*
X129221Y7564D01*
X129232Y7543D01*
X129286Y7489D01*
X129297Y7467D01*
X129313Y7451D01*
X129335Y7440D01*
X129340Y7424D01*
X129394Y7370D01*
X129405Y7348D01*
X129421Y7332D01*
X129443Y7321D01*
X129448Y7305D01*
X129464Y7289D01*
X129486Y7278D01*
X129497Y7256D01*
X129518Y7245D01*
X129572Y7192D01*
X129594Y7181D01*
X129616Y7159D01*
X129670Y7127D01*
X129767Y7083D01*
X129886Y7029D01*
X129918Y7019D01*
X129951Y7029D01*
X130075Y7197D01*
X130086Y7219D01*
X130129Y7283D01*
X130140Y7305D01*
X130156Y7321D01*
X130243Y7429D01*
X130291Y7489D01*
X130302Y7510D01*
X130324Y7532D01*
X130334Y7554D01*
X130378Y7597D01*
X130388Y7618D01*
X130442Y7672D01*
X130453Y7694D01*
X130507Y7748D01*
X130518Y7770D01*
X130551Y7802D01*
X130561Y7824D01*
X130702Y7964D01*
X130713Y7986D01*
X130961Y8234D01*
X130972Y8256D01*
X130988Y8262D01*
X131129Y8402D01*
X131150Y8413D01*
X131199Y8461D01*
X131258Y8510D01*
X131280Y8521D01*
X131302Y8542D01*
X131356Y8575D01*
X131388Y8607D01*
X131464Y8651D01*
X131485Y8672D01*
X131507Y8683D01*
X131529Y8705D01*
X131539D01*
X131583Y8737D01*
X131658Y8780D01*
X131723Y8823D01*
X131799Y8867D01*
X131902Y8915D01*
X131956Y8937D01*
X132015Y8953D01*
X132047Y8964D01*
X132177Y8975D01*
X132253Y8964D01*
X132328Y8942D01*
X132377Y8883D01*
X132388Y8818D01*
X132377Y8775D01*
X132345Y8667D01*
X132291Y8548D01*
X132269Y8526D01*
X132258Y8505D01*
X132150Y8353D01*
X132139Y8332D01*
X132107Y8299D01*
X132096Y8278D01*
X132064Y8245D01*
X132053Y8224D01*
X131988Y8159D01*
X131977Y8137D01*
X131939Y8099D01*
X131885Y8034D01*
X131864Y8024D01*
X131847Y8008D01*
X131837Y7986D01*
X131820Y7970D01*
X131799Y7959D01*
X131615Y7775D01*
X131594Y7764D01*
X131561Y7732D01*
X131539Y7721D01*
X131518Y7700D01*
X131496Y7689D01*
X131491Y7672D01*
X131475Y7667D01*
X131426Y7618D01*
X131361Y7575D01*
X131123Y7391D01*
X131021Y7321D01*
X130967Y7289D01*
X130859Y7213D01*
X130805Y7181D01*
X130772Y7148D01*
X130751Y7137D01*
X130675Y7083D01*
X130653Y7073D01*
X130621Y7040D01*
X130599Y7029D01*
X130556Y6986D01*
X130534Y6975D01*
X130459Y6900D01*
X130437Y6889D01*
X130383Y6835D01*
X130361Y6824D01*
X130334Y6797D01*
X130345Y6765D01*
X130361Y6759D01*
X130394Y6727D01*
X130415Y6716D01*
X130486Y6646D01*
X130497Y6624D01*
X130518Y6602D01*
X130594Y6462D01*
X130605Y6419D01*
X130637Y6343D01*
X130648Y6159D01*
X130637Y6051D01*
X130615Y5997D01*
X130572Y5900D01*
X130529Y5824D01*
X130497Y5792D01*
X130470Y5754D01*
X130448Y5743D01*
X130432Y5727D01*
X130372Y5678D01*
X130275Y5624D01*
X130178Y5581D01*
X129918Y5570D01*
X129810Y5581D01*
X129670Y5624D01*
X129616Y5646D01*
X129572Y5635D01*
X129556Y5597D01*
X129513Y5554D01*
X129502Y5533D01*
X129481Y5511D01*
X129437Y5435D01*
X129416Y5414D01*
X129405Y5392D01*
X129362Y5349D01*
X129351Y5327D01*
X129308Y5284D01*
X129297Y5262D01*
X129275Y5241D01*
X129264Y5219D01*
X129248Y5203D01*
X129200Y5143D01*
X129189Y5122D01*
X129156Y5100D01*
X129146Y5079D01*
X129092Y5025D01*
X129081Y5003D01*
X129037Y4960D01*
X129027Y4938D01*
X128994Y4906D01*
X128967Y4868D01*
X128929Y4841D01*
X128919Y4819D01*
X128902Y4814D01*
X128875Y4787D01*
X128865Y4765D01*
X128789Y4690D01*
X128762Y4652D01*
X128740Y4641D01*
X128502Y4403D01*
X128481Y4392D01*
X128427Y4338D01*
X128405Y4327D01*
X128362Y4284D01*
X128340Y4273D01*
X128308Y4241D01*
X128286Y4230D01*
X128221Y4187D01*
X128200Y4176D01*
X128049Y4068D01*
X128027Y4057D01*
X128005Y4036D01*
X127757Y3906D01*
X127687Y3868D01*
X127616Y3852D01*
X127595Y3830D01*
X127411Y3819D01*
X127362Y3836D01*
X127292Y3863D01*
X127243Y3933D01*
X127233Y3987D01*
X127243Y4030D01*
X127265Y4084D01*
X127297Y4160D01*
X127351Y4257D01*
X127395Y4333D01*
X127427Y4387D01*
X127449Y4408D01*
X127481Y4463D01*
X127535Y4517D01*
X127546Y4538D01*
X127578Y4571D01*
X127589Y4592D01*
X127632Y4636D01*
X127643Y4657D01*
X127973Y4987D01*
X127995Y4998D01*
X128038Y5041D01*
X128059Y5052D01*
X128113Y5106D01*
X128135Y5116D01*
X128173Y5154D01*
X128232Y5203D01*
X128254Y5214D01*
X128286Y5246D01*
X128340Y5279D01*
X128384Y5322D01*
X128405Y5333D01*
X128427Y5354D01*
X128448Y5365D01*
X128481Y5397D01*
X128502Y5408D01*
X128643Y5505D01*
X128665Y5516D01*
X128686Y5538D01*
X128762Y5581D01*
X128783Y5603D01*
X128805Y5614D01*
X128881Y5668D01*
X128902Y5678D01*
X128924Y5700D01*
X128978Y5733D01*
X128994Y5749D01*
X129005Y5770D01*
X129043Y5787D01*
X129086Y5830D01*
X129108Y5841D01*
X129151Y5884D01*
X129173Y5895D01*
X129227Y5949D01*
X129275Y6008D01*
X129270Y6057D01*
X129243Y6127D01*
X129183Y6251D01*
X129129Y6338D01*
X129081Y6397D01*
X129070Y6419D01*
X128881Y6608D01*
X128859Y6619D01*
X128773Y6705D01*
X128751Y6716D01*
X128729Y6748D01*
X128708Y6759D01*
X128643Y6824D01*
X128621Y6835D01*
X128589Y6867D01*
X128567Y6878D01*
X128524Y6921D01*
X128502Y6932D01*
X128384Y7051D01*
X128346Y7078D01*
X128286Y7127D01*
X128265Y7137D01*
X128189Y7213D01*
X128167Y7224D01*
X128135Y7256D01*
X128113Y7267D01*
X128092Y7289D01*
X128070Y7300D01*
X128038Y7332D01*
X128016Y7343D01*
X127984Y7375D01*
X127962Y7386D01*
X127930Y7418D01*
X127876Y7451D01*
X127843Y7483D01*
X127822Y7494D01*
X127800Y7516D01*
X127746Y7548D01*
X127714Y7581D01*
X127692Y7591D01*
X127670Y7613D01*
X127649Y7624D01*
X127616Y7656D01*
X127595Y7667D01*
X127519Y7721D01*
X127443Y7764D01*
X127411Y7797D01*
X127389Y7807D01*
X127368Y7829D01*
X127292Y7872D01*
X127270Y7894D01*
X127130Y7970D01*
X127108Y7991D01*
X127033Y8034D01*
X126871Y8121D01*
X126816Y8153D01*
X126795Y8164D01*
X126611Y8251D01*
X126541Y8278D01*
X126498Y8288D01*
X126444Y8310D01*
X126319Y8337D01*
X126287Y8348D01*
X126136Y8359D01*
X125984Y8337D01*
X125855Y8315D01*
X125763Y8288D01*
X125703Y8272D01*
X125606Y8229D01*
X125466Y8164D01*
X125217Y8045D01*
X125163Y8013D01*
X125098Y7970D01*
X125076Y7959D01*
X124866Y7835D01*
X124801Y7791D01*
X124666Y7700D01*
X124590Y7656D01*
X124574Y7640D01*
X124514Y7591D01*
X124493Y7581D01*
X124471Y7559D01*
X124450Y7548D01*
X124428Y7526D01*
X124352Y7483D01*
X124331Y7462D01*
X124309Y7451D01*
X124277Y7418D01*
X124255Y7408D01*
X124233Y7386D01*
X124158Y7332D01*
X124060Y7256D01*
X124039Y7245D01*
X123985Y7192D01*
X123963Y7181D01*
X123942Y7159D01*
X123844Y7083D01*
X123823Y7073D01*
X123790Y7040D01*
X123769Y7029D01*
X123682Y6943D01*
X123661Y6932D01*
X123644Y6916D01*
X123585Y6867D01*
X123563Y6857D01*
X123531Y6824D01*
X123509Y6813D01*
X123488Y6781D01*
X123466Y6770D01*
X123401Y6705D01*
X123380Y6694D01*
X123336Y6651D01*
X123315Y6640D01*
X123082Y6408D01*
X123072Y6386D01*
X123039Y6354D01*
X122996Y6278D01*
X122899Y6095D01*
X122845Y5997D01*
X122834Y5976D01*
X122845Y5943D01*
X122855Y5922D01*
X122882Y5895D01*
X122904Y5884D01*
X122947Y5841D01*
X122969Y5830D01*
X123012Y5787D01*
X123034Y5776D01*
X123050Y5759D01*
X123185Y5657D01*
X123261Y5614D01*
X123282Y5592D01*
X123358Y5549D01*
X123417Y5511D01*
X123477Y5462D01*
X123498Y5452D01*
X123520Y5430D01*
X123542Y5419D01*
X123607Y5376D01*
X123628Y5365D01*
X123661Y5333D01*
X123682Y5322D01*
X123698Y5306D01*
X123758Y5257D01*
X123779Y5246D01*
X123801Y5224D01*
X123823Y5214D01*
X123855Y5181D01*
X123877Y5170D01*
X123920Y5127D01*
X123942Y5116D01*
X123985Y5073D01*
X124006Y5062D01*
X124060Y5008D01*
X124082Y4998D01*
X124169Y4911D01*
X124206Y4884D01*
X124217Y4862D01*
X124277Y4803D01*
X124298Y4792D01*
X124304Y4776D01*
X124331Y4749D01*
X124352Y4738D01*
X124358Y4722D01*
X124385Y4695D01*
X124406Y4684D01*
X124412Y4668D01*
X124444Y4636D01*
X124455Y4614D01*
X124498Y4571D01*
X124509Y4549D01*
X124531Y4527D01*
X124660Y4355D01*
X124671Y4333D01*
X124714Y4268D01*
X124790Y4127D01*
X124822Y4073D01*
X124833Y3922D01*
X124822Y3879D01*
X124752Y3830D01*
X124482Y3819D01*
X124385Y3863D01*
X124331Y3884D01*
X124082Y4014D01*
X124006Y4068D01*
X123985Y4079D01*
X123952Y4111D01*
X123931Y4122D01*
X123866Y4165D01*
X123844Y4176D01*
X123769Y4230D01*
X123747Y4241D01*
X123742Y4257D01*
X123715Y4273D01*
X123693Y4284D01*
X123607Y4371D01*
X123585Y4382D01*
X123363Y4603D01*
X123299Y4657D01*
X123288Y4679D01*
X123234Y4733D01*
X123223Y4754D01*
X123196Y4781D01*
X123174Y4792D01*
X123158Y4808D01*
X123147Y4830D01*
X123061Y4916D01*
X123050Y4938D01*
X123007Y4981D01*
X122996Y5003D01*
X122931Y5068D01*
X122920Y5089D01*
X122904Y5106D01*
X122882Y5116D01*
X122866Y5143D01*
X122855Y5165D01*
X122834Y5187D01*
X122823Y5208D01*
X122807Y5224D01*
X122758Y5284D01*
X122747Y5306D01*
X122731Y5311D01*
X122699Y5365D01*
X122596Y5500D01*
X122585Y5522D01*
X122564Y5543D01*
X122553Y5565D01*
X122504Y5614D01*
X122461Y5624D01*
X122364Y5581D01*
X122104Y5570D01*
X121996Y5581D01*
X121953Y5592D01*
X121845Y5635D01*
X121791Y5668D01*
X121769Y5678D01*
X121737Y5711D01*
X121715Y5722D01*
X121656Y5781D01*
X121602Y5857D01*
X121558Y5932D01*
X121526Y6008D01*
X121515Y6289D01*
X121526Y6365D01*
X121542Y6424D01*
X121569Y6494D01*
X121613Y6592D01*
X121715Y6694D01*
X121737Y6705D01*
X121753Y6721D01*
X121764Y6743D01*
X121753Y6786D01*
X121672Y6867D01*
X121650Y6878D01*
X121564Y6965D01*
X121542Y6975D01*
X121526Y6992D01*
X121467Y7040D01*
X121305Y7148D01*
X121229Y7202D01*
X121067Y7310D01*
X121013Y7343D01*
X120996Y7359D01*
X120786Y7516D01*
X120748Y7543D01*
X120688Y7591D01*
X120667Y7602D01*
X120613Y7656D01*
X120591Y7667D01*
X120526Y7732D01*
X120505Y7743D01*
X120461Y7786D01*
X120440Y7797D01*
X120289Y7948D01*
X120267Y7959D01*
X120240Y7986D01*
X120229Y8008D01*
X120186Y8040D01*
X120175Y8061D01*
X120089Y8148D01*
X120078Y8170D01*
X120024Y8224D01*
X120013Y8245D01*
X119991Y8267D01*
X119916Y8364D01*
X119905Y8386D01*
X119883Y8407D01*
X119872Y8429D01*
X119797Y8548D01*
X119710Y8710D01*
X119700Y8861D01*
X119716Y8910D01*
X119813Y8964D01*
X119975Y8975D01*
X120018Y8964D01*
X120094Y8942D01*
X120137Y8932D01*
X120343Y8834D01*
X120364Y8813D01*
X120440Y8769D01*
X120461Y8759D01*
X120526Y8715D01*
X120602Y8672D01*
X120678Y8618D01*
X120775Y8542D01*
X120797Y8532D01*
X120818Y8510D01*
X120840Y8499D01*
X120861Y8478D01*
X120883Y8467D01*
X120888Y8451D01*
X120905Y8434D01*
X120926Y8424D01*
X120948Y8391D01*
X120969Y8380D01*
X121067Y8283D01*
X121088Y8272D01*
X121105Y8256D01*
X121115Y8234D01*
X121353Y7997D01*
X121364Y7975D01*
X121494Y7845D01*
X121504Y7824D01*
X121548Y7780D01*
X121558Y7759D01*
X121602Y7716D01*
X121613Y7694D01*
X121667Y7640D01*
X121677Y7618D01*
X121694Y7602D01*
X121742Y7543D01*
X121818Y7446D01*
X121829Y7424D01*
X121856Y7397D01*
X121958Y7262D01*
X121969Y7240D01*
X122077Y7089D01*
X122088Y7067D01*
X122110Y7046D01*
X122137Y7008D01*
X122180Y6997D01*
X122256Y7029D01*
X122353Y7073D01*
X122493Y7137D01*
X122591Y7192D01*
X122682Y7283D01*
X122747Y7337D01*
X122758Y7359D01*
X122812Y7413D01*
X122823Y7435D01*
X122893Y7505D01*
X122942Y7564D01*
X123018Y7662D01*
X123028Y7683D01*
X123061Y7716D01*
X123072Y7737D01*
X123104Y7770D01*
X123115Y7791D01*
X123185Y7883D01*
X123255Y7986D01*
X123288Y8040D01*
X123304Y8056D01*
X123347Y8121D01*
X123439Y8256D01*
X123493Y8353D01*
X123515Y8375D01*
X123558Y8451D01*
X123580Y8472D01*
X123655Y8613D01*
X123709Y8699D01*
X123752Y8775D01*
X123774Y8796D01*
X123882Y8991D01*
X123969Y9153D01*
X123985Y9169D01*
X124050Y9342D01*
X124060Y9386D01*
X124077Y9456D01*
X124088Y9499D01*
X124098Y9531D01*
X124109Y9650D01*
X124120Y9683D01*
X124115Y10056D01*
X124104Y10153D01*
X124093Y10207D01*
X124077Y10277D01*
X124055Y10364D01*
X124039Y10423D01*
X124012Y10493D01*
X123990Y10547D01*
X123936Y10644D01*
X123839Y10828D01*
X123785Y10926D01*
X123742Y11001D01*
X123720Y11023D01*
X123655Y11142D01*
X123580Y11261D01*
X123536Y11336D01*
X123515Y11358D01*
X123504Y11379D01*
X123423Y11515D01*
X123336Y11644D01*
X123266Y11747D01*
X123234Y11801D01*
X123217Y11817D01*
X123174Y11882D01*
X123126Y11942D01*
X123115Y11963D01*
X123093Y11985D01*
X123061Y12039D01*
X123028Y12071D01*
X123018Y12093D01*
X122996Y12114D01*
X122969Y12152D01*
X122920Y12212D01*
X122909Y12233D01*
X122834Y12309D01*
X122823Y12331D01*
X122780Y12374D01*
X122769Y12395D01*
X122742Y12422D01*
X122720Y12433D01*
X122715Y12449D01*
X122699Y12466D01*
X122677Y12477D01*
X122547Y12606D01*
X122488Y12644D01*
X122434Y12666D01*
X122364Y12693D01*
X122288Y12725D01*
X122104Y12811D01*
X121964Y12887D01*
X121931Y12876D01*
X121910Y12866D01*
X121883Y12828D01*
X121872Y12806D01*
X121839Y12774D01*
X121812Y12736D01*
X121764Y12676D01*
X121753Y12655D01*
X121731Y12633D01*
X121721Y12612D01*
X121667Y12558D01*
X121656Y12536D01*
X121640Y12530D01*
X121623Y12514D01*
X121613Y12493D01*
X121580Y12460D01*
X121569Y12439D01*
X121537Y12406D01*
X121526Y12385D01*
X121375Y12233D01*
X121364Y12212D01*
X121321Y12168D01*
X121294Y12131D01*
X121272Y12120D01*
X121023Y11871D01*
X121002Y11860D01*
X120888Y11747D01*
X120753Y11644D01*
X120732Y11633D01*
X120505Y11471D01*
X120407Y11417D01*
X120321Y11363D01*
X120202Y11298D01*
X120148Y11277D01*
X120072Y11244D01*
X119970Y11228D01*
X119835Y11234D01*
X119759Y11255D01*
X119732Y11282D01*
X119700Y11336D01*
X119689Y11369D01*
X119694Y11396D01*
X119710Y11488D01*
X119737Y11547D01*
X119764Y11617D01*
X119786Y11639D01*
X119797Y11660D01*
X119851Y11736D01*
X119862Y11758D01*
X119916Y11833D01*
X119927Y11855D01*
X119948Y11877D01*
X119959Y11898D01*
X119991Y11931D01*
X120002Y11952D01*
X120067Y12017D01*
X120078Y12039D01*
X120153Y12114D01*
X120164Y12136D01*
X120197Y12168D01*
X120262Y12223D01*
X120272Y12244D01*
X120289Y12260D01*
X120310Y12271D01*
X120370Y12331D01*
X120380Y12352D01*
X120397Y12358D01*
X120461Y12422D01*
X120483Y12433D01*
X120548Y12498D01*
X120570Y12509D01*
X120613Y12552D01*
X120634Y12563D01*
X120672Y12601D01*
X120737Y12644D01*
X120797Y12693D01*
X120818Y12703D01*
X120840Y12725D01*
X120861Y12736D01*
X120905Y12779D01*
X120926Y12790D01*
X120959Y12822D01*
X121034Y12866D01*
X121056Y12876D01*
X121132Y12930D01*
X121153Y12941D01*
X121175Y12963D01*
X121234Y13001D01*
X121337Y13071D01*
X121391Y13103D01*
X121413Y13125D01*
X121450Y13152D01*
X121461Y13174D01*
X121477Y13190D01*
X121499Y13201D01*
X121548Y13271D01*
X121526Y13314D01*
X121504Y13400D01*
X121483Y13455D01*
X121472Y13703D01*
X121499Y13773D01*
X121515Y13833D01*
X121580Y13973D01*
X121602Y13995D01*
X121613Y14017D01*
X121672Y14076D01*
X121694Y14087D01*
X121715Y14108D01*
X121856Y14184D01*
X121915Y14200D01*
X121969Y14222D01*
X122056Y14233D01*
X122212Y14227D01*
X122256Y14238D01*
X122272Y14254D01*
X122304Y14308D01*
X122337Y14341D01*
X122347Y14362D01*
X122391Y14427D01*
X122401Y14449D01*
X122456Y14525D01*
X122466Y14546D01*
X122488Y14568D01*
X122499Y14589D01*
X122515Y14606D01*
X122564Y14665D01*
X122574Y14687D01*
X122596Y14708D01*
X122607Y14730D01*
X122628Y14751D01*
X122639Y14773D01*
X122661Y14795D01*
X122672Y14816D01*
X122704Y14849D01*
X122715Y14870D01*
X122758Y14914D01*
X122769Y14935D01*
X122812Y14978D01*
X122823Y15000D01*
X122855Y15033D01*
X122866Y15054D01*
X122920Y15108D01*
X122931Y15130D01*
X123007Y15205D01*
X123018Y15227D01*
X123082Y15292D01*
X123093Y15314D01*
X123109Y15319D01*
X123169Y15378D01*
X123180Y15400D01*
X123196Y15416D01*
X123217Y15427D01*
X123223Y15443D01*
X123542Y15762D01*
X123563Y15773D01*
X123617Y15827D01*
X123639Y15838D01*
X123693Y15892D01*
X123715Y15902D01*
X123747Y15935D01*
X123769Y15946D01*
X123877Y16021D01*
X123931Y16054D01*
X123952Y16075D01*
X124006Y16108D01*
X124039Y16140D01*
X124115Y16183D01*
X124212Y16238D01*
X124233Y16248D01*
X124287Y16270D01*
X124320Y16302D01*
X124363Y16313D01*
X124482Y16367D01*
X124601Y16378D01*
X124741Y16367D01*
X124795Y16346D01*
X124812Y16329D01*
X124844Y16275D01*
X124855Y16243D01*
X124844Y16167D01*
X124833Y16124D01*
X124768Y15984D01*
X124747Y15962D01*
X124736Y15940D01*
X124704Y15886D01*
X124693Y15865D01*
X124639Y15789D01*
X124628Y15767D01*
X124595Y15735D01*
X124585Y15713D01*
X124541Y15670D01*
X124531Y15649D01*
X124498Y15616D01*
X124487Y15595D01*
X124433Y15540D01*
X124423Y15519D01*
X124136Y15232D01*
X124115Y15222D01*
X124060Y15168D01*
X124039Y15157D01*
X124006Y15124D01*
X123985Y15114D01*
X123898Y15027D01*
X123877Y15016D01*
X123855Y14995D01*
X123796Y14957D01*
X123736Y14908D01*
X123715Y14897D01*
X123698Y14881D01*
X123563Y14778D01*
X123542Y14768D01*
X123466Y14714D01*
X123444Y14703D01*
X123423Y14681D01*
X123369Y14649D01*
X123347Y14627D01*
X123293Y14595D01*
X123272Y14573D01*
X123250Y14562D01*
X123174Y14508D01*
X123153Y14498D01*
X123120Y14465D01*
X123099Y14454D01*
X123082Y14438D01*
X123023Y14389D01*
X123001Y14379D01*
X122969Y14346D01*
X122947Y14335D01*
X122904Y14292D01*
X122882Y14281D01*
X122877Y14265D01*
X122753Y14141D01*
X122731Y14130D01*
X122726Y14114D01*
X122666Y14065D01*
X122650Y14006D01*
X122715Y13941D01*
X122791Y13844D01*
X122920Y13595D01*
X122953Y13541D01*
X123018Y13422D01*
X123050Y13390D01*
X123061Y13368D01*
X123282Y13147D01*
X123304Y13136D01*
X123347Y13092D01*
X123369Y13082D01*
X123498Y12952D01*
X123520Y12941D01*
X123536Y12925D01*
X123596Y12876D01*
X123617Y12866D01*
X123693Y12790D01*
X123715Y12779D01*
X123769Y12725D01*
X123790Y12714D01*
X123834Y12671D01*
X123855Y12660D01*
X123877Y12639D01*
X123898Y12628D01*
X123931Y12595D01*
X123969Y12568D01*
X124033Y12514D01*
X124228Y12363D01*
X124363Y12260D01*
X124385Y12250D01*
X124406Y12228D01*
X124428Y12217D01*
X124450Y12195D01*
X124471Y12185D01*
X124493Y12163D01*
X124514Y12152D01*
X124536Y12131D01*
X124574Y12104D01*
X124639Y12060D01*
X124725Y12006D01*
X124828Y11936D01*
X124904Y11882D01*
X125001Y11828D01*
X125022Y11817D01*
X125087Y11774D01*
X125163Y11731D01*
X125347Y11633D01*
X125444Y11590D01*
X125498Y11569D01*
X125514Y11552D01*
X125574Y11536D01*
X125633Y11509D01*
X125703Y11482D01*
X125795Y11455D01*
X125838Y11444D01*
X125952Y11428D01*
X125984Y11417D01*
X126011Y11423D01*
X126141Y11434D01*
X126260Y11444D01*
X126346Y11466D01*
X126417Y11482D01*
X126514Y11525D01*
X126557Y11536D01*
X126611Y11558D01*
X126633Y11579D01*
X126676Y11590D01*
X126860Y11677D01*
X126892Y11688D01*
X126957Y11731D01*
X126979Y11742D01*
X127043Y11785D01*
X127162Y11850D01*
X127184Y11860D01*
X127249Y11904D01*
X127270Y11914D01*
X127292Y11936D01*
X127314Y11947D01*
X127422Y12022D01*
X127443Y12033D01*
X127551Y12109D01*
X127573Y12120D01*
X127595Y12141D01*
X127632Y12168D01*
X127692Y12217D01*
X127714Y12228D01*
X127735Y12250D01*
X127757Y12260D01*
X127778Y12282D01*
X127832Y12314D01*
X127854Y12336D01*
X127951Y12412D01*
X127973Y12422D01*
X128016Y12466D01*
X128038Y12477D01*
X128070Y12509D01*
X128092Y12520D01*
X128124Y12552D01*
X128146Y12563D01*
X128189Y12606D01*
X128211Y12617D01*
X128254Y12660D01*
X128276Y12671D01*
X128297Y12693D01*
X128319Y12703D01*
X128394Y12779D01*
X128416Y12790D01*
X128481Y12855D01*
X128502Y12866D01*
X128524Y12887D01*
X128546Y12898D01*
X128632Y12984D01*
X128654Y12995D01*
X128670Y13012D01*
X128681Y13033D01*
X128697Y13038D01*
X128740Y13082D01*
X128762Y13092D01*
X128902Y13233D01*
X128924Y13244D01*
X129037Y13357D01*
X129048Y13379D01*
X129070Y13400D01*
X129102Y13455D01*
X129124Y13476D01*
X129167Y13552D01*
X129189Y13574D01*
X129200Y13617D01*
X129308Y13844D01*
X129318Y13865D01*
X129340Y13887D01*
X129351Y13908D01*
X129437Y13995D01*
X129448Y14060D01*
X129427Y14081D01*
X129416Y14103D01*
X129297Y14222D01*
X129286Y14243D01*
X129264Y14254D01*
X129237Y14292D01*
X129216Y14303D01*
X129162Y14357D01*
X129140Y14368D01*
X129119Y14389D01*
X129097Y14400D01*
X129054Y14444D01*
X128956Y14519D01*
X128902Y14552D01*
X128881Y14573D01*
X128859Y14584D01*
X128794Y14627D01*
X128740Y14660D01*
X128719Y14681D01*
X128681Y14708D01*
X128578Y14778D01*
X128502Y14822D01*
X128470Y14854D01*
X128448Y14865D01*
X128416Y14897D01*
X128394Y14908D01*
X128351Y14951D01*
X128330Y14962D01*
X128254Y15016D01*
X128232Y15027D01*
X128146Y15114D01*
X128124Y15124D01*
X128081Y15168D01*
X128059Y15178D01*
X127930Y15308D01*
X127908Y15319D01*
X127741Y15486D01*
X127730Y15508D01*
X127714Y15513D01*
X127697Y15530D01*
X127687Y15551D01*
X127611Y15627D01*
X127584Y15665D01*
X127535Y15724D01*
X127406Y15897D01*
X127276Y16146D01*
X127265Y16178D01*
X127254Y16286D01*
X127281Y16346D01*
X127378Y16400D01*
X127460Y16394D01*
X127573Y16400D01*
X127692Y16367D01*
D02*
G37*
%LPC*%
G36*
X27987Y132926D02*
X27948D01*
Y132886D01*
X27987D01*
Y132926D01*
D02*
G37*
G36*
X27069Y132726D02*
X27029D01*
Y132686D01*
X27069D01*
Y132726D01*
D02*
G37*
G36*
X27029Y132686D02*
X26989D01*
Y132607D01*
X26949D01*
Y132567D01*
X26909D01*
Y132487D01*
X26869D01*
Y132447D01*
X26829D01*
Y132407D01*
X26789D01*
Y132327D01*
X26750D01*
Y132287D01*
X26709D01*
Y132207D01*
X26670D01*
Y132167D01*
X26630D01*
Y132088D01*
X26590D01*
Y132048D01*
X26550D01*
Y131968D01*
X26510D01*
Y131928D01*
X26470D01*
Y131848D01*
X26430D01*
Y131808D01*
X26390D01*
Y131728D01*
X26430D01*
Y131768D01*
X26470D01*
Y131808D01*
X26510D01*
Y131848D01*
X26550D01*
Y131888D01*
X26590D01*
Y131928D01*
X26670D01*
Y131968D01*
X26709D01*
Y132008D01*
X26750D01*
Y132048D01*
X26829D01*
Y132088D01*
X26869D01*
Y132127D01*
X26949D01*
Y132167D01*
X26989D01*
Y132487D01*
X27029D01*
Y132686D01*
D02*
G37*
G36*
X26390Y131728D02*
X26350D01*
Y131688D01*
X26390D01*
Y131728D01*
D02*
G37*
G36*
X26350Y131688D02*
X26310D01*
Y131648D01*
X26350D01*
Y131688D01*
D02*
G37*
G36*
X129972Y13957D02*
X129897Y13936D01*
X129843Y13914D01*
X129821Y13892D01*
X129799Y13882D01*
X129772Y13855D01*
X129762Y13833D01*
X129729Y13800D01*
X129686Y13692D01*
X129675Y13606D01*
X129686Y13563D01*
X129718Y13455D01*
X129751Y13422D01*
X129762Y13400D01*
X129799Y13363D01*
X129821Y13352D01*
X129886Y13309D01*
X130080Y13298D01*
X130156Y13319D01*
X130221Y13363D01*
X130243Y13374D01*
X130248Y13390D01*
X130264Y13406D01*
X130270Y13411D01*
X130280Y13422D01*
X130291Y13444D01*
X130334Y13509D01*
X130345Y13660D01*
X130334Y13736D01*
X130302Y13811D01*
X130291Y13833D01*
X130232Y13892D01*
X130134Y13946D01*
X129972Y13957D01*
D02*
G37*
G36*
X122093Y13925D02*
X122007Y13903D01*
X121953Y13882D01*
X121931Y13860D01*
X121910Y13849D01*
X121867Y13806D01*
X121796Y13703D01*
X121785Y13638D01*
X121775Y13606D01*
X121785Y13498D01*
X121829Y13390D01*
X121899Y13319D01*
X121996Y13265D01*
X122115Y13255D01*
X122158D01*
X122202Y13265D01*
X122299Y13309D01*
X122320Y13319D01*
X122369Y13368D01*
X122434Y13487D01*
X122445Y13649D01*
X122423Y13725D01*
X122401Y13779D01*
X122347Y13833D01*
X122337Y13855D01*
X122223Y13914D01*
X122093Y13925D01*
D02*
G37*
G36*
X122148Y6608D02*
X122007Y6554D01*
X121942Y6489D01*
X121937Y6484D01*
X121926Y6473D01*
X121915Y6451D01*
X121894Y6430D01*
X121839Y6278D01*
X121850Y6203D01*
X121867Y6154D01*
X121883Y6095D01*
X121985Y5992D01*
X122018Y5981D01*
X122050Y5949D01*
X122256Y5938D01*
X122374Y5992D01*
X122445Y6062D01*
X122456Y6084D01*
X122499Y6149D01*
X122510Y6354D01*
X122456Y6473D01*
X122396Y6532D01*
X122277Y6597D01*
X122148Y6608D01*
D02*
G37*
G36*
X130026Y6565D02*
X129929Y6554D01*
X129810Y6500D01*
X129789Y6489D01*
X129767Y6467D01*
X129745Y6457D01*
X129708Y6397D01*
X129664Y6322D01*
X129654Y6235D01*
X129664Y6127D01*
X129697Y6051D01*
X129708Y6030D01*
X129767Y5970D01*
X129864Y5916D01*
X129886Y5895D01*
X130016Y5884D01*
X130059Y5895D01*
X130167Y5938D01*
X130210Y5981D01*
X130232Y5992D01*
X130259Y6030D01*
X130302Y6105D01*
X130313Y6138D01*
X130324Y6257D01*
X130302Y6343D01*
X130264Y6435D01*
X130259Y6440D01*
X130248Y6451D01*
X130188Y6500D01*
X130113Y6543D01*
X130059Y6554D01*
X130026Y6565D01*
D02*
G37*
%LPD*%
D38*
X123425Y78347D02*
D03*
X130905D02*
D03*
X36811Y77953D02*
D03*
X44291D02*
D03*
X44291Y40157D02*
D03*
X36811D02*
D03*
X97835Y56693D02*
D03*
X90354D02*
D03*
X36811Y86221D02*
D03*
X44291D02*
D03*
X44291Y32283D02*
D03*
X36811D02*
D03*
D48*
X136614Y125984D02*
D03*
Y118465D02*
D03*
X64173Y72224D02*
D03*
Y79744D02*
D03*
D49*
X130315Y91142D02*
D03*
Y83661D02*
D03*
D51*
X104114Y5118D02*
D03*
X94114D02*
D03*
X84114D02*
D03*
X74114D02*
D03*
X64114D02*
D03*
X54114D02*
D03*
Y15118D02*
D03*
X64114D02*
D03*
X74114D02*
D03*
X84114D02*
D03*
X94114D02*
D03*
X104114D02*
D03*
Y25118D02*
D03*
X94114D02*
D03*
X84114D02*
D03*
X74114D02*
D03*
X64114D02*
D03*
X147638Y106811D02*
D03*
Y116811D02*
D03*
Y126811D02*
D03*
X88740Y149488D02*
D03*
X78740D02*
D03*
X68740D02*
D03*
Y139488D02*
D03*
X78740D02*
D03*
X88740Y139488D02*
D03*
D52*
X54114Y25118D02*
D03*
D53*
X9843Y9843D02*
D03*
X147638D02*
D03*
X147244Y147638D02*
D03*
X9843D02*
D03*
D54*
X23228Y9055D02*
D03*
D55*
X33228D02*
D03*
X18110Y55748D02*
D03*
X107087Y135433D02*
D03*
X126772D02*
D03*
D56*
X18110Y65748D02*
D03*
D57*
X147638Y96811D02*
D03*
D58*
X9843Y120079D02*
D03*
X147638Y43110D02*
D03*
D59*
X9843Y115157D02*
D03*
Y110236D02*
D03*
Y105315D02*
D03*
Y100394D02*
D03*
X147638Y48031D02*
D03*
Y52953D02*
D03*
Y57874D02*
D03*
Y62795D02*
D03*
D60*
X139370Y33465D02*
D03*
X115945Y87205D02*
D03*
X59303Y41587D02*
D03*
Y59055D02*
D03*
X72047Y61811D02*
D03*
D101*
X37224Y50433D02*
D03*
Y59449D02*
D03*
Y68465D02*
D03*
D102*
X63563Y59449D02*
D03*
D103*
X129528Y125787D02*
D03*
Y118307D02*
D03*
X120866Y122047D02*
D03*
M02*
