G04*
G04 #@! TF.GenerationSoftware,Altium Limited,Altium Designer,22.10.1 (41)*
G04*
G04 Layer_Physical_Order=4*
G04 Layer_Color=16711680*
%FSLAX25Y25*%
%MOIN*%
G70*
G04*
G04 #@! TF.SameCoordinates,0245A464-56C0-4E7C-B2BA-3340792428E8*
G04*
G04*
G04 #@! TF.FilePolarity,Positive*
G04*
G01*
G75*
%ADD16C,0.01000*%
%ADD22R,0.02756X0.05118*%
%ADD31R,0.05433X0.03622*%
%ADD32R,0.05118X0.02756*%
%ADD62C,0.01500*%
%ADD64C,0.02000*%
%ADD65C,0.06299*%
%ADD66R,0.06299X0.06299*%
%ADD67C,0.15748*%
%ADD68R,0.07874X0.07874*%
%ADD69C,0.07874*%
%ADD70R,0.07874X0.07874*%
%ADD71R,0.06299X0.06299*%
%ADD72R,0.03937X0.03937*%
%ADD73C,0.03937*%
%ADD74C,0.02362*%
G04:AMPARAMS|DCode=98|XSize=51.58mil|YSize=36.61mil|CornerRadius=2.75mil|HoleSize=0mil|Usage=FLASHONLY|Rotation=0.000|XOffset=0mil|YOffset=0mil|HoleType=Round|Shape=RoundedRectangle|*
%AMROUNDEDRECTD98*
21,1,0.05158,0.03112,0,0,0.0*
21,1,0.04608,0.03661,0,0,0.0*
1,1,0.00549,0.02304,-0.01556*
1,1,0.00549,-0.02304,-0.01556*
1,1,0.00549,-0.02304,0.01556*
1,1,0.00549,0.02304,0.01556*
%
%ADD98ROUNDEDRECTD98*%
G04:AMPARAMS|DCode=99|XSize=51.58mil|YSize=127.56mil|CornerRadius=3.87mil|HoleSize=0mil|Usage=FLASHONLY|Rotation=0.000|XOffset=0mil|YOffset=0mil|HoleType=Round|Shape=RoundedRectangle|*
%AMROUNDEDRECTD99*
21,1,0.05158,0.11982,0,0,0.0*
21,1,0.04384,0.12756,0,0,0.0*
1,1,0.00774,0.02192,-0.05991*
1,1,0.00774,-0.02192,-0.05991*
1,1,0.00774,-0.02192,0.05991*
1,1,0.00774,0.02192,0.05991*
%
%ADD99ROUNDEDRECTD99*%
%ADD100R,0.05512X0.03937*%
G36*
X140245Y153515D02*
X140304Y153224D01*
X139380Y151841D01*
X138711Y150226D01*
X138370Y148512D01*
Y146764D01*
X138711Y145049D01*
X139380Y143434D01*
X140351Y141981D01*
X141587Y140745D01*
X143041Y139774D01*
X144656Y139105D01*
X146370Y138764D01*
X148118D01*
X149832Y139105D01*
X151447Y139774D01*
X152901Y140745D01*
X154137Y141981D01*
X154451Y142451D01*
X155951Y141996D01*
Y16074D01*
X154791Y15605D01*
X154451Y15579D01*
X153295Y16735D01*
X151841Y17707D01*
X150226Y18375D01*
X148512Y18717D01*
X146764D01*
X145049Y18375D01*
X143434Y17707D01*
X141981Y16735D01*
X140745Y15499D01*
X139774Y14046D01*
X139105Y12431D01*
X138764Y10717D01*
Y8969D01*
X139105Y7254D01*
X139774Y5639D01*
X140745Y4186D01*
X141901Y3029D01*
X141876Y2689D01*
X141407Y1529D01*
X16074D01*
X15605Y2689D01*
X15579Y3029D01*
X16735Y4186D01*
X16791Y4269D01*
X18291Y4118D01*
Y4118D01*
X28165D01*
Y5088D01*
X29665Y5636D01*
X30197Y5105D01*
X31323Y4455D01*
X32578Y4118D01*
X33878D01*
X35134Y4455D01*
X36260Y5105D01*
X37179Y6024D01*
X37829Y7149D01*
X38165Y8405D01*
Y9705D01*
X37829Y10961D01*
X37472Y11579D01*
X38086Y12913D01*
X38268Y13079D01*
X50500D01*
X50794Y12570D01*
X51566Y11798D01*
X52513Y11251D01*
X53568Y10968D01*
X54660D01*
X55716Y11251D01*
X56662Y11798D01*
X57435Y12570D01*
X57728Y13079D01*
X60500D01*
X60794Y12570D01*
X61566Y11798D01*
X62512Y11251D01*
X63568Y10968D01*
X64661D01*
X65716Y11251D01*
X66662Y11798D01*
X67435Y12570D01*
X67728Y13079D01*
X70500D01*
X70794Y12570D01*
X71566Y11798D01*
X72513Y11251D01*
X73568Y10968D01*
X74660D01*
X75716Y11251D01*
X76662Y11798D01*
X77435Y12570D01*
X77728Y13079D01*
X80500D01*
X80794Y12570D01*
X81566Y11798D01*
X82512Y11251D01*
X83568Y10968D01*
X84661D01*
X85716Y11251D01*
X86662Y11798D01*
X87435Y12570D01*
X87728Y13079D01*
X90500D01*
X90794Y12570D01*
X91566Y11798D01*
X92513Y11251D01*
X93568Y10968D01*
X94661D01*
X95716Y11251D01*
X96662Y11798D01*
X97435Y12570D01*
X97728Y13079D01*
X100500D01*
X100794Y12570D01*
X101566Y11798D01*
X102513Y11251D01*
X103568Y10968D01*
X104660D01*
X105716Y11251D01*
X106662Y11798D01*
X107435Y12570D01*
X107981Y13516D01*
X108264Y14572D01*
Y15664D01*
X107981Y16720D01*
X107435Y17666D01*
X106662Y18439D01*
X105716Y18985D01*
X104660Y19268D01*
X103568D01*
X102513Y18985D01*
X101566Y18439D01*
X100794Y17666D01*
X100500Y17157D01*
X97728D01*
X97435Y17666D01*
X96662Y18439D01*
X95716Y18985D01*
X94661Y19268D01*
X93568D01*
X92513Y18985D01*
X91566Y18439D01*
X90794Y17666D01*
X90500Y17157D01*
X87728D01*
X87435Y17666D01*
X86662Y18439D01*
X85716Y18985D01*
X84661Y19268D01*
X83568D01*
X82512Y18985D01*
X81566Y18439D01*
X80794Y17666D01*
X80500Y17157D01*
X77728D01*
X77435Y17666D01*
X76662Y18439D01*
X75716Y18985D01*
X74660Y19268D01*
X73568D01*
X72513Y18985D01*
X71566Y18439D01*
X70794Y17666D01*
X70500Y17157D01*
X67728D01*
X67435Y17666D01*
X66662Y18439D01*
X65716Y18985D01*
X64661Y19268D01*
X63568D01*
X62512Y18985D01*
X61566Y18439D01*
X60794Y17666D01*
X60500Y17157D01*
X57728D01*
X57435Y17666D01*
X56662Y18439D01*
X55716Y18985D01*
X54660Y19268D01*
X53568D01*
X52513Y18985D01*
X51566Y18439D01*
X50794Y17666D01*
X50500Y17157D01*
X31888D01*
X6468Y42577D01*
Y59588D01*
X9847Y62967D01*
X10790Y62735D01*
X11389Y62387D01*
X11502Y61818D01*
X11944Y61156D01*
X12731Y60369D01*
X13393Y59927D01*
X13818Y59842D01*
X22047Y59842D01*
X22106Y59784D01*
X22828Y59927D01*
X23489Y60369D01*
X23489Y60369D01*
X30182Y67062D01*
X30624Y67724D01*
X30713Y68169D01*
X32213Y68022D01*
Y66536D01*
X32213Y66535D01*
X32368Y65755D01*
X32708Y65245D01*
X32810Y65092D01*
Y63928D01*
X32518Y63354D01*
X32023Y62859D01*
X31581Y62198D01*
X31425Y61417D01*
Y57480D01*
X31581Y56700D01*
X32023Y56038D01*
X32810Y55251D01*
X33472Y54809D01*
X34252Y54654D01*
X39253Y54654D01*
X40677Y53230D01*
X40677Y30156D01*
X40738Y29852D01*
X40771Y29544D01*
X40815Y29465D01*
X40833Y29376D01*
X41005Y29118D01*
X41154Y28846D01*
X41658Y28245D01*
X41724Y28191D01*
X41771Y28120D01*
X42032Y27944D01*
X42278Y27746D01*
X42360Y27722D01*
X42430Y27675D01*
X42739Y27611D01*
X43042Y27523D01*
X43126Y27532D01*
X43210Y27515D01*
X47727Y27490D01*
X48056Y27554D01*
X48389Y27597D01*
X48445Y27629D01*
X48465Y27633D01*
X48513Y27640D01*
X49458Y27283D01*
X49965Y26872D01*
Y20968D01*
X58264D01*
Y29268D01*
X52676D01*
X52149Y30672D01*
X54490Y32716D01*
X54533Y32771D01*
X54592Y32810D01*
X54775Y33084D01*
X54976Y33346D01*
X54995Y33413D01*
X55034Y33472D01*
X55098Y33795D01*
X55184Y34114D01*
X55175Y34183D01*
X55189Y34252D01*
Y36358D01*
X56575Y36932D01*
X59155Y34352D01*
X59651Y34020D01*
X60236Y33904D01*
X101575D01*
X102160Y34020D01*
X102656Y34352D01*
X108206Y39901D01*
X108537Y40397D01*
X108654Y40983D01*
Y49712D01*
X109417Y50154D01*
X110154Y50425D01*
X110809Y50153D01*
X111687D01*
X111912Y50004D01*
Y45277D01*
X111162Y44966D01*
X110546Y44350D01*
X110213Y43546D01*
Y42675D01*
X110546Y41870D01*
X110811Y41605D01*
X110924Y40459D01*
X110730Y39810D01*
X110349Y39429D01*
X110016Y38624D01*
Y37754D01*
X110349Y36949D01*
X110533Y36765D01*
X110813Y35827D01*
X110533Y34888D01*
X110349Y34705D01*
X110016Y33900D01*
Y33029D01*
X110349Y32225D01*
X110965Y31609D01*
X111769Y31276D01*
X112640D01*
X113445Y31609D01*
X113879Y32044D01*
X113888D01*
X114473Y32160D01*
X114969Y32491D01*
X126853Y44375D01*
X127185Y44871D01*
X127301Y45457D01*
Y55453D01*
X129822Y57974D01*
X129845Y58008D01*
X131345Y57553D01*
Y55306D01*
X131018Y54980D01*
X130685Y54176D01*
Y53305D01*
X131018Y52500D01*
X131634Y51884D01*
X132439Y51551D01*
X133309D01*
X134114Y51884D01*
X134730Y52500D01*
X135063Y53305D01*
Y54176D01*
X134730Y54980D01*
X134403Y55306D01*
Y68898D01*
X134287Y69483D01*
X133956Y69979D01*
X129285Y74649D01*
Y80759D01*
X129169Y81344D01*
X128837Y81840D01*
X123968Y86710D01*
X124049Y87121D01*
X124665Y87736D01*
X124998Y88541D01*
X125312Y88629D01*
X126756Y88764D01*
Y88764D01*
X126869D01*
X127751Y87264D01*
X127713Y87172D01*
Y86293D01*
X128049Y85481D01*
X128670Y84860D01*
X129482Y84524D01*
X130361D01*
X131172Y84860D01*
X131794Y85481D01*
X132130Y86293D01*
Y87172D01*
X132092Y87264D01*
X132973Y88764D01*
X133874D01*
Y92932D01*
X134247Y93139D01*
X135374Y93392D01*
X135757Y93010D01*
X136568Y92673D01*
X137447D01*
X138259Y93010D01*
X138880Y93631D01*
X139097Y94153D01*
X140597Y93855D01*
Y36485D01*
X139765Y35653D01*
X138935D01*
X138130Y35320D01*
X137514Y34705D01*
X137181Y33900D01*
Y33029D01*
X137514Y32225D01*
X138130Y31609D01*
X138935Y31276D01*
X139805D01*
X140610Y31609D01*
X141226Y32225D01*
X141559Y33029D01*
Y33122D01*
X143207Y34770D01*
X143539Y35267D01*
X143655Y35852D01*
Y39062D01*
X144669Y40142D01*
X145155Y40142D01*
X150606D01*
Y46079D01*
X150606Y46079D01*
X150590Y47579D01*
X150606Y47641D01*
Y48422D01*
X150404Y49177D01*
X150013Y49854D01*
X149526Y50492D01*
X150013Y51130D01*
X150404Y51807D01*
X150606Y52562D01*
Y53344D01*
X150404Y54099D01*
X150013Y54776D01*
X149526Y55413D01*
X150013Y56051D01*
X150404Y56728D01*
X150606Y57483D01*
Y58265D01*
X150404Y59020D01*
X150013Y59697D01*
X149460Y60249D01*
X148784Y60640D01*
X148029Y60843D01*
X147247D01*
X146492Y60640D01*
X145815Y60249D01*
X145262Y59697D01*
X145155Y59511D01*
X143655Y59913D01*
Y92661D01*
X151787D01*
Y100961D01*
X143488D01*
Y100166D01*
X141988Y99545D01*
X140452Y101081D01*
X139955Y101413D01*
X139370Y101529D01*
X126778D01*
X126157Y103029D01*
X137696Y114568D01*
X138027Y115064D01*
X138144Y115650D01*
Y115654D01*
X140331D01*
Y121276D01*
X132898D01*
Y115654D01*
X132898D01*
X133354Y114552D01*
X125455Y106653D01*
X124069Y107227D01*
Y113681D01*
X123952Y114266D01*
X123621Y114762D01*
X120690Y117693D01*
X121265Y119079D01*
X124622D01*
Y121973D01*
X125772Y122819D01*
X126122Y122819D01*
X133283D01*
Y123173D01*
X140331D01*
Y128795D01*
X132898D01*
Y128756D01*
X125772D01*
Y125862D01*
X124622Y125016D01*
X124272Y125016D01*
X120388D01*
X111727Y133676D01*
X112024Y134783D01*
Y136083D01*
X111687Y137339D01*
X111037Y138464D01*
X110118Y139384D01*
X108992Y140034D01*
X107737Y140370D01*
X107765Y141858D01*
X118939D01*
X122642Y138155D01*
X122171Y137339D01*
X121835Y136083D01*
Y134783D01*
X122171Y133528D01*
X122821Y132402D01*
X123740Y131483D01*
X124866Y130833D01*
X126122Y130496D01*
X127422D01*
X128677Y130833D01*
X129803Y131483D01*
X130722Y132402D01*
X131372Y133528D01*
X131709Y134783D01*
Y136083D01*
X131372Y137339D01*
X130722Y138464D01*
X129803Y139384D01*
X128677Y140034D01*
X127422Y140370D01*
X126195D01*
X121225Y145340D01*
X120564Y145782D01*
X119783Y145937D01*
X104921D01*
X104141Y145782D01*
X103479Y145340D01*
X94253Y136114D01*
X93204Y136325D01*
X92551Y137789D01*
X92607Y137887D01*
X92890Y138942D01*
Y140034D01*
X92607Y141090D01*
X92061Y142036D01*
X91288Y142809D01*
X90342Y143355D01*
X89287Y143638D01*
X88194D01*
X87138Y143355D01*
X86192Y142809D01*
X85420Y142036D01*
X84873Y141090D01*
X84591Y140034D01*
Y138942D01*
X84873Y137887D01*
X85156Y137398D01*
X84614Y136153D01*
X84352Y135898D01*
X83129D01*
X82867Y136153D01*
X82325Y137398D01*
X82607Y137887D01*
X82890Y138942D01*
Y140034D01*
X82607Y141090D01*
X82061Y142036D01*
X81288Y142809D01*
X80342Y143355D01*
X79286Y143638D01*
X78194D01*
X77139Y143355D01*
X76192Y142809D01*
X75420Y142036D01*
X74873Y141090D01*
X74591Y140034D01*
Y138942D01*
X74873Y137887D01*
X75156Y137398D01*
X74614Y136153D01*
X74352Y135898D01*
X65904D01*
X64834Y136967D01*
Y142699D01*
X67626Y145491D01*
X68194Y145339D01*
X69287D01*
X70342Y145621D01*
X71288Y146168D01*
X72061Y146940D01*
X72607Y147887D01*
X72890Y148942D01*
Y150034D01*
X72607Y151090D01*
X72061Y152036D01*
X71288Y152809D01*
X71492Y154423D01*
X71748Y154724D01*
X75732D01*
X75988Y154423D01*
X76192Y152809D01*
X75420Y152036D01*
X74873Y151090D01*
X74591Y150034D01*
Y148942D01*
X74873Y147887D01*
X75420Y146940D01*
X76192Y146168D01*
X77139Y145621D01*
X78194Y145339D01*
X79286D01*
X80342Y145621D01*
X81288Y146168D01*
X82061Y146940D01*
X82607Y147887D01*
X82890Y148942D01*
Y150034D01*
X82607Y151090D01*
X82061Y152036D01*
X81288Y152809D01*
X81492Y154423D01*
X81748Y154724D01*
X85732D01*
X85988Y154423D01*
X86192Y152809D01*
X85420Y152036D01*
X84873Y151090D01*
X84591Y150034D01*
Y148942D01*
X84873Y147887D01*
X85420Y146940D01*
X86192Y146168D01*
X87138Y145621D01*
X88194Y145339D01*
X89287D01*
X90342Y145621D01*
X91288Y146168D01*
X92061Y146940D01*
X92607Y147887D01*
X92890Y148942D01*
Y150034D01*
X92607Y151090D01*
X92061Y152036D01*
X91288Y152809D01*
X91492Y154423D01*
X91748Y154724D01*
X139660D01*
X140245Y153515D01*
D02*
G37*
G36*
X65988Y154423D02*
X66192Y152809D01*
X65420Y152036D01*
X64873Y151090D01*
X64591Y150034D01*
Y148942D01*
X64743Y148374D01*
X61353Y144985D01*
X60911Y144324D01*
X60756Y143543D01*
Y137934D01*
X59491Y136835D01*
X58620D01*
X57815Y136501D01*
X57199Y135886D01*
X56866Y135081D01*
Y134210D01*
X57199Y133406D01*
X57815Y132790D01*
X58620Y132457D01*
X59081D01*
X61911Y129627D01*
X62407Y129296D01*
X62992Y129179D01*
X90266D01*
X91151Y127679D01*
X91118Y127601D01*
Y126730D01*
X91451Y125925D01*
X92067Y125310D01*
X92872Y124976D01*
X93743D01*
X94547Y125310D01*
X94873Y125636D01*
X101237D01*
X102445Y124427D01*
X101872Y123041D01*
X90686D01*
X89610Y124364D01*
Y125242D01*
X89274Y126054D01*
X88653Y126676D01*
X87841Y127012D01*
X86962D01*
X86150Y126676D01*
X85529Y126054D01*
X85193Y125242D01*
Y124364D01*
X84117Y123041D01*
X79760D01*
X79175Y122925D01*
X78679Y122593D01*
X77960Y121874D01*
X77305D01*
X76500Y121541D01*
X75884Y120925D01*
X75883Y120921D01*
X74165Y120517D01*
X73129Y121554D01*
X72632Y121885D01*
X72047Y122002D01*
X68495D01*
X68169Y122328D01*
X67365Y122661D01*
X66494D01*
X65689Y122328D01*
X65073Y121712D01*
X64740Y120908D01*
Y120037D01*
X65073Y119232D01*
X65689Y118617D01*
X66494Y118283D01*
X66252Y116884D01*
X63479D01*
X63273Y117382D01*
X62657Y117998D01*
X61853Y118331D01*
X60982D01*
X60177Y117998D01*
X59562Y117382D01*
X59228Y116577D01*
Y115706D01*
X59562Y114902D01*
X60177Y114286D01*
X60982Y113953D01*
X61853D01*
X61926Y113983D01*
X61988Y113941D01*
X62573Y113825D01*
X68149D01*
X68677Y113034D01*
Y112163D01*
X69010Y111358D01*
X69126Y111243D01*
X68706Y109681D01*
X68210Y109349D01*
X52035Y93174D01*
X51885Y92950D01*
X50719Y92605D01*
X50151Y92563D01*
X46751Y95963D01*
X46255Y96295D01*
X45669Y96411D01*
X34196D01*
X14715Y115893D01*
X14218Y116225D01*
X13965Y116275D01*
X12811Y117110D01*
Y123047D01*
X6874D01*
Y117110D01*
X6874Y117110D01*
X6891Y115610D01*
X6874Y115548D01*
Y114767D01*
X7076Y114012D01*
X7467Y113335D01*
X7955Y112697D01*
X7467Y112059D01*
X7076Y111382D01*
X6874Y110627D01*
Y109845D01*
X7076Y109090D01*
X7467Y108414D01*
X7955Y107776D01*
X7467Y107138D01*
X7076Y106461D01*
X6874Y105706D01*
Y104924D01*
X7076Y104169D01*
X7467Y103492D01*
X8020Y102940D01*
X8697Y102549D01*
X9452Y102347D01*
X10233D01*
X10988Y102549D01*
X11665Y102940D01*
X12218Y103492D01*
X12609Y104169D01*
X12811Y104924D01*
Y105706D01*
X12609Y106461D01*
X12401Y106821D01*
X12968Y107910D01*
X14191Y108055D01*
X28664Y93582D01*
X28090Y92197D01*
X16142D01*
X15361Y92041D01*
X14700Y91599D01*
X11944Y88844D01*
X11502Y88182D01*
X11347Y87402D01*
Y67787D01*
X9744D01*
X8964Y67632D01*
X8302Y67190D01*
X4256Y63144D01*
X2756Y63765D01*
Y140053D01*
X3965Y140638D01*
X4256Y140698D01*
X5639Y139774D01*
X7254Y139105D01*
X8969Y138764D01*
X10717D01*
X12431Y139105D01*
X14046Y139774D01*
X15499Y140745D01*
X16735Y141981D01*
X17707Y143434D01*
X18375Y145049D01*
X18717Y146764D01*
Y148512D01*
X18375Y150226D01*
X17707Y151841D01*
X16782Y153224D01*
X16842Y153515D01*
X17427Y154724D01*
X65732D01*
X65988Y154423D01*
D02*
G37*
G36*
X55993Y80375D02*
X56738Y80029D01*
Y76722D01*
X56855Y76136D01*
X57186Y75640D01*
X57772Y75055D01*
X58268Y74723D01*
X58854Y74607D01*
X65429D01*
X68337Y71698D01*
Y66672D01*
X66837Y66317D01*
X66755Y66440D01*
X66296Y66746D01*
X65755Y66854D01*
X62728D01*
X62445Y67277D01*
Y68156D01*
X62109Y68968D01*
X61487Y69589D01*
X60676Y69925D01*
X59797D01*
X58985Y69589D01*
X58364Y68968D01*
X58028Y68156D01*
Y67277D01*
X58364Y66465D01*
X58985Y65844D01*
X59797Y65508D01*
X59901D01*
X59957Y65440D01*
Y61390D01*
X59738Y61244D01*
X58868D01*
X58063Y60911D01*
X57447Y60295D01*
X57114Y59491D01*
Y58981D01*
X56057Y58334D01*
X55728Y58246D01*
X52317Y61657D01*
Y79172D01*
X53108Y79701D01*
X53979D01*
X54783Y80034D01*
X55238Y80489D01*
X55993Y80375D01*
D02*
G37*
G36*
X39764Y89370D02*
Y84646D01*
X38976Y83858D01*
X38189Y83071D01*
Y72047D01*
X40157Y70472D01*
Y66535D01*
X39764Y66142D01*
X34646D01*
X34252Y66535D01*
Y70866D01*
X35433Y72047D01*
Y83268D01*
X34843Y83858D01*
X30709D01*
X28740Y81890D01*
Y68504D01*
X22047Y61811D01*
X14173D01*
X13386Y62598D01*
Y87402D01*
X16142Y90158D01*
X39370D01*
X39764Y89370D01*
D02*
G37*
G36*
X46896Y87949D02*
Y65332D01*
X46702Y65044D01*
X45805Y64351D01*
X45396Y64220D01*
X45276Y64244D01*
X42822D01*
X42034Y65744D01*
X42041Y65755D01*
X42197Y66535D01*
Y70472D01*
X42174Y70584D01*
X42184Y70698D01*
X42097Y70971D01*
X42041Y71253D01*
X41978Y71347D01*
X41944Y71456D01*
X41759Y71676D01*
X41599Y71914D01*
X41505Y71978D01*
X41431Y72065D01*
X40228Y73027D01*
Y80450D01*
X40610D01*
X41422Y80786D01*
X42043Y81407D01*
X42379Y82219D01*
Y83098D01*
X42043Y83910D01*
X41721Y84232D01*
X41803Y84646D01*
Y89370D01*
X41789Y89442D01*
X41798Y89515D01*
X42617Y90924D01*
X43667Y91178D01*
X46896Y87949D01*
D02*
G37*
G36*
X90927Y103710D02*
Y102840D01*
X91261Y102035D01*
X91877Y101419D01*
X92681Y101086D01*
X93552D01*
X94357Y101419D01*
X94557Y101620D01*
X103094D01*
X108158Y96556D01*
X108654Y96225D01*
X109162Y96124D01*
X109315Y95893D01*
X109768Y94608D01*
X96753Y81593D01*
X96422Y81097D01*
X96305Y80512D01*
Y61836D01*
X96268Y61806D01*
X94805Y61295D01*
X93528Y62572D01*
Y63034D01*
X93194Y63838D01*
X92579Y64454D01*
X91774Y64787D01*
X90903D01*
X90099Y64454D01*
X89483Y63838D01*
X89150Y63034D01*
Y62163D01*
X89483Y61358D01*
X90099Y60743D01*
X90903Y60409D01*
X91365D01*
X92565Y59209D01*
Y52756D01*
X92681Y52171D01*
X93013Y51674D01*
X94982Y49706D01*
X95478Y49374D01*
X96063Y49258D01*
X100776D01*
X101362Y49374D01*
X101858Y49706D01*
X102695Y50543D01*
X104195Y49922D01*
Y44153D01*
X99662Y39620D01*
X97089D01*
X97000Y39688D01*
X96210Y41120D01*
X96284Y41297D01*
Y42168D01*
X95950Y42972D01*
X95861Y43061D01*
X95376Y43744D01*
X95663Y44823D01*
X95996Y45628D01*
Y46498D01*
X95663Y47303D01*
X95047Y47919D01*
X94243Y48252D01*
X93372D01*
X93081Y48132D01*
X87032Y54181D01*
Y86758D01*
X86915Y87343D01*
X86584Y87839D01*
X83110Y91312D01*
Y91774D01*
X82777Y92579D01*
X82586Y92770D01*
X82777Y92961D01*
X83110Y93765D01*
Y94636D01*
X82777Y95441D01*
X82161Y96056D01*
X81357Y96390D01*
X80486D01*
X79681Y96056D01*
X79094Y95469D01*
X78883D01*
X78298Y95353D01*
X77802Y95022D01*
X76871Y94091D01*
X76540Y93595D01*
X76423Y93010D01*
Y88002D01*
X76540Y87417D01*
X76822Y86994D01*
X76760Y86691D01*
X76177Y85494D01*
X70858D01*
X70531Y85820D01*
X69727Y86154D01*
X68856D01*
X68051Y85820D01*
X67436Y85204D01*
X67102Y84400D01*
Y83529D01*
X65870Y82585D01*
X65484D01*
X65337Y82555D01*
X64321D01*
X63688Y83991D01*
X64351Y84819D01*
X64609D01*
X65413Y85152D01*
X66029Y85768D01*
X66362Y86572D01*
Y87443D01*
X66029Y88248D01*
X65413Y88864D01*
X64609Y89197D01*
X63738D01*
X62933Y88864D01*
X62318Y88248D01*
X61984Y87443D01*
Y86982D01*
X57232Y82230D01*
X56571Y82258D01*
X55634Y82561D01*
X55399Y83130D01*
X55073Y83456D01*
Y84454D01*
X75388Y104770D01*
X89743D01*
X90927Y103710D01*
D02*
G37*
G36*
X53150Y54331D02*
Y34252D01*
X47738Y29530D01*
X43221Y29554D01*
X42717Y30156D01*
X42717Y55315D01*
X41339Y56693D01*
X34252Y56693D01*
X33465Y57480D01*
Y61417D01*
X34252Y62205D01*
X45276D01*
X53150Y54331D01*
D02*
G37*
%LPC*%
G36*
X148184Y120961D02*
X147091D01*
X146036Y120678D01*
X145090Y120132D01*
X144317Y119359D01*
X143771Y118413D01*
X143488Y117357D01*
Y116265D01*
X143771Y115209D01*
X144317Y114263D01*
X145090Y113490D01*
X146036Y112944D01*
X147091Y112661D01*
X148184D01*
X149240Y112944D01*
X150186Y113490D01*
X150958Y114263D01*
X151505Y115209D01*
X151787Y116265D01*
Y117357D01*
X151505Y118413D01*
X150958Y119359D01*
X150186Y120132D01*
X149240Y120678D01*
X148184Y120961D01*
D02*
G37*
G36*
Y110961D02*
X147091D01*
X146036Y110678D01*
X145090Y110132D01*
X144317Y109359D01*
X143771Y108413D01*
X143488Y107357D01*
Y106265D01*
X143771Y105209D01*
X144317Y104263D01*
X145090Y103490D01*
X146036Y102944D01*
X147091Y102661D01*
X148184D01*
X149240Y102944D01*
X150186Y103490D01*
X150958Y104263D01*
X151505Y105209D01*
X151787Y106265D01*
Y107357D01*
X151505Y108413D01*
X150958Y109359D01*
X150186Y110132D01*
X149240Y110678D01*
X148184Y110961D01*
D02*
G37*
G36*
X132723Y32130D02*
X131844D01*
X131032Y31794D01*
X130411Y31172D01*
X130075Y30361D01*
Y29482D01*
X130411Y28670D01*
X131032Y28049D01*
X131844Y27713D01*
X132723D01*
X133535Y28049D01*
X134156Y28670D01*
X134492Y29482D01*
Y30361D01*
X134156Y31172D01*
X133535Y31794D01*
X132723Y32130D01*
D02*
G37*
G36*
X104660Y29268D02*
X103568D01*
X102513Y28985D01*
X101566Y28439D01*
X100794Y27666D01*
X100247Y26720D01*
X99965Y25664D01*
Y24572D01*
X100247Y23516D01*
X100794Y22570D01*
X101566Y21798D01*
X102513Y21251D01*
X103568Y20968D01*
X104660D01*
X105716Y21251D01*
X106662Y21798D01*
X107435Y22570D01*
X107981Y23516D01*
X108264Y24572D01*
Y25664D01*
X107981Y26720D01*
X107435Y27666D01*
X106662Y28439D01*
X105716Y28985D01*
X104660Y29268D01*
D02*
G37*
G36*
X94661D02*
X93568D01*
X92513Y28985D01*
X91566Y28439D01*
X90794Y27666D01*
X90247Y26720D01*
X89965Y25664D01*
Y24572D01*
X90247Y23516D01*
X90794Y22570D01*
X91566Y21798D01*
X92513Y21251D01*
X93568Y20968D01*
X94661D01*
X95716Y21251D01*
X96662Y21798D01*
X97435Y22570D01*
X97981Y23516D01*
X98264Y24572D01*
Y25664D01*
X97981Y26720D01*
X97435Y27666D01*
X96662Y28439D01*
X95716Y28985D01*
X94661Y29268D01*
D02*
G37*
G36*
X84661D02*
X83568D01*
X82512Y28985D01*
X81566Y28439D01*
X80794Y27666D01*
X80247Y26720D01*
X79965Y25664D01*
Y24572D01*
X80247Y23516D01*
X80794Y22570D01*
X81566Y21798D01*
X82512Y21251D01*
X83568Y20968D01*
X84661D01*
X85716Y21251D01*
X86662Y21798D01*
X87435Y22570D01*
X87981Y23516D01*
X88264Y24572D01*
Y25664D01*
X87981Y26720D01*
X87435Y27666D01*
X86662Y28439D01*
X85716Y28985D01*
X84661Y29268D01*
D02*
G37*
G36*
X74660D02*
X73568D01*
X72513Y28985D01*
X71566Y28439D01*
X70794Y27666D01*
X70247Y26720D01*
X69965Y25664D01*
Y24572D01*
X70247Y23516D01*
X70794Y22570D01*
X71566Y21798D01*
X72513Y21251D01*
X73568Y20968D01*
X74660D01*
X75716Y21251D01*
X76662Y21798D01*
X77435Y22570D01*
X77981Y23516D01*
X78264Y24572D01*
Y25664D01*
X77981Y26720D01*
X77435Y27666D01*
X76662Y28439D01*
X75716Y28985D01*
X74660Y29268D01*
D02*
G37*
G36*
X64661D02*
X63568D01*
X62512Y28985D01*
X61566Y28439D01*
X60794Y27666D01*
X60247Y26720D01*
X59965Y25664D01*
Y24572D01*
X60247Y23516D01*
X60794Y22570D01*
X61566Y21798D01*
X62512Y21251D01*
X63568Y20968D01*
X64661D01*
X65716Y21251D01*
X66662Y21798D01*
X67435Y22570D01*
X67981Y23516D01*
X68264Y24572D01*
Y25664D01*
X67981Y26720D01*
X67435Y27666D01*
X66662Y28439D01*
X65716Y28985D01*
X64661Y29268D01*
D02*
G37*
G36*
X45715Y130949D02*
X44836D01*
X44025Y130613D01*
X43403Y129991D01*
X43067Y129180D01*
Y128301D01*
X43403Y127489D01*
X44025Y126868D01*
X44836Y126532D01*
X45715D01*
X46527Y126868D01*
X47148Y127489D01*
X47484Y128301D01*
Y129180D01*
X47148Y129991D01*
X46527Y130613D01*
X45715Y130949D01*
D02*
G37*
G36*
X36660Y105752D02*
X35781D01*
X34969Y105416D01*
X34348Y104794D01*
X34012Y103983D01*
Y103104D01*
X34348Y102292D01*
X34969Y101671D01*
X35781Y101335D01*
X36660D01*
X37472Y101671D01*
X38093Y102292D01*
X38429Y103104D01*
Y103983D01*
X38093Y104794D01*
X37472Y105416D01*
X36660Y105752D01*
D02*
G37*
%LPD*%
D16*
X142126Y35852D02*
Y97244D01*
X139739Y33465D02*
X142126Y35852D01*
X139370Y33465D02*
X139739D01*
X139370Y100000D02*
X142126Y97244D01*
X124803Y100000D02*
X139370D01*
X115945Y91142D02*
X124803Y100000D01*
X115945Y87205D02*
Y91142D01*
X119480Y86609D02*
X120066Y86024D01*
X119480Y86609D02*
Y87616D01*
X118504Y88592D02*
X119480Y87616D01*
X118504Y88592D02*
Y88961D01*
X120066Y86024D02*
X122491D01*
X71446Y81055D02*
X74387D01*
X65484D02*
X71446D01*
X60236Y35433D02*
X101575D01*
X56693Y41112D02*
X59715Y38091D01*
X54724Y40945D02*
X60236Y35433D01*
X54724Y40945D02*
Y54724D01*
X100295Y38091D02*
X105724Y43520D01*
X101575Y35433D02*
X107124Y40983D01*
X59715Y38091D02*
X100295D01*
X56693Y41112D02*
Y55118D01*
X59303Y41587D02*
Y59055D01*
X50787Y61024D02*
X56693Y55118D01*
X48425Y61024D02*
X54724Y54724D01*
X48425Y61024D02*
Y88583D01*
X50787Y61024D02*
Y89764D01*
X74016Y49606D02*
X77559Y53150D01*
X81102Y51943D02*
Y76762D01*
X79134Y49606D02*
Y49975D01*
X81102Y51943D01*
X72047Y61811D02*
X72441Y62205D01*
X69866Y55749D02*
Y72332D01*
X64378Y50261D02*
X69866Y55749D01*
X66062Y76136D02*
X69866Y72332D01*
X72441Y62205D02*
Y80060D01*
X71446Y81055D02*
X72441Y80060D01*
X74409Y66351D02*
Y78127D01*
X75475Y79192D01*
X76818D01*
X78883Y93940D02*
X80661D01*
X77953Y93010D02*
X78883Y93940D01*
X77953Y88002D02*
Y93010D01*
X112598Y72736D02*
X118095Y67240D01*
X112598Y76237D02*
X113927Y77566D01*
X112598Y72736D02*
Y76237D01*
X105512Y130709D02*
X122539Y113681D01*
Y105217D02*
Y113681D01*
X62992Y130709D02*
X105512D01*
X59055Y134646D02*
X62992Y130709D01*
X118898Y107087D02*
Y110138D01*
X101870Y127165D02*
X118898Y110138D01*
X93307Y127165D02*
X101870D01*
X118898Y107087D02*
X119291Y106693D01*
X77933Y119685D02*
X79760Y121512D01*
X105250Y117126D02*
X111550Y110826D01*
X104079Y121512D02*
X113992Y111598D01*
X72047Y120472D02*
X75394Y117126D01*
X105250D01*
X79760Y121512D02*
X104079D01*
X113992Y105724D02*
Y111598D01*
X13633Y114812D02*
X33563Y94882D01*
X10188Y114812D02*
X13633D01*
X33563Y94882D02*
X45669D01*
X9843Y115157D02*
X10188Y114812D01*
X119193Y74220D02*
X120401Y73012D01*
X117025Y80405D02*
X119193Y78237D01*
Y74220D02*
Y78237D01*
X118095Y67240D02*
X120096D01*
X115842Y73210D02*
Y75046D01*
Y73210D02*
X118012Y71040D01*
X120607Y69831D02*
X122538Y67899D01*
X120401Y70350D02*
X120967Y69784D01*
X122538Y64712D02*
Y67899D01*
X120401Y70350D02*
Y73012D01*
X120031Y66694D02*
Y66879D01*
X116902Y59076D02*
X122538Y64712D01*
X120096Y67240D02*
X120357Y66979D01*
X118871Y65534D02*
X120031Y66694D01*
X126159Y61885D02*
Y70233D01*
X121147Y75244D02*
Y79246D01*
Y75244D02*
X126159Y70233D01*
X91339Y62598D02*
X94095Y59842D01*
Y52756D02*
Y59842D01*
X80890Y76975D02*
X81102Y76762D01*
X62992Y50000D02*
X63253Y50261D01*
X64378D01*
X83071Y52756D02*
Y82884D01*
Y52756D02*
X94095Y41732D01*
X93642Y46228D02*
X93807Y46063D01*
X85502Y53548D02*
Y86758D01*
Y53548D02*
X92822Y46228D01*
X93642D01*
X80921Y91339D02*
X85502Y86758D01*
X107124Y60865D02*
X112732Y66472D01*
Y68243D02*
X112926Y68438D01*
X112732Y66472D02*
Y68243D01*
X118871Y64245D02*
Y65534D01*
X113441Y58815D02*
X118871Y64245D01*
X113927Y77566D02*
X116258D01*
X116519Y77827D01*
X116995Y80405D02*
X117025D01*
X116314Y81087D02*
X116995Y80405D01*
X115945Y81087D02*
X116314D01*
X122810Y88976D02*
X124876Y91043D01*
X130217D01*
X62573Y115354D02*
X103937D01*
X107874Y111417D01*
X61786Y116142D02*
X62573Y115354D01*
X61417Y116142D02*
X61786D01*
X100776Y50787D02*
X102756Y52767D01*
X101362Y60252D02*
X102756Y58858D01*
Y52767D02*
Y58858D01*
X98713Y55118D02*
X100287D01*
X101362Y60252D02*
Y80398D01*
X97835Y80512D02*
X122539Y105217D01*
X136614Y115650D02*
Y118465D01*
X101362Y80398D02*
X136614Y115650D01*
X105724Y62417D02*
X109804Y66496D01*
X107124Y40983D02*
Y60865D01*
X109804Y66496D02*
Y66628D01*
X112205Y33465D02*
X112313Y33573D01*
X113888D02*
X125772Y45457D01*
Y56087D01*
X112313Y33573D02*
X113888D01*
X113441Y44377D02*
Y58815D01*
X116902Y42886D02*
Y59076D01*
X118918Y81476D02*
X121147Y79246D01*
X112205Y38189D02*
X116902Y42886D01*
X112402Y43338D02*
X113441Y44377D01*
X112402Y43110D02*
Y43338D01*
X118918Y81476D02*
Y82416D01*
X118658Y82677D02*
X118918Y82416D01*
X127756Y74016D02*
Y80759D01*
X122491Y86024D02*
X127756Y80759D01*
X132874Y53740D02*
Y68898D01*
X127756Y74016D02*
X132874Y68898D01*
X128740Y59055D02*
Y68110D01*
X125772Y56087D02*
X128740Y59055D01*
X124409Y59842D02*
Y60135D01*
X126159Y61885D01*
X97835Y55996D02*
Y80512D01*
X109239Y97638D02*
X110630D01*
X112894Y99902D01*
X105724Y43520D02*
Y62417D01*
X53543Y85088D02*
X74755Y106299D01*
X53543Y81890D02*
Y85088D01*
X74755Y106299D02*
X93177D01*
X94177Y105299D01*
X76378Y111024D02*
X97482D01*
X69291Y108268D02*
X98466D01*
X99253Y107480D02*
X99622D01*
X97482Y111024D02*
X98057Y110449D01*
X98425D01*
X98466Y108268D02*
X99253Y107480D01*
X53116Y92093D02*
X69291Y108268D01*
X44094Y92913D02*
X48425Y88583D01*
X45669Y94882D02*
X50787Y89764D01*
X31496Y92913D02*
X44094D01*
X96063Y50787D02*
X100776D01*
X94095Y52756D02*
X96063Y50787D01*
X130905Y78347D02*
Y83071D01*
X77559Y53150D02*
Y77140D01*
X71336Y52832D02*
Y52832D01*
X74410Y55905D02*
Y66351D01*
X71336Y52832D02*
X74410Y55905D01*
X68110Y49606D02*
X71336Y52832D01*
X93242Y103150D02*
X103728D01*
X93116Y103275D02*
X93242Y103150D01*
X94177Y105299D02*
X100525D01*
X102331Y107105D01*
Y109418D01*
X77740Y119685D02*
X77933D01*
X69291Y83965D02*
X77059D01*
X78588Y82436D01*
X80661Y93940D02*
X80921Y94201D01*
X74387Y81055D02*
X74828Y81496D01*
X75197D01*
X74409Y66351D02*
X74410Y66351D01*
X76818Y79192D02*
X78588Y80961D01*
Y82436D01*
X64173Y79744D02*
X65484Y81055D01*
X58268Y76722D02*
Y81102D01*
X64173Y87008D01*
X53116Y88222D02*
Y92093D01*
Y88222D02*
X53150Y88189D01*
X77953Y88002D02*
X83071Y82884D01*
X58854Y76136D02*
X66062D01*
X130217Y91043D02*
X130315Y91142D01*
X102331Y109418D02*
X102592Y109678D01*
X101969Y113386D02*
X104858Y110497D01*
Y108135D02*
Y110497D01*
Y108135D02*
X105118Y107874D01*
X103728Y103150D02*
X109239Y97638D01*
X58268Y76722D02*
X58854Y76136D01*
X111550Y108922D02*
X111811Y108661D01*
X111550Y108922D02*
Y110826D01*
X111811Y103543D02*
X113992Y105724D01*
X72022Y113386D02*
X101969D01*
X71235Y112598D02*
X72022Y113386D01*
X70866Y112598D02*
X71235D01*
X66929Y120472D02*
X72047D01*
X14173Y110236D02*
X31496Y92913D01*
X9843Y110236D02*
X14173D01*
X112096Y33573D02*
X112205Y33465D01*
X97835Y55996D02*
X98713Y55118D01*
D22*
X123425Y78347D02*
D03*
X130905D02*
D03*
X36811Y77953D02*
D03*
X44291D02*
D03*
X44291Y40157D02*
D03*
X36811D02*
D03*
X97835Y56693D02*
D03*
X90354D02*
D03*
X36811Y86221D02*
D03*
X44291D02*
D03*
X44291Y32283D02*
D03*
X36811D02*
D03*
D31*
X136614Y125984D02*
D03*
Y118465D02*
D03*
X64173Y72224D02*
D03*
Y79744D02*
D03*
D32*
X130315Y91142D02*
D03*
Y83661D02*
D03*
D62*
X66140Y69133D02*
Y71163D01*
X67323Y67716D02*
Y67950D01*
X66140Y69133D02*
X67323Y67950D01*
X90544Y52764D02*
Y56503D01*
Y52764D02*
X95505Y47803D01*
X90354Y56693D02*
X90544Y56503D01*
X95505Y47803D02*
X97866D01*
X123196Y78575D02*
Y82217D01*
Y78575D02*
X123425Y78347D01*
X130709Y114173D02*
Y117126D01*
X64173Y72224D02*
X65079D01*
X66140Y71163D01*
X129528Y118307D02*
X130709Y117126D01*
X97866Y47803D02*
X98032Y47638D01*
X133858Y78347D02*
X136221Y75984D01*
X130905Y78347D02*
X133858D01*
X136221Y75984D02*
Y75984D01*
X130315Y83661D02*
X130436Y83540D01*
X135124D01*
X135987Y82677D01*
X136221D01*
X44291Y77953D02*
Y86221D01*
D64*
X4429Y60433D02*
X9744Y65748D01*
X62795Y136122D02*
X65059Y133858D01*
X94882D02*
X104921Y143898D01*
X65059Y133858D02*
X94882D01*
X4429Y41732D02*
Y60433D01*
Y41732D02*
X31043Y15118D01*
X54114D01*
X9744Y65748D02*
X18110D01*
X67992Y148740D02*
X69075D01*
Y149488D02*
Y149882D01*
Y148740D02*
Y149488D01*
X119783Y143898D02*
X126772Y136909D01*
Y135433D02*
Y136909D01*
X104921Y143898D02*
X119783D01*
X62795Y136122D02*
Y143543D01*
X67992Y148740D01*
X68740Y149488D02*
X69075D01*
X94114Y15118D02*
X104114D01*
X84114D02*
X94114D01*
X74114D02*
X84114D01*
X64114D02*
X74114D01*
X54114D02*
X64114D01*
X94114Y5118D02*
X104114D01*
X84114D02*
X94114D01*
X74114D02*
X84114D01*
X64114D02*
X74114D01*
X54114D02*
X64114D01*
X107087Y135433D02*
X119110Y123409D01*
Y123016D02*
X120079Y122047D01*
X119110Y123016D02*
Y123409D01*
X120079Y122047D02*
X120866D01*
X129528Y125787D02*
X129626Y125886D01*
X136516D02*
X136614Y125984D01*
X129626Y125886D02*
X136516D01*
D65*
X104114Y5118D02*
D03*
X94114D02*
D03*
X84114D02*
D03*
X74114D02*
D03*
X64114D02*
D03*
X54114D02*
D03*
Y15118D02*
D03*
X64114D02*
D03*
X74114D02*
D03*
X84114D02*
D03*
X94114D02*
D03*
X104114D02*
D03*
Y25118D02*
D03*
X94114D02*
D03*
X84114D02*
D03*
X74114D02*
D03*
X64114D02*
D03*
X147638Y106811D02*
D03*
Y116811D02*
D03*
Y126811D02*
D03*
X88740Y149488D02*
D03*
X78740D02*
D03*
X68740D02*
D03*
Y139488D02*
D03*
X78740D02*
D03*
X88740Y139488D02*
D03*
D66*
X54114Y25118D02*
D03*
D67*
X9843Y9843D02*
D03*
X147638D02*
D03*
X147244Y147638D02*
D03*
X9843D02*
D03*
D68*
X23228Y9055D02*
D03*
D69*
X33228D02*
D03*
X18110Y55748D02*
D03*
X107087Y135433D02*
D03*
X126772D02*
D03*
D70*
X18110Y65748D02*
D03*
D71*
X147638Y96811D02*
D03*
D72*
X9843Y120079D02*
D03*
X147638Y43110D02*
D03*
D73*
X9843Y115157D02*
D03*
Y110236D02*
D03*
Y105315D02*
D03*
Y100394D02*
D03*
X147638Y48031D02*
D03*
Y52953D02*
D03*
Y57874D02*
D03*
Y62795D02*
D03*
D74*
X139370Y33465D02*
D03*
X115945Y87205D02*
D03*
X118504Y88961D02*
D03*
X59303Y41587D02*
D03*
Y59055D02*
D03*
X60236Y67716D02*
D03*
X74016Y49606D02*
D03*
X79134D02*
D03*
X72047Y61811D02*
D03*
X67323Y67716D02*
D03*
X114961Y117717D02*
D03*
X99213Y119319D02*
D03*
X120357Y66979D02*
D03*
X120607Y69831D02*
D03*
X116214Y64936D02*
D03*
X118012Y71040D02*
D03*
X115842Y75046D02*
D03*
X68110Y49606D02*
D03*
X91339Y62598D02*
D03*
X80890Y76975D02*
D03*
X21457Y71260D02*
D03*
X48031Y32087D02*
D03*
X62992Y50000D02*
D03*
X93807Y46063D02*
D03*
X112926Y68438D02*
D03*
X116519Y77827D02*
D03*
X115945Y81087D02*
D03*
X122638Y92020D02*
D03*
X100287Y55118D02*
D03*
X109804Y66628D02*
D03*
X119095Y57480D02*
D03*
X123196Y82217D02*
D03*
X118658Y82677D02*
D03*
X129921Y86732D02*
D03*
X122810Y88976D02*
D03*
X132874Y53740D02*
D03*
X112205Y38189D02*
D03*
X112402Y43110D02*
D03*
X128740Y68110D02*
D03*
X124409Y59842D02*
D03*
X127953Y102559D02*
D03*
X130709Y114173D02*
D03*
X112894Y99902D02*
D03*
X103543Y61811D02*
D03*
X132283Y29921D02*
D03*
X36220Y103543D02*
D03*
X88583D02*
D03*
X98425Y110449D02*
D03*
X44291Y82087D02*
D03*
X53543Y81890D02*
D03*
X60466Y86385D02*
D03*
X98032Y47638D02*
D03*
X136221Y75984D02*
D03*
X13386Y50394D02*
D03*
X12992Y42520D02*
D03*
Y46457D02*
D03*
X9449Y42520D02*
D03*
Y46457D02*
D03*
Y50394D02*
D03*
X93116Y103275D02*
D03*
X98819Y31102D02*
D03*
X115748Y26378D02*
D03*
X132712Y38403D02*
D03*
X132677Y43307D02*
D03*
X136221Y82677D02*
D03*
Y69291D02*
D03*
X25984Y150394D02*
D03*
X48819Y122835D02*
D03*
X32283Y107283D02*
D03*
X51772Y98819D02*
D03*
X70079Y78347D02*
D03*
X80921Y91339D02*
D03*
Y94201D02*
D03*
X69291Y83965D02*
D03*
X75197Y81496D02*
D03*
X63779Y83236D02*
D03*
X53150Y88189D02*
D03*
X77559Y77140D02*
D03*
X64173Y87008D02*
D03*
X99622Y107480D02*
D03*
X102592Y109678D02*
D03*
X105118Y107874D02*
D03*
X93307Y127165D02*
D03*
X137008Y94882D02*
D03*
X119291Y106693D02*
D03*
X111811Y108661D02*
D03*
X94095Y41732D02*
D03*
X87402Y124803D02*
D03*
X77740Y119685D02*
D03*
X40171Y82658D02*
D03*
X76378Y111024D02*
D03*
X70866Y112598D02*
D03*
X61417Y116142D02*
D03*
X66929Y120472D02*
D03*
X107874Y111417D02*
D03*
X59055Y134646D02*
D03*
X111811Y103543D02*
D03*
X111248Y52362D02*
D03*
X112205Y33465D02*
D03*
X45276Y128740D02*
D03*
X51575Y40945D02*
D03*
Y34646D02*
D03*
X48425D02*
D03*
X51575Y37795D02*
D03*
X48425D02*
D03*
X26772Y71653D02*
D03*
X16535D02*
D03*
Y75197D02*
D03*
X21654D02*
D03*
X26772D02*
D03*
D98*
X37224Y50433D02*
D03*
Y59449D02*
D03*
Y68465D02*
D03*
D99*
X63563Y59449D02*
D03*
D100*
X129528Y125787D02*
D03*
Y118307D02*
D03*
X120866Y122047D02*
D03*
M02*
