G04*
G04 #@! TF.GenerationSoftware,Altium Limited,Altium Designer,22.10.1 (41)*
G04*
G04 Layer_Physical_Order=1*
G04 Layer_Color=255*
%FSLAX25Y25*%
%MOIN*%
G70*
G04*
G04 #@! TF.SameCoordinates,0245A464-56C0-4E7C-B2BA-3340792428E8*
G04*
G04*
G04 #@! TF.FilePolarity,Positive*
G04*
G01*
G75*
%ADD16C,0.01000*%
%ADD19R,0.03622X0.05433*%
%ADD20R,0.00984X0.02657*%
%ADD21R,0.02264X0.00984*%
%ADD22R,0.02756X0.05118*%
G04:AMPARAMS|DCode=23|XSize=51.58mil|YSize=20.87mil|CornerRadius=1.57mil|HoleSize=0mil|Usage=FLASHONLY|Rotation=180.000|XOffset=0mil|YOffset=0mil|HoleType=Round|Shape=RoundedRectangle|*
%AMROUNDEDRECTD23*
21,1,0.05158,0.01774,0,0,180.0*
21,1,0.04845,0.02087,0,0,180.0*
1,1,0.00313,-0.02422,0.00887*
1,1,0.00313,0.02422,0.00887*
1,1,0.00313,0.02422,-0.00887*
1,1,0.00313,-0.02422,-0.00887*
%
%ADD23ROUNDEDRECTD23*%
G04:AMPARAMS|DCode=24|XSize=51.58mil|YSize=20.87mil|CornerRadius=1.67mil|HoleSize=0mil|Usage=FLASHONLY|Rotation=180.000|XOffset=0mil|YOffset=0mil|HoleType=Round|Shape=RoundedRectangle|*
%AMROUNDEDRECTD24*
21,1,0.05158,0.01753,0,0,180.0*
21,1,0.04824,0.02087,0,0,180.0*
1,1,0.00334,-0.02412,0.00876*
1,1,0.00334,0.02412,0.00876*
1,1,0.00334,0.02412,-0.00876*
1,1,0.00334,-0.02412,-0.00876*
%
%ADD24ROUNDEDRECTD24*%
G04:AMPARAMS|DCode=25|XSize=19.29mil|YSize=13.78mil|CornerRadius=1.72mil|HoleSize=0mil|Usage=FLASHONLY|Rotation=270.000|XOffset=0mil|YOffset=0mil|HoleType=Round|Shape=RoundedRectangle|*
%AMROUNDEDRECTD25*
21,1,0.01929,0.01034,0,0,270.0*
21,1,0.01585,0.01378,0,0,270.0*
1,1,0.00345,-0.00517,-0.00792*
1,1,0.00345,-0.00517,0.00792*
1,1,0.00345,0.00517,0.00792*
1,1,0.00345,0.00517,-0.00792*
%
%ADD25ROUNDEDRECTD25*%
G04:AMPARAMS|DCode=26|XSize=19.29mil|YSize=13.78mil|CornerRadius=1.72mil|HoleSize=0mil|Usage=FLASHONLY|Rotation=180.000|XOffset=0mil|YOffset=0mil|HoleType=Round|Shape=RoundedRectangle|*
%AMROUNDEDRECTD26*
21,1,0.01929,0.01034,0,0,180.0*
21,1,0.01585,0.01378,0,0,180.0*
1,1,0.00345,-0.00792,0.00517*
1,1,0.00345,0.00792,0.00517*
1,1,0.00345,0.00792,-0.00517*
1,1,0.00345,-0.00792,-0.00517*
%
%ADD26ROUNDEDRECTD26*%
G04:AMPARAMS|DCode=27|XSize=34.25mil|YSize=10.63mil|CornerRadius=1.33mil|HoleSize=0mil|Usage=FLASHONLY|Rotation=90.000|XOffset=0mil|YOffset=0mil|HoleType=Round|Shape=RoundedRectangle|*
%AMROUNDEDRECTD27*
21,1,0.03425,0.00797,0,0,90.0*
21,1,0.03160,0.01063,0,0,90.0*
1,1,0.00266,0.00399,0.01580*
1,1,0.00266,0.00399,-0.01580*
1,1,0.00266,-0.00399,-0.01580*
1,1,0.00266,-0.00399,0.01580*
%
%ADD27ROUNDEDRECTD27*%
G04:AMPARAMS|DCode=28|XSize=34.25mil|YSize=10.63mil|CornerRadius=1.33mil|HoleSize=0mil|Usage=FLASHONLY|Rotation=180.000|XOffset=0mil|YOffset=0mil|HoleType=Round|Shape=RoundedRectangle|*
%AMROUNDEDRECTD28*
21,1,0.03425,0.00797,0,0,180.0*
21,1,0.03160,0.01063,0,0,180.0*
1,1,0.00266,-0.01580,0.00399*
1,1,0.00266,0.01580,0.00399*
1,1,0.00266,0.01580,-0.00399*
1,1,0.00266,-0.01580,-0.00399*
%
%ADD28ROUNDEDRECTD28*%
%ADD29R,0.07480X0.09449*%
%ADD30R,0.03937X0.07087*%
%ADD31R,0.05433X0.03622*%
%ADD32R,0.05118X0.02756*%
%ADD33R,0.05906X0.03937*%
%ADD34R,0.12598X0.06772*%
%ADD61R,0.22047X0.22047*%
%ADD62C,0.01500*%
%ADD63C,0.01100*%
%ADD64C,0.02000*%
%ADD65C,0.06299*%
%ADD66R,0.06299X0.06299*%
%ADD67C,0.15748*%
%ADD68R,0.07874X0.07874*%
%ADD69C,0.07874*%
%ADD70R,0.07874X0.07874*%
%ADD71R,0.06299X0.06299*%
%ADD72R,0.03937X0.03937*%
%ADD73C,0.03937*%
%ADD74C,0.02362*%
G36*
X141068Y154012D02*
X140351Y153295D01*
X139380Y151841D01*
X138711Y150226D01*
X138370Y148512D01*
Y146764D01*
X138698Y145113D01*
X138622Y144998D01*
X137403Y144287D01*
X135727Y145963D01*
X135231Y146295D01*
X134646Y146411D01*
X101969D01*
X101383Y146295D01*
X100887Y145963D01*
X94390Y139466D01*
X92890Y140034D01*
X92607Y141090D01*
X92061Y142036D01*
X91288Y142809D01*
X90342Y143355D01*
X89287Y143638D01*
X88194D01*
X87138Y143355D01*
X86192Y142809D01*
X85420Y142036D01*
X84873Y141090D01*
X84591Y140034D01*
Y138942D01*
X84873Y137887D01*
X84911Y137822D01*
X83469Y136380D01*
X82269Y137301D01*
X82607Y137887D01*
X82890Y138942D01*
Y140034D01*
X82607Y141090D01*
X82061Y142036D01*
X81288Y142809D01*
X80342Y143355D01*
X79286Y143638D01*
X78194D01*
X77139Y143355D01*
X76192Y142809D01*
X75420Y142036D01*
X74873Y141090D01*
X74591Y140034D01*
Y138942D01*
X74873Y137887D01*
X75420Y136940D01*
X76192Y136168D01*
X77139Y135621D01*
X78194Y135339D01*
X78786D01*
Y122282D01*
X78176Y121874D01*
X77305D01*
X76500Y121541D01*
X76174Y121214D01*
X74016D01*
X73431Y121098D01*
X72934Y120766D01*
X70769Y118601D01*
X68948Y118902D01*
X68785Y119232D01*
X69118Y120037D01*
Y120908D01*
X68785Y121712D01*
X68169Y122328D01*
X67365Y122661D01*
X66494D01*
X65689Y122328D01*
X65073Y121712D01*
X64740Y120908D01*
Y120037D01*
X65073Y119232D01*
X65308Y118998D01*
X65238Y117473D01*
X64947Y117259D01*
X63273Y117382D01*
X62657Y117998D01*
X61937Y118296D01*
X60891Y119232D01*
X60843Y119717D01*
Y126394D01*
X56087D01*
Y119276D01*
X56087Y119276D01*
X56087D01*
X55028Y118214D01*
X54743Y117929D01*
X50772D01*
Y111005D01*
X48819Y109053D01*
X46866Y111005D01*
Y117929D01*
X43092D01*
X41551Y119470D01*
Y126394D01*
X36795D01*
Y119276D01*
X37932D01*
X38018Y118842D01*
X38349Y118346D01*
X40929Y115766D01*
Y108843D01*
X43302D01*
X43331Y108799D01*
X42530Y107299D01*
X42406D01*
Y102642D01*
X42406D01*
X41945Y101332D01*
X39779D01*
Y102181D01*
X39670D01*
X38429Y103104D01*
Y103983D01*
X38093Y104794D01*
X37472Y105416D01*
X36660Y105752D01*
X35781D01*
X34969Y105416D01*
X34881Y105328D01*
X29225D01*
X28542Y105192D01*
X27964Y104805D01*
X27085Y103926D01*
X26698Y103348D01*
X26562Y102665D01*
Y102181D01*
X24787D01*
Y97425D01*
X31205D01*
X31905Y97425D01*
X32504Y96173D01*
Y92287D01*
X36378D01*
X37155Y90787D01*
X36874Y90390D01*
X32504D01*
Y84768D01*
X34686D01*
Y84396D01*
X34821Y83714D01*
X35208Y83135D01*
X36946Y81397D01*
X37525Y81010D01*
X38208Y80874D01*
X38208Y80874D01*
X38831D01*
X38920Y80786D01*
X39731Y80450D01*
X40610D01*
X41422Y80786D01*
X42043Y81407D01*
X42379Y82219D01*
Y83098D01*
X42043Y83910D01*
X41422Y84531D01*
X40610Y84867D01*
X39937D01*
Y88227D01*
X40982Y89272D01*
X42368Y88698D01*
Y87205D01*
X42485Y86619D01*
X42816Y86123D01*
X48667Y80272D01*
X48599Y79860D01*
X48007Y78811D01*
X14961D01*
X14180Y78656D01*
X13519Y78214D01*
X11944Y76639D01*
X11502Y75977D01*
X11347Y75197D01*
Y62205D01*
X11502Y61424D01*
X11944Y60763D01*
X12731Y59975D01*
X13393Y59533D01*
X13786Y59455D01*
X14173Y59842D01*
X20866D01*
X21330Y59378D01*
X21654D01*
X22434Y59533D01*
X23096Y59975D01*
X29191Y66071D01*
X49213D01*
X49993Y66226D01*
X50655Y66668D01*
X51442Y67456D01*
X51884Y68117D01*
X52039Y68898D01*
Y75197D01*
X51884Y75977D01*
X51442Y76639D01*
X50370Y77711D01*
X50991Y79211D01*
X52025D01*
X52610Y79327D01*
X53107Y79659D01*
X53149Y79701D01*
X53979D01*
X54783Y80034D01*
X55399Y80650D01*
X55732Y81454D01*
Y82325D01*
X55399Y83130D01*
X54783Y83745D01*
X54232Y83974D01*
X53802Y84507D01*
X53358Y85579D01*
X53559Y85980D01*
X53589D01*
X54401Y86317D01*
X55022Y86938D01*
X55358Y87750D01*
Y88628D01*
X55229Y88942D01*
X55270Y89148D01*
Y90339D01*
X58116D01*
Y89775D01*
X58233Y89189D01*
X58564Y88693D01*
X59150Y88108D01*
X59646Y87776D01*
X60232Y87660D01*
X61840D01*
X61984Y87443D01*
Y86572D01*
X62318Y85768D01*
X62933Y85152D01*
X63738Y84819D01*
X64609D01*
X65413Y85152D01*
X65740Y85479D01*
X65926D01*
X67102Y84400D01*
Y83529D01*
X67436Y82725D01*
X68051Y82109D01*
X68856Y81776D01*
X69727D01*
X70531Y82109D01*
X70729Y82307D01*
X72757D01*
X73008Y81932D01*
Y81061D01*
X73341Y80256D01*
X73957Y79640D01*
X74613Y79369D01*
X74821Y79180D01*
X75466Y77807D01*
X75370Y77576D01*
Y76705D01*
X75384Y76671D01*
X74444Y75684D01*
X74032Y75803D01*
Y75803D01*
X60220D01*
Y71047D01*
X59552Y69824D01*
X58985Y69589D01*
X58364Y68968D01*
X58028Y68156D01*
Y67277D01*
X58364Y66465D01*
X58985Y65844D01*
X59797Y65508D01*
X60774Y64207D01*
X60808Y64063D01*
X60763Y62678D01*
X59329Y61244D01*
X58868D01*
X58063Y60911D01*
X57447Y60295D01*
X57114Y59491D01*
Y58620D01*
X57447Y57815D01*
X57655Y57608D01*
X57077Y56108D01*
X34843D01*
X34238Y55988D01*
X33725Y55645D01*
X27623Y49543D01*
X27280Y49030D01*
X27160Y48425D01*
Y42299D01*
X22169D01*
Y42299D01*
X21531D01*
Y42299D01*
X15909D01*
Y34866D01*
X16303D01*
Y27779D01*
X21925D01*
X22169Y27386D01*
Y27386D01*
X27791D01*
Y31188D01*
X29291Y31965D01*
X29689Y31684D01*
Y27386D01*
X35311D01*
Y33366D01*
X35311Y34819D01*
X35311D01*
Y34866D01*
X35311D01*
Y38741D01*
X35417Y39030D01*
X35490Y39161D01*
X36220Y40087D01*
X44418D01*
Y31066D01*
X44472Y30792D01*
X44493Y30514D01*
X44549Y30405D01*
X44573Y30285D01*
X44728Y30053D01*
X44854Y29805D01*
X45205Y29359D01*
X45289Y29287D01*
X45349Y29195D01*
X45588Y29030D01*
X45809Y28842D01*
X45815Y28840D01*
X46136Y28252D01*
X46283Y27701D01*
X46280Y27183D01*
X33462Y14365D01*
X33213Y13992D01*
X32578D01*
X31323Y13656D01*
X30197Y13006D01*
X29665Y12474D01*
X28165Y13022D01*
Y13992D01*
X18291D01*
X17155Y14871D01*
X16735Y15499D01*
X15499Y16735D01*
X14046Y17707D01*
X12431Y18375D01*
X10717Y18717D01*
X8969D01*
X7254Y18375D01*
X5639Y17707D01*
X4186Y16735D01*
X3469Y16018D01*
X1969Y16640D01*
Y140841D01*
X3469Y141462D01*
X4186Y140745D01*
X5639Y139774D01*
X7254Y139105D01*
X8969Y138764D01*
X10717D01*
X12431Y139105D01*
X14046Y139774D01*
X15499Y140745D01*
X16735Y141981D01*
X17707Y143434D01*
X18375Y145049D01*
X18717Y146764D01*
Y148512D01*
X18375Y150226D01*
X17707Y151841D01*
X16735Y153295D01*
X16018Y154012D01*
X16640Y155512D01*
X140447D01*
X141068Y154012D01*
D02*
G37*
G36*
X154538Y141794D02*
X155512Y141339D01*
Y16640D01*
X154012Y16018D01*
X153295Y16735D01*
X151841Y17707D01*
X150226Y18375D01*
X148512Y18717D01*
X146764D01*
X145049Y18375D01*
X143434Y17707D01*
X141981Y16735D01*
X140745Y15499D01*
X139774Y14046D01*
X139105Y12431D01*
X138764Y10717D01*
Y8969D01*
X139105Y7254D01*
X139774Y5639D01*
X140745Y4186D01*
X141462Y3469D01*
X140841Y1969D01*
X17207D01*
X16565Y3437D01*
X17221Y4226D01*
X18291Y4118D01*
Y4118D01*
X28165D01*
Y5088D01*
X29665Y5636D01*
X30197Y5105D01*
X31323Y4455D01*
X32578Y4118D01*
X33878D01*
X35134Y4455D01*
X36260Y5105D01*
X37179Y6024D01*
X37829Y7149D01*
X38165Y8405D01*
Y9705D01*
X37829Y10961D01*
X37179Y12087D01*
X36344Y12921D01*
X48579Y25156D01*
X49965Y24582D01*
Y20968D01*
X58264D01*
Y29268D01*
X58264D01*
X58080Y29711D01*
X64254Y35884D01*
X64254Y35884D01*
X64641Y36463D01*
X64776Y37146D01*
X64776Y37146D01*
Y46154D01*
X66276Y46881D01*
X66326Y46842D01*
Y33003D01*
X62557Y29234D01*
X62314Y28870D01*
X61566Y28439D01*
X60794Y27666D01*
X60247Y26720D01*
X59965Y25664D01*
Y24572D01*
X60247Y23516D01*
X60794Y22570D01*
X61566Y21798D01*
X62512Y21251D01*
X63568Y20968D01*
X64661D01*
X65716Y21251D01*
X66662Y21798D01*
X67435Y22570D01*
X67981Y23516D01*
X68264Y24572D01*
Y25664D01*
X67981Y26720D01*
X67435Y27666D01*
X66735Y28365D01*
X69372Y31002D01*
X69759Y31581D01*
X69894Y32264D01*
Y48295D01*
X69966Y48366D01*
X70299Y49171D01*
Y50042D01*
X69966Y50846D01*
X69365Y51447D01*
X69366Y51533D01*
X69684Y52947D01*
X72442D01*
X72760Y51533D01*
X72761Y51447D01*
X72160Y50846D01*
X71827Y50042D01*
Y49171D01*
X72160Y48366D01*
X72232Y48295D01*
Y30045D01*
X72170Y29954D01*
X72035Y29271D01*
Y28709D01*
X71566Y28439D01*
X70794Y27666D01*
X70247Y26720D01*
X69965Y25664D01*
Y24572D01*
X70247Y23516D01*
X70794Y22570D01*
X71566Y21798D01*
X72513Y21251D01*
X73568Y20968D01*
X74660D01*
X75716Y21251D01*
X76662Y21798D01*
X77435Y22570D01*
X77981Y23516D01*
X78264Y24572D01*
Y25664D01*
X77981Y26720D01*
X77435Y27666D01*
X76662Y28439D01*
X75800Y28936D01*
Y46456D01*
X76575Y46857D01*
X77350Y46456D01*
Y32658D01*
X77485Y31975D01*
X77872Y31396D01*
X81198Y28070D01*
X80794Y27666D01*
X80247Y26720D01*
X79965Y25664D01*
Y24572D01*
X80247Y23516D01*
X80794Y22570D01*
X81566Y21798D01*
X82512Y21251D01*
X83568Y20968D01*
X84661D01*
X85716Y21251D01*
X86662Y21798D01*
X87435Y22570D01*
X87981Y23516D01*
X88264Y24572D01*
Y25664D01*
X87981Y26720D01*
X87435Y27666D01*
X86662Y28439D01*
X85716Y28985D01*
X85283Y29101D01*
X84668Y30099D01*
X85388Y31480D01*
X89189D01*
X89532Y30261D01*
X89532Y30260D01*
X89604Y30152D01*
X89863Y29764D01*
X91378Y28250D01*
X90794Y27666D01*
X90247Y26720D01*
X89965Y25664D01*
Y24572D01*
X90247Y23516D01*
X90794Y22570D01*
X91566Y21798D01*
X92513Y21251D01*
X93568Y20968D01*
X94661D01*
X95716Y21251D01*
X96662Y21798D01*
X97435Y22570D01*
X97981Y23516D01*
X98264Y24572D01*
Y25664D01*
X97981Y26720D01*
X97435Y27666D01*
X96662Y28439D01*
X95716Y28985D01*
X94695Y29258D01*
X92474Y31479D01*
Y37949D01*
X94068Y39543D01*
X94530D01*
X95334Y39877D01*
X95950Y40492D01*
X97469Y40238D01*
X102211Y35496D01*
Y28811D01*
X101566Y28439D01*
X100794Y27666D01*
X100247Y26720D01*
X99965Y25664D01*
Y24572D01*
X100247Y23516D01*
X100794Y22570D01*
X101566Y21798D01*
X102513Y21251D01*
X103568Y20968D01*
X104660D01*
X105716Y21251D01*
X106662Y21798D01*
X107435Y22570D01*
X107981Y23516D01*
X108264Y24572D01*
Y25664D01*
X107981Y26720D01*
X107435Y27666D01*
X106662Y28439D01*
X105716Y28985D01*
X105270Y29105D01*
Y31480D01*
X108874D01*
Y31866D01*
X110232Y32196D01*
X110374Y32200D01*
X110965Y31609D01*
X111769Y31276D01*
X112640D01*
X113445Y31609D01*
X114857Y31550D01*
X115243Y31292D01*
X115698Y31202D01*
X120522D01*
X120977Y31292D01*
X121363Y31550D01*
X121621Y31936D01*
X121712Y32391D01*
Y34144D01*
X121621Y34599D01*
X121447Y34860D01*
X121363Y35101D01*
Y36356D01*
X121447Y36596D01*
X121621Y36857D01*
X121712Y37313D01*
Y39065D01*
X121621Y39521D01*
X121447Y39782D01*
X121363Y40022D01*
Y41277D01*
X121447Y41518D01*
X121621Y41779D01*
X121712Y42234D01*
Y43987D01*
X121621Y44442D01*
X121447Y44703D01*
X121363Y44944D01*
Y45054D01*
X122738Y46502D01*
X124180D01*
X124306Y46314D01*
X124692Y46056D01*
X125147Y45965D01*
X129971D01*
X130426Y46056D01*
X130812Y46314D01*
X131070Y46700D01*
X131161Y47155D01*
Y47935D01*
X133695Y50469D01*
X134026Y50965D01*
X134143Y51550D01*
Y51913D01*
X134730Y52500D01*
X135063Y53305D01*
Y54176D01*
X134730Y54980D01*
X134114Y55596D01*
X133309Y55929D01*
X132439D01*
X131634Y55596D01*
X131018Y54980D01*
X130685Y54176D01*
Y53305D01*
X131018Y52500D01*
X131084Y52434D01*
Y52184D01*
X128998Y50098D01*
X125147D01*
X124692Y50007D01*
X124306Y49749D01*
X124180Y49561D01*
X121489D01*
X121363Y49749D01*
X120977Y50007D01*
X120522Y50098D01*
X115698D01*
X115243Y50007D01*
X114857Y49749D01*
X114599Y49363D01*
X114509Y48908D01*
Y47155D01*
X114599Y46700D01*
X113639Y45530D01*
X112893Y45276D01*
X112837Y45299D01*
X111966D01*
X111162Y44966D01*
X110768Y44572D01*
X109718Y44791D01*
X109268Y45032D01*
Y49259D01*
X110768Y50170D01*
X110809Y50153D01*
X111687D01*
X112499Y50490D01*
X113120Y51111D01*
X113457Y51923D01*
Y52802D01*
X113120Y53613D01*
X112499Y54235D01*
X111687Y54571D01*
X110809D01*
X110766Y54553D01*
X109268Y56051D01*
Y59827D01*
Y64372D01*
X109368Y64439D01*
X110239D01*
X111044Y64773D01*
X111659Y65388D01*
X112491Y66249D01*
X113362D01*
X114166Y66582D01*
X115874Y66214D01*
X118372Y63717D01*
X118868Y63385D01*
X119453Y63269D01*
X121260D01*
X121845Y63385D01*
X122033Y63510D01*
X123428Y63170D01*
X123422Y62900D01*
X123170Y61698D01*
X122554Y61083D01*
X122221Y60278D01*
Y59407D01*
X122554Y58603D01*
X123170Y57987D01*
X123974Y57653D01*
X124845D01*
X125649Y57987D01*
X126265Y58603D01*
X126598Y59407D01*
Y59475D01*
X127459Y60336D01*
X127791Y60832D01*
X127907Y61417D01*
Y62077D01*
X129341Y62434D01*
X129798Y62343D01*
X130832D01*
X131289Y62434D01*
X131677Y62693D01*
X131936Y63081D01*
X132027Y63538D01*
Y65123D01*
X131936Y65580D01*
X131677Y65968D01*
X131269Y66309D01*
X130929Y67675D01*
Y68546D01*
X130596Y69350D01*
X129980Y69966D01*
X129176Y70299D01*
X129163D01*
X128622Y71049D01*
X128838Y71997D01*
X129341Y72355D01*
X129798Y72264D01*
X130832D01*
X131289Y72355D01*
X131677Y72615D01*
X131936Y73002D01*
X132027Y73460D01*
Y75044D01*
X131936Y75502D01*
X131921Y75524D01*
X132588Y76766D01*
X138370D01*
Y74787D01*
X142565D01*
Y55118D01*
X142682Y54533D01*
X143013Y54037D01*
X144616Y52433D01*
X144723Y52362D01*
X144872Y51807D01*
X145262Y51130D01*
X145750Y50492D01*
X145262Y49854D01*
X144872Y49177D01*
X144669Y48422D01*
Y47641D01*
X144686Y47579D01*
X144669Y46079D01*
X144669D01*
Y40142D01*
X150606D01*
Y46079D01*
X150606Y46079D01*
X150590Y47579D01*
X150606Y47641D01*
Y48422D01*
X150519Y48750D01*
X153444Y51674D01*
X153775Y52171D01*
X153892Y52756D01*
Y81102D01*
X153775Y81688D01*
X153444Y82184D01*
X144466Y91161D01*
X145056Y92661D01*
X151787D01*
Y100961D01*
X143488D01*
Y100961D01*
X142818Y100683D01*
X135503Y107999D01*
X135006Y108330D01*
X134421Y108447D01*
X130567D01*
X129150Y108646D01*
X129150Y109947D01*
Y115764D01*
X128811D01*
Y130910D01*
X129803Y131483D01*
X130722Y132402D01*
X131372Y133528D01*
X131709Y134783D01*
Y136083D01*
X131372Y137339D01*
X130722Y138464D01*
X129803Y139384D01*
X129618Y139490D01*
X130020Y140990D01*
X132831D01*
X136660Y137162D01*
Y116260D01*
X136776Y115675D01*
X137108Y115178D01*
X143808Y108477D01*
X143771Y108413D01*
X143488Y107357D01*
Y106265D01*
X143771Y105209D01*
X144317Y104263D01*
X145090Y103490D01*
X146036Y102944D01*
X147091Y102661D01*
X148184D01*
X149240Y102944D01*
X150186Y103490D01*
X150958Y104263D01*
X151505Y105209D01*
X151787Y106265D01*
Y107357D01*
X151505Y108413D01*
X150958Y109359D01*
X150186Y110132D01*
X149240Y110678D01*
X148184Y110961D01*
X147091D01*
X146036Y110678D01*
X145971Y110640D01*
X144530Y112082D01*
X145451Y113282D01*
X146036Y112944D01*
X147091Y112661D01*
X148184D01*
X149240Y112944D01*
X150186Y113490D01*
X150958Y114263D01*
X151505Y115209D01*
X151787Y116265D01*
Y117357D01*
X151505Y118413D01*
X150958Y119359D01*
X150186Y120132D01*
X149240Y120678D01*
X148184Y120961D01*
X147091D01*
X146036Y120678D01*
X145609Y120431D01*
X142299Y123741D01*
Y138508D01*
X142359Y138609D01*
X142848Y139056D01*
X143679Y139509D01*
X144656Y139105D01*
X146370Y138764D01*
X148118D01*
X149832Y139105D01*
X151447Y139774D01*
X152901Y140745D01*
X154012Y141856D01*
X154538Y141794D01*
D02*
G37*
G36*
X123925Y139490D02*
X123740Y139384D01*
X122821Y138464D01*
X122171Y137339D01*
X121835Y136083D01*
Y134783D01*
X122171Y133528D01*
X122821Y132402D01*
X123740Y131483D01*
X124732Y130910D01*
Y115764D01*
X124394D01*
Y109947D01*
X124394Y108646D01*
X122976Y108447D01*
X120633D01*
X120531Y108549D01*
X119727Y108882D01*
X118856D01*
X118051Y108549D01*
X117436Y107933D01*
X117102Y107128D01*
Y106257D01*
X117436Y105453D01*
X118051Y104837D01*
X118856Y104504D01*
X119727D01*
X120531Y104837D01*
X121082Y105388D01*
X133788D01*
X136245Y102931D01*
X135623Y101431D01*
X114805D01*
X114683Y101525D01*
X114078Y102320D01*
X114000Y103108D01*
Y103979D01*
X113667Y104783D01*
X113051Y105399D01*
X113083Y106425D01*
X113185Y106940D01*
X113667Y107422D01*
X114000Y108226D01*
Y109097D01*
X113667Y109901D01*
X113051Y110517D01*
X112246Y110850D01*
X111449D01*
X111365Y110858D01*
X110063Y111853D01*
X109730Y112657D01*
X109114Y113273D01*
X108309Y113606D01*
X107439D01*
X106634Y113273D01*
X106018Y112657D01*
X105685Y111853D01*
Y111640D01*
X105420Y111486D01*
X104185Y111180D01*
X103832Y111534D01*
X103027Y111867D01*
X102156D01*
X101352Y111534D01*
X100281Y111689D01*
X99665Y112304D01*
X98861Y112638D01*
X97990D01*
X97185Y112304D01*
X96570Y111689D01*
X96236Y110884D01*
Y110864D01*
X94736Y110146D01*
X94049Y110699D01*
Y125103D01*
X94547Y125310D01*
X95163Y125925D01*
X95496Y126730D01*
Y127601D01*
X95163Y128405D01*
X94547Y129021D01*
X94393Y129085D01*
X93941Y130687D01*
X93953Y130767D01*
X100631Y137444D01*
X100950Y137400D01*
X102150Y136083D01*
Y134783D01*
X102486Y133528D01*
X103136Y132402D01*
X104055Y131483D01*
X105181Y130833D01*
X106437Y130496D01*
X107737D01*
X108992Y130833D01*
X110118Y131483D01*
X111037Y132402D01*
X111687Y133528D01*
X112024Y134783D01*
Y136083D01*
X111687Y137339D01*
X111037Y138464D01*
X110118Y139384D01*
X109933Y139490D01*
X110335Y140990D01*
X123523D01*
X123925Y139490D01*
D02*
G37*
G36*
X59728Y98311D02*
Y94996D01*
X52248D01*
Y94996D01*
X51295D01*
Y94996D01*
X45783D01*
Y98374D01*
X45866Y98390D01*
X46362Y98722D01*
X46948Y99308D01*
X47279Y99804D01*
X47396Y100389D01*
Y102642D01*
X50748D01*
X51295Y102642D01*
Y102642D01*
X52248D01*
Y102642D01*
X59728D01*
Y98311D01*
D02*
G37*
G36*
X139022Y91812D02*
Y85827D01*
X139138Y85242D01*
X139470Y84745D01*
X140924Y83291D01*
X140350Y81906D01*
X138370D01*
Y79927D01*
X131890D01*
X131285Y79807D01*
X130772Y79464D01*
X130059Y78751D01*
X128559Y79372D01*
Y83282D01*
X129482Y84524D01*
X130361D01*
X131172Y84860D01*
X131794Y85481D01*
X132130Y86293D01*
Y87172D01*
X131794Y87983D01*
X131172Y88605D01*
X130361Y88941D01*
X130003D01*
X130000Y88943D01*
X129422Y89330D01*
X128739Y89466D01*
X128559D01*
Y92701D01*
X135449D01*
X135449Y92701D01*
X136569Y92673D01*
X136937Y92673D01*
X137447D01*
X137522Y92704D01*
X139022Y91812D01*
D02*
G37*
G36*
X50000Y75197D02*
Y68898D01*
X49213Y68110D01*
X28346D01*
X21654Y61417D01*
X14173D01*
X13386Y62205D01*
Y75197D01*
X14961Y76772D01*
X48425D01*
X50000Y75197D01*
D02*
G37*
G36*
X150833Y80469D02*
Y60998D01*
X149865Y60470D01*
X149333Y60323D01*
X148784Y60640D01*
X148029Y60843D01*
X147247D01*
X147124Y60809D01*
X145809Y61608D01*
X145624Y61871D01*
Y82284D01*
X145508Y82869D01*
X145176Y83365D01*
X142662Y85879D01*
X142746Y86434D01*
X144343Y86959D01*
X150833Y80469D01*
D02*
G37*
G36*
X74032Y71047D02*
X75151Y70127D01*
X80611Y64667D01*
X81108Y64335D01*
X81693Y64219D01*
X85059D01*
X85606Y63309D01*
X85712Y62750D01*
X79070Y56108D01*
X61529D01*
X60952Y57608D01*
X61159Y57815D01*
X61492Y58620D01*
Y59081D01*
X62692Y60282D01*
X70481D01*
X70807Y59955D01*
X71612Y59622D01*
X72483D01*
X73287Y59955D01*
X73903Y60571D01*
X74236Y61376D01*
Y62246D01*
X73903Y63051D01*
X73287Y63667D01*
X72483Y64000D01*
X71612D01*
X70807Y63667D01*
X70481Y63340D01*
X66729D01*
X65567Y64157D01*
X65567Y64840D01*
Y71047D01*
X74032Y71047D01*
D02*
G37*
G36*
X53511Y50032D02*
Y34722D01*
X48418Y30601D01*
X46807Y30620D01*
X46457Y31066D01*
Y41732D01*
X46063Y42126D01*
X36220D01*
X35433Y43307D01*
Y50394D01*
X36614Y51575D01*
X51968D01*
X53511Y50032D01*
D02*
G37*
%LPC*%
G36*
X89287Y153638D02*
X88194D01*
X87138Y153355D01*
X86192Y152809D01*
X85420Y152036D01*
X84873Y151090D01*
X84591Y150034D01*
Y148942D01*
X84873Y147887D01*
X85420Y146940D01*
X86192Y146168D01*
X87138Y145621D01*
X88194Y145339D01*
X89287D01*
X90342Y145621D01*
X91288Y146168D01*
X92061Y146940D01*
X92607Y147887D01*
X92890Y148942D01*
Y150034D01*
X92607Y151090D01*
X92061Y152036D01*
X91288Y152809D01*
X90342Y153355D01*
X89287Y153638D01*
D02*
G37*
G36*
X79286D02*
X78194D01*
X77139Y153355D01*
X76192Y152809D01*
X75420Y152036D01*
X74873Y151090D01*
X74591Y150034D01*
Y148942D01*
X74873Y147887D01*
X75420Y146940D01*
X76192Y146168D01*
X77139Y145621D01*
X78194Y145339D01*
X79286D01*
X80342Y145621D01*
X81288Y146168D01*
X82061Y146940D01*
X82607Y147887D01*
X82890Y148942D01*
Y150034D01*
X82607Y151090D01*
X82061Y152036D01*
X81288Y152809D01*
X80342Y153355D01*
X79286Y153638D01*
D02*
G37*
G36*
X69287D02*
X68194D01*
X67138Y153355D01*
X66192Y152809D01*
X65420Y152036D01*
X64873Y151090D01*
X64591Y150034D01*
Y148942D01*
X64873Y147887D01*
X65420Y146940D01*
X66192Y146168D01*
X67138Y145621D01*
X68194Y145339D01*
X69287D01*
X70342Y145621D01*
X71288Y146168D01*
X72061Y146940D01*
X72607Y147887D01*
X72890Y148942D01*
Y150034D01*
X72607Y151090D01*
X72061Y152036D01*
X71288Y152809D01*
X70342Y153355D01*
X69287Y153638D01*
D02*
G37*
G36*
X56823Y149425D02*
X48917D01*
Y143488D01*
X50972D01*
Y138362D01*
X49945D01*
Y130929D01*
X55567D01*
Y132861D01*
X57744D01*
X57815Y132790D01*
X58620Y132457D01*
X59491D01*
X60295Y132790D01*
X60911Y133406D01*
X61244Y134210D01*
Y135081D01*
X60911Y135886D01*
X60295Y136501D01*
X59491Y136835D01*
X58620D01*
X57815Y136501D01*
X57744Y136430D01*
X55567D01*
Y138362D01*
X54540D01*
Y143488D01*
X56823D01*
Y149425D01*
D02*
G37*
G36*
X48047Y138362D02*
X42425D01*
Y130929D01*
X42425Y130929D01*
X43170Y129429D01*
X43067Y129180D01*
Y128301D01*
X43403Y127489D01*
X44025Y126868D01*
X44836Y126532D01*
X45715D01*
X46527Y126868D01*
X47148Y127489D01*
X47484Y128301D01*
Y129180D01*
X47381Y129429D01*
X48047Y130929D01*
X48047D01*
Y138362D01*
D02*
G37*
G36*
X12811Y123047D02*
X6874D01*
Y117110D01*
X6874Y117110D01*
X6891Y115610D01*
X6874Y115548D01*
Y114767D01*
X7076Y114012D01*
X7467Y113335D01*
X7955Y112697D01*
X7467Y112059D01*
X7076Y111382D01*
X6874Y110627D01*
Y109845D01*
X7076Y109090D01*
X7467Y108414D01*
X7955Y107776D01*
X7467Y107138D01*
X7076Y106461D01*
X6874Y105706D01*
Y104924D01*
X7076Y104169D01*
X7467Y103492D01*
X8020Y102940D01*
X8697Y102549D01*
X9452Y102347D01*
X10233D01*
X10988Y102549D01*
X11665Y102940D01*
X12218Y103492D01*
X12609Y104169D01*
X12811Y104924D01*
Y105706D01*
X12609Y106461D01*
X12218Y107138D01*
X11730Y107776D01*
X12218Y108414D01*
X12609Y109090D01*
X12811Y109845D01*
Y110627D01*
X12609Y111382D01*
X12218Y112059D01*
X11730Y112697D01*
X12218Y113335D01*
X12609Y114012D01*
X12811Y114767D01*
Y115548D01*
X12794Y115610D01*
X12811Y117110D01*
X12811D01*
Y123047D01*
D02*
G37*
G36*
X129981Y35334D02*
X125137D01*
X124686Y35244D01*
X124303Y34988D01*
X124047Y34606D01*
X123958Y34154D01*
Y32381D01*
X124047Y31930D01*
X124303Y31547D01*
X124377Y31498D01*
X125181Y30331D01*
Y23213D01*
X129937D01*
Y24193D01*
X130308D01*
X130991Y24329D01*
X131570Y24716D01*
X133545Y26691D01*
X133932Y27270D01*
X134068Y27953D01*
Y28582D01*
X134156Y28670D01*
X134492Y29482D01*
Y30361D01*
X134156Y31172D01*
X133535Y31794D01*
X132723Y32130D01*
X132623D01*
X131769Y32276D01*
X131160Y33470D01*
Y34154D01*
X131071Y34606D01*
X130815Y34988D01*
X130432Y35244D01*
X129981Y35334D01*
D02*
G37*
G36*
X139805Y35653D02*
X138935D01*
X138130Y35320D01*
X137514Y34705D01*
X137181Y33900D01*
Y33029D01*
X137514Y32225D01*
X137751Y31988D01*
X137624Y30488D01*
X136559D01*
Y23055D01*
X142181D01*
Y30488D01*
X141116D01*
X140989Y31988D01*
X141226Y32225D01*
X141559Y33029D01*
Y33900D01*
X141226Y34705D01*
X140610Y35320D01*
X139805Y35653D01*
D02*
G37*
G36*
X104660Y19268D02*
X103568D01*
X102513Y18985D01*
X101566Y18439D01*
X100794Y17666D01*
X100500Y17157D01*
X97728D01*
X97435Y17666D01*
X96662Y18439D01*
X95716Y18985D01*
X94661Y19268D01*
X93568D01*
X92513Y18985D01*
X91566Y18439D01*
X90794Y17666D01*
X90500Y17157D01*
X87728D01*
X87435Y17666D01*
X86662Y18439D01*
X85716Y18985D01*
X84661Y19268D01*
X83568D01*
X82512Y18985D01*
X81566Y18439D01*
X80794Y17666D01*
X80500Y17157D01*
X77728D01*
X77435Y17666D01*
X76662Y18439D01*
X75716Y18985D01*
X74660Y19268D01*
X73568D01*
X72513Y18985D01*
X71566Y18439D01*
X70794Y17666D01*
X70500Y17157D01*
X67728D01*
X67435Y17666D01*
X66662Y18439D01*
X65716Y18985D01*
X64661Y19268D01*
X63568D01*
X62512Y18985D01*
X61566Y18439D01*
X60794Y17666D01*
X60500Y17157D01*
X57728D01*
X57435Y17666D01*
X56662Y18439D01*
X55716Y18985D01*
X54660Y19268D01*
X53568D01*
X52513Y18985D01*
X51566Y18439D01*
X50794Y17666D01*
X50247Y16720D01*
X49965Y15664D01*
Y14572D01*
X50247Y13516D01*
X50794Y12570D01*
X51566Y11798D01*
X52513Y11251D01*
X53568Y10968D01*
X54660D01*
X55716Y11251D01*
X56662Y11798D01*
X57435Y12570D01*
X57728Y13079D01*
X60500D01*
X60794Y12570D01*
X61566Y11798D01*
X62512Y11251D01*
X63568Y10968D01*
X64661D01*
X65716Y11251D01*
X66662Y11798D01*
X67435Y12570D01*
X67728Y13079D01*
X70500D01*
X70794Y12570D01*
X71566Y11798D01*
X72513Y11251D01*
X73568Y10968D01*
X74660D01*
X75716Y11251D01*
X76662Y11798D01*
X77435Y12570D01*
X77728Y13079D01*
X80500D01*
X80794Y12570D01*
X81566Y11798D01*
X82512Y11251D01*
X83568Y10968D01*
X84661D01*
X85716Y11251D01*
X86662Y11798D01*
X87435Y12570D01*
X87728Y13079D01*
X90500D01*
X90794Y12570D01*
X91566Y11798D01*
X92513Y11251D01*
X93568Y10968D01*
X94661D01*
X95716Y11251D01*
X96662Y11798D01*
X97435Y12570D01*
X97728Y13079D01*
X100500D01*
X100794Y12570D01*
X101566Y11798D01*
X102513Y11251D01*
X103568Y10968D01*
X104660D01*
X105716Y11251D01*
X106662Y11798D01*
X107435Y12570D01*
X107981Y13516D01*
X108264Y14572D01*
Y15664D01*
X107981Y16720D01*
X107435Y17666D01*
X106662Y18439D01*
X105716Y18985D01*
X104660Y19268D01*
D02*
G37*
%LPD*%
D16*
X139370Y26772D02*
Y33465D01*
X111929Y87205D02*
X115945D01*
X117710Y89386D02*
X118135Y88961D01*
X115041Y89386D02*
X117710D01*
X119509Y85024D02*
X120839Y83694D01*
X115041Y85024D02*
X119509D01*
X111929Y85236D02*
X114829D01*
X114829Y89173D02*
X115041Y89386D01*
X118135Y88961D02*
X118504D01*
X111929Y89173D02*
X114829D01*
X114829Y85236D02*
X115041Y85024D01*
X34544Y13284D02*
X59303Y38043D01*
X34544Y10370D02*
Y13284D01*
X59303Y38043D02*
Y41587D01*
X33228Y9055D02*
X34544Y10370D01*
X59303Y59055D02*
X62059Y61811D01*
X72047D01*
X76772Y101181D02*
X82284Y106693D01*
Y133031D02*
X88740Y139488D01*
X82284Y106693D02*
Y133031D01*
X120357Y66979D02*
X120528Y67151D01*
X121260Y64798D02*
X121627Y65165D01*
X123197D01*
X121833Y69480D02*
X123197D01*
X120607Y69831D02*
X120867Y69570D01*
X123214Y67151D02*
X123386Y67323D01*
X120528Y67151D02*
X123214D01*
X119453Y64798D02*
X121260D01*
X115831Y68420D02*
X119453Y64798D01*
X123197Y69480D02*
X123386Y69291D01*
X120867Y69570D02*
X121743D01*
X121833Y69480D01*
X115831Y68420D02*
Y71943D01*
X125591Y71260D02*
X128740Y68110D01*
X123386Y71260D02*
X125591D01*
X118012Y71040D02*
X118381D01*
X119353Y72012D01*
X121510D02*
X122073Y71449D01*
X123197D01*
X119353Y72012D02*
X121510D01*
X123197Y71449D02*
X123386Y71260D01*
X118023Y74135D02*
Y75110D01*
X115831Y71943D02*
X118023Y74135D01*
X112895Y73425D02*
X112926Y73394D01*
X111929Y73425D02*
X112895D01*
X112926Y68438D02*
Y73394D01*
X137106Y99902D02*
X140551Y96457D01*
X112894Y99902D02*
X137106D01*
X119516Y106917D02*
X134421D01*
X119291Y106693D02*
X119516Y106917D01*
X118023Y75110D02*
X120839Y77925D01*
X115716Y75046D02*
X115842D01*
X113431Y77331D02*
X115716Y75046D01*
X111961Y77331D02*
X113431D01*
X111929Y77362D02*
X111961Y77331D01*
X91504Y62764D02*
Y70717D01*
X91339Y62598D02*
X91504Y62764D01*
Y70717D02*
X91535Y70748D01*
X84890Y73394D02*
X84921Y73425D01*
X81793Y74794D02*
X82362Y75362D01*
X76954Y73394D02*
X84890D01*
X74981Y74794D02*
X81793D01*
X82362Y75362D02*
X84890D01*
X73946Y75829D02*
X74981Y74794D01*
X75915Y72355D02*
X76954Y73394D01*
X75915Y71526D02*
Y72355D01*
X90945Y30845D02*
Y38583D01*
X94095Y41732D01*
X90945Y30845D02*
X93740Y28050D01*
Y26617D02*
Y28050D01*
X103740Y27972D02*
Y36130D01*
X140770Y123108D02*
X147067Y116811D01*
X147638D01*
X140770Y123108D02*
Y138758D01*
X93807Y46063D02*
X103740Y36130D01*
X120839Y77925D02*
Y83694D01*
X123197Y65165D02*
X123386Y65354D01*
X116400Y77945D02*
X116519Y77827D01*
X116002Y77945D02*
X116400D01*
X114648Y79299D02*
X116002Y77945D01*
X111961Y79299D02*
X114648D01*
X111929Y81299D02*
X115732D01*
X118529Y82677D02*
X118658D01*
X117938Y83268D02*
X118529Y82677D01*
X115732Y81299D02*
X115945Y81087D01*
X111929Y83268D02*
X117938D01*
X119571Y91142D02*
X121476Y89237D01*
X111929Y91142D02*
X119571D01*
X121476Y89237D02*
X122549D01*
X122810Y88976D01*
X122377Y92280D02*
X122638Y92020D01*
X111929Y93110D02*
X120119D01*
X120949Y92280D02*
X122377D01*
X120119Y93110D02*
X120949Y92280D01*
X61614Y104971D02*
Y115945D01*
X61417Y116142D02*
X61614Y115945D01*
X105315Y97756D02*
Y103572D01*
X107874Y106131D01*
Y111417D01*
X100287Y55118D02*
Y55487D01*
X99409Y56365D02*
X100287Y55487D01*
X99409Y56365D02*
Y70748D01*
X109252Y67495D02*
X109804Y66943D01*
Y66628D02*
Y66943D01*
X123209Y73405D02*
Y82205D01*
X123196Y82217D02*
X123209Y82205D01*
Y73405D02*
X123386Y73228D01*
X129095Y48031D02*
X132613Y51550D01*
Y53479D02*
X132874Y53740D01*
X132613Y51550D02*
Y53479D01*
X118110Y48031D02*
X129095D01*
X124803Y59842D02*
X126378Y61417D01*
X124409Y59842D02*
X124803D01*
X126378Y61417D02*
Y64331D01*
X134421Y106917D02*
X142520Y98819D01*
X101378Y63976D02*
Y70748D01*
Y63976D02*
X103543Y61811D01*
X74332Y73109D02*
X75915Y71526D01*
X81693Y65748D01*
X70789Y73109D02*
X74332D01*
X81693Y65748D02*
X85433D01*
X81849Y77362D02*
X84921D01*
X41601Y92054D02*
Y95242D01*
X42226Y95866D01*
X43652D01*
X89535Y97787D02*
Y102222D01*
X88583Y103175D02*
Y103543D01*
Y103175D02*
X89535Y102222D01*
X86390Y102587D02*
Y105983D01*
X87567Y97787D02*
Y101409D01*
X86390Y102587D02*
X87567Y101409D01*
X89535Y97787D02*
X89567Y97756D01*
X87567Y97787D02*
X87598Y97756D01*
X86390Y105983D02*
X87598Y107192D01*
X97441Y109096D02*
X98425Y110080D01*
Y110449D01*
X97441Y97756D02*
Y109096D01*
X50362Y80740D02*
X52025D01*
X53175Y81890D01*
X53543D01*
X43898Y87205D02*
X50362Y80740D01*
X59646Y89775D02*
Y92667D01*
Y89775D02*
X60232Y89189D01*
X69898D01*
X128535Y72252D02*
X131496Y69291D01*
X133307D01*
X128535Y72252D02*
Y74063D01*
X128347Y74252D02*
X128535Y74063D01*
X51772Y98819D02*
Y104971D01*
Y92667D02*
Y98819D01*
X90935Y102372D02*
X91535Y101772D01*
X87598Y107192D02*
Y112205D01*
X90935Y102372D02*
Y129912D01*
X103543Y142520D01*
X93116Y103275D02*
X93338Y103053D01*
X92520Y109055D02*
X95419Y106156D01*
Y102589D02*
Y106156D01*
X91535Y97756D02*
Y101772D01*
X93338Y102356D02*
Y103053D01*
X95419Y102589D02*
X95472Y102535D01*
Y97756D02*
Y102535D01*
X93338Y102356D02*
X93504Y102190D01*
Y97756D02*
Y102190D01*
X71653Y80905D02*
X73946Y78613D01*
X70473Y80905D02*
X71653D01*
X73946Y75829D02*
Y78613D01*
X37402Y107283D02*
X39711Y104974D01*
Y103203D02*
Y104974D01*
Y103203D02*
X41142Y101772D01*
X36220Y107283D02*
X37402D01*
X41142Y101772D02*
X43652D01*
X80315Y98504D02*
X83740Y95079D01*
X80315Y98504D02*
Y101969D01*
X70079Y78347D02*
Y80512D01*
X70473Y80905D01*
X76772Y90901D02*
X78515Y89157D01*
X80921Y91339D02*
X81087Y91173D01*
X76575Y87205D02*
X84921D01*
X80921Y94201D02*
X81144D01*
X73165Y87008D02*
X74936Y85236D01*
X79801Y83836D02*
X80369Y83268D01*
X81552Y89157D02*
X81568Y89173D01*
X81087Y91173D02*
X84890D01*
X74936Y85236D02*
X84921D01*
X78515Y89157D02*
X81552D01*
X69420Y83836D02*
X79801D01*
X64173Y87008D02*
X73165D01*
X74803Y88976D02*
X76575Y87205D01*
X81144Y94201D02*
X82234Y93110D01*
X69291Y83965D02*
X69420Y83836D01*
X80369Y83268D02*
X84921D01*
X75362Y81331D02*
X84890D01*
X75197Y81496D02*
X75362Y81331D01*
X84890D02*
X84921Y81299D01*
X53150Y88558D02*
X53740Y89148D01*
Y92667D01*
X53150Y88189D02*
Y88558D01*
X84890Y75362D02*
X84921Y75394D01*
X77559Y77140D02*
X78145Y77726D01*
Y77977D02*
X79499Y79331D01*
X78145Y77726D02*
Y77977D01*
X79499Y79331D02*
X84921D01*
X69898Y89189D02*
X73228Y92520D01*
X111929Y79331D02*
X111961Y79299D01*
X58338Y122708D02*
X58465Y122835D01*
X55405Y116429D02*
X58338Y119361D01*
Y122708D01*
X55209Y116429D02*
X55405D01*
X55209Y113279D02*
Y116429D01*
X38780Y122835D02*
X39431Y122183D01*
Y119428D02*
Y122183D01*
X43898Y111811D02*
Y114961D01*
X39431Y119428D02*
X43898Y114961D01*
X49803Y107874D02*
X55209Y113279D01*
X133465Y142520D02*
X138189Y137795D01*
X103543Y142520D02*
X133465D01*
X99378Y97787D02*
Y107236D01*
X99622Y107480D01*
X101378Y97756D02*
Y105784D01*
X102591Y106997D01*
Y109677D01*
X102592Y109678D01*
X103387Y99256D02*
Y105814D01*
X105118Y107545D01*
Y107874D01*
X99378Y97787D02*
X99409Y97756D01*
X103378Y97796D02*
Y99247D01*
X103387Y99256D01*
X93307Y126797D02*
Y127165D01*
X92520Y126009D02*
X93307Y126797D01*
X92520Y109055D02*
Y126009D01*
X84252Y127165D02*
X101969Y144882D01*
X84252Y105905D02*
Y127165D01*
X101969Y144882D02*
X134646D01*
X140770Y138758D01*
X147076Y53515D02*
X147638Y52953D01*
X144095Y55118D02*
Y82284D01*
X145698Y53515D02*
X147076D01*
X144095Y55118D02*
X145698Y53515D01*
X140551Y85827D02*
X144095Y82284D01*
X152362Y52756D02*
Y81102D01*
X142520Y90945D02*
X152362Y81102D01*
X142520Y90945D02*
Y98819D01*
X140551Y85827D02*
Y96457D01*
X73228Y92520D02*
Y107874D01*
X74803Y102362D02*
X80315Y107874D01*
X74803Y88976D02*
Y102362D01*
X80315Y107874D02*
Y136479D01*
X76772Y90901D02*
Y101181D01*
X147638Y48031D02*
X152362Y52756D01*
X111670Y107011D02*
Y108520D01*
X111811Y108661D01*
X83740Y95079D02*
X84921D01*
X82234Y93110D02*
X84921D01*
X73228Y107874D02*
X76378Y111024D01*
X70866Y100787D02*
Y112598D01*
X67913Y97835D02*
X70866Y100787D01*
X78740Y138054D02*
Y139488D01*
Y138054D02*
X80315Y136479D01*
Y101969D02*
X84252Y105905D01*
X81568Y89173D02*
X84921D01*
X84890Y91173D02*
X84921Y91142D01*
X74016Y119685D02*
X77740D01*
X138189Y116260D02*
X147638Y106811D01*
X138189Y116260D02*
Y137795D01*
X38437Y88890D02*
Y88890D01*
X41601Y92054D01*
X37126Y87579D02*
X38437Y88890D01*
X36220Y87579D02*
X37126D01*
X49803Y104971D02*
Y107874D01*
X47835Y104971D02*
Y107874D01*
X43898Y111811D02*
X47835Y107874D01*
X45866Y100389D02*
Y104971D01*
X45280Y99803D02*
X45866Y100389D01*
X43652Y99803D02*
X45280D01*
X36220D02*
X43652D01*
X36220Y95098D02*
X36879Y95757D01*
X39851D01*
X41929Y97835D02*
X43652D01*
X39851Y95757D02*
X41929Y97835D01*
X43898Y87205D02*
Y92667D01*
X49803Y86614D02*
Y92667D01*
X68110Y113779D02*
X74016Y119685D01*
X61860Y97835D02*
X67913D01*
X68110Y102756D02*
Y113779D01*
X66929Y115773D02*
Y120472D01*
X65226Y114070D02*
X66929Y115773D01*
X65226Y103214D02*
Y114070D01*
X65158Y99803D02*
X68110Y102756D01*
X61860Y99803D02*
X65158D01*
X61860Y101772D02*
X63784D01*
X65226Y103214D01*
X110580Y105921D02*
X111670Y107011D01*
X110580Y105921D02*
Y105921D01*
X107283Y102624D02*
X110580Y105921D01*
X107283Y97756D02*
Y102624D01*
X111560Y103543D02*
X111811D01*
X109252Y101235D02*
X111560Y103543D01*
X123622Y95079D02*
X124016Y95472D01*
X109252Y67495D02*
Y70748D01*
X103347Y67795D02*
X105697Y65445D01*
X106012D02*
X106869Y64587D01*
X105697Y65445D02*
X106012D01*
X106869Y63406D02*
Y64587D01*
X88386Y47047D02*
X95472Y54134D01*
Y70748D01*
X112205Y33465D02*
X112402Y33268D01*
X118110D01*
X103347Y67795D02*
Y70748D01*
X109252Y97756D02*
Y101235D01*
X111929Y95079D02*
X123622D01*
X87598Y67913D02*
Y70748D01*
X85433Y65748D02*
X87598Y67913D01*
X86811Y35039D02*
Y44488D01*
X88386Y46063D01*
Y47047D01*
D19*
X146890Y26772D02*
D03*
X139370D02*
D03*
X11594Y31496D02*
D03*
X19114D02*
D03*
X11201Y38583D02*
D03*
X18721D02*
D03*
X24980Y31102D02*
D03*
X32500D02*
D03*
X45236Y134646D02*
D03*
X52756D02*
D03*
X32500Y38583D02*
D03*
X24980D02*
D03*
D20*
X43898Y104971D02*
D03*
Y92667D02*
D03*
X45866D02*
D03*
X47835D02*
D03*
X49803D02*
D03*
X51772D02*
D03*
X53740D02*
D03*
X55709D02*
D03*
X57677D02*
D03*
X59646D02*
D03*
X61614D02*
D03*
Y104971D02*
D03*
X59646D02*
D03*
X57677D02*
D03*
X55709D02*
D03*
X53740D02*
D03*
X51772D02*
D03*
X49803D02*
D03*
X47835D02*
D03*
X45866D02*
D03*
D21*
X43652Y101772D02*
D03*
Y99803D02*
D03*
Y97835D02*
D03*
Y95866D02*
D03*
X61860D02*
D03*
Y97835D02*
D03*
Y99803D02*
D03*
Y101772D02*
D03*
D22*
X50984Y122835D02*
D03*
X58465D02*
D03*
X126772Y112205D02*
D03*
X119291D02*
D03*
X127559Y26772D02*
D03*
X120079D02*
D03*
X49803Y86614D02*
D03*
X57284D02*
D03*
X39173Y122835D02*
D03*
X46654D02*
D03*
X148228Y78347D02*
D03*
X140748D02*
D03*
X86811Y35039D02*
D03*
X94291D02*
D03*
X126181Y89370D02*
D03*
X133661D02*
D03*
X133661Y82284D02*
D03*
X126181D02*
D03*
X106496Y35039D02*
D03*
X99016D02*
D03*
X87598Y112205D02*
D03*
X95079D02*
D03*
X87598Y119685D02*
D03*
X95079D02*
D03*
X63189Y67716D02*
D03*
X70669D02*
D03*
X106890Y57087D02*
D03*
X114370D02*
D03*
X106890Y63386D02*
D03*
X114370D02*
D03*
D23*
X127559Y33268D02*
D03*
D24*
X118110D02*
D03*
X127559Y38189D02*
D03*
Y43110D02*
D03*
Y48031D02*
D03*
X118110D02*
D03*
Y43110D02*
D03*
Y38189D02*
D03*
D25*
X126378Y74252D02*
D03*
X128347D02*
D03*
X130315D02*
D03*
Y64331D02*
D03*
X128347D02*
D03*
X126378D02*
D03*
D26*
X133307Y73228D02*
D03*
Y71260D02*
D03*
Y69291D02*
D03*
Y67323D02*
D03*
Y65354D02*
D03*
X123386D02*
D03*
Y67323D02*
D03*
Y69291D02*
D03*
Y71260D02*
D03*
Y73228D02*
D03*
D27*
X87598Y97756D02*
D03*
X89567D02*
D03*
X91535D02*
D03*
X93504D02*
D03*
X95472D02*
D03*
X97441D02*
D03*
X99409D02*
D03*
X101378D02*
D03*
X103347D02*
D03*
X105315D02*
D03*
X107283D02*
D03*
X109252D02*
D03*
Y70748D02*
D03*
X107283D02*
D03*
X105315D02*
D03*
X103347D02*
D03*
X101378D02*
D03*
X99409D02*
D03*
X97441D02*
D03*
X95472D02*
D03*
X93504D02*
D03*
X91535D02*
D03*
X89567D02*
D03*
X87598D02*
D03*
D28*
X84921Y73425D02*
D03*
Y75394D02*
D03*
Y77362D02*
D03*
Y79331D02*
D03*
Y81299D02*
D03*
Y83268D02*
D03*
Y85236D02*
D03*
Y87205D02*
D03*
Y89173D02*
D03*
Y91142D02*
D03*
Y93110D02*
D03*
Y95079D02*
D03*
X111929D02*
D03*
Y93110D02*
D03*
Y91142D02*
D03*
Y89173D02*
D03*
Y87205D02*
D03*
Y85236D02*
D03*
Y83268D02*
D03*
Y81299D02*
D03*
Y79331D02*
D03*
Y77362D02*
D03*
Y75394D02*
D03*
Y73425D02*
D03*
D29*
X88386Y46063D02*
D03*
X104527D02*
D03*
D30*
X43898Y113386D02*
D03*
X53740D02*
D03*
D31*
X36220Y95098D02*
D03*
Y87579D02*
D03*
D32*
X28346Y99803D02*
D03*
Y107283D02*
D03*
X36220Y99803D02*
D03*
Y107283D02*
D03*
X70473Y73425D02*
D03*
Y80905D02*
D03*
X63779Y73425D02*
D03*
Y80905D02*
D03*
X131890Y95079D02*
D03*
Y102559D02*
D03*
X124016Y95079D02*
D03*
Y102559D02*
D03*
D33*
X25870Y146457D02*
D03*
X52870D02*
D03*
D34*
X43307Y46831D02*
D03*
Y72067D02*
D03*
D61*
X98425Y84252D02*
D03*
D62*
X53819Y27972D02*
X62992Y37146D01*
Y50000D01*
X68110Y32264D02*
Y49606D01*
X63819Y27972D02*
X68110Y32264D01*
X60236Y67716D02*
X62598D01*
X74016Y28169D02*
Y49606D01*
X73819Y27972D02*
X74016Y28169D01*
X73819Y27972D02*
Y29271D01*
X79134Y32658D02*
Y49606D01*
Y32658D02*
X83819Y27972D01*
X70669Y67716D02*
Y68808D01*
X70041Y69436D02*
X70669Y68808D01*
X67323Y67716D02*
X70669D01*
X114961Y117717D02*
X119291Y113386D01*
X18721Y38583D02*
X24980D01*
X95707Y119319D02*
X99213D01*
X95707Y119291D02*
Y119319D01*
X114998Y64936D02*
X116214D01*
X114370Y57087D02*
Y64309D01*
X114998Y64936D01*
X114370Y57087D02*
X118467D01*
X118861Y57480D01*
X119095D01*
X126181Y88309D02*
Y89370D01*
X129688Y86732D02*
X129921D01*
X126809Y87682D02*
X128739D01*
X126181Y88309D02*
X126809Y87682D01*
X128739D02*
X129688Y86732D01*
X126181Y88309D02*
Y89370D01*
Y82284D02*
Y87561D01*
Y82284D02*
X126181Y82284D01*
X112205Y38189D02*
X118110D01*
X112402Y43110D02*
X118110D01*
X127953Y102559D02*
X127953Y102559D01*
X127953Y102559D01*
X131890D01*
X124016D02*
X127953D01*
X70473Y73425D02*
X70789Y73109D01*
X28346Y99803D02*
Y102665D01*
X29225Y103543D02*
X36220D01*
X28346Y102665D02*
X29225Y103543D01*
X57284Y86614D02*
X57513Y86385D01*
X60466D01*
X95079Y119919D02*
X95707Y119291D01*
X132283Y38189D02*
X132677Y38583D01*
X95079Y119685D02*
Y119919D01*
Y113779D02*
Y119685D01*
X48819Y122835D02*
X50984D01*
X46654D02*
X48819D01*
X32283Y107283D02*
X36220D01*
X28346D02*
X32283D01*
X66142Y73425D02*
X70473D01*
X11398Y31693D02*
Y38386D01*
Y31693D02*
X11594Y31496D01*
X11201Y38583D02*
X11398Y38386D01*
X98917Y31201D02*
Y34941D01*
X98819Y31102D02*
X98917Y31201D01*
Y34941D02*
X99016Y35039D01*
X94291D02*
X99016D01*
X115748Y26378D02*
X116142Y26772D01*
X120079D01*
X127559Y38189D02*
X132283D01*
X127559Y43110D02*
X132480D01*
X127559Y38189D02*
Y43110D01*
X134055Y82677D02*
X136221D01*
X133661Y82284D02*
X134055Y82677D01*
X133661Y82284D02*
X133661Y82284D01*
X133661Y82284D02*
Y89370D01*
X133307Y69291D02*
X136221D01*
X133307Y71260D02*
Y73228D01*
Y69291D02*
Y71260D01*
Y67323D02*
Y69291D01*
Y65354D02*
Y67323D01*
X95707Y113386D02*
X98819D01*
X95079Y112758D02*
X95707Y113386D01*
X95079Y112205D02*
Y112758D01*
X119291Y112205D02*
Y113386D01*
X25870Y146457D02*
X25984Y146571D01*
Y150394D01*
X25083Y145669D02*
X25870Y146457D01*
X147933Y63090D02*
Y78051D01*
X148228Y78347D01*
X147638Y62795D02*
X147933Y63090D01*
X63779Y80905D02*
Y83236D01*
Y80905D02*
X63779Y80905D01*
X28900Y100356D02*
X30081D01*
X136578Y95079D02*
X136775Y94882D01*
X131890Y95079D02*
X136578D01*
X124016D02*
X131890D01*
X136775Y94882D02*
X137008D01*
X87500Y119783D02*
X87598Y119685D01*
X87500Y119783D02*
Y124705D01*
X87402Y124803D02*
X87500Y124705D01*
X28346Y99803D02*
X28900Y100356D01*
X30081D02*
X30156Y100431D01*
Y99847D02*
X36176D01*
X30081Y99922D02*
X30156Y99847D01*
X36176D02*
X36220Y99803D01*
Y87579D02*
X36470Y87330D01*
Y84396D02*
Y87330D01*
X38208Y82658D02*
X40171D01*
X36470Y84396D02*
X38208Y82658D01*
X52756Y134646D02*
X59055D01*
X106890Y57087D02*
Y63386D01*
Y55905D02*
Y57087D01*
X63779Y73425D02*
X66142D01*
X111083Y52527D02*
X111248Y52362D01*
X106890Y55905D02*
X110268Y52527D01*
X111083D01*
X127559Y26772D02*
Y33268D01*
X128187Y25978D02*
X130308D01*
X132283Y27953D02*
Y29921D01*
X130308Y25978D02*
X132283Y27953D01*
X45256Y128760D02*
Y133839D01*
X45236Y133858D02*
X45256Y133839D01*
Y128760D02*
X45276Y128740D01*
X52756Y146343D02*
X52870Y146457D01*
X52756Y134646D02*
Y146343D01*
X87598Y112205D02*
Y119685D01*
X63189Y67716D02*
Y72835D01*
X65551D02*
X66142Y73425D01*
X19508Y31102D02*
X24980D01*
X19114Y31496D02*
X19508Y31102D01*
X32500Y38583D02*
Y39488D01*
X37207Y44195D01*
X40671D01*
X43307Y46831D01*
D63*
X34843Y54528D02*
X79724D01*
X89567Y64370D01*
X28740Y48425D02*
X34843Y54528D01*
X28740Y35768D02*
Y48425D01*
Y35768D02*
X32500Y32008D01*
X89567Y64370D02*
Y70748D01*
X97441Y54134D02*
Y70748D01*
Y54134D02*
X104528Y47047D01*
X130315Y76772D02*
X131890Y78347D01*
X130315Y74252D02*
Y76772D01*
X131890Y78347D02*
X140748D01*
X126181Y82284D02*
X126378Y82087D01*
Y74252D02*
Y82087D01*
X104528Y46063D02*
X106496Y44094D01*
Y35039D02*
Y44094D01*
X104528Y46063D02*
Y47047D01*
X32500Y31102D02*
Y32008D01*
D64*
X94114Y5118D02*
X104114D01*
X84114D02*
X94114D01*
X74114D02*
X84114D01*
X64114D02*
X74114D01*
X54114D02*
X64114D01*
X94114Y15118D02*
X104114D01*
X84114D02*
X94114D01*
X74114D02*
X84114D01*
X64114D02*
X74114D01*
X54114D02*
X64114D01*
X126772Y112205D02*
Y135433D01*
D65*
X104114Y5118D02*
D03*
X94114D02*
D03*
X84114D02*
D03*
X74114D02*
D03*
X64114D02*
D03*
X54114D02*
D03*
Y15118D02*
D03*
X64114D02*
D03*
X74114D02*
D03*
X84114D02*
D03*
X94114D02*
D03*
X104114D02*
D03*
Y25118D02*
D03*
X94114D02*
D03*
X84114D02*
D03*
X74114D02*
D03*
X64114D02*
D03*
X147638Y106811D02*
D03*
Y116811D02*
D03*
Y126811D02*
D03*
X88740Y149488D02*
D03*
X78740D02*
D03*
X68740D02*
D03*
Y139488D02*
D03*
X78740D02*
D03*
X88740Y139488D02*
D03*
D66*
X54114Y25118D02*
D03*
D67*
X9843Y9843D02*
D03*
X147638D02*
D03*
X147244Y147638D02*
D03*
X9843D02*
D03*
D68*
X23228Y9055D02*
D03*
D69*
X33228D02*
D03*
X18110Y55748D02*
D03*
X107087Y135433D02*
D03*
X126772D02*
D03*
D70*
X18110Y65748D02*
D03*
D71*
X147638Y96811D02*
D03*
D72*
X9843Y120079D02*
D03*
X147638Y43110D02*
D03*
D73*
X9843Y115157D02*
D03*
Y110236D02*
D03*
Y105315D02*
D03*
Y100394D02*
D03*
X147638Y48031D02*
D03*
Y52953D02*
D03*
Y57874D02*
D03*
Y62795D02*
D03*
D74*
X139370Y33465D02*
D03*
X115945Y87205D02*
D03*
X118504Y88961D02*
D03*
X59303Y41587D02*
D03*
Y59055D02*
D03*
X60236Y67716D02*
D03*
X74016Y49606D02*
D03*
X79134D02*
D03*
X72047Y61811D02*
D03*
X67323Y67716D02*
D03*
X114961Y117717D02*
D03*
X99213Y119319D02*
D03*
X120357Y66979D02*
D03*
X120607Y69831D02*
D03*
X116214Y64936D02*
D03*
X118012Y71040D02*
D03*
X115842Y75046D02*
D03*
X68110Y49606D02*
D03*
X91339Y62598D02*
D03*
X80890Y76975D02*
D03*
X21457Y71260D02*
D03*
X48031Y32087D02*
D03*
X62992Y50000D02*
D03*
X93807Y46063D02*
D03*
X112926Y68438D02*
D03*
X116519Y77827D02*
D03*
X115945Y81087D02*
D03*
X122638Y92020D02*
D03*
X100287Y55118D02*
D03*
X109804Y66628D02*
D03*
X119095Y57480D02*
D03*
X123196Y82217D02*
D03*
X118658Y82677D02*
D03*
X129921Y86732D02*
D03*
X122810Y88976D02*
D03*
X132874Y53740D02*
D03*
X112205Y38189D02*
D03*
X112402Y43110D02*
D03*
X128740Y68110D02*
D03*
X124409Y59842D02*
D03*
X127953Y102559D02*
D03*
X130709Y114173D02*
D03*
X112894Y99902D02*
D03*
X103543Y61811D02*
D03*
X132283Y29921D02*
D03*
X36220Y103543D02*
D03*
X88583D02*
D03*
X98425Y110449D02*
D03*
X44291Y82087D02*
D03*
X53543Y81890D02*
D03*
X60466Y86385D02*
D03*
X98032Y47638D02*
D03*
X136221Y75984D02*
D03*
X13386Y50394D02*
D03*
X12992Y42520D02*
D03*
Y46457D02*
D03*
X9449Y42520D02*
D03*
Y46457D02*
D03*
Y50394D02*
D03*
X93116Y103275D02*
D03*
X98819Y31102D02*
D03*
X115748Y26378D02*
D03*
X132712Y38403D02*
D03*
X132677Y43307D02*
D03*
X136221Y82677D02*
D03*
Y69291D02*
D03*
X25984Y150394D02*
D03*
X48819Y122835D02*
D03*
X32283Y107283D02*
D03*
X51772Y98819D02*
D03*
X70079Y78347D02*
D03*
X80921Y91339D02*
D03*
Y94201D02*
D03*
X69291Y83965D02*
D03*
X75197Y81496D02*
D03*
X63779Y83236D02*
D03*
X53150Y88189D02*
D03*
X77559Y77140D02*
D03*
X64173Y87008D02*
D03*
X99622Y107480D02*
D03*
X102592Y109678D02*
D03*
X105118Y107874D02*
D03*
X93307Y127165D02*
D03*
X137008Y94882D02*
D03*
X119291Y106693D02*
D03*
X111811Y108661D02*
D03*
X94095Y41732D02*
D03*
X87402Y124803D02*
D03*
X77740Y119685D02*
D03*
X40171Y82658D02*
D03*
X76378Y111024D02*
D03*
X70866Y112598D02*
D03*
X61417Y116142D02*
D03*
X66929Y120472D02*
D03*
X107874Y111417D02*
D03*
X59055Y134646D02*
D03*
X111811Y103543D02*
D03*
X111248Y52362D02*
D03*
X112205Y33465D02*
D03*
X45276Y128740D02*
D03*
X51575Y40945D02*
D03*
Y34646D02*
D03*
X48425D02*
D03*
X51575Y37795D02*
D03*
X48425D02*
D03*
X26772Y71653D02*
D03*
X16535D02*
D03*
Y75197D02*
D03*
X21654D02*
D03*
X26772D02*
D03*
M02*
