M48
;Layer_Color=9474304
;FILE_FORMAT=2:5
INCH,LZ
;TYPE=PLATED
T1F00S00C0.01378
T2F00S00C0.01417
T3F00S00C0.02165
T4F00S00C0.03150
T5F00S00C0.03543
T6F00S00C0.03937
T7F00S00C0.12598
%
T01
X0009449Y004252
X0012992
Y0046457
X0009449
Y0050394
X0013386
X0048425Y0037795
X0051575
Y0034646
X0048425
X0048031Y0032087
X0059303Y0041587
X0062992Y005
X006811Y0049606
X0074016
X0079134
X0093807Y0046063
X0094095Y0041732
X0098032Y0047638
X0100287Y0055118
X0112402Y004311
X0112205Y0038189
Y0033465
X013937
X0132874Y005374
X0124409Y0059842
X0120357Y0066979
X0120607Y0069831
X0118012Y007104
X0115842Y0075046
X0116519Y0077827
X0115945Y0081087
X0118658Y0082677
X0118504Y0088961
X0115945Y0087205
X012281Y0088976
X0122638Y009202
X0112894Y0099902
X0111811Y0103543
Y0108661
X0107874Y0111417
X0105118Y0107874
X0102592Y0109678
X0098425Y0110449
X0099622Y010748
X0093116Y0103275
X0080921Y0094201
Y0091339
X008089Y0076975
X0077559Y007714
X0075197Y0081496
X0070079Y0078347
X0069291Y0083965
X0063779Y0083236
X0064173Y0087008
X0060466Y0086385
X0067323Y0067716
X0072047Y0061811
X0059303Y0059055
X0091339Y0062598
X0103543Y0061811
X0109804Y0066628
X0112926Y0068438
X012874Y006811
X0130709Y0114173
X0119291Y0106693
X0093307Y0127165
X007774Y0119685
X0066929Y0120472
X0061417Y0116142
X0070866Y0112598
X0059055Y0134646
X0053543Y008189
X0044291Y0082087
X0026772Y0075197
Y0071653
X0021457Y007126
X0021654Y0075197
X0016535
Y0071653
T02
X0051575Y0040945
X0098819Y0031102
X0115748Y0026378
X0132283Y0029921
X0132712Y0038403
X0132677Y0043307
X0111248Y0052362
X0119095Y005748
X0116214Y0064936
X0123196Y0082217
X0129921Y0086732
X0136221Y0082677
Y0075984
Y0069291
X0137008Y0094882
X0127953Y0102559
X0114961Y0117717
X0099213Y0119319
X0087402Y0124803
X0088583Y0103543
X0076378Y0111024
X0060236Y0067716
X005315Y0088189
X0051772Y0098819
X003622Y0103543
X0032283Y0107283
X0048819Y0122835
X0045276Y012874
X0025984Y0150394
X0040171Y0082658
T03
X0147638Y004311
Y0048031
Y0052953
Y0057874
Y0062795
X0009843Y0100394
Y0105315
Y0110236
Y0115157
Y0120079
T04
X0107087Y0135433
X0126772
T05
X0023228Y0009055
X0033228
X0054114Y0005118
Y0015118
Y0025118
X001811Y0055748
X0064114Y0025118
Y0015118
Y0005118
X0074114
X0084114
X0094114
X0104114
Y0015118
X0094114
X0084114
X0074114
Y0025118
X0084114
X0094114
X0104114
X0147638Y0096811
Y0106811
Y0116811
Y0126811
X001811Y0065748
T06
X006874Y0139488
Y0149488
X007874
X008874
Y0139488
X007874Y0139488
T07
X0009843Y0009843
X0147638
X0147244Y0147638
X0009843
M30
