G04*
G04 #@! TF.GenerationSoftware,Altium Limited,Altium Designer,22.10.1 (41)*
G04*
G04 Layer_Color=37055*
%FSLAX25Y25*%
%MOIN*%
G70*
G04*
G04 #@! TF.SameCoordinates,0245A464-56C0-4E7C-B2BA-3340792428E8*
G04*
G04*
G04 #@! TF.FilePolarity,Positive*
G04*
G01*
G75*
%ADD10C,0.00394*%
%ADD106C,0.00197*%
%ADD107C,0.00200*%
%ADD108C,0.00449*%
D10*
X121711Y75487D02*
X132677D01*
Y81179D01*
X121711Y75487D02*
Y81179D01*
X132677D01*
X132475D02*
X132677D01*
X35097Y75093D02*
X46063D01*
Y80785D01*
X35097Y75093D02*
Y80785D01*
X46063D01*
X45861D02*
X46063D01*
X35039Y43017D02*
X46006D01*
X35039Y37325D02*
Y43017D01*
X46006Y37325D02*
Y43017D01*
X35039Y37325D02*
X46006D01*
X35039D02*
X35241D01*
X127455Y81890D02*
Y92856D01*
Y81890D02*
X133147D01*
X127455Y92856D02*
X133147D01*
Y81890D02*
Y92856D01*
Y81890D02*
Y82092D01*
X88583Y59553D02*
X99549D01*
X88583Y53861D02*
Y59553D01*
X99549Y53861D02*
Y59553D01*
X88583Y53861D02*
X99549D01*
X88583D02*
X88785D01*
X35097Y83361D02*
X46063D01*
Y89053D01*
X35097Y83361D02*
Y89053D01*
X46063D01*
X45861D02*
X46063D01*
X35039Y35143D02*
X46006D01*
X35039Y29451D02*
Y35143D01*
X46006Y29451D02*
Y35143D01*
X35039Y29451D02*
X46006D01*
X35039D02*
X35241D01*
D106*
X33661Y73238D02*
X67126D01*
X33661Y45659D02*
X67126D01*
X33661D02*
Y73238D01*
X67126Y45659D02*
Y73238D01*
X132913Y128779D02*
X140315D01*
Y115669D02*
Y128779D01*
X132913Y115669D02*
Y128779D01*
Y115669D02*
X140315D01*
X60472Y69429D02*
X67874D01*
X60472D02*
Y82539D01*
X67874Y69429D02*
Y82539D01*
X60472D02*
X67874D01*
D107*
X116602Y130012D02*
X133791D01*
Y114083D02*
Y130012D01*
X116602Y114083D02*
X133791D01*
X116602D02*
Y130012D01*
D108*
X96990Y54707D02*
X95990Y53708D01*
X93991D01*
X92991Y54707D01*
Y58706D01*
X93991Y59706D01*
X95990D01*
X96990Y58706D01*
X98989Y59706D02*
X100989D01*
X99989D01*
Y53708D01*
X98989Y54707D01*
X107986Y59706D02*
X103988D01*
X107986Y55707D01*
Y54707D01*
X106987Y53708D01*
X104988D01*
X103988Y54707D01*
X124270Y80332D02*
X125269Y81332D01*
X127269D01*
X128269Y80332D01*
Y76333D01*
X127269Y75334D01*
X125269D01*
X124270Y76333D01*
X122270Y75334D02*
X120271D01*
X121271D01*
Y81332D01*
X122270Y80332D01*
X113273Y81332D02*
X117272D01*
Y78333D01*
X115273Y79332D01*
X114273D01*
X113273Y78333D01*
Y76333D01*
X114273Y75334D01*
X116272D01*
X117272Y76333D01*
X44543Y56245D02*
Y59525D01*
X45199Y60181D01*
X46511D01*
X47167Y59525D01*
Y56245D01*
X51103D02*
X48479D01*
Y58213D01*
X49791Y57557D01*
X50447D01*
X51103Y58213D01*
Y59525D01*
X50447Y60181D01*
X49135D01*
X48479Y59525D01*
X137740Y123744D02*
X133804D01*
Y121776D01*
X134460Y121120D01*
X135772D01*
X136428Y121776D01*
Y123744D01*
Y122432D02*
X137740Y121120D01*
Y119808D02*
Y118497D01*
Y119152D01*
X133804D01*
X134460Y119808D01*
X63047Y74465D02*
X66983D01*
Y76432D01*
X66327Y77088D01*
X65015D01*
X64359Y76432D01*
Y74465D01*
Y75776D02*
X63047Y77088D01*
Y80368D02*
X66983D01*
X65015Y78400D01*
Y81024D01*
X38155Y79938D02*
X39155Y80938D01*
X41155D01*
X42154Y79938D01*
Y75940D01*
X41155Y74940D01*
X39155D01*
X38155Y75940D01*
X32157Y74940D02*
X36156D01*
X32157Y78939D01*
Y79938D01*
X33157Y80938D01*
X35156D01*
X36156Y79938D01*
X30158D02*
X29158Y80938D01*
X27159D01*
X26159Y79938D01*
Y78939D01*
X27159Y77939D01*
X28159D01*
X27159D01*
X26159Y76939D01*
Y75940D01*
X27159Y74940D01*
X29158D01*
X30158Y75940D01*
X42947Y38172D02*
X41947Y37172D01*
X39948D01*
X38948Y38172D01*
Y42171D01*
X39948Y43170D01*
X41947D01*
X42947Y42171D01*
X48945Y43170D02*
X44946D01*
X48945Y39171D01*
Y38172D01*
X47945Y37172D01*
X45946D01*
X44946Y38172D01*
X54943Y37172D02*
X50944D01*
Y40171D01*
X52944Y39171D01*
X53943D01*
X54943Y40171D01*
Y42171D01*
X53943Y43170D01*
X51944D01*
X50944Y42171D01*
X132300Y90297D02*
X133300Y89297D01*
Y87298D01*
X132300Y86298D01*
X128302D01*
X127302Y87298D01*
Y89297D01*
X128302Y90297D01*
X127302Y92296D02*
Y94296D01*
Y93296D01*
X133300D01*
X132300Y92296D01*
Y97295D02*
X133300Y98295D01*
Y100294D01*
X132300Y101294D01*
X128302D01*
X127302Y100294D01*
Y98295D01*
X128302Y97295D01*
X132300D01*
X38155Y88206D02*
X39155Y89206D01*
X41155D01*
X42154Y88206D01*
Y84207D01*
X41155Y83208D01*
X39155D01*
X38155Y84207D01*
X32157Y83208D02*
X36156D01*
X32157Y87206D01*
Y88206D01*
X33157Y89206D01*
X35156D01*
X36156Y88206D01*
X27159Y83208D02*
Y89206D01*
X30158Y86207D01*
X26159D01*
X42947Y30298D02*
X41947Y29298D01*
X39948D01*
X38948Y30298D01*
Y34297D01*
X39948Y35296D01*
X41947D01*
X42947Y34297D01*
X48945Y35296D02*
X44946D01*
X48945Y31298D01*
Y30298D01*
X47945Y29298D01*
X45946D01*
X44946Y30298D01*
X54943Y29298D02*
X52944Y30298D01*
X50944Y32297D01*
Y34297D01*
X51944Y35296D01*
X53943D01*
X54943Y34297D01*
Y33297D01*
X53943Y32297D01*
X50944D01*
X126060Y120943D02*
X123437D01*
X122781Y121599D01*
Y122911D01*
X123437Y123567D01*
X126060D01*
X126716Y122911D01*
Y121599D01*
X125405Y122255D02*
X126716Y120943D01*
Y121599D02*
X126060Y120943D01*
X126716Y119631D02*
Y118319D01*
Y118975D01*
X122781D01*
X123437Y119631D01*
M02*
