G04*
G04 #@! TF.GenerationSoftware,Altium Limited,Altium Designer,22.10.1 (41)*
G04*
G04 Layer_Color=2752767*
%FSLAX25Y25*%
%MOIN*%
G70*
G04*
G04 #@! TF.SameCoordinates,0245A464-56C0-4E7C-B2BA-3340792428E8*
G04*
G04*
G04 #@! TF.FilePolarity,Positive*
G04*
G01*
G75*
%ADD107C,0.00200*%
%ADD109C,0.00267*%
D107*
X104114Y4318D02*
X104514Y4718D01*
X104914D01*
X104514Y5118D01*
X104914Y5518D01*
X104514D01*
X104114Y5918D01*
X103714Y5518D01*
X103314D01*
X103714Y5118D01*
X103314Y4718D01*
X103714D01*
X104114Y4318D01*
X94114D02*
X94514Y4718D01*
X94914D01*
X94514Y5118D01*
X94914Y5518D01*
X94514D01*
X94114Y5918D01*
X93714Y5518D01*
X93314D01*
X93714Y5118D01*
X93314Y4718D01*
X93714D01*
X94114Y4318D01*
X84114D02*
X84514Y4718D01*
X84914D01*
X84514Y5118D01*
X84914Y5518D01*
X84514D01*
X84114Y5918D01*
X83714Y5518D01*
X83314D01*
X83714Y5118D01*
X83314Y4718D01*
X83714D01*
X84114Y4318D01*
X74114D02*
X74514Y4718D01*
X74914D01*
X74514Y5118D01*
X74914Y5518D01*
X74514D01*
X74114Y5918D01*
X73714Y5518D01*
X73314D01*
X73714Y5118D01*
X73314Y4718D01*
X73714D01*
X74114Y4318D01*
X64114D02*
X64514Y4718D01*
X64914D01*
X64514Y5118D01*
X64914Y5518D01*
X64514D01*
X64114Y5918D01*
X63714Y5518D01*
X63314D01*
X63714Y5118D01*
X63314Y4718D01*
X63714D01*
X64114Y4318D01*
X54114D02*
X54514Y4718D01*
X54914D01*
X54514Y5118D01*
X54914Y5518D01*
X54514D01*
X54114Y5918D01*
X53714Y5518D01*
X53314D01*
X53714Y5118D01*
X53314Y4718D01*
X53714D01*
X54114Y4318D01*
Y14318D02*
X54514Y14718D01*
X54914D01*
X54514Y15118D01*
X54914Y15518D01*
X54514D01*
X54114Y15918D01*
X53714Y15518D01*
X53314D01*
X53714Y15118D01*
X53314Y14718D01*
X53714D01*
X54114Y14318D01*
X64114D02*
X64514Y14718D01*
X64914D01*
X64514Y15118D01*
X64914Y15518D01*
X64514D01*
X64114Y15918D01*
X63714Y15518D01*
X63314D01*
X63714Y15118D01*
X63314Y14718D01*
X63714D01*
X64114Y14318D01*
X74114D02*
X74514Y14718D01*
X74914D01*
X74514Y15118D01*
X74914Y15518D01*
X74514D01*
X74114Y15918D01*
X73714Y15518D01*
X73314D01*
X73714Y15118D01*
X73314Y14718D01*
X73714D01*
X74114Y14318D01*
X84114D02*
X84514Y14718D01*
X84914D01*
X84514Y15118D01*
X84914Y15518D01*
X84514D01*
X84114Y15918D01*
X83714Y15518D01*
X83314D01*
X83714Y15118D01*
X83314Y14718D01*
X83714D01*
X84114Y14318D01*
X94114D02*
X94514Y14718D01*
X94914D01*
X94514Y15118D01*
X94914Y15518D01*
X94514D01*
X94114Y15918D01*
X93714Y15518D01*
X93314D01*
X93714Y15118D01*
X93314Y14718D01*
X93714D01*
X94114Y14318D01*
X104114D02*
X104514Y14718D01*
X104914D01*
X104514Y15118D01*
X104914Y15518D01*
X104514D01*
X104114Y15918D01*
X103714Y15518D01*
X103314D01*
X103714Y15118D01*
X103314Y14718D01*
X103714D01*
X104114Y14318D01*
Y24318D02*
X104514Y24718D01*
X104914D01*
X104514Y25118D01*
X104914Y25518D01*
X104514D01*
X104114Y25918D01*
X103714Y25518D01*
X103314D01*
X103714Y25118D01*
X103314Y24718D01*
X103714D01*
X104114Y24318D01*
X94114D02*
X94514Y24718D01*
X94914D01*
X94514Y25118D01*
X94914Y25518D01*
X94514D01*
X94114Y25918D01*
X93714Y25518D01*
X93314D01*
X93714Y25118D01*
X93314Y24718D01*
X93714D01*
X94114Y24318D01*
X84114D02*
X84514Y24718D01*
X84914D01*
X84514Y25118D01*
X84914Y25518D01*
X84514D01*
X84114Y25918D01*
X83714Y25518D01*
X83314D01*
X83714Y25118D01*
X83314Y24718D01*
X83714D01*
X84114Y24318D01*
X74114D02*
X74514Y24718D01*
X74914D01*
X74514Y25118D01*
X74914Y25518D01*
X74514D01*
X74114Y25918D01*
X73714Y25518D01*
X73314D01*
X73714Y25118D01*
X73314Y24718D01*
X73714D01*
X74114Y24318D01*
X64114D02*
X64514Y24718D01*
X64914D01*
X64514Y25118D01*
X64914Y25518D01*
X64514D01*
X64114Y25918D01*
X63714Y25518D01*
X63314D01*
X63714Y25118D01*
X63314Y24718D01*
X63714D01*
X64114Y24318D01*
X54114D02*
X54514Y24718D01*
X54914D01*
X54514Y25118D01*
X54914Y25518D01*
X54514D01*
X54114Y25918D01*
X53714Y25518D01*
X53314D01*
X53714Y25118D01*
X53314Y24718D01*
X53714D01*
X54114Y24318D01*
X9042Y9843D02*
X9843Y10643D01*
X10643Y9843D01*
X9843Y9042D01*
X9042Y9843D01*
X23228Y8255D02*
X23628Y8655D01*
X24028D01*
X23628Y9055D01*
X24028Y9455D01*
X23628D01*
X23228Y9855D01*
X22828Y9455D01*
X22428D01*
X22828Y9055D01*
X22428Y8655D01*
X22828D01*
X23228Y8255D01*
X33228D02*
X33628Y8655D01*
X34028D01*
X33628Y9055D01*
X34028Y9455D01*
X33628D01*
X33228Y9855D01*
X32828Y9455D01*
X32428D01*
X32828Y9055D01*
X32428Y8655D01*
X32828D01*
X33228Y8255D01*
X146838Y9843D02*
X147638Y10643D01*
X148438Y9843D01*
X147638Y9042D01*
X146838Y9843D01*
X146444Y147638D02*
X147244Y148438D01*
X148044Y147638D01*
X147244Y146838D01*
X146444Y147638D01*
X9042D02*
X9843Y148438D01*
X10643Y147638D01*
X9843Y146838D01*
X9042Y147638D01*
X18110Y54948D02*
X18510Y55348D01*
X18910D01*
X18510Y55748D01*
X18910Y56148D01*
X18510D01*
X18110Y56548D01*
X17710Y56148D01*
X17310D01*
X17710Y55748D01*
X17310Y55348D01*
X17710D01*
X18110Y54948D01*
Y64948D02*
X18510Y65348D01*
X18910D01*
X18510Y65748D01*
X18910Y66148D01*
X18510D01*
X18110Y66548D01*
X17710Y66148D01*
X17310D01*
X17710Y65748D01*
X17310Y65348D01*
X17710D01*
X18110Y64948D01*
X147638Y96011D02*
X148038Y96411D01*
X148438D01*
X148038Y96811D01*
X148438Y97211D01*
X148038D01*
X147638Y97611D01*
X147238Y97211D01*
X146838D01*
X147238Y96811D01*
X146838Y96411D01*
X147238D01*
X147638Y96011D01*
Y106011D02*
X148038Y106411D01*
X148438D01*
X148038Y106811D01*
X148438Y107211D01*
X148038D01*
X147638Y107611D01*
X147238Y107211D01*
X146838D01*
X147238Y106811D01*
X146838Y106411D01*
X147238D01*
X147638Y106011D01*
Y116011D02*
X148038Y116411D01*
X148438D01*
X148038Y116811D01*
X148438Y117211D01*
X148038D01*
X147638Y117611D01*
X147238Y117211D01*
X146838D01*
X147238Y116811D01*
X146838Y116411D01*
X147238D01*
X147638Y116011D01*
Y126011D02*
X148038Y126411D01*
X148438D01*
X148038Y126811D01*
X148438Y127211D01*
X148038D01*
X147638Y127611D01*
X147238Y127211D01*
X146838D01*
X147238Y126811D01*
X146838Y126411D01*
X147238D01*
X147638Y126011D01*
X9843Y119279D02*
X9042Y120879D01*
X10643D01*
X9843Y119279D01*
Y114357D02*
X9042Y115957D01*
X10643D01*
X9843Y114357D01*
Y109436D02*
X9042Y111036D01*
X10643D01*
X9843Y109436D01*
Y104515D02*
X9042Y106115D01*
X10643D01*
X9843Y104515D01*
Y99594D02*
X9042Y101194D01*
X10643D01*
X9843Y99594D01*
X147638Y42310D02*
X146838Y43910D01*
X148438D01*
X147638Y42310D01*
Y47232D02*
X146838Y48831D01*
X148438D01*
X147638Y47232D01*
Y52153D02*
X146838Y53753D01*
X148438D01*
X147638Y52153D01*
Y57074D02*
X146838Y58674D01*
X148438D01*
X147638Y57074D01*
Y61995D02*
X146838Y63595D01*
X148438D01*
X147638Y61995D01*
X106287Y134633D02*
Y136233D01*
X107887D01*
Y134633D01*
X106287D01*
X125972D02*
Y136233D01*
X127572D01*
Y134633D01*
X125972D01*
X138970Y33065D02*
Y32665D01*
X139770D01*
Y33065D01*
X140170D01*
Y33865D01*
X139770D01*
Y34265D01*
X138970D01*
Y33865D01*
X138570D01*
Y33065D01*
X138970D01*
X115545Y86805D02*
Y86405D01*
X116345D01*
Y86805D01*
X116745D01*
Y87605D01*
X116345D01*
Y88005D01*
X115545D01*
Y87605D01*
X115145D01*
Y86805D01*
X115545D01*
X118104Y88561D02*
Y88161D01*
X118904D01*
Y88561D01*
X119304D01*
Y89361D01*
X118904D01*
Y89761D01*
X118104D01*
Y89361D01*
X117704D01*
Y88561D01*
X118104D01*
X58903Y41187D02*
Y40787D01*
X59703D01*
Y41187D01*
X60103D01*
Y41987D01*
X59703D01*
Y42387D01*
X58903D01*
Y41987D01*
X58503D01*
Y41187D01*
X58903D01*
Y58655D02*
Y58255D01*
X59703D01*
Y58655D01*
X60103D01*
Y59455D01*
X59703D01*
Y59855D01*
X58903D01*
Y59455D01*
X58503D01*
Y58655D01*
X58903D01*
X59436Y66917D02*
X59836D01*
X60236Y67317D01*
X60636Y66917D01*
X61036D01*
Y67317D01*
X60636Y67716D01*
X61036Y68116D01*
Y68516D01*
X60636D01*
X60236Y68116D01*
X59836Y68516D01*
X59436D01*
Y68116D01*
X59836Y67716D01*
X59436Y67317D01*
Y66917D01*
X73616Y49206D02*
Y48806D01*
X74416D01*
Y49206D01*
X74816D01*
Y50006D01*
X74416D01*
Y50406D01*
X73616D01*
Y50006D01*
X73216D01*
Y49206D01*
X73616D01*
X78734D02*
Y48806D01*
X79534D01*
Y49206D01*
X79934D01*
Y50006D01*
X79534D01*
Y50406D01*
X78734D01*
Y50006D01*
X78334D01*
Y49206D01*
X78734D01*
X71647Y61411D02*
Y61011D01*
X72447D01*
Y61411D01*
X72847D01*
Y62211D01*
X72447D01*
Y62611D01*
X71647D01*
Y62211D01*
X71247D01*
Y61411D01*
X71647D01*
X66923Y67317D02*
Y66917D01*
X67723D01*
Y67317D01*
X68123D01*
Y68116D01*
X67723D01*
Y68516D01*
X66923D01*
Y68116D01*
X66523D01*
Y67317D01*
X66923D01*
X114161Y116917D02*
X114561D01*
X114961Y117316D01*
X115361Y116917D01*
X115761D01*
Y117316D01*
X115361Y117717D01*
X115761Y118116D01*
Y118517D01*
X115361D01*
X114961Y118116D01*
X114561Y118517D01*
X114161D01*
Y118116D01*
X114561Y117717D01*
X114161Y117316D01*
Y116917D01*
X98413Y118519D02*
X98813D01*
X99213Y118919D01*
X99613Y118519D01*
X100013D01*
Y118919D01*
X99613Y119319D01*
X100013Y119719D01*
Y120119D01*
X99613D01*
X99213Y119719D01*
X98813Y120119D01*
X98413D01*
Y119719D01*
X98813Y119319D01*
X98413Y118919D01*
Y118519D01*
X119957Y66579D02*
Y66179D01*
X120757D01*
Y66579D01*
X121157D01*
Y67379D01*
X120757D01*
Y67779D01*
X119957D01*
Y67379D01*
X119557D01*
Y66579D01*
X119957D01*
X120206Y69431D02*
Y69030D01*
X121007D01*
Y69431D01*
X121406D01*
Y70231D01*
X121007D01*
Y70631D01*
X120206D01*
Y70231D01*
X119807D01*
Y69431D01*
X120206D01*
X115414Y64136D02*
X115814D01*
X116214Y64536D01*
X116614Y64136D01*
X117014D01*
Y64536D01*
X116614Y64936D01*
X117014Y65336D01*
Y65736D01*
X116614D01*
X116214Y65336D01*
X115814Y65736D01*
X115414D01*
Y65336D01*
X115814Y64936D01*
X115414Y64536D01*
Y64136D01*
X117612Y70640D02*
Y70240D01*
X118412D01*
Y70640D01*
X118812D01*
Y71440D01*
X118412D01*
Y71840D01*
X117612D01*
Y71440D01*
X117212D01*
Y70640D01*
X117612D01*
X115442Y74646D02*
Y74246D01*
X116242D01*
Y74646D01*
X116642D01*
Y75446D01*
X116242D01*
Y75846D01*
X115442D01*
Y75446D01*
X115042D01*
Y74646D01*
X115442D01*
X67710Y49206D02*
Y48806D01*
X68510D01*
Y49206D01*
X68910D01*
Y50006D01*
X68510D01*
Y50406D01*
X67710D01*
Y50006D01*
X67310D01*
Y49206D01*
X67710D01*
X90939Y62198D02*
Y61798D01*
X91739D01*
Y62198D01*
X92139D01*
Y62998D01*
X91739D01*
Y63398D01*
X90939D01*
Y62998D01*
X90539D01*
Y62198D01*
X90939D01*
X80490Y76575D02*
Y76175D01*
X81290D01*
Y76575D01*
X81690D01*
Y77375D01*
X81290D01*
Y77775D01*
X80490D01*
Y77375D01*
X80090D01*
Y76575D01*
X80490D01*
X21057Y70860D02*
Y70460D01*
X21857D01*
Y70860D01*
X22257D01*
Y71660D01*
X21857D01*
Y72060D01*
X21057D01*
Y71660D01*
X20657D01*
Y70860D01*
X21057D01*
X47631Y31687D02*
Y31287D01*
X48432D01*
Y31687D01*
X48831D01*
Y32487D01*
X48432D01*
Y32887D01*
X47631D01*
Y32487D01*
X47232D01*
Y31687D01*
X47631D01*
X62592Y49600D02*
Y49200D01*
X63392D01*
Y49600D01*
X63792D01*
Y50400D01*
X63392D01*
Y50800D01*
X62592D01*
Y50400D01*
X62192D01*
Y49600D01*
X62592D01*
X93407Y45663D02*
Y45263D01*
X94207D01*
Y45663D01*
X94607D01*
Y46463D01*
X94207D01*
Y46863D01*
X93407D01*
Y46463D01*
X93007D01*
Y45663D01*
X93407D01*
X112526Y68038D02*
Y67638D01*
X113326D01*
Y68038D01*
X113726D01*
Y68838D01*
X113326D01*
Y69238D01*
X112526D01*
Y68838D01*
X112126D01*
Y68038D01*
X112526D01*
X116119Y77427D02*
Y77027D01*
X116919D01*
Y77427D01*
X117319D01*
Y78227D01*
X116919D01*
Y78627D01*
X116119D01*
Y78227D01*
X115719D01*
Y77427D01*
X116119D01*
X115545Y80687D02*
Y80287D01*
X116345D01*
Y80687D01*
X116745D01*
Y81487D01*
X116345D01*
Y81887D01*
X115545D01*
Y81487D01*
X115145D01*
Y80687D01*
X115545D01*
X122238Y91620D02*
Y91220D01*
X123038D01*
Y91620D01*
X123438D01*
Y92420D01*
X123038D01*
Y92820D01*
X122238D01*
Y92420D01*
X121838D01*
Y91620D01*
X122238D01*
X99887Y54718D02*
Y54318D01*
X100687D01*
Y54718D01*
X101087D01*
Y55518D01*
X100687D01*
Y55918D01*
X99887D01*
Y55518D01*
X99487D01*
Y54718D01*
X99887D01*
X109404Y66228D02*
Y65828D01*
X110204D01*
Y66228D01*
X110604D01*
Y67028D01*
X110204D01*
Y67428D01*
X109404D01*
Y67028D01*
X109004D01*
Y66228D01*
X109404D01*
X118295Y56680D02*
X118694D01*
X119095Y57080D01*
X119494Y56680D01*
X119895D01*
Y57080D01*
X119494Y57480D01*
X119895Y57880D01*
Y58280D01*
X119494D01*
X119095Y57880D01*
X118694Y58280D01*
X118295D01*
Y57880D01*
X118694Y57480D01*
X118295Y57080D01*
Y56680D01*
X122397Y81417D02*
X122796D01*
X123196Y81817D01*
X123597Y81417D01*
X123996D01*
Y81817D01*
X123597Y82217D01*
X123996Y82617D01*
Y83017D01*
X123597D01*
X123196Y82617D01*
X122796Y83017D01*
X122397D01*
Y82617D01*
X122796Y82217D01*
X122397Y81817D01*
Y81417D01*
X118257Y82277D02*
Y81877D01*
X119058D01*
Y82277D01*
X119457D01*
Y83077D01*
X119058D01*
Y83477D01*
X118257D01*
Y83077D01*
X117858D01*
Y82277D01*
X118257D01*
X129121Y85932D02*
X129521D01*
X129921Y86332D01*
X130321Y85932D01*
X130721D01*
Y86332D01*
X130321Y86732D01*
X130721Y87132D01*
Y87532D01*
X130321D01*
X129921Y87132D01*
X129521Y87532D01*
X129121D01*
Y87132D01*
X129521Y86732D01*
X129121Y86332D01*
Y85932D01*
X122409Y88576D02*
Y88176D01*
X123210D01*
Y88576D01*
X123609D01*
Y89376D01*
X123210D01*
Y89776D01*
X122409D01*
Y89376D01*
X122010D01*
Y88576D01*
X122409D01*
X132474Y53340D02*
Y52940D01*
X133274D01*
Y53340D01*
X133674D01*
Y54140D01*
X133274D01*
Y54540D01*
X132474D01*
Y54140D01*
X132074D01*
Y53340D01*
X132474D01*
X111805Y37789D02*
Y37389D01*
X112605D01*
Y37789D01*
X113005D01*
Y38589D01*
X112605D01*
Y38989D01*
X111805D01*
Y38589D01*
X111405D01*
Y37789D01*
X111805D01*
X112002Y42710D02*
Y42310D01*
X112802D01*
Y42710D01*
X113202D01*
Y43510D01*
X112802D01*
Y43910D01*
X112002D01*
Y43510D01*
X111602D01*
Y42710D01*
X112002D01*
X128340Y67710D02*
Y67310D01*
X129140D01*
Y67710D01*
X129540D01*
Y68510D01*
X129140D01*
Y68910D01*
X128340D01*
Y68510D01*
X127940D01*
Y67710D01*
X128340D01*
X124009Y59443D02*
Y59043D01*
X124809D01*
Y59443D01*
X125209D01*
Y60242D01*
X124809D01*
Y60642D01*
X124009D01*
Y60242D01*
X123609D01*
Y59443D01*
X124009D01*
X127153Y101759D02*
X127553D01*
X127953Y102159D01*
X128353Y101759D01*
X128753D01*
Y102159D01*
X128353Y102559D01*
X128753Y102959D01*
Y103359D01*
X128353D01*
X127953Y102959D01*
X127553Y103359D01*
X127153D01*
Y102959D01*
X127553Y102559D01*
X127153Y102159D01*
Y101759D01*
X130309Y113773D02*
Y113373D01*
X131109D01*
Y113773D01*
X131509D01*
Y114573D01*
X131109D01*
Y114973D01*
X130309D01*
Y114573D01*
X129909D01*
Y113773D01*
X130309D01*
X112494Y99502D02*
Y99102D01*
X113294D01*
Y99502D01*
X113694D01*
Y100302D01*
X113294D01*
Y100702D01*
X112494D01*
Y100302D01*
X112094D01*
Y99502D01*
X112494D01*
X103143Y61411D02*
Y61011D01*
X103943D01*
Y61411D01*
X104343D01*
Y62211D01*
X103943D01*
Y62611D01*
X103143D01*
Y62211D01*
X102743D01*
Y61411D01*
X103143D01*
X131483Y29121D02*
X131884D01*
X132283Y29521D01*
X132684Y29121D01*
X133083D01*
Y29521D01*
X132684Y29921D01*
X133083Y30321D01*
Y30721D01*
X132684D01*
X132283Y30321D01*
X131884Y30721D01*
X131483D01*
Y30321D01*
X131884Y29921D01*
X131483Y29521D01*
Y29121D01*
X35421Y102743D02*
X35820D01*
X36220Y103143D01*
X36621Y102743D01*
X37020D01*
Y103143D01*
X36621Y103543D01*
X37020Y103943D01*
Y104343D01*
X36621D01*
X36220Y103943D01*
X35820Y104343D01*
X35421D01*
Y103943D01*
X35820Y103543D01*
X35421Y103143D01*
Y102743D01*
X87783D02*
X88183D01*
X88583Y103143D01*
X88983Y102743D01*
X89383D01*
Y103143D01*
X88983Y103543D01*
X89383Y103943D01*
Y104343D01*
X88983D01*
X88583Y103943D01*
X88183Y104343D01*
X87783D01*
Y103943D01*
X88183Y103543D01*
X87783Y103143D01*
Y102743D01*
X98025Y110049D02*
Y109649D01*
X98825D01*
Y110049D01*
X99225D01*
Y110849D01*
X98825D01*
Y111249D01*
X98025D01*
Y110849D01*
X97625D01*
Y110049D01*
X98025D01*
X43891Y81687D02*
Y81287D01*
X44691D01*
Y81687D01*
X45091D01*
Y82487D01*
X44691D01*
Y82887D01*
X43891D01*
Y82487D01*
X43491D01*
Y81687D01*
X43891D01*
X53143Y81490D02*
Y81090D01*
X53943D01*
Y81490D01*
X54343D01*
Y82290D01*
X53943D01*
Y82690D01*
X53143D01*
Y82290D01*
X52743D01*
Y81490D01*
X53143D01*
X60066Y85985D02*
Y85585D01*
X60866D01*
Y85985D01*
X61266D01*
Y86785D01*
X60866D01*
Y87185D01*
X60066D01*
Y86785D01*
X59666D01*
Y85985D01*
X60066D01*
X97632Y47238D02*
Y46838D01*
X98431D01*
Y47238D01*
X98831D01*
Y48038D01*
X98431D01*
Y48438D01*
X97632D01*
Y48038D01*
X97232D01*
Y47238D01*
X97632D01*
X135421Y75184D02*
X135820D01*
X136221Y75584D01*
X136620Y75184D01*
X137021D01*
Y75584D01*
X136620Y75984D01*
X137021Y76384D01*
Y76784D01*
X136620D01*
X136221Y76384D01*
X135820Y76784D01*
X135421D01*
Y76384D01*
X135820Y75984D01*
X135421Y75584D01*
Y75184D01*
X12986Y49994D02*
Y49594D01*
X13786D01*
Y49994D01*
X14186D01*
Y50794D01*
X13786D01*
Y51194D01*
X12986D01*
Y50794D01*
X12586D01*
Y49994D01*
X12986D01*
X12592Y42120D02*
Y41720D01*
X13392D01*
Y42120D01*
X13792D01*
Y42920D01*
X13392D01*
Y43320D01*
X12592D01*
Y42920D01*
X12192D01*
Y42120D01*
X12592D01*
Y46057D02*
Y45657D01*
X13392D01*
Y46057D01*
X13792D01*
Y46857D01*
X13392D01*
Y47257D01*
X12592D01*
Y46857D01*
X12192D01*
Y46057D01*
X12592D01*
X9049Y42120D02*
Y41720D01*
X9849D01*
Y42120D01*
X10249D01*
Y42920D01*
X9849D01*
Y43320D01*
X9049D01*
Y42920D01*
X8649D01*
Y42120D01*
X9049D01*
Y46057D02*
Y45657D01*
X9849D01*
Y46057D01*
X10249D01*
Y46857D01*
X9849D01*
Y47257D01*
X9049D01*
Y46857D01*
X8649D01*
Y46057D01*
X9049D01*
Y49994D02*
Y49594D01*
X9849D01*
Y49994D01*
X10249D01*
Y50794D01*
X9849D01*
Y51194D01*
X9049D01*
Y50794D01*
X8649D01*
Y49994D01*
X9049D01*
X92716Y102875D02*
Y102475D01*
X93516D01*
Y102875D01*
X93916D01*
Y103675D01*
X93516D01*
Y104075D01*
X92716D01*
Y103675D01*
X92317D01*
Y102875D01*
X92716D01*
X98019Y30302D02*
X98419D01*
X98819Y30702D01*
X99219Y30302D01*
X99619D01*
Y30702D01*
X99219Y31102D01*
X99619Y31502D01*
Y31902D01*
X99219D01*
X98819Y31502D01*
X98419Y31902D01*
X98019D01*
Y31502D01*
X98419Y31102D01*
X98019Y30702D01*
Y30302D01*
X114948Y25578D02*
X115348D01*
X115748Y25978D01*
X116148Y25578D01*
X116548D01*
Y25978D01*
X116148Y26378D01*
X116548Y26778D01*
Y27178D01*
X116148D01*
X115748Y26778D01*
X115348Y27178D01*
X114948D01*
Y26778D01*
X115348Y26378D01*
X114948Y25978D01*
Y25578D01*
X131912Y37602D02*
X132312D01*
X132712Y38002D01*
X133112Y37602D01*
X133512D01*
Y38002D01*
X133112Y38403D01*
X133512Y38802D01*
Y39202D01*
X133112D01*
X132712Y38802D01*
X132312Y39202D01*
X131912D01*
Y38802D01*
X132312Y38403D01*
X131912Y38002D01*
Y37602D01*
X131877Y42507D02*
X132277D01*
X132677Y42907D01*
X133077Y42507D01*
X133477D01*
Y42907D01*
X133077Y43307D01*
X133477Y43707D01*
Y44107D01*
X133077D01*
X132677Y43707D01*
X132277Y44107D01*
X131877D01*
Y43707D01*
X132277Y43307D01*
X131877Y42907D01*
Y42507D01*
X135421Y81877D02*
X135820D01*
X136221Y82277D01*
X136620Y81877D01*
X137021D01*
Y82277D01*
X136620Y82677D01*
X137021Y83077D01*
Y83477D01*
X136620D01*
X136221Y83077D01*
X135820Y83477D01*
X135421D01*
Y83077D01*
X135820Y82677D01*
X135421Y82277D01*
Y81877D01*
Y68491D02*
X135820D01*
X136221Y68891D01*
X136620Y68491D01*
X137021D01*
Y68891D01*
X136620Y69291D01*
X137021Y69691D01*
Y70091D01*
X136620D01*
X136221Y69691D01*
X135820Y70091D01*
X135421D01*
Y69691D01*
X135820Y69291D01*
X135421Y68891D01*
Y68491D01*
X25184Y149594D02*
X25584D01*
X25984Y149994D01*
X26384Y149594D01*
X26784D01*
Y149994D01*
X26384Y150394D01*
X26784Y150794D01*
Y151194D01*
X26384D01*
X25984Y150794D01*
X25584Y151194D01*
X25184D01*
Y150794D01*
X25584Y150394D01*
X25184Y149994D01*
Y149594D01*
X48019Y122035D02*
X48419D01*
X48819Y122435D01*
X49219Y122035D01*
X49619D01*
Y122435D01*
X49219Y122835D01*
X49619Y123235D01*
Y123635D01*
X49219D01*
X48819Y123235D01*
X48419Y123635D01*
X48019D01*
Y123235D01*
X48419Y122835D01*
X48019Y122435D01*
Y122035D01*
X31484Y106483D02*
X31883D01*
X32283Y106884D01*
X32684Y106483D01*
X33084D01*
Y106884D01*
X32684Y107283D01*
X33084Y107684D01*
Y108083D01*
X32684D01*
X32283Y107684D01*
X31883Y108083D01*
X31484D01*
Y107684D01*
X31883Y107283D01*
X31484Y106884D01*
Y106483D01*
X50972Y98019D02*
X51372D01*
X51772Y98419D01*
X52172Y98019D01*
X52572D01*
Y98419D01*
X52172Y98819D01*
X52572Y99219D01*
Y99619D01*
X52172D01*
X51772Y99219D01*
X51372Y99619D01*
X50972D01*
Y99219D01*
X51372Y98819D01*
X50972Y98419D01*
Y98019D01*
X69679Y77947D02*
Y77547D01*
X70479D01*
Y77947D01*
X70879D01*
Y78746D01*
X70479D01*
Y79146D01*
X69679D01*
Y78746D01*
X69279D01*
Y77947D01*
X69679D01*
X80521Y90939D02*
Y90539D01*
X81321D01*
Y90939D01*
X81721D01*
Y91739D01*
X81321D01*
Y92139D01*
X80521D01*
Y91739D01*
X80121D01*
Y90939D01*
X80521D01*
Y93801D02*
Y93401D01*
X81321D01*
Y93801D01*
X81721D01*
Y94601D01*
X81321D01*
Y95001D01*
X80521D01*
Y94601D01*
X80121D01*
Y93801D01*
X80521D01*
X68891Y83565D02*
Y83165D01*
X69691D01*
Y83565D01*
X70091D01*
Y84365D01*
X69691D01*
Y84765D01*
X68891D01*
Y84365D01*
X68491D01*
Y83565D01*
X68891D01*
X74797Y81096D02*
Y80696D01*
X75597D01*
Y81096D01*
X75997D01*
Y81896D01*
X75597D01*
Y82296D01*
X74797D01*
Y81896D01*
X74397D01*
Y81096D01*
X74797D01*
X63380Y82836D02*
Y82436D01*
X64179D01*
Y82836D01*
X64579D01*
Y83636D01*
X64179D01*
Y84036D01*
X63380D01*
Y83636D01*
X62980D01*
Y82836D01*
X63380D01*
X52350Y87389D02*
X52750D01*
X53150Y87789D01*
X53550Y87389D01*
X53950D01*
Y87789D01*
X53550Y88189D01*
X53950Y88589D01*
Y88989D01*
X53550D01*
X53150Y88589D01*
X52750Y88989D01*
X52350D01*
Y88589D01*
X52750Y88189D01*
X52350Y87789D01*
Y87389D01*
X77159Y76740D02*
Y76340D01*
X77959D01*
Y76740D01*
X78359D01*
Y77540D01*
X77959D01*
Y77940D01*
X77159D01*
Y77540D01*
X76759D01*
Y76740D01*
X77159D01*
X63773Y86608D02*
Y86208D01*
X64573D01*
Y86608D01*
X64973D01*
Y87408D01*
X64573D01*
Y87808D01*
X63773D01*
Y87408D01*
X63373D01*
Y86608D01*
X63773D01*
X99222Y107080D02*
Y106680D01*
X100022D01*
Y107080D01*
X100422D01*
Y107880D01*
X100022D01*
Y108280D01*
X99222D01*
Y107880D01*
X98822D01*
Y107080D01*
X99222D01*
X102192Y109278D02*
Y108878D01*
X102992D01*
Y109278D01*
X103392D01*
Y110078D01*
X102992D01*
Y110478D01*
X102192D01*
Y110078D01*
X101792D01*
Y109278D01*
X102192D01*
X104718Y107474D02*
Y107074D01*
X105518D01*
Y107474D01*
X105918D01*
Y108274D01*
X105518D01*
Y108674D01*
X104718D01*
Y108274D01*
X104318D01*
Y107474D01*
X104718D01*
X92907Y126765D02*
Y126365D01*
X93707D01*
Y126765D01*
X94107D01*
Y127565D01*
X93707D01*
Y127965D01*
X92907D01*
Y127565D01*
X92507D01*
Y126765D01*
X92907D01*
X136208Y94082D02*
X136608D01*
X137008Y94482D01*
X137408Y94082D01*
X137808D01*
Y94482D01*
X137408Y94882D01*
X137808Y95282D01*
Y95682D01*
X137408D01*
X137008Y95282D01*
X136608Y95682D01*
X136208D01*
Y95282D01*
X136608Y94882D01*
X136208Y94482D01*
Y94082D01*
X118891Y106293D02*
Y105893D01*
X119691D01*
Y106293D01*
X120091D01*
Y107093D01*
X119691D01*
Y107493D01*
X118891D01*
Y107093D01*
X118491D01*
Y106293D01*
X118891D01*
X111411Y108261D02*
Y107861D01*
X112211D01*
Y108261D01*
X112611D01*
Y109061D01*
X112211D01*
Y109461D01*
X111411D01*
Y109061D01*
X111011D01*
Y108261D01*
X111411D01*
X93695Y41332D02*
Y40932D01*
X94494D01*
Y41332D01*
X94894D01*
Y42132D01*
X94494D01*
Y42532D01*
X93695D01*
Y42132D01*
X93295D01*
Y41332D01*
X93695D01*
X86602Y124003D02*
X87002D01*
X87402Y124403D01*
X87802Y124003D01*
X88202D01*
Y124403D01*
X87802Y124803D01*
X88202Y125203D01*
Y125603D01*
X87802D01*
X87402Y125203D01*
X87002Y125603D01*
X86602D01*
Y125203D01*
X87002Y124803D01*
X86602Y124403D01*
Y124003D01*
X77340Y119285D02*
Y118885D01*
X78140D01*
Y119285D01*
X78540D01*
Y120085D01*
X78140D01*
Y120485D01*
X77340D01*
Y120085D01*
X76940D01*
Y119285D01*
X77340D01*
X39371Y81858D02*
X39771D01*
X40171Y82258D01*
X40571Y81858D01*
X40971D01*
Y82258D01*
X40571Y82658D01*
X40971Y83059D01*
Y83459D01*
X40571D01*
X40171Y83059D01*
X39771Y83459D01*
X39371D01*
Y83059D01*
X39771Y82658D01*
X39371Y82258D01*
Y81858D01*
X75578Y110224D02*
X75978D01*
X76378Y110624D01*
X76778Y110224D01*
X77178D01*
Y110624D01*
X76778Y111024D01*
X77178Y111424D01*
Y111824D01*
X76778D01*
X76378Y111424D01*
X75978Y111824D01*
X75578D01*
Y111424D01*
X75978Y111024D01*
X75578Y110624D01*
Y110224D01*
X70466Y112198D02*
Y111798D01*
X71266D01*
Y112198D01*
X71666D01*
Y112998D01*
X71266D01*
Y113398D01*
X70466D01*
Y112998D01*
X70066D01*
Y112198D01*
X70466D01*
X61017Y115742D02*
Y115342D01*
X61817D01*
Y115742D01*
X62217D01*
Y116542D01*
X61817D01*
Y116942D01*
X61017D01*
Y116542D01*
X60617D01*
Y115742D01*
X61017D01*
X66529Y120072D02*
Y119672D01*
X67329D01*
Y120072D01*
X67729D01*
Y120872D01*
X67329D01*
Y121272D01*
X66529D01*
Y120872D01*
X66129D01*
Y120072D01*
X66529D01*
X107474Y111017D02*
Y110617D01*
X108274D01*
Y111017D01*
X108674D01*
Y111817D01*
X108274D01*
Y112217D01*
X107474D01*
Y111817D01*
X107074D01*
Y111017D01*
X107474D01*
X58655Y134246D02*
Y133846D01*
X59455D01*
Y134246D01*
X59855D01*
Y135046D01*
X59455D01*
Y135446D01*
X58655D01*
Y135046D01*
X58255D01*
Y134246D01*
X58655D01*
X111411Y103143D02*
Y102743D01*
X112211D01*
Y103143D01*
X112611D01*
Y103943D01*
X112211D01*
Y104343D01*
X111411D01*
Y103943D01*
X111011D01*
Y103143D01*
X111411D01*
X110448Y51562D02*
X110848D01*
X111248Y51962D01*
X111648Y51562D01*
X112048D01*
Y51962D01*
X111648Y52362D01*
X112048Y52762D01*
Y53162D01*
X111648D01*
X111248Y52762D01*
X110848Y53162D01*
X110448D01*
Y52762D01*
X110848Y52362D01*
X110448Y51962D01*
Y51562D01*
X111805Y33065D02*
Y32665D01*
X112605D01*
Y33065D01*
X113005D01*
Y33865D01*
X112605D01*
Y34265D01*
X111805D01*
Y33865D01*
X111405D01*
Y33065D01*
X111805D01*
X44476Y127940D02*
X44876D01*
X45276Y128340D01*
X45676Y127940D01*
X46076D01*
Y128340D01*
X45676Y128740D01*
X46076Y129140D01*
Y129540D01*
X45676D01*
X45276Y129140D01*
X44876Y129540D01*
X44476D01*
Y129140D01*
X44876Y128740D01*
X44476Y128340D01*
Y127940D01*
X50775Y40145D02*
X51175D01*
X51575Y40545D01*
X51975Y40145D01*
X52375D01*
Y40545D01*
X51975Y40945D01*
X52375Y41345D01*
Y41745D01*
X51975D01*
X51575Y41345D01*
X51175Y41745D01*
X50775D01*
Y41345D01*
X51175Y40945D01*
X50775Y40545D01*
Y40145D01*
X51175Y34246D02*
Y33846D01*
X51975D01*
Y34246D01*
X52375D01*
Y35046D01*
X51975D01*
Y35446D01*
X51175D01*
Y35046D01*
X50775D01*
Y34246D01*
X51175D01*
X48025D02*
Y33846D01*
X48825D01*
Y34246D01*
X49225D01*
Y35046D01*
X48825D01*
Y35446D01*
X48025D01*
Y35046D01*
X47625D01*
Y34246D01*
X48025D01*
X51175Y37395D02*
Y36995D01*
X51975D01*
Y37395D01*
X52375D01*
Y38195D01*
X51975D01*
Y38595D01*
X51175D01*
Y38195D01*
X50775D01*
Y37395D01*
X51175D01*
X48025D02*
Y36995D01*
X48825D01*
Y37395D01*
X49225D01*
Y38195D01*
X48825D01*
Y38595D01*
X48025D01*
Y38195D01*
X47625D01*
Y37395D01*
X48025D01*
X26372Y71254D02*
Y70854D01*
X27172D01*
Y71254D01*
X27572D01*
Y72053D01*
X27172D01*
Y72453D01*
X26372D01*
Y72053D01*
X25972D01*
Y71254D01*
X26372D01*
X16135D02*
Y70854D01*
X16935D01*
Y71254D01*
X17335D01*
Y72053D01*
X16935D01*
Y72453D01*
X16135D01*
Y72053D01*
X15735D01*
Y71254D01*
X16135D01*
Y74797D02*
Y74397D01*
X16935D01*
Y74797D01*
X17335D01*
Y75597D01*
X16935D01*
Y75997D01*
X16135D01*
Y75597D01*
X15735D01*
Y74797D01*
X16135D01*
X21253D02*
Y74397D01*
X22053D01*
Y74797D01*
X22454D01*
Y75597D01*
X22053D01*
Y75997D01*
X21253D01*
Y75597D01*
X20854D01*
Y74797D01*
X21253D01*
X26372D02*
Y74397D01*
X27172D01*
Y74797D01*
X27572D01*
Y75597D01*
X27172D01*
Y75997D01*
X26372D01*
Y75597D01*
X25972D01*
Y74797D01*
X26372D01*
D109*
X89540Y149488D02*
G03*
X89540Y149488I-800J0D01*
G01*
X79540D02*
G03*
X79540Y149488I-800J0D01*
G01*
X69540D02*
G03*
X69540Y149488I-800J0D01*
G01*
Y139488D02*
G03*
X69540Y139488I-800J0D01*
G01*
X79540D02*
G03*
X79540Y139488I-800J0D01*
G01*
X89540Y139488D02*
G03*
X89540Y139488I-800J0D01*
G01*
M02*
