G04*
G04 #@! TF.GenerationSoftware,Altium Limited,Altium Designer,22.10.1 (41)*
G04*
G04 Layer_Color=152*
%FSLAX25Y25*%
%MOIN*%
G70*
G04*
G04 #@! TF.SameCoordinates,0245A464-56C0-4E7C-B2BA-3340792428E8*
G04*
G04*
G04 #@! TF.FilePolarity,Positive*
G04*
G01*
G75*
%ADD10C,0.00394*%
%ADD11C,0.00787*%
%ADD14C,0.01181*%
%ADD15C,0.00500*%
%ADD106C,0.00197*%
D10*
X135583Y135433D02*
G03*
X135583Y135433I-18654J0D01*
G01*
X52756Y98032D02*
Y99606D01*
X51968Y98819D02*
X53543D01*
X49213Y125667D02*
X49415D01*
X49213Y119975D02*
Y125667D01*
X60179D01*
Y119975D02*
Y125667D01*
X49213Y119975D02*
X60179D01*
X53937Y122835D02*
X55512D01*
X54724Y122047D02*
Y123622D01*
X127723Y69128D02*
X128904D01*
X128347Y68504D02*
Y69685D01*
X95669Y46063D02*
X97244D01*
X96457Y45276D02*
Y46850D01*
X48819Y112205D02*
Y114567D01*
X47664Y113380D02*
X50026D01*
X7480Y122835D02*
X12205D01*
X7480Y97638D02*
X12205D01*
Y122835D01*
X7480Y97638D02*
Y122835D01*
X145276Y40354D02*
X150000D01*
X145276Y65551D02*
X150000D01*
X145276Y40354D02*
Y65551D01*
X150000Y40354D02*
Y65551D01*
X27559Y103543D02*
X29134D01*
X28346Y102756D02*
Y104331D01*
X25487Y98089D02*
Y109055D01*
Y98089D02*
X31179D01*
Y109055D01*
X25487D02*
X31179D01*
Y108853D02*
Y109055D01*
X35433Y103543D02*
X37008D01*
X36220Y102756D02*
Y104331D01*
X33361Y98089D02*
Y109055D01*
Y98089D02*
X39053D01*
Y109055D01*
X33361D02*
X39053D01*
Y108853D02*
Y109055D01*
X123031Y111417D02*
Y112992D01*
X122244Y112205D02*
X123819D01*
X117520Y109345D02*
X128486D01*
Y115037D01*
X117520D02*
X128486D01*
X117520Y109345D02*
Y115037D01*
X117722D01*
X123819Y25984D02*
Y27559D01*
X123031Y26772D02*
X124606D01*
X118307Y23912D02*
X129273D01*
Y29604D01*
X118307D02*
X129273D01*
X118307Y23912D02*
Y29604D01*
X118509D01*
X53543Y85827D02*
Y87402D01*
X52756Y86614D02*
X54331D01*
X48089Y89474D02*
X59055D01*
X48089Y83782D02*
Y89474D01*
Y83782D02*
X59055D01*
Y89474D01*
X58853Y83782D02*
X59055D01*
X42913Y122047D02*
Y123622D01*
X42126Y122835D02*
X43701D01*
X37459Y125695D02*
X48425D01*
X37459Y120002D02*
Y125695D01*
Y120002D02*
X48425D01*
Y125695D01*
X48223Y120002D02*
X48425D01*
X144488Y77559D02*
Y79134D01*
X143701Y78347D02*
X145276D01*
X138976Y75487D02*
X149943D01*
Y81179D01*
X138976D02*
X149943D01*
X138976Y75487D02*
Y81179D01*
X139178D01*
X90551Y34252D02*
Y35827D01*
X89764Y35039D02*
X91339D01*
X85097Y37899D02*
X96063D01*
X85097Y32207D02*
Y37899D01*
Y32207D02*
X96063D01*
Y37899D01*
X95861Y32207D02*
X96063D01*
X129921Y88583D02*
Y90158D01*
X129134Y89370D02*
X130709D01*
X124467Y92230D02*
X135433D01*
X124467Y86538D02*
Y92230D01*
Y86538D02*
X135433D01*
Y92230D01*
X135231Y86538D02*
X135433D01*
X129921Y81496D02*
Y83071D01*
X129134Y82284D02*
X130709D01*
X124409Y79424D02*
X135376D01*
Y85116D01*
X124409D02*
X135376D01*
X124409Y79424D02*
Y85116D01*
X124611D01*
X102756Y34252D02*
Y35827D01*
X101969Y35039D02*
X103543D01*
X97244Y32179D02*
X108210D01*
Y37872D01*
X97244D02*
X108210D01*
X97244Y32179D02*
Y37872D01*
X97446D01*
X69685Y77165D02*
X71260D01*
X70473Y76378D02*
Y77953D01*
X67613Y71711D02*
Y82677D01*
Y71711D02*
X73305D01*
Y82677D01*
X67613D02*
X73305D01*
Y82475D02*
Y82677D01*
X62992Y77165D02*
X64567D01*
X63779Y76378D02*
Y77953D01*
X60920Y71711D02*
Y82677D01*
Y71711D02*
X66612D01*
Y82677D01*
X60920D02*
X66612D01*
Y82475D02*
Y82677D01*
X131102Y98819D02*
X132677D01*
X131890Y98032D02*
Y99606D01*
X129030Y93365D02*
Y104331D01*
Y93365D02*
X134722D01*
Y104331D01*
X129030D02*
X134722D01*
Y104129D02*
Y104331D01*
X123228Y98819D02*
X124803D01*
X124016Y98032D02*
Y99606D01*
X121156Y93365D02*
Y104331D01*
Y93365D02*
X126848D01*
Y104331D01*
X121156D02*
X126848D01*
Y104129D02*
Y104331D01*
X91339Y111417D02*
Y112992D01*
X90551Y112205D02*
X92126D01*
X85884Y115065D02*
X96850D01*
X85884Y109372D02*
Y115065D01*
Y109372D02*
X96850D01*
Y115065D01*
X96648Y109372D02*
X96850D01*
X91339Y118898D02*
Y120472D01*
X90551Y119685D02*
X92126D01*
X85884Y122545D02*
X96850D01*
X85884Y116853D02*
Y122545D01*
Y116853D02*
X96850D01*
Y122545D01*
X96648Y116853D02*
X96850D01*
X66929Y66929D02*
Y68504D01*
X66142Y67716D02*
X67716D01*
X61475Y70576D02*
X72441D01*
X61475Y64884D02*
Y70576D01*
Y64884D02*
X72441D01*
Y70576D01*
X72239Y64884D02*
X72441D01*
X110630Y56299D02*
Y57874D01*
X109843Y57087D02*
X111417D01*
X105175Y59947D02*
X116142D01*
X105175Y54254D02*
Y59947D01*
Y54254D02*
X116142D01*
Y59947D01*
X115940Y54254D02*
X116142D01*
X110630Y62598D02*
Y64173D01*
X109843Y63386D02*
X111417D01*
X105175Y66246D02*
X116142D01*
X105175Y60553D02*
Y66246D01*
Y60553D02*
X116142D01*
Y66246D01*
X115940Y60553D02*
X116142D01*
X116929Y133858D02*
Y137008D01*
X115354Y135433D02*
X118504D01*
X24370Y138457D02*
X55870D01*
X24870Y154457D02*
X56370D01*
X24870Y138457D02*
Y154457D01*
X55870Y138457D02*
Y154457D01*
X39370Y144957D02*
Y147957D01*
X37870Y146457D02*
X40870D01*
X43307Y57480D02*
Y61417D01*
X41339Y59449D02*
X45276D01*
D11*
X28228Y6693D02*
Y11024D01*
X26063Y8858D02*
X30394D01*
X28346Y46181D02*
Y71772D01*
X17913Y58583D02*
Y62913D01*
X4331Y46181D02*
X28346D01*
X4331Y75315D02*
X28346D01*
X4331Y46181D02*
Y75315D01*
X28346Y71772D02*
Y75315D01*
X15748Y60748D02*
X20079D01*
X151969Y91772D02*
Y131929D01*
X142520Y91772D02*
Y131929D01*
X147638Y109449D02*
Y114567D01*
X145079Y112008D02*
X150197D01*
X8661Y110236D02*
X9843D01*
X11024D01*
X9843D02*
X11024D01*
X9843Y109055D02*
Y110236D01*
Y109055D02*
Y111417D01*
X147638Y52953D02*
X148819D01*
X146457D02*
X147638D01*
X146457D02*
X147638D01*
Y54134D01*
Y51772D02*
Y54134D01*
X63150Y134567D02*
X94646D01*
X63150Y154252D02*
X94646D01*
X63150Y134567D02*
Y154252D01*
X94646Y134567D02*
Y154252D01*
X78740Y142520D02*
Y146457D01*
X76819Y144591D02*
X80756D01*
D14*
X79114Y13150D02*
Y17087D01*
X77146Y15118D02*
X81083D01*
X107972Y1654D02*
Y26850D01*
X47736Y1654D02*
Y29213D01*
X107972D01*
Y26850D02*
Y29213D01*
X47736Y1654D02*
X107972D01*
D15*
X128740Y30807D02*
Y50492D01*
X116929Y30807D02*
Y50492D01*
X39961Y108465D02*
Y118307D01*
X57677D01*
X39961Y108465D02*
X55315D01*
X57677Y108448D02*
Y118307D01*
X55298Y108448D02*
X57727D01*
D106*
X41535Y90354D02*
Y107283D01*
Y90354D02*
X63976D01*
Y107283D01*
X41535D02*
X63976D01*
X121417Y62362D02*
Y76221D01*
X135276D01*
Y62402D02*
Y76221D01*
X121417Y62362D02*
X135276Y62402D01*
X83661Y38780D02*
Y53347D01*
X109252D01*
Y38780D02*
Y53347D01*
X83661Y38780D02*
X109252D01*
X8799Y27795D02*
Y35197D01*
X21910Y27795D02*
Y35197D01*
X8799D02*
X21910D01*
X8799Y27795D02*
X21910D01*
X15354Y31102D02*
Y31890D01*
X14961Y31496D02*
X15748D01*
X8405Y34882D02*
Y42283D01*
X21516Y34882D02*
Y42283D01*
X8405D02*
X21516D01*
X8405Y34882D02*
X21516D01*
X14961Y38189D02*
Y38976D01*
X14567Y38583D02*
X15354D01*
M02*
