G04*
G04 #@! TF.GenerationSoftware,Altium Limited,Altium Designer,22.10.1 (41)*
G04*
G04 Layer_Color=32896*
%FSLAX25Y25*%
%MOIN*%
G70*
G04*
G04 #@! TF.SameCoordinates,0245A464-56C0-4E7C-B2BA-3340792428E8*
G04*
G04*
G04 #@! TF.FilePolarity,Positive*
G04*
G01*
G75*
%ADD10C,0.00394*%
%ADD11C,0.00787*%
%ADD12C,0.00000*%
%ADD15C,0.00500*%
%ADD18C,0.00551*%
%ADD104C,0.00658*%
%ADD105C,0.00591*%
G36*
X72657Y124357D02*
X64546D01*
Y124399D01*
X64588D01*
Y124441D01*
X64630D01*
Y124483D01*
X64672D01*
Y124525D01*
X64755D01*
Y124608D01*
X64797D01*
Y124650D01*
X64839D01*
Y124692D01*
X64881D01*
Y124734D01*
X64922D01*
Y124776D01*
X64964D01*
Y124817D01*
X65006D01*
Y124859D01*
X65090D01*
Y124901D01*
X65131D01*
Y124985D01*
X65173D01*
Y125026D01*
X65215D01*
Y125068D01*
X65257D01*
Y125110D01*
X65299D01*
Y125152D01*
X65382D01*
Y125194D01*
X65424D01*
Y125235D01*
X65466D01*
Y125319D01*
X65508D01*
Y125361D01*
X65550D01*
Y125403D01*
X65591D01*
Y125444D01*
X65633D01*
Y125486D01*
X72657D01*
Y124357D01*
D02*
G37*
G36*
Y122016D02*
X64546D01*
Y122058D01*
X64588D01*
Y122099D01*
X64630D01*
Y122141D01*
X64672D01*
Y122183D01*
X64713D01*
Y122225D01*
X64755D01*
Y122267D01*
X64797D01*
Y122309D01*
X64839D01*
Y122350D01*
X64881D01*
Y122392D01*
X64922D01*
Y122434D01*
X64964D01*
Y122476D01*
X65006D01*
Y122518D01*
X65048D01*
Y122559D01*
X65090D01*
Y122601D01*
X65131D01*
Y122643D01*
X65173D01*
Y122685D01*
X65215D01*
Y122727D01*
X65257D01*
Y122768D01*
X65299D01*
Y122810D01*
X65341D01*
Y122852D01*
X65382D01*
Y122894D01*
X65424D01*
Y122936D01*
X65466D01*
Y122978D01*
X65508D01*
Y123019D01*
X65550D01*
Y123061D01*
X65591D01*
Y123103D01*
X65633D01*
Y123145D01*
X65675D01*
Y123187D01*
X72657D01*
Y122016D01*
D02*
G37*
G36*
X76797Y126030D02*
X76838D01*
Y125946D01*
X76880D01*
Y125863D01*
X76922D01*
Y125779D01*
X76964D01*
Y125695D01*
X77006D01*
Y125612D01*
X77048D01*
Y125528D01*
X77089D01*
Y125444D01*
X77131D01*
Y125361D01*
X77173D01*
Y125277D01*
X77215D01*
Y125194D01*
X77257D01*
Y125110D01*
X77298D01*
Y125026D01*
X77340D01*
Y124985D01*
X77382D01*
Y124901D01*
X77424D01*
Y124817D01*
X77466D01*
Y124734D01*
X77508D01*
Y124650D01*
X77549D01*
Y124566D01*
X77591D01*
Y124483D01*
X77633D01*
Y124399D01*
X77675D01*
Y124316D01*
X77717D01*
Y124232D01*
X77758D01*
Y124148D01*
X77800D01*
Y124065D01*
X77842D01*
Y123981D01*
X77884D01*
Y123897D01*
X77926D01*
Y123814D01*
X77967D01*
Y123730D01*
X78009D01*
Y123647D01*
X78051D01*
Y123563D01*
X78093D01*
Y123479D01*
X78135D01*
Y123396D01*
X78176D01*
Y123312D01*
X78218D01*
Y123228D01*
X78260D01*
Y123187D01*
X78302D01*
Y123103D01*
X78344D01*
Y123019D01*
X78386D01*
Y122936D01*
X78427D01*
Y122852D01*
X78469D01*
Y122768D01*
X78511D01*
Y122685D01*
X78553D01*
Y122601D01*
X78595D01*
Y122518D01*
X78636D01*
Y122434D01*
X78678D01*
Y122350D01*
X78720D01*
Y122267D01*
X78762D01*
Y122183D01*
X78804D01*
Y122099D01*
X78846D01*
Y122016D01*
X78887D01*
Y121932D01*
X78929D01*
Y121849D01*
X78971D01*
Y121807D01*
X79013D01*
Y121723D01*
X79054D01*
Y121640D01*
X79096D01*
Y121556D01*
X79138D01*
Y121472D01*
X79180D01*
Y121389D01*
X79222D01*
Y121305D01*
X79264D01*
Y121221D01*
X79305D01*
Y121138D01*
X79347D01*
Y121054D01*
X79389D01*
Y120971D01*
X79431D01*
Y120887D01*
X79473D01*
Y120803D01*
X79514D01*
Y120720D01*
X79556D01*
Y120636D01*
X79598D01*
Y120553D01*
X79640D01*
Y120469D01*
X79682D01*
Y120385D01*
X79724D01*
Y120343D01*
X79765D01*
Y120260D01*
X79807D01*
Y120134D01*
X79849D01*
Y120051D01*
X79891D01*
Y120009D01*
X79933D01*
Y119925D01*
X79974D01*
Y119842D01*
X80016D01*
Y119758D01*
X80058D01*
Y119675D01*
X80100D01*
Y119591D01*
X80142D01*
Y119507D01*
X80183D01*
Y119424D01*
X80225D01*
Y119340D01*
X80267D01*
Y119256D01*
X80309D01*
Y119173D01*
X80351D01*
Y119089D01*
X80392D01*
Y119006D01*
X80434D01*
Y118922D01*
X80476D01*
Y118880D01*
X80518D01*
Y118838D01*
X80602D01*
Y118797D01*
X80643D01*
Y118755D01*
X80727D01*
Y118713D01*
X80769D01*
Y118671D01*
X80852D01*
Y118629D01*
X80894D01*
Y118587D01*
X80978D01*
Y118546D01*
X81020D01*
Y118504D01*
X81103D01*
Y118462D01*
X81145D01*
Y118420D01*
X81229D01*
Y118378D01*
X81270D01*
Y118337D01*
X81354D01*
Y118295D01*
X81396D01*
Y118253D01*
X81480D01*
Y118211D01*
X81521D01*
Y118169D01*
X81605D01*
Y118128D01*
X81689D01*
Y118086D01*
X81730D01*
Y118044D01*
X81814D01*
Y118002D01*
X81856D01*
Y117960D01*
X81898D01*
Y117919D01*
X81981D01*
Y117877D01*
X82065D01*
Y117835D01*
X82107D01*
Y117793D01*
X82190D01*
Y117751D01*
X82232D01*
Y117709D01*
X82316D01*
Y117668D01*
X82358D01*
Y117626D01*
X82441D01*
Y117584D01*
X82483D01*
Y117542D01*
X82567D01*
Y117500D01*
X82608D01*
Y117458D01*
X82692D01*
Y117417D01*
X82734D01*
Y117375D01*
X82818D01*
Y117333D01*
X82859D01*
Y117291D01*
X82943D01*
Y117250D01*
X82985D01*
Y117208D01*
X83068D01*
Y117166D01*
X83110D01*
Y117124D01*
X83194D01*
Y117082D01*
X83277D01*
Y117040D01*
X83319D01*
Y116999D01*
X83403D01*
Y116957D01*
X83445D01*
Y116915D01*
X83528D01*
Y116873D01*
X83570D01*
Y116831D01*
X83654D01*
Y116790D01*
X83696D01*
Y116748D01*
X83570D01*
Y116790D01*
X83445D01*
Y116831D01*
X83319D01*
Y116873D01*
X83152D01*
Y116915D01*
X83027D01*
Y116957D01*
X82859D01*
Y116999D01*
X82734D01*
Y117040D01*
X82608D01*
Y117082D01*
X82441D01*
Y117124D01*
X82316D01*
Y117166D01*
X82190D01*
Y117208D01*
X82065D01*
Y117250D01*
X81898D01*
Y117291D01*
X81772D01*
Y117333D01*
X81605D01*
Y117375D01*
X81480D01*
Y117417D01*
X81354D01*
Y117458D01*
X81229D01*
Y117500D01*
X81103D01*
Y117542D01*
X80936D01*
Y117584D01*
X80811D01*
Y117626D01*
X80643D01*
Y117668D01*
X80518D01*
Y117709D01*
X80392D01*
Y117751D01*
X80267D01*
Y117793D01*
X80142D01*
Y117835D01*
X79974D01*
Y117877D01*
X79849D01*
Y117919D01*
X79682D01*
Y117960D01*
X79556D01*
Y118002D01*
X79431D01*
Y118044D01*
X79305D01*
Y118086D01*
X79180D01*
Y118128D01*
X79013D01*
Y118169D01*
X78887D01*
Y118211D01*
X78720D01*
Y118253D01*
X78386D01*
Y118295D01*
X78093D01*
Y118337D01*
X77842D01*
Y118378D01*
X77758D01*
Y118420D01*
X77717D01*
Y118546D01*
X77675D01*
Y118671D01*
X77633D01*
Y118797D01*
X77591D01*
Y118922D01*
X77549D01*
Y119047D01*
X77508D01*
Y119173D01*
X77466D01*
Y119298D01*
X77424D01*
Y119424D01*
X77382D01*
Y119549D01*
X77340D01*
Y119675D01*
X77298D01*
Y119800D01*
X77257D01*
Y119925D01*
X77215D01*
Y120051D01*
X77173D01*
Y120176D01*
X77131D01*
Y120302D01*
X77089D01*
Y120427D01*
X77048D01*
Y120553D01*
X77006D01*
Y120678D01*
X76964D01*
Y120803D01*
X76922D01*
Y120929D01*
X76880D01*
Y121096D01*
X76838D01*
Y121221D01*
X76797D01*
Y121305D01*
X76838D01*
Y121263D01*
X76880D01*
Y121221D01*
X76964D01*
Y121180D01*
X77006D01*
Y121138D01*
X77089D01*
Y121096D01*
X77173D01*
Y121054D01*
X77215D01*
Y121012D01*
X77298D01*
Y120971D01*
X77340D01*
Y120929D01*
X77424D01*
Y120887D01*
X77466D01*
Y120845D01*
X77549D01*
Y120803D01*
X77591D01*
Y120762D01*
X77675D01*
Y120720D01*
X77717D01*
Y120678D01*
X77800D01*
Y120636D01*
X77842D01*
Y120594D01*
X77926D01*
Y120553D01*
X77967D01*
Y120511D01*
X78051D01*
Y120469D01*
X78093D01*
Y120427D01*
X78176D01*
Y120385D01*
X78218D01*
Y120343D01*
X78302D01*
Y120302D01*
X78344D01*
Y120260D01*
X78427D01*
Y120218D01*
X78469D01*
Y120176D01*
X78553D01*
Y120134D01*
X78595D01*
Y120093D01*
X78678D01*
Y120051D01*
X78720D01*
Y120009D01*
X78804D01*
Y120051D01*
X78762D01*
Y120134D01*
X78720D01*
Y120218D01*
X78678D01*
Y120302D01*
X78636D01*
Y120385D01*
X78595D01*
Y120469D01*
X78553D01*
Y120553D01*
X78511D01*
Y120636D01*
X78469D01*
Y120720D01*
X78427D01*
Y120803D01*
X78386D01*
Y120887D01*
X78344D01*
Y120971D01*
X78302D01*
Y121054D01*
X78260D01*
Y121138D01*
X78218D01*
Y121180D01*
X78176D01*
Y121263D01*
X78135D01*
Y121389D01*
X78093D01*
Y121472D01*
X78051D01*
Y121514D01*
X78009D01*
Y121598D01*
X77967D01*
Y121681D01*
X77926D01*
Y121765D01*
X77884D01*
Y121849D01*
X77842D01*
Y121932D01*
X77800D01*
Y122016D01*
X77758D01*
Y122099D01*
X77717D01*
Y122183D01*
X77675D01*
Y122267D01*
X77633D01*
Y122350D01*
X77591D01*
Y122434D01*
X77549D01*
Y122518D01*
X77508D01*
Y122601D01*
X77466D01*
Y122685D01*
X77424D01*
Y122768D01*
X77382D01*
Y122852D01*
X77340D01*
Y122936D01*
X77298D01*
Y122978D01*
X77257D01*
Y123061D01*
X77215D01*
Y123145D01*
X77173D01*
Y123228D01*
X77131D01*
Y123312D01*
X77089D01*
Y123396D01*
X77048D01*
Y123479D01*
X77006D01*
Y123563D01*
X76964D01*
Y123647D01*
X76922D01*
Y123730D01*
X76880D01*
Y123814D01*
X76838D01*
Y123897D01*
X76797D01*
Y123981D01*
X76713D01*
Y123897D01*
X76671D01*
Y123814D01*
X76630D01*
Y123730D01*
X76588D01*
Y123647D01*
X76546D01*
Y123563D01*
X76504D01*
Y123479D01*
X76462D01*
Y123396D01*
X76420D01*
Y123312D01*
X76379D01*
Y123228D01*
X76337D01*
Y123145D01*
X76295D01*
Y123061D01*
X76253D01*
Y122978D01*
X76211D01*
Y122936D01*
X76170D01*
Y122810D01*
X76128D01*
Y122727D01*
X76086D01*
Y122643D01*
X76044D01*
Y122601D01*
X76002D01*
Y122518D01*
X75960D01*
Y122434D01*
X75919D01*
Y122350D01*
X75877D01*
Y122267D01*
X75835D01*
Y122183D01*
X75793D01*
Y122099D01*
X75752D01*
Y122016D01*
X75710D01*
Y121932D01*
X75668D01*
Y121849D01*
X75626D01*
Y121765D01*
X75584D01*
Y121681D01*
X75542D01*
Y121598D01*
X75501D01*
Y121514D01*
X75459D01*
Y121431D01*
X75417D01*
Y121347D01*
X75375D01*
Y121263D01*
X75333D01*
Y121180D01*
X75292D01*
Y121138D01*
X75250D01*
Y121054D01*
X75208D01*
Y120971D01*
X75166D01*
Y120887D01*
X75124D01*
Y120803D01*
X75082D01*
Y120720D01*
X75041D01*
Y120636D01*
X74999D01*
Y120553D01*
X74957D01*
Y120469D01*
X74915D01*
Y120385D01*
X74873D01*
Y120302D01*
X74832D01*
Y120218D01*
X74790D01*
Y120134D01*
X74748D01*
Y120093D01*
X74832D01*
Y120134D01*
X74873D01*
Y120176D01*
X74957D01*
Y120218D01*
X74999D01*
Y120260D01*
X75082D01*
Y120302D01*
X75124D01*
Y120343D01*
X75166D01*
Y120385D01*
X75250D01*
Y120427D01*
X75333D01*
Y120469D01*
X75375D01*
Y120511D01*
X75459D01*
Y120553D01*
X75501D01*
Y120594D01*
X75584D01*
Y120636D01*
X75626D01*
Y120678D01*
X75710D01*
Y120720D01*
X75752D01*
Y120762D01*
X75835D01*
Y120803D01*
X75877D01*
Y120845D01*
X75960D01*
Y120887D01*
X76002D01*
Y120929D01*
X76086D01*
Y120971D01*
X76128D01*
Y121012D01*
X76211D01*
Y121054D01*
X76253D01*
Y121096D01*
X76337D01*
Y121138D01*
X76420D01*
Y121180D01*
X76462D01*
Y121221D01*
X76504D01*
Y121263D01*
X76588D01*
Y121305D01*
X76630D01*
Y121180D01*
X76588D01*
Y121054D01*
X76546D01*
Y120929D01*
X76504D01*
Y120803D01*
X76462D01*
Y120678D01*
X76420D01*
Y120553D01*
X76379D01*
Y120427D01*
X76337D01*
Y120302D01*
X76295D01*
Y120176D01*
X76253D01*
Y120051D01*
X76211D01*
Y119925D01*
X76170D01*
Y119800D01*
X76128D01*
Y119675D01*
X76086D01*
Y119549D01*
X76044D01*
Y119382D01*
X76002D01*
Y119256D01*
X75960D01*
Y119173D01*
X75919D01*
Y119047D01*
X75877D01*
Y118922D01*
X75835D01*
Y118797D01*
X75793D01*
Y118671D01*
X75752D01*
Y118504D01*
X75710D01*
Y118378D01*
X75542D01*
Y118337D01*
X75250D01*
Y118295D01*
X74999D01*
Y118253D01*
X74664D01*
Y118211D01*
X74497D01*
Y118169D01*
X74372D01*
Y118128D01*
X74246D01*
Y118086D01*
X74121D01*
Y118044D01*
X73995D01*
Y118002D01*
X73828D01*
Y117960D01*
X73703D01*
Y117919D01*
X73536D01*
Y117877D01*
X73410D01*
Y117835D01*
X73285D01*
Y117793D01*
X73159D01*
Y117751D01*
X73034D01*
Y117709D01*
X72866D01*
Y117668D01*
X72741D01*
Y117626D01*
X72616D01*
Y117584D01*
X72448D01*
Y117542D01*
X72323D01*
Y117500D01*
X72156D01*
Y117458D01*
X72030D01*
Y117417D01*
X71905D01*
Y117375D01*
X71779D01*
Y117333D01*
X71654D01*
Y117291D01*
X71487D01*
Y117250D01*
X71361D01*
Y117208D01*
X71194D01*
Y117166D01*
X71069D01*
Y117124D01*
X70943D01*
Y117082D01*
X70818D01*
Y117040D01*
X70692D01*
Y116999D01*
X70525D01*
Y116957D01*
X70400D01*
Y116915D01*
X70232D01*
Y116873D01*
X70107D01*
Y116831D01*
X69982D01*
Y116790D01*
X69856D01*
Y116748D01*
X69731D01*
Y116790D01*
X69772D01*
Y116831D01*
X69856D01*
Y116873D01*
X69898D01*
Y116915D01*
X69982D01*
Y116957D01*
X70023D01*
Y116999D01*
X70107D01*
Y117040D01*
X70149D01*
Y117082D01*
X70232D01*
Y117124D01*
X70274D01*
Y117166D01*
X70358D01*
Y117208D01*
X70442D01*
Y117250D01*
X70483D01*
Y117291D01*
X70567D01*
Y117333D01*
X70609D01*
Y117375D01*
X70651D01*
Y117417D01*
X70734D01*
Y117458D01*
X70818D01*
Y117500D01*
X70860D01*
Y117542D01*
X70943D01*
Y117584D01*
X70985D01*
Y117626D01*
X71069D01*
Y117668D01*
X71110D01*
Y117709D01*
X71194D01*
Y117751D01*
X71236D01*
Y117793D01*
X71320D01*
Y117835D01*
X71361D01*
Y117877D01*
X71445D01*
Y117919D01*
X71487D01*
Y117960D01*
X71570D01*
Y118002D01*
X71612D01*
Y118044D01*
X71696D01*
Y118086D01*
X71738D01*
Y118128D01*
X71821D01*
Y118169D01*
X71905D01*
Y118211D01*
X71947D01*
Y118253D01*
X72030D01*
Y118295D01*
X72072D01*
Y118337D01*
X72114D01*
Y118378D01*
X72198D01*
Y118420D01*
X72281D01*
Y118462D01*
X72323D01*
Y118504D01*
X72407D01*
Y118546D01*
X72448D01*
Y118587D01*
X72532D01*
Y118629D01*
X72574D01*
Y118671D01*
X72657D01*
Y118713D01*
X72699D01*
Y118755D01*
X72783D01*
Y118797D01*
X72825D01*
Y118838D01*
X72908D01*
Y118880D01*
X72950D01*
Y118922D01*
X73034D01*
Y118964D01*
X73076D01*
Y119006D01*
X73117D01*
Y119089D01*
X73159D01*
Y119173D01*
X73201D01*
Y119256D01*
X73243D01*
Y119340D01*
X73285D01*
Y119424D01*
X73326D01*
Y119507D01*
X73368D01*
Y119591D01*
X73410D01*
Y119675D01*
X73452D01*
Y119758D01*
X73494D01*
Y119842D01*
X73536D01*
Y119925D01*
X73577D01*
Y120009D01*
X73619D01*
Y120093D01*
X73661D01*
Y120134D01*
X73703D01*
Y120218D01*
X73744D01*
Y120302D01*
X73786D01*
Y120385D01*
X73828D01*
Y120469D01*
X73870D01*
Y120553D01*
X73912D01*
Y120636D01*
X73954D01*
Y120720D01*
X73995D01*
Y120803D01*
X74037D01*
Y120887D01*
X74079D01*
Y120971D01*
X74121D01*
Y121054D01*
X74163D01*
Y121138D01*
X74204D01*
Y121221D01*
X74246D01*
Y121305D01*
X74288D01*
Y121389D01*
X74330D01*
Y121472D01*
X74372D01*
Y121514D01*
X74414D01*
Y121598D01*
X74455D01*
Y121681D01*
X74497D01*
Y121765D01*
X74539D01*
Y121849D01*
X74581D01*
Y121932D01*
X74623D01*
Y122016D01*
X74664D01*
Y122099D01*
X74706D01*
Y122183D01*
X74748D01*
Y122267D01*
X74790D01*
Y122350D01*
X74832D01*
Y122434D01*
X74873D01*
Y122518D01*
X74915D01*
Y122601D01*
X74957D01*
Y122685D01*
X74999D01*
Y122768D01*
X75041D01*
Y122852D01*
X75082D01*
Y122936D01*
X75124D01*
Y123019D01*
X75166D01*
Y123103D01*
X75208D01*
Y123187D01*
X75250D01*
Y123270D01*
X75292D01*
Y123312D01*
X75333D01*
Y123396D01*
X75375D01*
Y123479D01*
X75417D01*
Y123563D01*
X75459D01*
Y123647D01*
X75501D01*
Y123730D01*
X75542D01*
Y123814D01*
X75584D01*
Y123897D01*
X75626D01*
Y123981D01*
X75668D01*
Y124065D01*
X75710D01*
Y124148D01*
X75752D01*
Y124232D01*
X75793D01*
Y124316D01*
X75835D01*
Y124399D01*
X75877D01*
Y124483D01*
X75919D01*
Y124566D01*
X75960D01*
Y124650D01*
X76002D01*
Y124692D01*
X76044D01*
Y124776D01*
X76086D01*
Y124859D01*
X76128D01*
Y124943D01*
X76170D01*
Y125026D01*
X76211D01*
Y125110D01*
X76253D01*
Y125194D01*
X76295D01*
Y125277D01*
X76337D01*
Y125361D01*
X76379D01*
Y125444D01*
X76420D01*
Y125528D01*
X76462D01*
Y125612D01*
X76504D01*
Y125695D01*
X76546D01*
Y125779D01*
X76588D01*
Y125863D01*
X76630D01*
Y125946D01*
X76671D01*
Y126030D01*
X76713D01*
Y126113D01*
X76797D01*
Y126030D01*
D02*
G37*
G36*
X72657Y119716D02*
X64546D01*
Y119758D01*
X64588D01*
Y119800D01*
X64630D01*
Y119842D01*
X64672D01*
Y119884D01*
X64713D01*
Y119925D01*
X64755D01*
Y119967D01*
X64797D01*
Y120009D01*
X64839D01*
Y120051D01*
X64881D01*
Y120093D01*
X64922D01*
Y120134D01*
X64964D01*
Y120176D01*
X65006D01*
Y120218D01*
X65048D01*
Y120260D01*
X65090D01*
Y120302D01*
X65131D01*
Y120343D01*
X65173D01*
Y120385D01*
X65215D01*
Y120427D01*
X65257D01*
Y120469D01*
X65299D01*
Y120511D01*
X65341D01*
Y120553D01*
X65382D01*
Y120594D01*
X65424D01*
Y120636D01*
X65466D01*
Y120678D01*
X65508D01*
Y120720D01*
X65550D01*
Y120762D01*
X65591D01*
Y120803D01*
X65633D01*
Y120845D01*
X72657D01*
Y119716D01*
D02*
G37*
G36*
X63375Y125444D02*
Y125403D01*
Y124357D01*
X56435D01*
Y124316D01*
X56393D01*
Y123187D01*
X63375D01*
Y119716D01*
X62205D01*
Y122016D01*
X58985D01*
Y121974D01*
X58943D01*
Y121932D01*
X58902D01*
Y121890D01*
X58860D01*
Y121849D01*
X58818D01*
Y121807D01*
X58776D01*
Y121765D01*
X58734D01*
Y121723D01*
X58693D01*
Y121681D01*
X58651D01*
Y121640D01*
X58609D01*
Y121598D01*
X58567D01*
Y121556D01*
X58525D01*
Y121514D01*
X58483D01*
Y121472D01*
X58442D01*
Y121431D01*
X58400D01*
Y121389D01*
X58358D01*
Y121347D01*
X58316D01*
Y121305D01*
X58275D01*
Y121263D01*
X58233D01*
Y121221D01*
X58191D01*
Y121180D01*
X58149D01*
Y121138D01*
X58107D01*
Y121096D01*
X58065D01*
Y121054D01*
X58024D01*
Y121012D01*
X57982D01*
Y120971D01*
X57940D01*
Y120929D01*
X57898D01*
Y120887D01*
X57856D01*
Y120845D01*
X57815D01*
Y120803D01*
X57773D01*
Y120762D01*
X57731D01*
Y120720D01*
X57689D01*
Y120678D01*
X57647D01*
Y120636D01*
X57605D01*
Y120594D01*
X57564D01*
Y120553D01*
X57522D01*
Y120511D01*
X57480D01*
Y120469D01*
X57438D01*
Y120427D01*
X57397D01*
Y120385D01*
X57355D01*
Y120343D01*
X57313D01*
Y120302D01*
X57271D01*
Y120260D01*
X57229D01*
Y120218D01*
X57187D01*
Y120176D01*
X57146D01*
Y120134D01*
X57104D01*
Y120093D01*
X57062D01*
Y120051D01*
X57020D01*
Y120009D01*
X56978D01*
Y119967D01*
X56937D01*
Y119925D01*
X56895D01*
Y119884D01*
X56853D01*
Y119842D01*
X56811D01*
Y119800D01*
X56769D01*
Y119758D01*
X56727D01*
Y119716D01*
X55264D01*
Y119758D01*
X55306D01*
Y119800D01*
X55348D01*
Y119842D01*
X55389D01*
Y119884D01*
X55431D01*
Y119925D01*
X55473D01*
Y119967D01*
X55515D01*
Y120009D01*
X55557D01*
Y120051D01*
X55599D01*
Y120093D01*
X55640D01*
Y120134D01*
X55682D01*
Y120176D01*
X55724D01*
Y120218D01*
X55766D01*
Y120260D01*
X55808D01*
Y120302D01*
X55849D01*
Y120343D01*
X55891D01*
Y120385D01*
X55933D01*
Y120427D01*
X55975D01*
Y120469D01*
X56017D01*
Y120511D01*
X56059D01*
Y120553D01*
X56100D01*
Y120594D01*
X56142D01*
Y120636D01*
X56184D01*
Y120678D01*
X56226D01*
Y120720D01*
X56268D01*
Y120762D01*
X56309D01*
Y120803D01*
X56351D01*
Y120845D01*
X56393D01*
Y120887D01*
X56435D01*
Y120929D01*
X56477D01*
Y120971D01*
X56518D01*
Y121012D01*
X56560D01*
Y121054D01*
X56602D01*
Y121096D01*
X56644D01*
Y121138D01*
X56686D01*
Y121180D01*
X56727D01*
Y121221D01*
X56769D01*
Y121263D01*
X56811D01*
Y121305D01*
X56853D01*
Y121347D01*
X56895D01*
Y121389D01*
X56937D01*
Y121431D01*
X56978D01*
Y121472D01*
X57020D01*
Y121514D01*
X57062D01*
Y121556D01*
X57104D01*
Y121598D01*
X57146D01*
Y121640D01*
X57187D01*
Y121681D01*
X57229D01*
Y121723D01*
X57271D01*
Y121765D01*
X57313D01*
Y121807D01*
X57355D01*
Y121849D01*
X57397D01*
Y121890D01*
X57438D01*
Y121932D01*
X57480D01*
Y121974D01*
X57522D01*
Y122016D01*
X56142D01*
Y122058D01*
X55933D01*
Y122099D01*
X55808D01*
Y122141D01*
X55724D01*
Y122183D01*
X55640D01*
Y122225D01*
X55599D01*
Y122267D01*
X55557D01*
Y122309D01*
X55515D01*
Y122350D01*
X55473D01*
Y122392D01*
X55431D01*
Y122476D01*
X55389D01*
Y122518D01*
X55348D01*
Y122601D01*
X55306D01*
Y122768D01*
X55264D01*
Y123019D01*
X55222D01*
Y124525D01*
X55264D01*
Y124776D01*
X55306D01*
Y124901D01*
X55348D01*
Y124985D01*
X55389D01*
Y125068D01*
X55431D01*
Y125110D01*
X55473D01*
Y125152D01*
X55515D01*
Y125235D01*
X55599D01*
Y125277D01*
X55640D01*
Y125319D01*
X55682D01*
Y125361D01*
X55766D01*
Y125403D01*
X55891D01*
Y125444D01*
X56017D01*
Y125486D01*
X63375D01*
Y125444D01*
D02*
G37*
G36*
X53257D02*
X53424D01*
Y125403D01*
X53550D01*
Y125361D01*
X53633D01*
Y125319D01*
X53675D01*
Y125277D01*
X53759D01*
Y125235D01*
X53801D01*
Y125194D01*
X53843D01*
Y125110D01*
X53884D01*
Y125068D01*
X53926D01*
Y124985D01*
X53968D01*
Y124901D01*
X54010D01*
Y124776D01*
X54052D01*
Y124525D01*
X54093D01*
Y120678D01*
X54052D01*
Y120427D01*
X54010D01*
Y120302D01*
X53968D01*
Y120218D01*
X53926D01*
Y120134D01*
X53884D01*
Y120093D01*
X53843D01*
Y120009D01*
X53801D01*
Y119967D01*
X53759D01*
Y119925D01*
X53675D01*
Y119884D01*
X53633D01*
Y119842D01*
X53550D01*
Y119800D01*
X53424D01*
Y119758D01*
X53257D01*
Y119716D01*
X46735D01*
Y119758D01*
X46609D01*
Y119800D01*
X46484D01*
Y119842D01*
X46400D01*
Y119884D01*
X46358D01*
Y119925D01*
X46275D01*
Y119967D01*
X46233D01*
Y120009D01*
X46191D01*
Y120093D01*
X46149D01*
Y120134D01*
X46108D01*
Y120218D01*
X46066D01*
Y120302D01*
X46024D01*
Y120427D01*
X45982D01*
Y120636D01*
X45940D01*
Y124566D01*
X45982D01*
Y124776D01*
X46024D01*
Y124901D01*
X46066D01*
Y124985D01*
X46108D01*
Y125068D01*
X46149D01*
Y125110D01*
X46191D01*
Y125194D01*
X46233D01*
Y125235D01*
X46275D01*
Y125277D01*
X46358D01*
Y125319D01*
X46400D01*
Y125361D01*
X46484D01*
Y125403D01*
X46567D01*
Y125444D01*
X46735D01*
Y125486D01*
X53257D01*
Y125444D01*
D02*
G37*
G36*
X74623Y117375D02*
X74664D01*
Y117250D01*
Y117208D01*
X74706D01*
Y116999D01*
X74748D01*
Y116790D01*
X74790D01*
Y116664D01*
X74539D01*
Y116873D01*
X74497D01*
Y117082D01*
X74414D01*
Y117040D01*
X74372D01*
Y116957D01*
X74330D01*
Y116915D01*
X74288D01*
Y116873D01*
X74246D01*
Y116790D01*
X74204D01*
Y116748D01*
X74163D01*
Y116706D01*
X74121D01*
Y116664D01*
X73870D01*
Y116790D01*
X73828D01*
Y117040D01*
X73786D01*
Y117250D01*
X73744D01*
Y117417D01*
X73954D01*
Y117333D01*
X73995D01*
Y117124D01*
X74037D01*
Y116957D01*
X74079D01*
Y116999D01*
X74121D01*
Y117082D01*
X74163D01*
Y117124D01*
X74204D01*
Y117166D01*
X74246D01*
Y117250D01*
X74288D01*
Y117291D01*
X74330D01*
Y117333D01*
X74372D01*
Y117417D01*
X74623D01*
Y117375D01*
D02*
G37*
G36*
X79765Y117333D02*
X79807D01*
Y117291D01*
X79849D01*
Y117250D01*
X80058D01*
Y117082D01*
X79807D01*
Y117040D01*
X79849D01*
Y116831D01*
X79891D01*
Y116664D01*
X79682D01*
Y116706D01*
X79640D01*
Y116873D01*
X79598D01*
Y117082D01*
X79556D01*
Y117291D01*
X79514D01*
Y117375D01*
X79765D01*
Y117333D01*
D02*
G37*
G36*
X79514Y116831D02*
Y116790D01*
Y116706D01*
X79556D01*
Y116664D01*
X79305D01*
Y116706D01*
X79264D01*
Y116873D01*
X79514D01*
Y116831D01*
D02*
G37*
G36*
X77424Y117375D02*
X77466D01*
Y117291D01*
X77508D01*
Y117250D01*
X77549D01*
Y117166D01*
X77591D01*
Y117124D01*
X77633D01*
Y117040D01*
X77675D01*
Y116999D01*
X77717D01*
Y116957D01*
X77758D01*
Y116873D01*
X77800D01*
Y116831D01*
X77842D01*
Y116748D01*
X77884D01*
Y116664D01*
X77633D01*
Y116706D01*
X77591D01*
Y116790D01*
X77173D01*
Y116748D01*
X77131D01*
Y116664D01*
X76880D01*
Y116790D01*
X76922D01*
Y116915D01*
X76964D01*
Y117040D01*
X77006D01*
Y117166D01*
X77048D01*
Y117291D01*
X77089D01*
Y117375D01*
X77131D01*
Y117417D01*
X77424D01*
Y117375D01*
D02*
G37*
G36*
X76671Y117291D02*
X76713D01*
Y117082D01*
X76755D01*
Y116873D01*
X76797D01*
Y116664D01*
X76128D01*
Y116706D01*
X76002D01*
Y116748D01*
X75960D01*
Y116790D01*
X75919D01*
Y116831D01*
X75877D01*
Y116873D01*
X75835D01*
Y116999D01*
X75793D01*
Y117208D01*
X75835D01*
Y117291D01*
X75877D01*
Y117333D01*
X75919D01*
Y117375D01*
X76044D01*
Y117417D01*
X76671D01*
Y117291D01*
D02*
G37*
G36*
X75375Y117375D02*
X75417D01*
Y117333D01*
X75459D01*
Y117291D01*
X75501D01*
Y117208D01*
X75542D01*
Y117166D01*
X75584D01*
Y117082D01*
X75626D01*
Y117040D01*
X75668D01*
Y116957D01*
X75710D01*
Y116915D01*
X75752D01*
Y116873D01*
X75793D01*
Y116790D01*
X75835D01*
Y116748D01*
X75877D01*
Y116664D01*
X75626D01*
Y116706D01*
X75584D01*
Y116748D01*
X75542D01*
Y116790D01*
X75124D01*
Y116664D01*
X74873D01*
Y116831D01*
X74915D01*
Y116957D01*
X74957D01*
Y117082D01*
X74999D01*
Y117208D01*
X75041D01*
Y117333D01*
X75082D01*
Y117417D01*
X75375D01*
Y117375D01*
D02*
G37*
G36*
X73285D02*
X73326D01*
Y117333D01*
X73368D01*
Y117291D01*
X73410D01*
Y117208D01*
X73452D01*
Y117166D01*
X73494D01*
Y117082D01*
X73536D01*
Y117040D01*
X73577D01*
Y116957D01*
X73619D01*
Y116915D01*
X73661D01*
Y116873D01*
X73703D01*
Y116790D01*
X73744D01*
Y116748D01*
X73786D01*
Y116664D01*
X73536D01*
Y116706D01*
X73494D01*
Y116748D01*
X73452D01*
Y116790D01*
X73034D01*
Y116664D01*
X72783D01*
Y116790D01*
X72825D01*
Y116957D01*
X72866D01*
Y117082D01*
X72908D01*
Y117208D01*
X72950D01*
Y117333D01*
X72992D01*
Y117417D01*
X73285D01*
Y117375D01*
D02*
G37*
G36*
X79054Y117208D02*
X79096D01*
Y117040D01*
X79138D01*
Y116999D01*
X78553D01*
Y116873D01*
X78595D01*
Y116831D01*
X78887D01*
Y116873D01*
X79180D01*
Y116790D01*
X79138D01*
Y116748D01*
Y116706D01*
X79054D01*
Y116664D01*
X78846D01*
Y116622D01*
X78678D01*
Y116664D01*
X78469D01*
Y116706D01*
X78386D01*
Y116748D01*
X78344D01*
Y116790D01*
X78302D01*
Y116915D01*
X78260D01*
Y116999D01*
X78302D01*
Y117082D01*
X78344D01*
Y117124D01*
X78427D01*
Y117166D01*
X78846D01*
Y117250D01*
X78260D01*
Y117375D01*
X79054D01*
Y117208D01*
D02*
G37*
G36*
X19242Y110802D02*
X19202D01*
Y110842D01*
X19242D01*
Y110802D01*
D02*
G37*
G36*
X19202Y110762D02*
X19162D01*
Y110802D01*
X19202D01*
Y110762D01*
D02*
G37*
G36*
X19162Y110722D02*
X19122D01*
Y110762D01*
X19162D01*
Y110722D01*
D02*
G37*
G36*
X19122Y110682D02*
X19082D01*
Y110722D01*
X19122D01*
Y110682D01*
D02*
G37*
G36*
X20599Y110003D02*
X20560D01*
Y110043D01*
X20599D01*
Y110003D01*
D02*
G37*
G36*
X22357Y109404D02*
X22397D01*
Y109364D01*
X22436D01*
Y109325D01*
X22476D01*
Y109285D01*
X22516D01*
Y109245D01*
X22556D01*
Y109205D01*
X22596D01*
Y109165D01*
X22636D01*
Y109125D01*
X22676D01*
Y109085D01*
X22716D01*
Y109045D01*
X22756D01*
Y109005D01*
X22796D01*
Y108965D01*
X22756D01*
Y109005D01*
X22716D01*
Y109045D01*
X22676D01*
Y109085D01*
X22636D01*
Y109125D01*
X22596D01*
Y109165D01*
X22556D01*
Y109205D01*
X22516D01*
Y109245D01*
X22476D01*
Y109285D01*
X22436D01*
Y109325D01*
X22397D01*
Y109364D01*
X22357D01*
Y109404D01*
X22317D01*
Y109444D01*
X22357D01*
Y109404D01*
D02*
G37*
G36*
X18603Y106090D02*
X18563D01*
Y106130D01*
X18603D01*
Y106090D01*
D02*
G37*
G36*
X106345Y105392D02*
X106408Y105375D01*
X106482Y105300D01*
X106494Y105174D01*
X106471Y105116D01*
X106385Y105053D01*
X106282Y105042D01*
X106224Y105065D01*
X106161Y105128D01*
X106150Y105174D01*
Y105185D01*
X106139Y105220D01*
X106150Y105266D01*
X106173Y105323D01*
X106184Y105346D01*
X106213Y105363D01*
X106236Y105375D01*
X106293Y105397D01*
X106345Y105392D01*
D02*
G37*
G36*
X19162Y105012D02*
X19082D01*
Y105052D01*
X19162D01*
Y105012D01*
D02*
G37*
G36*
X98062Y105317D02*
X98108Y105248D01*
X98114Y105243D01*
X98125Y105208D01*
X98114Y105140D01*
X98062Y105065D01*
X97982Y105019D01*
X97925Y105008D01*
X97827Y105048D01*
X97770Y105128D01*
X97758Y105220D01*
X97793Y105300D01*
X97810Y105317D01*
X97833Y105329D01*
X97856Y105351D01*
X97993Y105363D01*
X98062Y105317D01*
D02*
G37*
G36*
X98045Y97573D02*
X98108Y97556D01*
X98148Y97505D01*
X98177Y97464D01*
X98188Y97407D01*
X98182Y97321D01*
X98137Y97275D01*
X98125Y97252D01*
X98108Y97235D01*
X98062Y97224D01*
X98028Y97212D01*
X97959Y97224D01*
X97913Y97235D01*
X97890Y97258D01*
X97838Y97321D01*
X97827Y97424D01*
X97861Y97505D01*
X97873Y97527D01*
X97948Y97567D01*
X97959D01*
X97970Y97579D01*
X98045Y97573D01*
D02*
G37*
G36*
X106385Y97522D02*
X106442Y97453D01*
X106448Y97447D01*
X106459Y97424D01*
X106471Y97355D01*
X106425Y97252D01*
X106362Y97201D01*
X106259Y97189D01*
X106202Y97212D01*
X106179Y97224D01*
X106161Y97241D01*
X106150Y97264D01*
X106127Y97287D01*
X106115Y97424D01*
X106161Y97493D01*
X106224Y97545D01*
X106305Y97556D01*
X106385Y97522D01*
D02*
G37*
G36*
X101757Y95279D02*
X101690D01*
Y95346D01*
X101757D01*
Y95279D01*
D02*
G37*
G36*
X63118D02*
X63051D01*
Y95346D01*
X63118D01*
Y95279D01*
D02*
G37*
%LPC*%
G36*
X52881Y124357D02*
X47111D01*
Y120845D01*
X52881D01*
Y120887D01*
X52923D01*
Y124316D01*
X52881D01*
Y124357D01*
D02*
G37*
G36*
X77340Y117166D02*
X77257D01*
Y117040D01*
X77215D01*
Y116957D01*
X77424D01*
Y117040D01*
X77382D01*
Y117124D01*
X77340D01*
Y117166D01*
D02*
G37*
G36*
X76462Y117208D02*
X76128D01*
Y117166D01*
X76086D01*
Y117040D01*
Y116999D01*
Y116957D01*
X76128D01*
Y116915D01*
X76170D01*
Y116873D01*
X76253D01*
Y116831D01*
X76504D01*
Y116873D01*
X76546D01*
Y116915D01*
X76504D01*
Y117124D01*
X76462D01*
Y117208D01*
D02*
G37*
G36*
X75292D02*
X75250D01*
Y117124D01*
X75208D01*
Y116957D01*
X75417D01*
Y116999D01*
X75375D01*
Y117082D01*
X75333D01*
Y117124D01*
X75292D01*
Y117208D01*
D02*
G37*
G36*
X73243Y117166D02*
X73159D01*
Y117082D01*
X73117D01*
Y116957D01*
X73326D01*
Y116999D01*
Y117040D01*
X73285D01*
Y117082D01*
X73243D01*
Y117166D01*
D02*
G37*
%LPD*%
D10*
X128347Y75868D02*
Y80825D01*
X125984Y75871D02*
Y80828D01*
X41732Y75474D02*
Y80431D01*
X39370Y75478D02*
Y80434D01*
X39370Y37679D02*
Y42636D01*
X41732Y37676D02*
Y42633D01*
X127837Y86221D02*
X132793D01*
X127840Y88583D02*
X132797D01*
X92913Y54215D02*
Y59171D01*
X95276Y54211D02*
Y59168D01*
X41732Y83742D02*
Y88699D01*
X39370Y83745D02*
Y88702D01*
X39370Y29805D02*
Y34762D01*
X41732Y29802D02*
Y34759D01*
D11*
X31102Y50433D02*
G03*
X31102Y50433I-394J0D01*
G01*
X62992Y153543D02*
X94488D01*
Y133858D02*
Y153543D01*
X62992Y133858D02*
X94488D01*
X62992D02*
Y153543D01*
D12*
X132677Y129134D02*
G03*
X132677Y129134I-394J0D01*
G01*
D15*
X43494Y46644D02*
Y72254D01*
X57293Y46644D02*
Y72254D01*
X43494Y46644D02*
X57293D01*
X43494Y72254D02*
X57293D01*
X133937Y121555D02*
Y122894D01*
X139291Y121555D02*
Y122894D01*
X66850Y75315D02*
Y76653D01*
X61496Y75315D02*
Y76653D01*
X122638Y127756D02*
X125787D01*
X122638Y116339D02*
X125787D01*
X122638D02*
Y119095D01*
Y125000D02*
Y127756D01*
X155799Y32037D02*
Y29644D01*
X154603D01*
X154204Y30043D01*
Y31638D01*
X154603Y32037D01*
X155799D01*
X152210Y29644D02*
X153007D01*
X153406Y30043D01*
Y30841D01*
X153007Y31239D01*
X152210D01*
X151811Y30841D01*
Y30442D01*
X153406D01*
X151013Y29644D02*
X149817D01*
X149418Y30043D01*
X149817Y30442D01*
X150615D01*
X151013Y30841D01*
X150615Y31239D01*
X149418D01*
X148620Y29644D02*
X147823D01*
X148222D01*
Y31239D01*
X148620D01*
X145829Y28846D02*
X145430D01*
X145031Y29245D01*
Y31239D01*
X146228D01*
X146626Y30841D01*
Y30043D01*
X146228Y29644D01*
X145031D01*
X144233D02*
Y31239D01*
X143037D01*
X142638Y30841D01*
Y29644D01*
X140644D02*
X141442D01*
X141841Y30043D01*
Y30841D01*
X141442Y31239D01*
X140644D01*
X140245Y30841D01*
Y30442D01*
X141841D01*
X137852Y32037D02*
Y29644D01*
X139049D01*
X139447Y30043D01*
Y30841D01*
X139049Y31239D01*
X137852D01*
X134662Y32037D02*
Y29644D01*
X133465D01*
X133066Y30043D01*
Y30442D01*
X133465Y30841D01*
X134662D01*
X133465D01*
X133066Y31239D01*
Y31638D01*
X133465Y32037D01*
X134662D01*
X132269Y31239D02*
Y30043D01*
X131870Y29644D01*
X130674D01*
Y29245D01*
X131072Y28846D01*
X131471D01*
X130674Y29644D02*
Y31239D01*
X129876D02*
X129477D01*
Y30841D01*
X129876D01*
Y31239D01*
Y30043D02*
X129477D01*
Y29644D01*
X129876D01*
Y30043D01*
D18*
X72932Y74705D02*
Y77066D01*
X71752D01*
X71358Y76673D01*
Y75886D01*
X71752Y75492D01*
X72932D01*
X72145D02*
X71358Y74705D01*
X69390D02*
Y77066D01*
X70571Y75886D01*
X68997D01*
X32283Y32283D02*
X32677Y32677D01*
X33464D01*
X33857Y32283D01*
Y30709D01*
X33464Y30315D01*
X32677D01*
X32283Y30709D01*
X29921Y30315D02*
X31496D01*
X29921Y31890D01*
Y32283D01*
X30315Y32677D01*
X31102D01*
X31496Y32283D01*
X27560Y32677D02*
X28347Y32283D01*
X29134Y31496D01*
Y30709D01*
X28741Y30315D01*
X27954D01*
X27560Y30709D01*
Y31102D01*
X27954Y31496D01*
X29134D01*
X53740Y86614D02*
X54133Y87007D01*
X54920D01*
X55314Y86614D01*
Y85040D01*
X54920Y84646D01*
X54133D01*
X53740Y85040D01*
X51378Y84646D02*
X52952D01*
X51378Y86220D01*
Y86614D01*
X51772Y87007D01*
X52559D01*
X52952Y86614D01*
X49410Y84646D02*
Y87007D01*
X50591Y85827D01*
X49017D01*
X93897Y64173D02*
X94291Y64566D01*
X95078D01*
X95472Y64173D01*
Y62599D01*
X95078Y62205D01*
X94291D01*
X93897Y62599D01*
X93110Y62205D02*
X92323D01*
X92716D01*
Y64566D01*
X93110Y64173D01*
X89568Y62205D02*
X91142D01*
X89568Y63779D01*
Y64173D01*
X89961Y64566D01*
X90749D01*
X91142Y64173D01*
X125196Y88484D02*
X125590Y88878D01*
X126377D01*
X126771Y88484D01*
Y86910D01*
X126377Y86516D01*
X125590D01*
X125196Y86910D01*
X124409Y86516D02*
X123622D01*
X124016D01*
Y88878D01*
X124409Y88484D01*
X122441D02*
X122048Y88878D01*
X121261D01*
X120867Y88484D01*
Y86910D01*
X121261Y86516D01*
X122048D01*
X122441Y86910D01*
Y88484D01*
X64960Y50393D02*
Y48425D01*
X64566Y48032D01*
X63779D01*
X63386Y48425D01*
Y50393D01*
X61024D02*
X62599D01*
Y49213D01*
X61811Y49606D01*
X61418D01*
X61024Y49213D01*
Y48425D01*
X61418Y48032D01*
X62205D01*
X62599Y48425D01*
X144685Y120965D02*
Y123326D01*
X143504D01*
X143110Y122933D01*
Y122146D01*
X143504Y121752D01*
X144685D01*
X143897D02*
X143110Y120965D01*
X142323D02*
X141536D01*
X141929D01*
Y123326D01*
X142323Y122933D01*
X117520Y116044D02*
Y117618D01*
X117913Y118011D01*
X118700D01*
X119094Y117618D01*
Y116044D01*
X118700Y115650D01*
X117913D01*
X118307Y116437D02*
X117520Y115650D01*
X117913D02*
X117520Y116044D01*
X116733Y115650D02*
X115945D01*
X116339D01*
Y118011D01*
X116733Y117618D01*
X32283Y40945D02*
X32677Y41338D01*
X33464D01*
X33857Y40945D01*
Y39370D01*
X33464Y38977D01*
X32677D01*
X32283Y39370D01*
X29921Y38977D02*
X31496D01*
X29921Y40551D01*
Y40945D01*
X30315Y41338D01*
X31102D01*
X31496Y40945D01*
X27560Y41338D02*
X29134D01*
Y40157D01*
X28347Y40551D01*
X27954D01*
X27560Y40157D01*
Y39370D01*
X27954Y38977D01*
X28741D01*
X29134Y39370D01*
X53444Y79035D02*
X53838Y79429D01*
X54625D01*
X55019Y79035D01*
Y77461D01*
X54625Y77067D01*
X53838D01*
X53444Y77461D01*
X51083Y77067D02*
X52657D01*
X51083Y78642D01*
Y79035D01*
X51477Y79429D01*
X52264D01*
X52657Y79035D01*
X50296D02*
X49902Y79429D01*
X49115D01*
X48722Y79035D01*
Y78642D01*
X49115Y78248D01*
X49509D01*
X49115D01*
X48722Y77855D01*
Y77461D01*
X49115Y77067D01*
X49902D01*
X50296Y77461D01*
X116437Y79134D02*
X116830Y79527D01*
X117617D01*
X118011Y79134D01*
Y77559D01*
X117617Y77166D01*
X116830D01*
X116437Y77559D01*
X115649Y77166D02*
X114862D01*
X115256D01*
Y79527D01*
X115649Y79134D01*
X112107Y79527D02*
X113681D01*
Y78347D01*
X112894Y78740D01*
X112501D01*
X112107Y78347D01*
Y77559D01*
X112501Y77166D01*
X113288D01*
X113681Y77559D01*
D104*
X154347Y22089D02*
X155473D01*
X156035Y21526D01*
Y19275D01*
X155473Y18712D01*
X154347D01*
X153784Y19275D01*
Y21526D01*
X154347Y22089D01*
X151533Y17587D02*
X150970D01*
X150407Y18149D01*
Y20964D01*
X152096D01*
X152659Y20401D01*
Y19275D01*
X152096Y18712D01*
X150407D01*
X149282Y20964D02*
Y19275D01*
X148719Y18712D01*
X147030D01*
Y20964D01*
X145905D02*
X143654D01*
X145905Y18712D01*
X143654D01*
X139151Y22089D02*
Y18712D01*
Y19838D01*
X136900Y22089D01*
X138588Y20401D01*
X136900Y18712D01*
X135212Y20964D02*
X134086D01*
X133523Y20401D01*
Y18712D01*
X135212D01*
X135774Y19275D01*
X135212Y19838D01*
X133523D01*
X131835Y20964D02*
X130709D01*
X130146Y20401D01*
Y18712D01*
X131835D01*
X132397Y19275D01*
X131835Y19838D01*
X130146D01*
X129021Y18712D02*
Y20964D01*
X127332D01*
X126769Y20401D01*
Y18712D01*
X122267D02*
Y20964D01*
X121141Y22089D01*
X120016Y20964D01*
Y18712D01*
Y20401D01*
X122267D01*
X118890Y22089D02*
X116639D01*
X117764D01*
Y18712D01*
X115513D02*
Y20964D01*
X114388Y22089D01*
X113262Y20964D01*
Y18712D01*
Y20401D01*
X115513D01*
X112136Y22089D02*
Y21526D01*
X111011Y20401D01*
X109885Y21526D01*
Y22089D01*
X111011Y20401D02*
Y18712D01*
X154347Y27601D02*
X155473D01*
X156035Y27038D01*
Y24787D01*
X155473Y24224D01*
X154347D01*
X153784Y24787D01*
Y27038D01*
X154347Y27601D01*
X151533Y23098D02*
X150970D01*
X150407Y23661D01*
Y26475D01*
X152096D01*
X152659Y25912D01*
Y24787D01*
X152096Y24224D01*
X150407D01*
X149282Y26475D02*
Y24787D01*
X148719Y24224D01*
X147030D01*
Y26475D01*
X145905D02*
X143654D01*
X145905Y24224D01*
X143654D01*
X142528Y27601D02*
Y24224D01*
Y25912D01*
X141965Y26475D01*
X140840D01*
X140277Y25912D01*
Y24224D01*
X138588Y26475D02*
X137463D01*
X136900Y25912D01*
Y24224D01*
X138588D01*
X139151Y24787D01*
X138588Y25350D01*
X136900D01*
X135774Y24224D02*
Y26475D01*
X134086D01*
X133523Y25912D01*
Y24224D01*
X126769Y27601D02*
X129021D01*
Y24224D01*
X126769D01*
X129021Y25912D02*
X127895D01*
X123392Y27038D02*
X123955Y27601D01*
X125081D01*
X125644Y27038D01*
Y26475D01*
X125081Y25912D01*
X123955D01*
X123392Y25350D01*
Y24787D01*
X123955Y24224D01*
X125081D01*
X125644Y24787D01*
X120016Y27601D02*
X122267D01*
Y24224D01*
X120016D01*
X122267Y25912D02*
X121141D01*
X118890Y24224D02*
Y27601D01*
X116639Y24224D01*
Y27601D01*
D105*
X37993Y151377D02*
X39567D01*
Y150197D01*
X38780Y150590D01*
X38386D01*
X37993Y150197D01*
Y149409D01*
X38386Y149016D01*
X39173D01*
X39567Y149409D01*
X37205Y151377D02*
Y149803D01*
X36418Y149016D01*
X35631Y149803D01*
Y151377D01*
X58071Y150984D02*
X57677Y151377D01*
X56890D01*
X56497Y150984D01*
Y150590D01*
X56890Y150197D01*
X57284D01*
X56890D01*
X56497Y149803D01*
Y149409D01*
X56890Y149016D01*
X57677D01*
X58071Y149409D01*
X55709Y151377D02*
Y149803D01*
X54922Y149016D01*
X54135Y149803D01*
Y151377D01*
X53348Y150984D02*
X52954Y151377D01*
X52167D01*
X51774Y150984D01*
Y150590D01*
X52167Y150197D01*
X52561D01*
X52167D01*
X51774Y149803D01*
Y149409D01*
X52167Y149016D01*
X52954D01*
X53348Y149409D01*
X46654Y150197D02*
X45079D01*
X49705Y140847D02*
Y143208D01*
X48524D01*
X48130Y142814D01*
Y142027D01*
X48524Y141634D01*
X49705D01*
X47343Y143208D02*
Y140847D01*
X46163D01*
X45769Y141240D01*
Y141634D01*
X46163Y142027D01*
X47343D01*
X46163D01*
X45769Y142421D01*
Y142814D01*
X46163Y143208D01*
X47343D01*
X43408D02*
X44982D01*
Y142027D01*
X44195Y142421D01*
X43801D01*
X43408Y142027D01*
Y141240D01*
X43801Y140847D01*
X44588D01*
X44982Y141240D01*
X58366Y140847D02*
Y143208D01*
X57185D01*
X56792Y142814D01*
Y142027D01*
X57185Y141634D01*
X58366D01*
X56005Y143208D02*
Y140847D01*
X54824D01*
X54430Y141240D01*
Y141634D01*
X54824Y142027D01*
X56005D01*
X54824D01*
X54430Y142421D01*
Y142814D01*
X54824Y143208D01*
X56005D01*
X52463Y140847D02*
Y143208D01*
X53643Y142027D01*
X52069D01*
X39469Y142814D02*
X39863Y143208D01*
X40650D01*
X41043Y142814D01*
Y141240D01*
X40650Y140847D01*
X39863D01*
X39469Y141240D01*
Y142027D01*
X40256D01*
X38682Y140847D02*
Y143208D01*
X37108Y140847D01*
Y143208D01*
X36320D02*
Y140847D01*
X35140D01*
X34746Y141240D01*
Y142814D01*
X35140Y143208D01*
X36320D01*
M02*
