G04*
G04 #@! TF.GenerationSoftware,Altium Limited,Altium Designer,22.10.1 (41)*
G04*
G04 Layer_Color=8421504*
%FSLAX25Y25*%
%MOIN*%
G70*
G04*
G04 #@! TF.SameCoordinates,0245A464-56C0-4E7C-B2BA-3340792428E8*
G04*
G04*
G04 #@! TF.FilePolarity,Positive*
G04*
G01*
G75*
%ADD19R,0.03622X0.05433*%
%ADD20R,0.00984X0.02657*%
%ADD21R,0.02264X0.00984*%
%ADD22R,0.02756X0.05118*%
G04:AMPARAMS|DCode=23|XSize=51.58mil|YSize=20.87mil|CornerRadius=1.57mil|HoleSize=0mil|Usage=FLASHONLY|Rotation=180.000|XOffset=0mil|YOffset=0mil|HoleType=Round|Shape=RoundedRectangle|*
%AMROUNDEDRECTD23*
21,1,0.05158,0.01774,0,0,180.0*
21,1,0.04845,0.02087,0,0,180.0*
1,1,0.00313,-0.02422,0.00887*
1,1,0.00313,0.02422,0.00887*
1,1,0.00313,0.02422,-0.00887*
1,1,0.00313,-0.02422,-0.00887*
%
%ADD23ROUNDEDRECTD23*%
G04:AMPARAMS|DCode=24|XSize=51.58mil|YSize=20.87mil|CornerRadius=1.67mil|HoleSize=0mil|Usage=FLASHONLY|Rotation=180.000|XOffset=0mil|YOffset=0mil|HoleType=Round|Shape=RoundedRectangle|*
%AMROUNDEDRECTD24*
21,1,0.05158,0.01753,0,0,180.0*
21,1,0.04824,0.02087,0,0,180.0*
1,1,0.00334,-0.02412,0.00876*
1,1,0.00334,0.02412,0.00876*
1,1,0.00334,0.02412,-0.00876*
1,1,0.00334,-0.02412,-0.00876*
%
%ADD24ROUNDEDRECTD24*%
G04:AMPARAMS|DCode=25|XSize=19.29mil|YSize=13.78mil|CornerRadius=1.72mil|HoleSize=0mil|Usage=FLASHONLY|Rotation=270.000|XOffset=0mil|YOffset=0mil|HoleType=Round|Shape=RoundedRectangle|*
%AMROUNDEDRECTD25*
21,1,0.01929,0.01034,0,0,270.0*
21,1,0.01585,0.01378,0,0,270.0*
1,1,0.00345,-0.00517,-0.00792*
1,1,0.00345,-0.00517,0.00792*
1,1,0.00345,0.00517,0.00792*
1,1,0.00345,0.00517,-0.00792*
%
%ADD25ROUNDEDRECTD25*%
G04:AMPARAMS|DCode=26|XSize=19.29mil|YSize=13.78mil|CornerRadius=1.72mil|HoleSize=0mil|Usage=FLASHONLY|Rotation=180.000|XOffset=0mil|YOffset=0mil|HoleType=Round|Shape=RoundedRectangle|*
%AMROUNDEDRECTD26*
21,1,0.01929,0.01034,0,0,180.0*
21,1,0.01585,0.01378,0,0,180.0*
1,1,0.00345,-0.00792,0.00517*
1,1,0.00345,0.00792,0.00517*
1,1,0.00345,0.00792,-0.00517*
1,1,0.00345,-0.00792,-0.00517*
%
%ADD26ROUNDEDRECTD26*%
G04:AMPARAMS|DCode=27|XSize=34.25mil|YSize=10.63mil|CornerRadius=1.33mil|HoleSize=0mil|Usage=FLASHONLY|Rotation=90.000|XOffset=0mil|YOffset=0mil|HoleType=Round|Shape=RoundedRectangle|*
%AMROUNDEDRECTD27*
21,1,0.03425,0.00797,0,0,90.0*
21,1,0.03160,0.01063,0,0,90.0*
1,1,0.00266,0.00399,0.01580*
1,1,0.00266,0.00399,-0.01580*
1,1,0.00266,-0.00399,-0.01580*
1,1,0.00266,-0.00399,0.01580*
%
%ADD27ROUNDEDRECTD27*%
G04:AMPARAMS|DCode=28|XSize=34.25mil|YSize=10.63mil|CornerRadius=1.33mil|HoleSize=0mil|Usage=FLASHONLY|Rotation=180.000|XOffset=0mil|YOffset=0mil|HoleType=Round|Shape=RoundedRectangle|*
%AMROUNDEDRECTD28*
21,1,0.03425,0.00797,0,0,180.0*
21,1,0.03160,0.01063,0,0,180.0*
1,1,0.00266,-0.01580,0.00399*
1,1,0.00266,0.01580,0.00399*
1,1,0.00266,0.01580,-0.00399*
1,1,0.00266,-0.01580,-0.00399*
%
%ADD28ROUNDEDRECTD28*%
%ADD29R,0.07480X0.09449*%
%ADD30R,0.03937X0.07087*%
%ADD31R,0.05433X0.03622*%
%ADD32R,0.05118X0.02756*%
%ADD33R,0.05906X0.03937*%
%ADD34R,0.12598X0.06772*%
G36*
X96417Y82244D02*
Y75236D01*
X89409D01*
Y82244D01*
X96417D01*
D02*
G37*
G36*
Y93268D02*
Y86260D01*
X89409D01*
Y93268D01*
X96417D01*
D02*
G37*
G36*
X107441Y82244D02*
Y75236D01*
X100433D01*
Y82244D01*
X107441D01*
D02*
G37*
G36*
Y93268D02*
Y86260D01*
X100433D01*
Y93268D01*
X107441D01*
D02*
G37*
D19*
X146890Y26772D02*
D03*
X139370D02*
D03*
X11594Y31496D02*
D03*
X19114D02*
D03*
X11201Y38583D02*
D03*
X18721D02*
D03*
X24980Y31102D02*
D03*
X32500D02*
D03*
X45236Y134646D02*
D03*
X52756D02*
D03*
X32500Y38583D02*
D03*
X24980D02*
D03*
D20*
X43898Y104971D02*
D03*
Y92667D02*
D03*
X45866D02*
D03*
X47835D02*
D03*
X49803D02*
D03*
X51772D02*
D03*
X53740D02*
D03*
X55709D02*
D03*
X57677D02*
D03*
X59646D02*
D03*
X61614D02*
D03*
Y104971D02*
D03*
X59646D02*
D03*
X57677D02*
D03*
X55709D02*
D03*
X53740D02*
D03*
X51772D02*
D03*
X49803D02*
D03*
X47835D02*
D03*
X45866D02*
D03*
D21*
X43652Y101772D02*
D03*
Y99803D02*
D03*
Y97835D02*
D03*
Y95866D02*
D03*
X61860D02*
D03*
Y97835D02*
D03*
Y99803D02*
D03*
Y101772D02*
D03*
D22*
X50984Y122835D02*
D03*
X58465D02*
D03*
X126772Y112205D02*
D03*
X119291D02*
D03*
X127559Y26772D02*
D03*
X120079D02*
D03*
X49803Y86614D02*
D03*
X57284D02*
D03*
X39173Y122835D02*
D03*
X46654D02*
D03*
X148228Y78347D02*
D03*
X140748D02*
D03*
X86811Y35039D02*
D03*
X94291D02*
D03*
X126181Y89370D02*
D03*
X133661D02*
D03*
X133661Y82284D02*
D03*
X126181D02*
D03*
X106496Y35039D02*
D03*
X99016D02*
D03*
X87598Y112205D02*
D03*
X95079D02*
D03*
X87598Y119685D02*
D03*
X95079D02*
D03*
X63189Y67716D02*
D03*
X70669D02*
D03*
X106890Y57087D02*
D03*
X114370D02*
D03*
X106890Y63386D02*
D03*
X114370D02*
D03*
D23*
X127559Y33268D02*
D03*
D24*
X118110D02*
D03*
X127559Y38189D02*
D03*
Y43110D02*
D03*
Y48031D02*
D03*
X118110D02*
D03*
Y43110D02*
D03*
Y38189D02*
D03*
D25*
X126378Y74252D02*
D03*
X128347D02*
D03*
X130315D02*
D03*
Y64331D02*
D03*
X128347D02*
D03*
X126378D02*
D03*
D26*
X133307Y73228D02*
D03*
Y71260D02*
D03*
Y69291D02*
D03*
Y67323D02*
D03*
Y65354D02*
D03*
X123386D02*
D03*
Y67323D02*
D03*
Y69291D02*
D03*
Y71260D02*
D03*
Y73228D02*
D03*
D27*
X87598Y97756D02*
D03*
X89567D02*
D03*
X91535D02*
D03*
X93504D02*
D03*
X95472D02*
D03*
X97441D02*
D03*
X99409D02*
D03*
X101378D02*
D03*
X103347D02*
D03*
X105315D02*
D03*
X107283D02*
D03*
X109252D02*
D03*
Y70748D02*
D03*
X107283D02*
D03*
X105315D02*
D03*
X103347D02*
D03*
X101378D02*
D03*
X99409D02*
D03*
X97441D02*
D03*
X95472D02*
D03*
X93504D02*
D03*
X91535D02*
D03*
X89567D02*
D03*
X87598D02*
D03*
D28*
X84921Y73425D02*
D03*
Y75394D02*
D03*
Y77362D02*
D03*
Y79331D02*
D03*
Y81299D02*
D03*
Y83268D02*
D03*
Y85236D02*
D03*
Y87205D02*
D03*
Y89173D02*
D03*
Y91142D02*
D03*
Y93110D02*
D03*
Y95079D02*
D03*
X111929D02*
D03*
Y93110D02*
D03*
Y91142D02*
D03*
Y89173D02*
D03*
Y87205D02*
D03*
Y85236D02*
D03*
Y83268D02*
D03*
Y81299D02*
D03*
Y79331D02*
D03*
Y77362D02*
D03*
Y75394D02*
D03*
Y73425D02*
D03*
D29*
X88386Y46063D02*
D03*
X104527D02*
D03*
D30*
X43898Y113386D02*
D03*
X53740D02*
D03*
D31*
X36220Y95098D02*
D03*
Y87579D02*
D03*
D32*
X28346Y99803D02*
D03*
Y107283D02*
D03*
X36220Y99803D02*
D03*
Y107283D02*
D03*
X70473Y73425D02*
D03*
Y80905D02*
D03*
X63779Y73425D02*
D03*
Y80905D02*
D03*
X131890Y95079D02*
D03*
Y102559D02*
D03*
X124016Y95079D02*
D03*
Y102559D02*
D03*
D33*
X25870Y146457D02*
D03*
X52870D02*
D03*
D34*
X43307Y46831D02*
D03*
Y72067D02*
D03*
M02*
