G04*
G04 #@! TF.GenerationSoftware,Altium Limited,Altium Designer,22.10.1 (41)*
G04*
G04 Layer_Color=128*
%FSLAX25Y25*%
%MOIN*%
G70*
G04*
G04 #@! TF.SameCoordinates,0245A464-56C0-4E7C-B2BA-3340792428E8*
G04*
G04*
G04 #@! TF.FilePolarity,Positive*
G04*
G01*
G75*
%ADD107C,0.00200*%
D107*
X102342Y5118D02*
X105886D01*
X104114Y3347D02*
Y6890D01*
X92343Y5118D02*
X95886D01*
X94114Y3347D02*
Y6890D01*
X82342Y5118D02*
X85886D01*
X84114Y3347D02*
Y6890D01*
X72342Y5118D02*
X75886D01*
X74114Y3347D02*
Y6890D01*
X62343Y5118D02*
X65886D01*
X64114Y3347D02*
Y6890D01*
X52342Y5118D02*
X55886D01*
X54114Y3347D02*
Y6890D01*
X52342Y15118D02*
X55886D01*
X54114Y13347D02*
Y16890D01*
X62343Y15118D02*
X65886D01*
X64114Y13347D02*
Y16890D01*
X72342Y15118D02*
X75886D01*
X74114Y13347D02*
Y16890D01*
X82342Y15118D02*
X85886D01*
X84114Y13347D02*
Y16890D01*
X92343Y15118D02*
X95886D01*
X94114Y13347D02*
Y16890D01*
X102342Y15118D02*
X105886D01*
X104114Y13347D02*
Y16890D01*
X102342Y25118D02*
X105886D01*
X104114Y23347D02*
Y26890D01*
X92343Y25118D02*
X95886D01*
X94114Y23347D02*
Y26890D01*
X82342Y25118D02*
X85886D01*
X84114Y23347D02*
Y26890D01*
X72342Y25118D02*
X75886D01*
X74114Y23347D02*
Y26890D01*
X62343Y25118D02*
X65886D01*
X64114Y23347D02*
Y26890D01*
X52342Y25118D02*
X55886D01*
X54114Y23347D02*
Y26890D01*
X3543Y9843D02*
X16142D01*
X9843Y3543D02*
Y16142D01*
X21457Y9055D02*
X25000D01*
X23228Y7283D02*
Y10827D01*
X31457Y9055D02*
X35000D01*
X33228Y7283D02*
Y10827D01*
X141339Y9843D02*
X153937D01*
X147638Y3543D02*
Y16142D01*
X140945Y147638D02*
X153543D01*
X147244Y141339D02*
Y153937D01*
X3543Y147638D02*
X16142D01*
X9843Y141339D02*
Y153937D01*
X16339Y55748D02*
X19882D01*
X18110Y53976D02*
Y57520D01*
X16339Y65748D02*
X19882D01*
X18110Y63976D02*
Y67520D01*
X145866Y96811D02*
X149409D01*
X147638Y95039D02*
Y98583D01*
X145866Y106811D02*
X149409D01*
X147638Y105039D02*
Y108583D01*
X145866Y116811D02*
X149409D01*
X147638Y115039D02*
Y118583D01*
X145866Y126811D02*
X149409D01*
X147638Y125039D02*
Y128583D01*
X8760Y120079D02*
X10925D01*
X9843Y118996D02*
Y121161D01*
X8760Y115157D02*
X10925D01*
X9843Y114075D02*
Y116240D01*
X8760Y110236D02*
X10925D01*
X9843Y109153D02*
Y111319D01*
X8760Y105315D02*
X10925D01*
X9843Y104232D02*
Y106398D01*
X8760Y100394D02*
X10925D01*
X9843Y99311D02*
Y101476D01*
X146555Y43110D02*
X148721D01*
X147638Y42028D02*
Y44193D01*
X146555Y48031D02*
X148721D01*
X147638Y46949D02*
Y49114D01*
X146555Y52953D02*
X148721D01*
X147638Y51870D02*
Y54035D01*
X146555Y57874D02*
X148721D01*
X147638Y56791D02*
Y58957D01*
X146555Y62795D02*
X148721D01*
X147638Y61713D02*
Y63878D01*
X105512Y135433D02*
X108661D01*
X107087Y133858D02*
Y137008D01*
X125197Y135433D02*
X128347D01*
X126772Y133858D02*
Y137008D01*
X86772Y149488D02*
X90709D01*
X88740Y147520D02*
Y151457D01*
X76772Y149488D02*
X80709D01*
X78740Y147520D02*
Y151457D01*
X66772Y149488D02*
X70709D01*
X68740Y147520D02*
Y151457D01*
X66772Y139488D02*
X70709D01*
X68740Y137520D02*
Y141457D01*
X76772Y139488D02*
X80709D01*
X78740Y137520D02*
Y141457D01*
X86772Y139488D02*
X90709D01*
X88740Y137520D02*
Y141457D01*
X138681Y33465D02*
X140059D01*
X139370Y32776D02*
Y34154D01*
X115256Y87205D02*
X116634D01*
X115945Y86516D02*
Y87894D01*
X117815Y88961D02*
X119193D01*
X118504Y88272D02*
Y89650D01*
X58614Y41587D02*
X59992D01*
X59303Y40898D02*
Y42276D01*
X58614Y59055D02*
X59992D01*
X59303Y58366D02*
Y59744D01*
X59528Y67716D02*
X60945D01*
X60236Y67008D02*
Y68425D01*
X73327Y49606D02*
X74705D01*
X74016Y48917D02*
Y50295D01*
X78445Y49606D02*
X79823D01*
X79134Y48917D02*
Y50295D01*
X71358Y61811D02*
X72736D01*
X72047Y61122D02*
Y62500D01*
X66634Y67716D02*
X68012D01*
X67323Y67028D02*
Y68405D01*
X114252Y117717D02*
X115669D01*
X114961Y117008D02*
Y118425D01*
X98504Y119319D02*
X99921D01*
X99213Y118610D02*
Y120027D01*
X119668Y66979D02*
X121046D01*
X120357Y66290D02*
Y67668D01*
X119918Y69831D02*
X121295D01*
X120607Y69142D02*
Y70520D01*
X115505Y64936D02*
X116922D01*
X116214Y64228D02*
Y65645D01*
X117323Y71040D02*
X118701D01*
X118012Y70351D02*
Y71729D01*
X115153Y75046D02*
X116531D01*
X115842Y74357D02*
Y75735D01*
X67421Y49606D02*
X68799D01*
X68110Y48917D02*
Y50295D01*
X90650Y62598D02*
X92027D01*
X91339Y61910D02*
Y63287D01*
X80201Y76975D02*
X81579D01*
X80890Y76286D02*
Y77664D01*
X20768Y71260D02*
X22146D01*
X21457Y70571D02*
Y71949D01*
X47343Y32087D02*
X48720D01*
X48031Y31398D02*
Y32776D01*
X62303Y50000D02*
X63681D01*
X62992Y49311D02*
Y50689D01*
X93118Y46063D02*
X94496D01*
X93807Y45374D02*
Y46752D01*
X112237Y68438D02*
X113615D01*
X112926Y67749D02*
Y69127D01*
X115830Y77827D02*
X117208D01*
X116519Y77138D02*
Y78516D01*
X115256Y81087D02*
X116634D01*
X115945Y80398D02*
Y81776D01*
X121949Y92020D02*
X123327D01*
X122638Y91331D02*
Y92709D01*
X99598Y55118D02*
X100976D01*
X100287Y54429D02*
Y55807D01*
X109115Y66628D02*
X110493D01*
X109804Y65939D02*
Y67317D01*
X118386Y57480D02*
X119803D01*
X119095Y56772D02*
Y58189D01*
X122488Y82217D02*
X123905D01*
X123196Y81508D02*
Y82926D01*
X117968Y82677D02*
X119346D01*
X118658Y81988D02*
Y83366D01*
X129213Y86732D02*
X130630D01*
X129921Y86024D02*
Y87441D01*
X122121Y88976D02*
X123498D01*
X122810Y88287D02*
Y89665D01*
X132185Y53740D02*
X133563D01*
X132874Y53051D02*
Y54429D01*
X111516Y38189D02*
X112894D01*
X112205Y37500D02*
Y38878D01*
X111713Y43110D02*
X113091D01*
X112402Y42421D02*
Y43799D01*
X128051Y68110D02*
X129429D01*
X128740Y67421D02*
Y68799D01*
X123721Y59842D02*
X125098D01*
X124409Y59153D02*
Y60532D01*
X127244Y102559D02*
X128661D01*
X127953Y101850D02*
Y103268D01*
X130020Y114173D02*
X131398D01*
X130709Y113484D02*
Y114862D01*
X112205Y99902D02*
X113583D01*
X112894Y99213D02*
Y100591D01*
X102854Y61811D02*
X104232D01*
X103543Y61122D02*
Y62500D01*
X131575Y29921D02*
X132992D01*
X132283Y29213D02*
Y30630D01*
X35512Y103543D02*
X36929D01*
X36220Y102835D02*
Y104252D01*
X87874Y103543D02*
X89291D01*
X88583Y102835D02*
Y104252D01*
X97736Y110449D02*
X99114D01*
X98425Y109760D02*
Y111138D01*
X43602Y82087D02*
X44980D01*
X44291Y81398D02*
Y82776D01*
X52854Y81890D02*
X54232D01*
X53543Y81201D02*
Y82579D01*
X59777Y86385D02*
X61155D01*
X60466Y85696D02*
Y87074D01*
X97342Y47638D02*
X98721D01*
X98032Y46949D02*
Y48327D01*
X135512Y75984D02*
X136929D01*
X136221Y75276D02*
Y76693D01*
X12697Y50394D02*
X14075D01*
X13386Y49705D02*
Y51083D01*
X12303Y42520D02*
X13681D01*
X12992Y41831D02*
Y43209D01*
X12303Y46457D02*
X13681D01*
X12992Y45768D02*
Y47146D01*
X8760Y42520D02*
X10138D01*
X9449Y41831D02*
Y43209D01*
X8760Y46457D02*
X10138D01*
X9449Y45768D02*
Y47146D01*
X8760Y50394D02*
X10138D01*
X9449Y49705D02*
Y51083D01*
X92427Y103275D02*
X93805D01*
X93116Y102586D02*
Y103964D01*
X98110Y31102D02*
X99528D01*
X98819Y30394D02*
Y31811D01*
X115039Y26378D02*
X116457D01*
X115748Y25669D02*
Y27087D01*
X132004Y38403D02*
X133421D01*
X132712Y37694D02*
Y39111D01*
X131968Y43307D02*
X133386D01*
X132677Y42598D02*
Y44016D01*
X135512Y82677D02*
X136929D01*
X136221Y81968D02*
Y83386D01*
X135512Y69291D02*
X136929D01*
X136221Y68583D02*
Y70000D01*
X25276Y150394D02*
X26693D01*
X25984Y149685D02*
Y151102D01*
X48110Y122835D02*
X49528D01*
X48819Y122126D02*
Y123543D01*
X31575Y107283D02*
X32992D01*
X32283Y106575D02*
Y107992D01*
X51063Y98819D02*
X52480D01*
X51772Y98110D02*
Y99528D01*
X69390Y78347D02*
X70768D01*
X70079Y77658D02*
Y79035D01*
X80232Y91339D02*
X81610D01*
X80921Y90650D02*
Y92027D01*
X80232Y94201D02*
X81610D01*
X80921Y93512D02*
Y94890D01*
X68602Y83965D02*
X69980D01*
X69291Y83276D02*
Y84654D01*
X74508Y81496D02*
X75886D01*
X75197Y80807D02*
Y82185D01*
X63091Y83236D02*
X64468D01*
X63779Y82547D02*
Y83925D01*
X52441Y88189D02*
X53858D01*
X53150Y87480D02*
Y88898D01*
X76870Y77140D02*
X78248D01*
X77559Y76451D02*
Y77829D01*
X63484Y87008D02*
X64862D01*
X64173Y86319D02*
Y87697D01*
X98933Y107480D02*
X100311D01*
X99622Y106791D02*
Y108169D01*
X101903Y109678D02*
X103281D01*
X102592Y108989D02*
Y110367D01*
X104429Y107874D02*
X105807D01*
X105118Y107185D02*
Y108563D01*
X92618Y127165D02*
X93996D01*
X93307Y126476D02*
Y127854D01*
X136299Y94882D02*
X137716D01*
X137008Y94173D02*
Y95591D01*
X118602Y106693D02*
X119980D01*
X119291Y106004D02*
Y107382D01*
X111122Y108661D02*
X112500D01*
X111811Y107973D02*
Y109350D01*
X93405Y41732D02*
X94784D01*
X94095Y41043D02*
Y42421D01*
X86693Y124803D02*
X88110D01*
X87402Y124094D02*
Y125512D01*
X77051Y119685D02*
X78429D01*
X77740Y118996D02*
Y120374D01*
X39462Y82658D02*
X40879D01*
X40171Y81950D02*
Y83367D01*
X75669Y111024D02*
X77087D01*
X76378Y110315D02*
Y111732D01*
X70177Y112598D02*
X71555D01*
X70866Y111909D02*
Y113287D01*
X60728Y116142D02*
X62106D01*
X61417Y115453D02*
Y116831D01*
X66240Y120472D02*
X67618D01*
X66929Y119783D02*
Y121161D01*
X107185Y111417D02*
X108563D01*
X107874Y110728D02*
Y112106D01*
X58366Y134646D02*
X59744D01*
X59055Y133957D02*
Y135335D01*
X111122Y103543D02*
X112500D01*
X111811Y102854D02*
Y104232D01*
X110539Y52362D02*
X111957D01*
X111248Y51653D02*
Y53071D01*
X111516Y33465D02*
X112894D01*
X112205Y32776D02*
Y34154D01*
X44567Y128740D02*
X45984D01*
X45276Y128032D02*
Y129449D01*
X50866Y40945D02*
X52284D01*
X51575Y40236D02*
Y41653D01*
X50886Y34646D02*
X52264D01*
X51575Y33957D02*
Y35335D01*
X47736Y34646D02*
X49114D01*
X48425Y33957D02*
Y35335D01*
X50886Y37795D02*
X52264D01*
X51575Y37106D02*
Y38484D01*
X47736Y37795D02*
X49114D01*
X48425Y37106D02*
Y38484D01*
X26083Y71653D02*
X27461D01*
X26772Y70965D02*
Y72342D01*
X15846Y71653D02*
X17224D01*
X16535Y70965D02*
Y72342D01*
X15846Y75197D02*
X17224D01*
X16535Y74508D02*
Y75886D01*
X20965Y75197D02*
X22343D01*
X21654Y74508D02*
Y75886D01*
X26083Y75197D02*
X27461D01*
X26772Y74508D02*
Y75886D01*
M02*
