G04*
G04 #@! TF.GenerationSoftware,Altium Limited,Altium Designer,22.10.1 (41)*
G04*
G04 Layer_Physical_Order=3*
G04 Layer_Color=128*
%FSLAX25Y25*%
%MOIN*%
G70*
G04*
G04 #@! TF.SameCoordinates,0245A464-56C0-4E7C-B2BA-3340792428E8*
G04*
G04*
G04 #@! TF.FilePolarity,Negative*
G04*
G01*
G75*
%ADD17C,0.01575*%
%ADD21R,0.02264X0.00984*%
%ADD75C,0.04000*%
G04:AMPARAMS|DCode=76|XSize=85.433mil|YSize=85.433mil|CornerRadius=0mil|HoleSize=0mil|Usage=FLASHONLY|Rotation=0.000|XOffset=0mil|YOffset=0mil|HoleType=Round|Shape=Relief|Width=30mil|Gap=10mil|Entries=4|*
%AMTHD76*
7,0,0,0.08543,0.06543,0.03000,45*
%
%ADD76THD76*%
%ADD77C,0.09543*%
%ADD78C,0.18598*%
%ADD79C,0.08165*%
G04:AMPARAMS|DCode=80|XSize=71.653mil|YSize=71.653mil|CornerRadius=0mil|HoleSize=0mil|Usage=FLASHONLY|Rotation=0.000|XOffset=0mil|YOffset=0mil|HoleType=Round|Shape=Relief|Width=30mil|Gap=10mil|Entries=4|*
%AMTHD80*
7,0,0,0.07165,0.05165,0.03000,45*
%
%ADD80THD80*%
%ADD81C,0.09150*%
%ADD82C,0.09937*%
G04:AMPARAMS|DCode=83|XSize=89.37mil|YSize=89.37mil|CornerRadius=0mil|HoleSize=0mil|Usage=FLASHONLY|Rotation=0.000|XOffset=0mil|YOffset=0mil|HoleType=Round|Shape=Relief|Width=30mil|Gap=10mil|Entries=4|*
%AMTHD83*
7,0,0,0.08937,0.06937,0.03000,45*
%
%ADD83THD83*%
%ADD84C,0.07378*%
%ADD85C,0.07417*%
%ADD86R,0.01280X0.01083*%
%ADD87R,0.01968X0.01673*%
%ADD88R,0.01968X0.01968*%
%ADD89R,0.02362X0.02264*%
%ADD90R,0.03543X0.03051*%
%ADD91R,0.02067X0.01968*%
%ADD92R,0.03248X0.01772*%
%ADD93R,0.04921X0.04331*%
%ADD94R,0.01575X0.02854*%
%ADD95R,0.02165X0.01870*%
%ADD96R,0.04921X0.04134*%
%ADD97R,0.05315X0.05906*%
D17*
X37194Y11035D02*
X105304D01*
X4921Y43307D02*
X37194Y11035D01*
X132984D02*
X153150Y31201D01*
X105304Y11035D02*
X132984D01*
X103347Y23031D02*
X104134Y23819D01*
X32480Y37598D02*
X47047Y23031D01*
X103347D01*
X32480Y37598D02*
Y116142D01*
X131102Y23819D02*
X141732Y34449D01*
X104134Y23819D02*
X131102D01*
X141732Y34449D02*
Y45276D01*
X4921Y123425D02*
X9843Y128346D01*
X4921Y77756D02*
Y123425D01*
X144685Y48228D02*
X150591D01*
X153150Y45669D01*
Y31201D02*
Y45669D01*
X141732Y45276D02*
X144685Y48228D01*
X32480Y125000D02*
X51181Y143701D01*
X71653D01*
X74410Y146457D01*
Y152362D01*
X72835Y153937D02*
X74410Y152362D01*
X35433Y153937D02*
X72835D01*
X9843Y128346D02*
X35433Y153937D01*
X32480Y116142D02*
Y125000D01*
X4921Y43307D02*
Y77756D01*
D21*
X155463Y143602D02*
D03*
D75*
X152480Y0D02*
G03*
X157480Y5000I0J5000D01*
G01*
Y152480D02*
G03*
X152480Y157480I-5000J0D01*
G01*
X5000D02*
G03*
X0Y152480I0J-5000D01*
G01*
Y3937D02*
G03*
X3937Y0I3937J0D01*
G01*
X152480D01*
X157480Y5000D02*
Y152480D01*
X5000Y157480D02*
X152480D01*
X0Y3937D02*
Y152480D01*
D76*
X54114Y15118D02*
D03*
X64114D02*
D03*
X74114D02*
D03*
X84114D02*
D03*
X94114D02*
D03*
X104114D02*
D03*
X23228Y9055D02*
D03*
X18110Y65748D02*
D03*
X147638Y96811D02*
D03*
D77*
X104114Y5118D02*
D03*
X94114D02*
D03*
X84114D02*
D03*
X74114D02*
D03*
X64114D02*
D03*
X54114D02*
D03*
X104114Y25118D02*
D03*
X94114D02*
D03*
X84114D02*
D03*
X74114D02*
D03*
X64114D02*
D03*
X54114D02*
D03*
X33228Y9055D02*
D03*
X18110Y55748D02*
D03*
X147638Y106811D02*
D03*
Y116811D02*
D03*
Y126811D02*
D03*
D78*
X9843Y9843D02*
D03*
X147638D02*
D03*
X147244Y147638D02*
D03*
X9843D02*
D03*
D79*
Y115157D02*
D03*
Y110236D02*
D03*
Y105315D02*
D03*
Y100394D02*
D03*
X147638Y48031D02*
D03*
Y52953D02*
D03*
Y57874D02*
D03*
Y62795D02*
D03*
D80*
X9843Y120079D02*
D03*
X147638Y43110D02*
D03*
D81*
X107087Y135433D02*
D03*
X126772D02*
D03*
D82*
X78740Y149488D02*
D03*
X68740Y139488D02*
D03*
X78740D02*
D03*
X88740Y139488D02*
D03*
D83*
Y149488D02*
D03*
X68740D02*
D03*
D84*
X139370Y33465D02*
D03*
X115945Y87205D02*
D03*
X118504Y88961D02*
D03*
X59303Y41587D02*
D03*
Y59055D02*
D03*
X74016Y49606D02*
D03*
X79134D02*
D03*
X72047Y61811D02*
D03*
X67323Y67716D02*
D03*
X120357Y66979D02*
D03*
X120607Y69831D02*
D03*
X118012Y71040D02*
D03*
X115842Y75046D02*
D03*
X68110Y49606D02*
D03*
X91339Y62598D02*
D03*
X80890Y76975D02*
D03*
X62992Y50000D02*
D03*
X93807Y46063D02*
D03*
X112926Y68438D02*
D03*
X116519Y77827D02*
D03*
X115945Y81087D02*
D03*
X122638Y92020D02*
D03*
X100287Y55118D02*
D03*
X109804Y66628D02*
D03*
X118658Y82677D02*
D03*
X122810Y88976D02*
D03*
X132874Y53740D02*
D03*
X112205Y38189D02*
D03*
X112402Y43110D02*
D03*
X128740Y68110D02*
D03*
X124409Y59842D02*
D03*
X130709Y114173D02*
D03*
X112894Y99902D02*
D03*
X103543Y61811D02*
D03*
X98425Y110449D02*
D03*
X44291Y82087D02*
D03*
X53543Y81890D02*
D03*
X60466Y86385D02*
D03*
X98032Y47638D02*
D03*
X13386Y50394D02*
D03*
X12992Y42520D02*
D03*
Y46457D02*
D03*
X9449Y42520D02*
D03*
Y46457D02*
D03*
Y50394D02*
D03*
X93116Y103275D02*
D03*
X70079Y78347D02*
D03*
X80921Y91339D02*
D03*
Y94201D02*
D03*
X69291Y83965D02*
D03*
X75197Y81496D02*
D03*
X63779Y83236D02*
D03*
X77559Y77140D02*
D03*
X64173Y87008D02*
D03*
X99622Y107480D02*
D03*
X102592Y109678D02*
D03*
X105118Y107874D02*
D03*
X93307Y127165D02*
D03*
X119291Y106693D02*
D03*
X111811Y108661D02*
D03*
X94095Y41732D02*
D03*
X77740Y119685D02*
D03*
X70866Y112598D02*
D03*
X61417Y116142D02*
D03*
X66929Y120472D02*
D03*
X107874Y111417D02*
D03*
X59055Y134646D02*
D03*
X111811Y103543D02*
D03*
X112205Y33465D02*
D03*
D85*
X114961Y117717D02*
D03*
X99213Y119319D02*
D03*
X116214Y64936D02*
D03*
X119095Y57480D02*
D03*
X127953Y102559D02*
D03*
X88583Y103543D02*
D03*
X136221Y75984D02*
D03*
X98819Y31102D02*
D03*
X115748Y26378D02*
D03*
X132712Y38403D02*
D03*
X132677Y43307D02*
D03*
X136221Y82677D02*
D03*
Y69291D02*
D03*
X25984Y150394D02*
D03*
X48819Y122835D02*
D03*
X32283Y107283D02*
D03*
X51772Y98819D02*
D03*
X53150Y88189D02*
D03*
X76378Y111024D02*
D03*
D86*
X141683Y155069D02*
D03*
D87*
X155315Y142274D02*
D03*
D88*
X155020Y15846D02*
D03*
D89*
X155512Y4675D02*
D03*
D90*
X154331Y2707D02*
D03*
D91*
X141585Y1969D02*
D03*
D92*
X16191Y2165D02*
D03*
D93*
X2953Y3150D02*
D03*
D94*
X1969Y15305D02*
D03*
D95*
X15551Y155364D02*
D03*
D96*
X2756Y154134D02*
D03*
D97*
X154429Y154626D02*
D03*
M02*
